<?xml version="1.0" encoding="utf-8" ?>
<svg xmlns="http://www.w3.org/2000/svg" xmlns:xlink="http://www.w3.org/1999/xlink" width="1024" height="1024">
	<path fill="#BEBDBC" d="M792.364 816.092Q792.776 826.667 792.378 837.242Q791.98 847.818 790.775 858.332C786.63 893.574 773.129 929.098 744.414 951.538C702.904 983.976 645.472 976.031 597.26 967.739Q561.766 961.556 526.545 953.97C500.63 948.633 473.89 942.186 447.257 945.094C392.898 951.03 330.674 991.939 278.643 985.546C249.833 982.006 221.248 964.275 203.623 941.489C193.864 928.871 186.954 914.754 182.396 899.511C169.147 855.202 181.548 818.58 187.254 774.766C189.986 753.794 188.993 732.301 179.064 713.203Q176.552 708.471 173.471 704.089Q170.39 699.707 166.787 695.742C159.385 687.575 150.559 680.481 142.09 673.46C124.489 658.868 106.041 645.231 88.7382 630.308Q79.9272 622.638 71.9037 614.149Q63.8802 605.659 56.7202 596.429C45.58 581.875 36.6264 564.66 35.5596 546.05C32.9784 501.02 80.0243 443.522 104.194 407.172C115.271 390.512 126.825 372.703 131.057 352.88C140.112 310.475 109.308 286.136 114.534 248.094C121.997 193.761 202.13 127.38 243.752 95.7005C265.501 79.1473 307.985 48.176 334.138 44.0059C367.15 38.7422 415.875 73.1409 443.283 90.144Q467.242 104.882 491.363 119.355C508.318 129.506 534.203 146.966 554.555 144.36C574.04 141.864 593.127 126.97 609.174 116.436C656.276 85.5156 712.334 52.0288 771.122 60.1973C797.948 63.9246 822.84 75.0751 842.731 93.5512C876.257 124.693 884.425 170.129 881.077 213.922C879.576 233.553 876.095 253.004 875.359 272.697Q875.011 280.477 875.243 288.262Q875.475 296.047 876.285 303.792Q877.095 311.538 878.479 319.202Q879.864 326.866 881.814 334.406C895.521 387.205 930.881 427.266 962.933 469.756C977.452 489.004 990.711 510.235 987.014 535.425C982.092 568.97 932.267 603.675 906.582 622.598Q886.224 637.619 865.574 652.237C854.092 660.255 842.409 667.872 831.216 676.31C826.99 670.372 820.423 665.217 815.295 660.01C810.266 654.902 805.781 649.286 801.204 643.777Q839.749 639.378 877.921 632.456C868.026 608.089 857.651 583.758 849.416 558.774C853.3 545.598 856.291 532.032 859.546 518.678L876.418 449.416C878.034 442.849 879.635 436.237 881.628 429.773C883.381 424.085 886.102 418.034 886.875 412.131C887.461 407.661 885.461 403.708 882.688 400.342C869.216 383.986 840.801 376.286 821.016 370.231C813.553 367.948 805.79 365.062 797.989 364.335L797.997 358.282L797.996 336.815C797.055 333.587 797.674 329.843 798.059 326.56C797.722 308.109 798.627 276.279 793.028 259.248C786.615 239.742 766.27 222.162 748.481 213.159C748.346 213.149 748.21 213.142 748.075 213.129C741.848 212.541 730.264 207.952 723.606 206.212Q711.674 203.077 699.507 201.03Q687.341 198.983 675.039 198.042C612.227 193.028 549.063 199.309 486.173 199.542C466.337 199.615 446.413 199.883 426.592 199.218C385.618 197.843 339.016 194.628 298.631 200.984C283.837 203.312 271.201 209.67 259.584 219.008C240.502 234.346 226.862 252.576 224.175 277.432C223.139 287.014 223.534 296.741 223.463 306.368C223.398 315.143 222.936 323.89 223.007 332.672C223.525 336.733 223.462 340.777 223.448 344.86Q223.577 355.306 223.461 365.752C201.149 369.556 155.86 383.005 142.217 401.565C139.708 404.978 138.266 408.197 138.932 412.467C139.979 419.18 142.307 426.126 144.08 432.715Q148.927 450.498 153.493 468.356Q160.975 497.227 167.614 526.303C170.118 537.465 172.204 548.724 174.731 559.874C165.953 583.542 157.284 607.374 148.065 630.87C171.608 636.458 196.177 638.441 220.063 642.322L219.877 645.474C214.114 656.039 211.778 731.466 212.575 747.351Q212.737 751.061 213.332 754.726Q213.926 758.391 214.946 761.962C222.058 786.337 244.576 803.402 265.992 814.96C308.205 837.742 357.176 848.698 404.473 854.19Q433.307 857.747 462.33 859.056Q491.354 860.364 520.391 859.416C582.063 857.079 643.41 846.181 703.878 834.425Q733.235 828.729 762.508 822.621C772.418 820.541 782.599 818.761 792.364 816.092Z"/>
	<path d="M797.996 336.815C803.052 343.603 804.352 353.436 808.167 361.057Q803.057 359.761 797.997 358.282L797.996 336.815Z"/>
	<path d="M223.448 344.86C222.783 344.714 222.742 344.738 222.024 344.392C218.803 342.841 215.975 339.03 213.271 336.677C195.139 320.908 174.926 300.416 168.718 276.599C165.254 263.311 166.92 249.58 174.01 237.761C188.403 213.768 217.975 203.446 243.798 197.097C267.104 191.367 290.66 187.52 314.32 183.651L365.789 175.101C493.617 154.333 638.143 134.84 754.623 205.642C774.897 217.966 797.743 235.907 803.482 260.067C807.568 277.271 804.128 295.673 801.236 312.819C800.558 316.838 800.189 323.076 798.059 326.56C797.722 308.109 798.627 276.279 793.028 259.248C786.615 239.742 766.27 222.162 748.481 213.159C735.285 203.788 719.628 197.373 704.708 191.259C593.054 145.505 462.547 167.655 347.432 187.171Q316.306 192.393 285.284 198.201C258.923 203.117 230.911 207.199 206.898 219.807C198.108 224.422 189.744 231.112 183.995 239.259C177.296 248.75 175.015 260.358 177.078 271.747C181.698 297.249 204.685 316.259 223.007 332.672C223.525 336.733 223.462 340.777 223.448 344.86Z"/>
	<path fill="#BEBDBC" d="M223.007 332.672C204.685 316.259 181.698 297.249 177.078 271.747C175.015 260.358 177.296 248.75 183.995 239.259C189.744 231.112 198.108 224.422 206.898 219.807C230.911 207.199 258.923 203.117 285.284 198.201Q316.306 192.393 347.432 187.171C462.547 167.655 593.054 145.505 704.708 191.259C719.628 197.373 735.285 203.788 748.481 213.159C748.346 213.149 748.21 213.142 748.075 213.129C741.848 212.541 730.264 207.952 723.606 206.212Q711.674 203.077 699.507 201.03Q687.341 198.983 675.039 198.042C612.227 193.028 549.063 199.309 486.173 199.542C466.337 199.615 446.413 199.883 426.592 199.218C385.618 197.843 339.016 194.628 298.631 200.984C283.837 203.312 271.201 209.67 259.584 219.008C240.502 234.346 226.862 252.576 224.175 277.432C223.139 287.014 223.534 296.741 223.463 306.368C223.398 315.143 222.936 323.89 223.007 332.672Z"/>
	<path d="M223.007 332.672C222.936 323.89 223.398 315.143 223.463 306.368C223.534 296.741 223.139 287.014 224.175 277.432C226.862 252.576 240.502 234.346 259.584 219.008C271.201 209.67 283.837 203.312 298.631 200.984C339.016 194.628 385.618 197.843 426.592 199.218C446.413 199.883 466.337 199.615 486.173 199.542C549.063 199.309 612.227 193.028 675.039 198.042Q687.341 198.983 699.507 201.03Q711.674 203.077 723.606 206.212C730.264 207.952 741.848 212.541 748.075 213.129C748.21 213.142 748.346 213.149 748.481 213.159C766.27 222.162 786.615 239.742 793.028 259.248C798.627 276.279 797.722 308.109 798.059 326.56C797.674 329.843 797.055 333.587 797.996 336.815L797.997 358.282L797.989 364.335C805.79 365.062 813.553 367.948 821.016 370.231C840.801 376.286 869.216 383.986 882.688 400.342C885.461 403.708 887.461 407.661 886.875 412.131C886.102 418.034 883.381 424.085 881.628 429.773C879.635 436.237 878.034 442.849 876.418 449.416L859.546 518.678C856.291 532.032 853.3 545.598 849.416 558.774C857.651 583.758 868.026 608.089 877.921 632.456Q839.749 639.378 801.204 643.777C805.781 649.286 810.266 654.902 815.295 660.01C820.423 665.217 826.99 670.372 831.216 676.31C831.283 676.44 831.348 676.571 831.417 676.7C834.621 682.757 839.153 688.21 842.57 694.21C854.137 714.527 858.071 737.013 851.315 759.59C845.816 777.962 833.051 799.162 815.564 808.38C807.968 812.384 799.221 812.842 792.364 816.092C782.599 818.761 772.418 820.541 762.508 822.621Q733.235 828.729 703.878 834.425C643.41 846.181 582.063 857.079 520.391 859.416Q491.354 860.364 462.33 859.056Q433.307 857.747 404.473 854.19C357.176 848.698 308.205 837.742 265.992 814.96C244.576 803.402 222.058 786.337 214.946 761.962Q213.926 758.391 213.332 754.726Q212.737 751.061 212.575 747.351C211.778 731.466 214.114 656.039 219.877 645.474L220.063 642.322C196.177 638.441 171.608 636.458 148.065 630.87C157.284 607.374 165.953 583.542 174.731 559.874C172.204 548.724 170.118 537.465 167.614 526.303Q160.975 497.227 153.493 468.356Q148.927 450.498 144.08 432.715C142.307 426.126 139.979 419.18 138.932 412.467C138.266 408.197 139.708 404.978 142.217 401.565C155.86 383.005 201.149 369.556 223.461 365.752Q223.577 355.306 223.448 344.86C223.462 340.777 223.525 336.733 223.007 332.672Z"/>
	<path fill="#FEFEFE" d="M380.471 657.311C381.75 657.381 382.66 657.455 383.87 657.931C385.683 661.337 385.237 671.42 385.811 675.865C389.03 700.828 403.593 724.858 423.375 740.171C452.273 762.539 492.445 770.077 528.232 765.349C576.402 758.986 612.757 730.448 623.277 681.964C624.575 675.983 624.175 662.253 627.423 658.041C628.729 657.796 628.434 657.861 629.453 658.493C630.126 659.76 629.989 660.745 629.895 662.119C627.212 687.443 620.819 711.439 603.844 731.183C582.541 755.959 551.718 768.208 519.621 770.542C482.794 773.22 443.986 763.918 415.73 739.238C391.321 717.917 382.584 688.655 380.471 657.311Z"/>
	<path fill="#BEBDBC" d="M510.815 273.423C514.21 277.529 518.568 296.028 520.859 302.299C523.234 308.8 526.018 315.154 528.803 321.487C539.413 345.604 551.734 368.901 564.005 392.199C568.373 400.492 583.653 426.8 585.512 434.466C585.878 435.975 586.185 437.592 585.313 438.968L584.381 439.003C582.876 437.87 581.934 436.565 580.961 434.956C574.715 424.63 569.603 413.085 564.073 402.325C554.764 384.208 545.119 366.173 536.315 347.807Q527.244 328.807 519.005 309.433C515.266 300.396 512.565 291.161 510.078 281.719C508.143 283.554 506.571 285.566 504.949 287.67C483.519 316.587 463.383 355.3 448.549 388.26C442.722 401.208 437.121 414.281 431.054 427.118C429.349 430.727 428.095 434.852 425.883 438.165C424.462 438.599 424.367 438.344 422.991 437.714L422.718 436.859C436.206 403.779 451.206 372.168 468.099 340.671C480.821 316.951 493.404 294.086 510.815 273.423Z"/>
	<path fill="#FEFEFE" d="M391.396 658.336C392.605 658.365 393.487 658.425 394.652 658.81C396.638 660.746 396.507 663.306 396.509 665.915C396.519 678.517 402.013 693.292 408.181 704.164C421.214 727.134 444.325 742.284 469.491 749.014C502.145 757.747 540.346 755.714 569.85 738.456Q570.78 737.91 571.697 737.341Q572.613 736.772 573.515 736.181Q574.417 735.589 575.304 734.975Q576.191 734.361 577.062 733.725Q577.934 733.089 578.789 732.431Q579.644 731.774 580.482 731.095Q581.321 730.416 582.142 729.717Q582.963 729.017 583.767 728.298Q584.57 727.578 585.356 726.838Q586.141 726.099 586.907 725.34Q587.674 724.581 588.421 723.803Q589.168 723.025 589.896 722.228Q590.624 721.432 591.331 720.618Q592.039 719.803 592.726 718.972Q593.413 718.14 594.079 717.291Q594.745 716.443 595.389 715.578Q596.034 714.713 596.656 713.832Q597.279 712.951 597.879 712.055Q598.48 711.159 599.058 710.248Q599.636 709.337 600.191 708.412Q600.746 707.487 601.277 706.548Q601.809 705.61 602.317 704.658Q602.825 703.707 603.309 702.743Q603.794 701.779 604.254 700.803Q604.713 699.827 605.149 698.84Q605.584 697.853 605.995 696.856Q606.405 695.858 606.791 694.851Q607.176 693.843 607.536 692.826Q607.897 691.81 608.231 690.784Q608.566 689.759 608.875 688.725Q609.184 687.691 609.467 686.651Q609.75 685.61 610.007 684.562C611.794 677.22 612.069 669.423 614.032 662.232C614.523 660.432 614.864 659.05 616.531 658.089L617.587 658.723C618.481 660.157 618.263 661.403 618.162 663.01C615.517 686.444 609.335 708.375 592.978 726.125C572.367 748.493 542.309 758.119 512.574 759.319C480.361 760.619 445.512 750.875 421.538 728.632C402.283 710.766 392.332 684.276 391.396 658.336Z"/>
	<path fill="#BEBDBC" d="M506.94 295.342C507.781 296.056 508.023 296.547 508.456 297.552C510.34 301.918 511.573 306.686 513.212 311.165Q517.628 322.885 522.692 334.34C538.608 370.046 559.244 403.424 575.17 439.104L569.767 439.277L529.884 358.842C522.516 343.994 515.602 328.757 507.891 314.111C507.254 312.902 506.712 311.657 505.546 310.874L504.447 311.803C496.342 327.629 486.826 342.861 478.529 358.637C464.583 385.153 452.168 412.219 439.947 439.555L433.018 438.886C444.204 410.24 458.05 382.571 472.191 355.287C482.805 334.808 493.3 314.014 506.94 295.342Z"/>
	<path fill="#BEBDBC" d="M222.664 430.993C218.251 429.58 211.927 429.812 207.232 429.395C192.511 428.089 171.084 425.809 158.344 418.348C156.08 417.023 153.706 415.091 153.144 412.386C152.733 410.413 153.308 408.552 154.393 406.9C163.523 393.002 207.38 383.286 223.561 379.513C224.449 391.856 223.624 404.654 223.288 417.028C223.169 421.438 223.594 426.703 222.664 430.993Z"/>
	<path fill="#BEBDBC" d="M798.032 376.807C813.908 380.871 862.119 394.228 870.246 408.44C871.082 409.901 871.386 411.3 871.021 412.975C870.354 416.037 866.58 418.33 864.036 419.634C847.768 427.974 816.338 431.145 798.043 433.335L798.032 376.807Z"/>
	<path fill="#FEFEFE" d="M401.54 658.526C405.116 658.509 408.703 658.668 412.278 658.762C415.942 676.769 422.345 694.185 433.946 708.665Q434.666 709.563 435.408 710.443Q436.15 711.322 436.914 712.183Q437.677 713.044 438.462 713.886Q439.247 714.727 440.053 715.549Q440.858 716.371 441.684 717.173Q442.51 717.974 443.355 718.755Q444.201 719.536 445.065 720.295Q445.93 721.055 446.813 721.792Q447.697 722.53 448.598 723.246Q449.499 723.961 450.418 724.654Q451.337 725.347 452.273 726.016Q453.209 726.686 454.161 727.332Q455.113 727.979 456.082 728.601Q457.05 729.223 458.033 729.821Q459.016 730.419 460.014 730.993Q461.012 731.566 462.023 732.115Q463.035 732.663 464.06 733.186Q465.085 733.709 466.123 734.206Q467.161 734.704 468.211 735.175Q469.261 735.646 470.322 736.091Q471.383 736.536 472.455 736.955Q473.527 737.373 474.61 737.765Q475.692 738.157 476.783 738.521Q477.875 738.886 478.975 739.223Q480.075 739.561 481.184 739.871Q482.292 740.181 483.408 740.463Q484.523 740.745 485.646 740.999Q486.768 741.254 487.897 741.48Q489.025 741.706 490.159 741.904Q491.292 742.102 492.43 742.272Q493.569 742.442 494.711 742.584Q495.853 742.725 496.998 742.838C519.723 745.198 543.119 739.017 560.902 724.412C580.852 708.027 591.045 684.572 593.628 659.277C597.81 658.858 603.287 657.626 607.192 659.391C608.29 660.76 608.057 660.932 607.934 662.614C605.496 679.899 601.144 697.38 590.78 711.749C576.652 731.334 553.292 742.63 529.875 746.358C498.779 751.308 462.758 746.249 436.935 727.23C412.685 709.369 406.001 687.015 401.54 658.526Z"/>
	<path fill="#FEFEFE" d="M147.436 425.431C150.738 426.256 153.492 428.473 156.504 429.956C166.894 435.069 183.487 436.36 195.154 437.198C213.765 438.535 232.585 438.026 251.241 438.358L358.249 440.647C381.458 441.268 404.754 441.895 427.936 443.152C453.221 444.524 478.552 446.555 503.886 446.491C527.395 446.432 550.788 444.735 574.264 443.777Q620.66 442.13 667.07 440.982C689.001 440.374 710.984 439.801 732.923 439.542C760.348 439.218 787.719 439.146 815.079 437.017C839.015 435.154 857.032 432.524 879.903 424.592L873.443 429.034C855.098 438.098 834.273 440.953 814.144 443.17C789.362 445.899 764.207 445.988 739.311 446.486L657.253 448.638Q609.225 450.145 561.225 452.371C541.628 453.238 522.089 454.609 502.464 454.505C485.477 454.415 468.361 452.796 451.379 451.921Q403.83 449.486 356.249 447.774L275.951 445.658C252.492 445.242 228.948 445.203 205.56 443.205C188.484 441.746 158.846 438.952 147.436 425.431Z"/>
	<path fill="#A43E3B" d="M504.628 325.31C509.765 331.971 517.49 351.466 521.831 360.183C535.044 386.717 549.028 412.866 562.068 439.488C558.052 439.536 554.021 439.831 550.009 440.032C543.046 423.988 534.621 408.514 526.537 393.01C525.224 390.493 523.076 385.876 520.232 384.981L519.45 385.506C518.736 387.71 519.284 389.611 520.016 391.756C522.388 398.709 526.78 405.523 530.27 411.975C535.286 421.25 540.078 430.655 544.021 440.442C536.154 440.387 528.195 441.308 520.321 441.606C502.042 442.297 483.703 442.437 465.48 440.675C463.944 440.608 462.375 440.757 461.087 439.808C460.349 434.511 486.797 383.558 490.548 376.158C493.216 370.895 498.557 364.092 499.035 358.22C499.151 356.795 498.93 355.667 497.967 354.566L496.767 354.602C494.765 355.928 493.408 357.917 492.189 359.955C488.172 366.67 485.259 374.276 481.747 381.286C472.146 400.448 462.155 419.6 454.39 439.595L447.958 439.378C451.452 429.63 456.366 420.164 460.757 410.796Q474.7 380.799 490.124 351.537C494.798 342.702 500.109 334.226 504.628 325.31Z"/>
	<path fill="#FEFEFE" d="M866.497 618.2L867.189 618.509C868.961 621.909 870.216 625.6 871.577 629.181C854.24 631.469 836.973 634.423 819.638 636.79Q773.654 643.068 727.43 647.234Q651.29 653.915 574.872 655.371C436.804 658.968 297.354 652.83 161.109 629.041L154.055 627.697C155.104 624.601 156.324 621.544 157.464 618.48C172.283 622.11 187.482 623.355 202.575 625.301Q246.375 631.163 290.409 634.875Q332.238 638.401 374.157 640.604Q416.077 642.807 458.045 643.685Q500.013 644.563 541.987 644.116Q583.962 643.668 625.902 641.895Q711.027 638.479 795.656 628.684C819.374 625.805 842.902 621.897 866.497 618.2Z"/>
	<path fill="#A43E3B" d="M418.333 659.048Q502.528 661.773 586.737 659.503C585.256 679.696 575.937 696.956 563.375 712.304Q561.759 714.035 560.038 715.662Q558.316 717.289 556.497 718.805Q554.677 720.322 552.766 721.721Q550.855 723.121 548.861 724.398Q546.866 725.675 544.796 726.825Q542.725 727.976 540.587 728.994Q538.448 730.013 536.251 730.896Q534.053 731.778 531.804 732.522C510.764 739.601 486.683 737.184 466.995 727.183C438.167 712.54 427.865 688.083 418.333 659.048Z"/>
	<path d="M436.308 674.266C440.802 677.364 443.997 687.241 446.884 692.045C454.903 705.389 469.641 716.461 484.787 720.214C489.574 721.4 494.695 721.214 499.429 722.542C501.056 722.998 501.667 723.551 502.433 725.021C502.421 726.667 501.798 727.387 500.855 728.634C483.499 728.237 466.275 720.922 453.555 709.205C447.801 703.905 434.11 686.468 434.051 678.565C434.036 676.506 434.966 675.64 436.308 674.266Z"/>
	<path fill="#FEFEFE" d="M220.063 642.322Q294.994 652.402 370.476 656.73C370.993 689.514 381.873 721.214 405.8 744.329C433.37 770.962 472.873 781.698 510.483 780.942C545.976 780.228 581.799 769.13 606.942 743.048C629.636 719.507 638.498 689.658 638.613 657.542Q688.536 654.957 738.327 650.503Q757.46 648.821 776.552 646.731C784.115 645.918 791.826 644.735 799.41 644.346C799.587 649.36 800.036 654.171 801.39 659.018C808.634 667.647 817.548 674.715 824.534 683.521C838.224 702.683 849.049 724.136 844.879 748.369C841.752 766.539 830.485 787.204 815.084 797.806C808.149 802.58 799.432 804.338 791.404 806.362C781.195 809.902 770.021 811.789 759.462 814.056Q732.216 820.017 704.801 825.146C599.019 845.104 512.798 858.972 404.22 845.521C352.814 839.153 266.262 820.514 232.668 776.952C223.405 764.94 221.784 751.346 221.818 736.586C221.829 731.824 221.805 726.935 222.397 722.209C222.344 709.133 221.969 696.085 221.684 683.014C221.412 670.569 221.325 657.842 219.877 645.474L220.063 642.322Z"/>
	<path fill="#BEBDBC" d="M801.39 659.018C808.634 667.647 817.548 674.715 824.534 683.521C815.38 690.56 807.748 701.68 802.228 711.691C804.366 694.038 803.441 676.643 801.39 659.018Z"/>
	<path fill="#BEBDBC" d="M222.397 722.209C222.458 722.357 222.522 722.503 222.581 722.652C225.433 729.956 225.242 739.104 227.011 746.814C233.482 775.008 251.974 795.94 278.108 807.877C294.02 815.144 311.206 818.077 328.491 819.719C357.632 822.488 387.05 822.077 416.291 822.128L524.581 822.32L612.568 822.82C637.786 823.135 663.183 824.083 688.35 822.1C702.59 820.979 717.535 817.848 730.893 812.824C754.864 803.808 773.83 786.524 786.788 764.669C787.155 771.259 787.747 803.063 791.404 806.362C781.195 809.902 770.021 811.789 759.462 814.056Q732.216 820.017 704.801 825.146C599.019 845.104 512.798 858.972 404.22 845.521C352.814 839.153 266.262 820.514 232.668 776.952C223.405 764.94 221.784 751.346 221.818 736.586C221.829 731.824 221.805 726.935 222.397 722.209Z"/>
	<path fill="#FEFEFE" d="M223.007 332.672C222.936 323.89 223.398 315.143 223.463 306.368C223.534 296.741 223.139 287.014 224.175 277.432C226.862 252.576 240.502 234.346 259.584 219.008C271.201 209.67 283.837 203.312 298.631 200.984C339.016 194.628 385.618 197.843 426.592 199.218C446.413 199.883 466.337 199.615 486.173 199.542C549.063 199.309 612.227 193.028 675.039 198.042Q687.341 198.983 699.507 201.03Q711.674 203.077 723.606 206.212C730.264 207.952 741.848 212.541 748.075 213.129C748.21 213.142 748.346 213.149 748.481 213.159C766.27 222.162 786.615 239.742 793.028 259.248C798.627 276.279 797.722 308.109 798.059 326.56C797.674 329.843 797.055 333.587 797.996 336.815L797.997 358.282L797.989 364.335C797.98 368.482 797.857 372.664 798.032 376.807L798.043 433.335C768.744 435.669 739.439 435.057 710.09 435.767C672.98 436.664 635.908 438.529 598.781 438.491C589.305 421.321 580.594 403.613 571.47 386.246C553.689 352.403 530.062 309.561 521.599 272.642C519.864 265.073 519.089 257.393 518.417 249.675C481.116 290.065 453.103 345.229 430.392 395.117C423.901 409.377 417.918 423.858 411.439 438.126L269.864 434.625C257.375 434.309 244.874 434.652 232.386 434.193C230.118 434.11 225.694 434.332 223.716 433.212C223.03 432.823 222.907 431.702 222.664 430.993C223.594 426.703 223.169 421.438 223.288 417.028C223.624 404.654 224.449 391.856 223.561 379.513L223.461 365.752Q223.577 355.306 223.448 344.86C223.462 340.777 223.525 336.733 223.007 332.672Z"/>
	<path fill="#FEFEFE" d="M148.487 432.622C153.738 434.63 158.556 437.595 163.951 439.466C194.916 450.203 235.155 449.255 267.787 449.49Q290.582 449.728 313.365 450.498L441.403 455.473C463.61 456.455 485.798 458.461 508.036 458.55C527.293 458.627 546.617 457.097 565.859 456.322Q621.651 453.842 677.479 452.355L744.35 450.58C771.254 449.98 798.188 449.473 824.942 446.283C842.648 444.172 859.846 440.335 875.987 432.567Q874.022 440.332 872.221 448.136C858.999 451.859 845.765 455.61 832.187 457.806C810.167 461.367 787.829 461.703 765.576 462.082Q728.209 462.712 690.838 462.508C684.568 462.494 657.084 461.408 653.471 464.182C652.672 464.795 652.916 464.471 652.813 465.551C652.969 465.662 653.113 465.79 653.28 465.883C659.826 469.548 779.849 466.088 794.341 465.491Q807.089 464.868 819.783 463.54C837.258 461.616 854.048 457.343 870.994 452.844C865.936 475.787 859.754 498.624 854.052 521.424C851.925 529.931 844.521 552.425 845.362 559.715C846.654 570.908 855.513 588.814 860.003 599.64C841.805 604.144 823.097 605.95 804.55 608.41Q740.991 617.097 676.929 620.438Q662.169 621.361 647.382 621.637C639.199 621.823 630.722 621.717 622.594 622.593C620.589 622.809 619.012 623.4 617.707 624.984L618.133 625.804C628.123 629.929 714.039 622.052 732.377 620.57C749.253 619.563 766.152 617.228 782.945 615.271C809.259 612.205 835.738 609.143 861.645 603.486Q863.586 608.77 865.444 614.083Q825.533 620.387 785.408 625.142Q745.283 629.898 705.004 633.097Q664.726 636.296 624.353 637.935Q583.981 639.574 543.575 639.649Q470.366 640.631 397.22 637.434Q324.074 634.238 251.23 626.874C232.456 624.869 213.792 622.285 195.069 619.873C183.165 618.34 170.547 617.934 159.113 614.133L162.796 604.522C175.683 607.214 259.573 619.295 266.891 617.219C267.78 616.28 268.004 616.247 268.094 614.981C267.323 613.954 266.225 613.628 265.01 613.386C256.258 611.645 246.775 611.29 237.869 610.281C213.454 607.514 188.427 605.267 164.381 600.188Q171.636 580.247 179.372 560.488C174.284 539.919 170.021 519.172 165.165 498.552C161.577 483.32 157.305 468.245 153.94 452.962C166.858 457.809 180.143 460.6 193.838 462.101C211.644 464.053 229.623 464.348 247.518 464.745Q278.681 465.468 309.849 465.801Q328.696 465.972 347.544 465.857C354.127 465.851 361.098 466.424 367.625 465.673C369.281 465.482 370.679 465.305 372.016 464.233L372.116 463.162C371.633 462.069 371.554 461.466 370.36 460.99C367.441 459.826 358.066 460.883 354.539 460.923Q301.908 461.401 249.301 459.763C226.111 459.174 202.464 459.584 179.522 455.77C170.246 454.228 161.622 451.514 152.982 447.854C150.951 442.924 149.696 437.798 148.487 432.622Z"/>
	<path d="M282.814 615.206C295.545 615.934 308.252 617.389 320.979 618.275Q355.849 620.917 390.811 621.619C395.709 621.766 403.532 621.299 407.973 623.108C409.02 624.442 408.922 625.004 409.088 626.655C383.181 627.225 356.718 625.014 330.843 623.498Q315.652 622.6 300.486 621.351C295.764 620.977 290.648 620.926 286.003 620.02C284.901 619.805 284.182 619.43 283.266 618.797C282.555 617.34 282.706 616.791 282.814 615.206Z"/>
	<path d="M279.701 511.759C285.392 512.124 291.134 512.168 296.836 512.332L298.961 520.092L292.019 519.498C291.861 536.405 290.941 553.294 290.953 570.204C298.266 569.751 305.748 569.584 312.89 567.824C313.588 566.912 314.117 566.166 315.06 565.488C316.372 564.546 318.53 564.829 320.036 565.068C320.881 566.786 320.521 569.21 320.509 571.125C320.565 573.043 320.786 574.918 320.015 576.721C319.255 577.421 318.93 577.859 317.856 577.996C314.955 578.365 311.493 577.262 308.481 577.305C301.175 577.408 293.848 578.428 286.536 578.082C284.789 578 282.174 577.88 280.964 576.451C279.712 574.972 279.479 573.084 279.638 571.229C280.585 570.054 281.516 570.17 282.944 569.859C284.864 566.742 284.221 525.676 284.248 519.308C282.491 518.854 280.701 518.489 278.931 518.083L279.701 511.759Z"/>
	<path d="M733.045 512.024C737.308 511.792 744.9 511.158 748.629 513.415C749.768 514.105 749.98 514.7 750.289 515.935C749.907 517.72 748.843 518.472 747.544 519.622C747.22 525.205 747.343 530.697 747.533 536.28C756.323 528.938 764.989 522.606 770.287 512.21C772.744 512.334 775.439 512.227 777.845 512.617C780.352 513.024 784.287 514.311 785.817 516.334L785.522 517.16C782.763 518.747 780.514 517.798 777.641 517.11C771.499 527.242 762.172 533.974 752.724 540.752C761.479 550.724 772.075 559.346 782.091 568.014C783.81 569.272 785.648 569.916 787.619 570.665L784.485 577.915C772.871 565.72 759.837 554.822 747.493 543.373L747.498 568.597C749.032 568.866 751.14 569.097 752.482 569.933C753.422 570.518 753.957 571.34 754.256 572.401C754.603 573.626 754.762 575.295 754.118 576.389C750.191 577.211 737.85 577.141 734.635 574.244C733.64 573.348 733.758 573.016 733.8 571.788C734.996 570.245 737.4 569.707 739.159 568.915C740.282 564.735 739.277 558.388 739.242 553.91L739.004 518.162C737.184 518.112 734.958 518.308 733.461 517.167C732.634 515.492 732.928 513.826 733.045 512.024Z"/>
	<path d="M611.955 510.466C617.378 512.191 623.205 513.344 628.5 515.345C629.724 515.808 630.501 515.977 631.012 517.198C630.574 518.57 629.554 519.065 628.424 519.839L627.885 520.203C630.024 526.688 634.699 533.367 637.821 539.516C641.649 547.057 647.894 563.324 653.01 569.149L653.617 569.213C655.411 569.416 656.817 569.432 657.89 571.094C658.905 572.667 658.798 574.115 658.375 575.843C657.188 576.26 656.105 576.363 654.852 576.424C650.951 576.612 642.438 577.442 639.632 574.234C638.709 573.18 638.359 571.625 638.439 570.262C638.496 569.273 638.443 569.608 639.284 568.909C640.361 568.917 641.482 569.01 642.511 568.649C643.179 568.416 642.976 568.392 643.369 567.614C643.307 566.11 642.884 564.884 642.298 563.499C641.059 560.567 639.626 557.228 636.552 556.029L609.746 555.88C608.246 558.542 603.814 564.753 603.736 567.575C603.676 569.767 604.918 572.158 604.955 574.514C604.472 575.422 604.38 575.873 603.338 576.23C601.036 577.02 594.553 577.042 592.554 575.724C591.508 575.034 591.12 573.975 590.978 572.779C590.859 571.777 590.858 571.027 591.549 570.266C592.43 570.253 593.203 570.268 594.055 570.002C597.769 568.839 616.679 529.017 620.087 522.048C617.501 520.554 613.048 518.689 611.657 515.905C610.624 513.836 611.247 512.496 611.955 510.466Z"/>
	<path fill="#FEFEFE" d="M624.361 527.311C628.913 531.761 632.465 541.877 635.091 547.958L624.838 547.895L614.088 547.518C616.439 540.499 620.784 533.769 624.361 527.311Z"/>
	<path d="M663.577 511.708C666.481 511.493 669.423 511.612 672.334 511.633C679.245 518.585 684.942 526.709 690.854 534.507Q702.582 550.065 714.474 565.499L714.593 517.841C712.814 517.724 711.094 517.841 709.631 516.692C708.963 515.477 708.687 514.838 708.624 513.409C709.028 512.768 709.119 512.319 709.874 512.042C713.203 510.818 722.662 512.944 725.945 514.234C726.805 515.356 726.503 515.481 726.38 516.826C725.399 517.98 724.687 517.809 723.223 518.04C719.621 522.293 724.419 568.44 721.186 576.539C719.866 576.539 718.256 576.624 716.965 576.33C715.808 576.067 715.115 575.34 714.355 574.488C710.237 569.871 706.891 564.331 703.147 559.377C694.63 548.112 685.733 537.132 678.071 525.248C677.71 538.73 677.074 552.339 677.745 565.813C679.786 568.607 682.852 570.487 684.516 573.545C684.501 574.284 684.696 574.657 684.1 575.2C681.133 577.903 669.671 576.254 665.647 576.055C665.441 573.712 664.921 571.356 664.521 569.038L671.154 568.867C668.573 551.93 670.332 534.97 669.834 517.939Q668.489 517.68 667.156 517.366C665.423 516.944 664.282 516.487 663.319 514.893C663.189 513.629 663.098 512.924 663.577 511.708Z"/>
	<path d="M228.316 512.459C236.686 512.453 245.563 512.633 253.747 514.421C259.3 515.634 266.404 517.861 269.491 522.997C270.877 525.301 271.342 528.289 270.631 530.893C269.124 536.42 262.986 539.198 258.394 541.717C261.416 542.631 264.436 543.465 267.075 545.268C269.965 547.243 272.109 549.889 272.603 553.431C273.298 558.411 270.55 562.67 267.713 566.467C266.805 567.433 265.792 568.312 264.771 569.158C257.101 575.516 243.905 578.577 234.14 577.433C232.022 577.185 230.394 576.76 229 575.064C228.914 574.529 228.715 574.069 228.955 573.555C229.855 571.624 231.613 570.778 233.514 570.114C235.525 553.265 235.018 536.121 234.93 519.187C233.103 519.119 230.865 519.339 229.32 518.26C228.25 516.634 228.419 514.355 228.316 512.459Z"/>
	<path fill="#FEFEFE" d="M242.054 518.831C247.643 518.918 258.774 519.291 262.59 523.962C263.474 525.044 263.884 526.106 263.682 527.522C263.251 530.54 260.168 532.657 257.982 534.449C252.822 537.455 247.334 538.92 241.502 539.954C241.432 532.919 241.807 525.861 242.054 518.831Z"/>
	<path fill="#FEFEFE" d="M241.755 547.163C244.675 546.882 247.635 546.682 250.565 546.928C254.906 547.293 260.44 548.514 263.233 552.142C264.281 553.502 264.615 555.014 264.378 556.702C263.86 560.375 259.844 563.363 257.118 565.508C251.625 568.687 245.651 569.499 239.463 570.376C239.701 563.277 239.371 553.837 241.755 547.163Z"/>
	<path d="M548.874 511.216C551.128 510.96 553.51 510.986 555.774 511.071C565.165 511.425 576.309 514.938 582.701 522.184C584.953 524.738 586.312 527.872 585.912 531.316C585.225 537.22 580.152 540.605 575.945 544.13C579.967 546.578 583.764 549.143 585.704 553.65Q585.947 554.206 586.131 554.784Q586.316 555.362 586.439 555.956Q586.562 556.55 586.622 557.154Q586.683 557.757 586.681 558.364Q586.679 558.971 586.613 559.574Q586.548 560.177 586.42 560.77Q586.293 561.363 586.104 561.94Q585.916 562.516 585.668 563.07C583.235 568.646 577.604 571.577 572.3 573.83C565.434 576.449 550.795 580.455 543.793 578.596C542.194 578.171 541.424 577.495 540.564 576.062C540.383 574.784 540.424 574.012 540.99 572.868C541.941 570.947 543.291 570.511 545.168 569.822C546.317 563.071 547.492 556.398 547.44 549.524C545.929 547.716 543.279 545.261 543.348 542.847C544.111 542.627 544.861 542.438 545.638 542.269L546.469 542.093C549.012 538.917 547.727 522.748 547.595 518.194L541.157 518.523L540.297 512.148C543.118 511.625 546.018 511.471 548.874 511.216Z"/>
	<path fill="#FEFEFE" d="M555.779 549.69C558.54 549.498 561.397 549.337 564.162 549.446C568.595 549.62 575.691 550.92 578.515 554.552C579.323 555.591 579.822 556.687 579.556 558.032C578.857 561.554 574.692 563.769 571.925 565.522C565.895 568.139 559.777 569.198 553.345 570.284C553.335 566.376 553.305 562.458 553.414 558.552C553.497 555.584 553.531 551.809 555.779 549.69Z"/>
	<path fill="#FEFEFE" d="M553.706 517.881C560.918 518.041 570.915 518.981 576.323 524.364C577.462 525.498 578.282 526.905 578.153 528.571C577.894 531.926 574.527 534.227 572.039 535.968C566.321 538.658 560.112 540.088 554.018 541.654L553.706 517.881Z"/>
	<path d="M467.61 512.207C472.988 511.625 479.15 512.219 484.448 513.272C494.455 515.261 505.268 520.277 510.914 529.159C514.109 534.185 515.244 540.132 513.835 545.943C511.094 557.254 501.077 564.267 491.815 570.101C483.173 574.915 474.564 577.384 464.793 578.748L463.287 571.428L468.494 570.601L468.481 519.631C467.566 519.706 466.649 519.776 465.731 519.787C463.028 519.82 461.386 519.349 459.458 517.449C458.997 516.024 459.042 516.071 459.641 514.688C462.177 512.488 464.407 512.437 467.61 512.207Z"/>
	<path fill="#FEFEFE" d="M475.91 519.427C484.517 520.838 495.154 522.175 501.766 528.48C504.379 530.971 505.845 534.117 505.863 537.745C505.899 545.435 500.107 551.894 495.091 557.1C489.458 561.901 483.236 565.368 476.546 568.461C476.409 552.111 475.851 535.785 475.91 519.427Z"/>
	<path d="M351.561 512.214C358.413 512.328 364.912 513.451 370.641 517.515C376.517 521.685 380.193 528.243 381.429 535.266C383.263 545.681 380.575 557.62 374.387 566.202C369.675 572.738 363.229 576.333 355.311 577.598C347.884 577.577 341.306 576.454 335.289 571.696C328.32 566.184 324.742 558.037 323.741 549.352C322.639 539.783 324.513 529.564 330.809 522.02C336.27 515.477 343.413 513.036 351.561 512.214Z"/>
	<path fill="#FEFEFE" d="M353.163 519.129C357.486 518.985 361.732 519.434 365.582 521.575C369.992 524.026 372.824 528.267 374.07 533.095C376.093 540.935 374.232 550.089 370.102 556.961C366.031 563.734 360.25 567.593 352.689 569.475C347.574 569.67 343.014 569.304 338.643 566.349C333.762 563.049 331.155 557.72 330.234 552.023C328.966 544.178 330.662 535.234 335.448 528.806C339.983 522.718 345.94 520.295 353.163 519.129Z"/>
	<path d="M421.16 512.188C428.602 511.455 437.164 513.311 443.138 517.87C449.356 522.616 452.628 530.024 453.699 537.603C455.087 547.426 453.221 558.06 447.073 566.034C441.36 573.442 433.693 576.702 424.621 577.853C417.135 578.39 409.601 576.511 403.696 571.762C396.667 566.108 392.815 557.703 391.84 548.847C390.842 539.784 392.861 529.721 398.748 522.563C404.714 515.309 412.265 513.113 421.16 512.188Z"/>
	<path fill="#FEFEFE" d="M421.788 519.102C426.571 518.519 431.882 519.01 436.254 521.113C440.69 523.247 443.761 526.948 445.314 531.596C447.823 539.107 446.545 547.989 442.845 554.895C438.609 562.799 432.367 566.533 424.057 568.994C418.502 570.178 412.379 569.696 407.522 566.577C402.886 563.601 399.974 558.78 398.836 553.452C397.201 545.79 398.884 536.893 403.279 530.391C407.932 523.506 413.914 520.642 421.788 519.102Z"/>
</svg>
