<?xml version="1.0" encoding="utf-8" ?>
<svg xmlns="http://www.w3.org/2000/svg" xmlns:xlink="http://www.w3.org/1999/xlink" width="1024" height="1024">
	<path fill="#E9E2D8" d="M0 0L1024 0L1024 1024L0 1024L0 0Z"/>
	<path fill="#424F53" d="M259.317 638.254C259.664 639.773 259.003 641.593 258.121 642.897C257.243 644.193 255.401 644.89 254.053 645.56C253.163 646.002 252.195 646.626 251.237 646.886C254.01 667.138 262.582 686.289 269.395 705.473C271.292 710.814 273.995 716.721 275.155 722.213L274.61 722.857C272.726 725.118 271.196 727.736 269.434 730.103C263.587 737.957 257.073 746.271 249.357 752.333C260.012 775.658 282.127 804.625 271.985 831.659C269.035 839.525 262.636 847.69 254.765 851.059C251.879 852.294 249.213 852.577 246.205 851.695C244.943 850.665 243.955 849.606 243.87 847.886C243.834 847.15 244.15 846.587 244.703 846.09C246.174 844.768 248.978 844.471 250.829 843.748C259.475 840.371 264.955 832.301 266.811 823.454C270.358 806.552 261.741 789.398 254.343 774.758C251.422 768.978 248.5 762.785 244.811 757.446C244.779 757.399 244.739 757.357 244.704 757.313C235.496 764.149 225.982 772.511 215.724 777.657C213.354 786.191 209.436 794.403 207.404 802.942C205.899 809.267 204.454 838.474 207.287 843.238C208.912 845.972 211.783 847.34 214.775 848.074C219.428 849.215 227.055 847.244 230.739 850.084C231.469 851.405 231.733 852.037 231.743 853.601C230.962 855.011 230.312 855.595 228.714 855.999C221.323 857.87 211.264 855.528 204.684 852.084C204.268 865.677 204.296 905.637 199.798 916.118C198.592 916.346 198.645 916.282 197.588 915.631C196.33 912.894 198.861 903.395 199.199 899.891C200.823 883.047 201.528 865.756 201.608 848.835C194.482 841.136 194.044 830.378 194.447 820.462C194.991 807.082 196.908 793.372 200.413 780.437C188.463 779.953 179.018 779.029 168.234 773.534Q164.469 790.142 159.937 806.558Q155.405 822.974 150.117 839.162Q144.829 855.35 138.796 871.275Q132.762 887.201 125.997 902.829C124.84 905.533 122.664 912.141 119.932 913.235C119.307 912.183 119.691 910.574 119.93 909.439C121.034 904.206 123.936 899.172 125.995 894.251C129.739 885.303 133.391 876.198 136.761 867.104Q145.363 844.118 152.374 820.597Q159.384 797.076 164.769 773.131C169.461 748.75 172.775 721.59 182.205 698.629C184.551 692.918 187.394 686.447 191.599 681.83C199.074 673.621 229.81 657.697 240.934 653.03C244.384 648.234 248.371 644.089 253.857 641.643C255.014 641.127 257.236 640.873 258.165 640.149C258.527 639.867 259.048 638.696 259.317 638.254Z"/>
	<path fill="#E4DDD2" d="M230.711 739.045C232.848 738.939 234.974 739.068 236.892 740.131C240.797 742.295 244.546 749.335 245.612 753.536C243.387 751.024 241.715 748.106 239.952 745.264C237.679 742.855 234.893 741.26 231.52 741.109C228.202 740.961 224.642 742.61 222.237 744.801L219.351 747.456C222.784 742.154 224.556 740.581 230.711 739.045Z"/>
	<path fill="#E9E2D8" d="M203.442 780.709Q207.113 780.304 210.8 780.085C207.748 788.791 204.028 797.362 201.734 806.299C200.43 811.379 199.794 819.625 198.365 823.658C196.307 819.142 202.023 787.453 203.442 780.709Z"/>
	<path fill="#E4DDD2" d="M215.724 777.657C217.552 769.36 217.903 759.825 220.796 751.912C221.957 748.736 224.559 746.115 227.685 744.853C229.885 743.964 232.424 743.718 234.639 744.689C239.648 746.884 237.998 750.327 239.858 754.147C240.836 756.155 242.075 756.497 244.094 757.129C244.296 757.192 244.5 757.251 244.704 757.313C235.496 764.149 225.982 772.511 215.724 777.657Z"/>
	<path fill="#E4DDD2" d="M168.234 773.534C172.198 751.262 180.182 694.82 197.088 681.235C202.389 684.595 204.67 688.783 206.035 694.871C211.364 718.638 205.422 756.387 200.413 780.437C188.463 779.953 179.018 779.029 168.234 773.534Z"/>
	<path fill="#E4DDD2" d="M251.237 646.886C254.01 667.138 262.582 686.289 269.395 705.473C271.292 710.814 273.995 716.721 275.155 722.213L274.61 722.857C272.726 725.118 271.196 727.736 269.434 730.103C263.587 737.957 257.073 746.271 249.357 752.333L248.967 751.812C244.271 745.418 242.621 737.603 233.483 736.233C229.64 735.657 225.762 736.364 222.644 738.757C213.282 745.942 213.221 768.958 210.8 780.085Q207.113 780.304 203.442 780.709C209.771 755.229 214.314 722.744 209.66 696.694C208.413 689.714 206.262 683.596 200.207 679.41C212.39 670.962 225.104 664.432 238.367 657.89C235.602 664.737 222.362 685.027 222.259 689.354L222.962 689.666C224.848 688.986 225.819 687.648 227.108 686.17C232.414 685.549 237.71 685.227 243.051 685.429C239.433 697.141 234.992 708.809 230.987 720.411C229.8 723.848 227.797 727.263 227.206 730.846C226.967 732.298 226.678 734.028 227.584 735.289L228.449 734.96C232.902 729.523 238.931 707.277 241.747 699.193C242.941 695.765 244.622 692.442 245.615 688.965C245.927 687.871 246.322 686.263 246.055 685.126C245.775 683.936 245.463 683.339 244.475 682.631C241.215 680.294 232.661 682.368 228.816 682.886C235.069 671.46 241.333 655.213 251.237 646.886Z"/>
	<path fill="#E4DDD2" d="M125.473 388.513C122.915 383.049 121.461 376.279 119.501 370.512Q107.239 334.727 98.4095 297.944C95.4305 285.458 92.5123 273.004 90.8943 260.251C86.4464 225.192 92.2756 190.042 114.47 161.617C144.267 123.455 190.095 108.489 235.74 99.2681C243.966 97.6063 252.159 95.2771 260.499 94.2997C276.292 92.4489 293.118 93.5395 309.072 93.5292C346.835 93.5047 379.911 93.2218 416.547 104.32C425.802 107.123 435.249 110.341 443.693 115.091C448.946 118.047 453.668 121.652 458.385 125.374C449.65 128.355 442.567 131.766 435.31 137.562C423.532 146.97 414.939 159.647 405.632 171.352C396.415 182.944 386.884 194.554 376.864 205.46C362.397 221.205 346.098 235.625 329.874 249.518C305.293 270.568 274.156 293.121 246.579 309.565C234.856 316.555 222.721 322.619 210.849 329.298C181.886 345.591 150.209 365.903 125.828 388.482L126.224 389.222C129.243 394.952 131.228 401.266 133.601 407.293Q138.642 419.851 144.401 432.097C162.672 470.13 185.469 506.347 215.673 536.043C223.525 543.764 233.139 552.577 243.45 556.764C248.933 562.079 253.455 566.71 253.575 574.84C253.675 581.521 253.797 586.722 258.917 591.75C261.918 594.698 265.518 596.715 269.454 598.111C269.755 612.919 265.783 625.054 259.317 638.254C259.048 638.696 258.527 639.867 258.165 640.149C257.236 640.873 255.014 641.127 253.857 641.643C248.371 644.089 244.384 648.234 240.934 653.03C229.81 657.697 199.074 673.621 191.599 681.83C187.394 686.447 184.551 692.918 182.205 698.629C172.775 721.59 169.461 748.75 164.769 773.131C154.846 768.501 145.639 760.363 137.912 752.682C93.0843 708.12 61.9718 597.589 61.6664 535.537Q61.6486 533.25 61.6833 530.964Q61.7179 528.677 61.805 526.392Q61.8921 524.107 62.0316 521.824Q62.1711 519.542 62.3629 517.263Q62.5547 514.984 62.7987 512.711Q63.0428 510.437 63.3389 508.169Q63.635 505.902 63.9831 503.642Q64.3311 501.382 64.7309 499.13Q65.1307 496.878 65.5821 494.637Q66.0334 492.395 66.5361 490.164Q67.0388 487.933 67.5925 485.714Q68.1461 483.496 68.7506 481.29Q69.355 479.085 70.0099 476.894Q70.6648 474.703 71.3697 472.527Q72.0747 470.352 72.8294 468.193Q73.584 466.035 74.388 463.894Q75.192 461.753 76.0449 459.631Q76.8978 457.509 77.7991 455.408Q78.7005 453.306 79.6498 451.226Q80.5991 449.145 81.5958 447.087Q82.5926 445.029 83.6363 442.994Q84.6801 440.96 85.7702 438.949Q86.8603 436.939 87.9962 434.955Q89.1322 432.97 90.3133 431.012Q91.4945 429.054 92.7203 427.123Q93.9461 425.193 95.2158 423.291Q96.4855 421.389 97.7986 419.517Q99.1116 417.644 100.467 415.803Q101.823 413.961 103.22 412.151Q104.618 410.341 106.057 408.563Q107.495 406.786 108.974 405.042Q110.453 403.298 111.972 401.588C116.071 396.888 121.078 392.94 125.473 388.513Z"/>
	<path fill="#DFB29A" d="M725.708 183.439C760.557 160.668 810.4 145.174 852.074 144.903C860.5 144.849 868.99 145.083 877.263 146.818C903.852 152.395 922.48 173.312 936.617 195.195C958.221 228.637 965.313 265.248 960.088 304.56C958.18 318.915 954.809 333.128 953.649 347.57C952.459 362.385 956.128 377.826 952.946 392.368C948.399 413.146 938.18 433.002 930.275 452.689Q927.321 459.958 924.684 467.348Q922.048 474.738 919.734 482.236Q917.421 489.734 915.434 497.325Q913.448 504.915 911.793 512.585Q910.138 520.255 908.817 527.99Q907.496 535.724 906.511 543.508Q905.527 551.293 904.881 559.113Q904.235 566.933 903.929 574.773C902.68 613.453 909.966 650.944 920.033 688.079C923.497 700.858 927.103 713.873 931.593 726.335C934.758 735.121 937.627 744.024 940.849 752.785C945.911 766.552 952.067 778.72 953.302 793.695C955.738 823.258 944.575 854.927 924.443 876.709C914.335 887.646 901.936 896.73 889.4 904.682C856.631 925.469 806.956 940.013 768.616 931.261C754.475 928.033 741.107 922.57 727.92 916.623C690.644 899.812 668.969 884.663 638.595 857.77C627.344 847.809 616.615 837.954 606.937 826.417Q590.853 807.171 576.085 786.897C569.916 778.376 564.114 769.02 557.365 760.993C583.352 759.689 609.93 759.587 635.935 760.025C656.334 760.368 676.706 761.147 697.115 760.992C721.071 760.811 744.748 757.511 768.641 757.154C780.992 756.969 851.729 761.328 857.956 755.669C859.922 753.882 859.609 748.795 859.59 746.384C859.461 729.997 860.974 713.683 860.417 697.269C859.651 674.65 856.82 652.199 856.364 629.533L854.393 470.187C854.247 458.54 854.486 446.887 854.214 435.242C853.855 419.845 852.049 404.532 851.604 389.145C851.002 368.335 851.973 347.486 851.745 326.663C851.438 298.623 849.359 270.85 847.592 242.886C846.778 230.019 846.785 216.997 845.546 204.178C838.275 203.028 830.565 203.282 823.201 203.034Q806.846 202.328 790.48 202.675C772.758 203.188 755.115 204.764 737.412 205.532C735.869 195.853 733.96 189.457 725.708 183.439Z"/>
	<defs>
		<linearGradient id="gradient_0" gradientUnits="userSpaceOnUse" x1="246.78815" y1="497.83395" x2="881.82727" y2="591.56171">
			<stop offset="0" stop-color="#47494A"/>
			<stop offset="1" stop-color="#445D65"/>
		</linearGradient>
	</defs>
	<path fill="url(#gradient_0)" d="M458.385 125.374C471.233 121.865 482.176 122.783 493.863 129.453C511.933 139.765 526.094 158.336 531.401 178.395C533.293 185.548 534.011 192.819 534.757 200.158C536.564 197.182 538.7 194.325 541.276 191.973C554.153 180.214 575.933 182.274 592.111 182.997C593.124 180.262 594.131 177.503 595.36 174.857C600.818 163.117 610.471 153.191 622.784 148.839C634.132 144.828 646.332 145.217 657.219 150.421C669.65 156.364 676.253 166.229 680.762 178.85C695.874 178.96 711.451 177.669 725.708 183.439C733.96 189.457 735.869 195.853 737.412 205.532C755.115 204.764 772.758 203.188 790.48 202.675Q806.846 202.328 823.201 203.034C830.565 203.282 838.275 203.028 845.546 204.178C846.785 216.997 846.778 230.019 847.592 242.886C849.359 270.85 851.438 298.623 851.745 326.663C851.973 347.486 851.002 368.335 851.604 389.145C852.049 404.532 853.855 419.845 854.214 435.242C854.486 446.887 854.247 458.54 854.393 470.187L856.364 629.533C856.82 652.199 859.651 674.65 860.417 697.269C860.974 713.683 859.461 729.997 859.59 746.384C859.609 748.795 859.922 753.882 857.956 755.669C851.729 761.328 780.992 756.969 768.641 757.154C744.748 757.511 721.071 760.811 697.115 760.992C676.706 761.147 656.334 760.368 635.935 760.025C609.93 759.587 583.352 759.689 557.365 760.993L549.971 761.352C550.308 765.839 551.682 772.712 550.586 776.952L549.117 777.313C549.048 778.958 550.046 780.357 550.563 781.878C552.059 786.278 549.196 791.829 547.323 795.767C538.528 814.251 514.698 846.517 500.615 861.651C491.873 871.045 480.005 882.9 467.777 887.191C455.715 891.425 446.145 888.428 435.036 883.107C437.658 889.549 444.622 908.646 442.526 914.669L441.749 914.952C441.294 914.696 440.947 914.538 440.571 914.134C439.755 913.257 439.497 912.285 439.392 911.135C438.825 904.922 433.18 883.849 429.822 879.026C428.62 877.3 426.525 875.775 425.005 874.307C407.167 857.075 398.255 817.971 397.913 793.645C397.588 770.509 405.273 715.863 414.569 695.384C416.489 691.155 418.819 687.992 422.041 684.672C403.717 667.018 381.988 654.86 357.829 647.076C367.147 658.142 378.034 673.442 382.074 687.555C375.555 689.84 367.95 690.091 361.12 690.846Q362.096 702.346 363.817 713.758C366.258 714.559 368.84 715.422 371.107 716.639C376.219 719.385 380.219 723.916 381.819 729.542C383.399 735.097 382.421 740.989 379.548 745.949C376.846 750.612 372.487 754.187 367.198 755.434Q366.676 755.553 366.149 755.645Q365.622 755.737 365.091 755.802Q364.56 755.868 364.026 755.906Q363.492 755.944 362.957 755.955Q362.422 755.966 361.888 755.95Q361.353 755.934 360.819 755.89Q360.286 755.847 359.756 755.776Q359.225 755.706 358.699 755.609Q358.173 755.511 357.652 755.387Q357.132 755.263 356.618 755.113Q356.105 754.963 355.599 754.787Q355.094 754.61 354.598 754.409Q354.103 754.207 353.618 753.98Q353.133 753.754 352.661 753.503Q352.188 753.252 351.729 752.977Q351.27 752.703 350.825 752.405C346.175 749.358 343.24 744.868 342.177 739.424C340.978 733.281 341.932 726.629 345.661 721.489C349.389 716.35 354.233 714.839 360.159 713.773Q359.102 706.907 358.242 700.013C357.857 697.001 356.48 691.625 358.94 689.174C362.212 685.915 373.254 686.223 377.739 685.852C373.54 674.118 359.576 651.66 350.477 643.891C348.902 642.547 346.938 641.662 345.087 640.761C346.476 660.591 340.144 683.3 335.8 702.659C332.677 716.577 329.594 730.428 327.089 744.478Q311.687 826.416 301.999 909.223C301.701 911.706 301.62 914.438 299.54 916.069L298.529 915.825C298.305 915.46 298.156 915.278 298.084 914.807C297.474 910.845 298.401 905.471 298.396 901.356Q298.316 885.416 297.288 869.508C295.635 846.559 292.997 823.804 290.273 800.964C287.082 774.202 284.722 747.62 275.155 722.213C273.995 716.721 271.292 710.814 269.395 705.473C262.582 686.289 254.01 667.138 251.237 646.886C252.195 646.626 253.163 646.002 254.053 645.56C255.401 644.89 257.243 644.193 258.121 642.897C259.003 641.593 259.664 639.773 259.317 638.254C265.783 625.054 269.755 612.919 269.454 598.111C265.518 596.715 261.918 594.698 258.917 591.75C253.797 586.722 253.675 581.521 253.575 574.84C253.455 566.71 248.933 562.079 243.45 556.764C233.139 552.577 223.525 543.764 215.673 536.043C185.469 506.347 162.672 470.13 144.401 432.097Q138.642 419.851 133.601 407.293C131.228 401.266 129.243 394.952 126.224 389.222L125.828 388.482C150.209 365.903 181.886 345.591 210.849 329.298C222.721 322.619 234.856 316.555 246.579 309.565C274.156 293.121 305.293 270.568 329.874 249.518C346.098 235.625 362.397 221.205 376.864 205.46C386.884 194.554 396.415 182.944 405.632 171.352C414.939 159.647 423.532 146.97 435.31 137.562C442.567 131.766 449.65 128.355 458.385 125.374Z"/>
	<path fill="#525657" d="M342.153 588.116C342.658 588.976 342.728 588.926 343.53 589.401C344.852 588.525 345.21 587.176 345.906 585.77L346.337 586.505C345.229 589.533 344.017 593.18 341.327 595.182C340.265 595.973 339.805 597.299 338.73 598.165C339.973 594.848 341.059 591.484 342.153 588.116Z"/>
	<path fill="#E9E2D8" d="M551.412 751.02C553.073 753.203 553.87 755.273 554.351 757.962L545.884 758.037L551.412 751.02Z"/>
	<path fill="#E9E2D8" d="M335.762 640.212C337.806 640.523 339.834 640.942 341.865 641.328C342.002 644.452 341.884 647.58 341.814 650.705C339.147 648.594 337.282 643.324 335.762 640.212Z"/>
	<path fill="#E9E2D8" d="M543.107 761.314C544.35 761.351 545.67 761.186 546.681 762.011C547.233 765.854 548.534 771.127 547.016 774.853L546.11 775.108L544.198 773.799C541.956 772.21 539.906 770.407 537.822 768.619C539.772 766.417 541.419 763.73 543.107 761.314Z"/>
	<path fill="#DFB39D" d="M256.189 575.225C259.102 575.269 261.16 575.575 263.599 577.26C267.201 579.749 270.009 583.472 270.786 587.832C271.253 590.451 270.888 591.592 269.396 593.779C268.799 594.453 269.071 594.417 268.154 594.404C265.613 594.369 262.565 591.222 261.001 589.344C257.324 584.928 255.696 580.957 256.189 575.225Z"/>
	<path fill="#E9E2D8" d="M482.865 763.734L484.591 763.717L484.665 764.253C481.874 769.481 469.157 775.956 463.654 778.419L463.08 778.539L462.685 778.045C464.305 772.731 463.207 769.159 461.731 763.973C468.78 764.019 475.824 764.127 482.865 763.734Z"/>
	<path fill="#88958A" d="M340.492 505.554C344.206 507.421 350.151 509.161 351.493 513.489C352.653 517.228 352.681 521.662 353.37 525.563C350.88 527.377 348.76 529.087 345.78 530.011C343.571 522.298 341.02 514.277 339.838 506.337L340.492 505.554Z"/>
	<path fill="#E9E2D8" d="M345.78 530.011C348.76 529.087 350.88 527.377 353.37 525.563C355.513 546.909 355.786 566.654 346.337 586.505L345.906 585.77C349.657 569.468 349.198 554.855 343.569 539.124L344.872 536.855C346.25 540.381 347.489 544.379 350.194 547.128L350.331 546.133L349.281 546.163L350.361 546.279C350.337 541.032 347.615 534.892 345.78 530.011Z"/>
	<path fill="#DFB29A" d="M721.151 185.255C726.326 187.715 729.886 190.487 731.929 196.084C733.083 199.246 733.502 202.603 733.745 205.94C719.026 206.603 703.9 207.463 689.261 209.11C696.602 201.72 712.056 191.856 721.151 185.255Z"/>
	<path fill="#E9E2D8" d="M534.826 717.993C540.002 727.435 544.898 737.157 550.891 746.117C546.142 753.017 541.012 759.184 535.484 765.459C528.862 756.837 524.984 748.257 521.796 737.949C527.168 732.206 531.846 725.274 534.826 717.993Z"/>
	<path fill="#E4DDD2" d="M259.894 669.611C273.004 677.555 285.294 684.847 301.072 685.049C298.825 685.549 297.961 685.527 296.666 687.549C293.639 692.276 290.986 697.235 287.962 701.962C284.553 707.29 280.667 712.457 277.54 717.946C276.729 713.548 274.058 708.375 272.49 704.112L259.894 669.611Z"/>
	<path fill="#424F53" d="M360.372 718.769C363.01 718.699 366.313 719.646 368.676 720.775C372.449 722.579 375.441 725.81 376.709 729.821C378.09 734.191 377.653 739.201 375.426 743.217C373.655 746.413 370.621 749.112 367.087 750.119C366.899 750.173 366.708 750.219 366.52 750.274L364.888 750.755C360.656 750.893 356.964 750.645 353.306 748.244C349.609 745.817 347.239 741.868 346.457 737.55C345.691 733.317 346.6 728.78 349.13 725.276C351.936 721.389 355.73 719.501 360.372 718.769Z"/>
	<path fill="#E9E2D8" d="M360.207 722.107C362.895 722.035 365.505 722.572 367.806 723.999Q368.396 724.372 368.944 724.803Q369.492 725.235 369.991 725.722Q370.491 726.209 370.938 726.745Q371.384 727.281 371.772 727.861Q372.16 728.44 372.486 729.057Q372.811 729.674 373.071 730.322Q373.33 730.97 373.521 731.641Q373.711 732.312 373.831 732.999C374.432 736.3 373.78 739.777 371.839 742.531C369.56 745.765 366.905 746.675 363.166 747.381C360.783 747.329 358.544 747.339 356.373 746.241Q355.803 745.946 355.267 745.594Q354.731 745.241 354.234 744.835Q353.738 744.429 353.286 743.974Q352.834 743.518 352.432 743.019Q352.03 742.519 351.681 741.98Q351.333 741.441 351.042 740.87Q350.752 740.297 350.522 739.698Q350.292 739.099 350.126 738.48Q349.955 737.852 349.847 737.21Q349.738 736.568 349.694 735.919Q349.649 735.27 349.669 734.619Q349.688 733.969 349.772 733.323Q349.856 732.678 350.002 732.044Q350.149 731.409 350.358 730.793Q350.567 730.177 350.835 729.584Q351.103 728.991 351.429 728.427C353.454 724.914 356.398 723.161 360.207 722.107Z"/>
	<path fill="#E9E2D8" d="M321.594 619.226L326.236 617.556C327.303 626.739 329.631 636.343 334.133 644.522C335.905 647.739 340.072 651.953 340.782 655.435C341.1 656.993 340.647 657.985 339.645 659.162C337.4 661.798 334.049 663.866 331.267 665.921C322.388 672.479 312.265 680.462 300.956 681.77C304.308 673.662 308.056 665.659 311.147 657.451C315.852 644.952 318.999 632.302 321.594 619.226Z"/>
	<path fill="#DFB29A" d="M646.603 248.517C661.315 248.097 676.005 246.978 690.708 246.334C706.404 245.646 722.142 245.493 737.848 245.133C738.051 250.144 738.432 255.218 738.138 260.228C724.392 264.306 704.295 259.799 689.711 259.515C672.022 259.17 653.139 259.281 635.54 260.965C638.842 256.273 642.314 252.329 646.603 248.517Z"/>
	<path fill="#E9E2D8" d="M534.538 248.208Q590.563 251.133 646.603 248.517C642.314 252.329 638.842 256.273 635.54 260.965C621.909 262.32 607.787 262.004 594.081 262.336C574.425 262.813 554.674 263.856 535.04 262.491C534.654 257.722 534.578 252.989 534.538 248.208Z"/>
	<path fill="#E9E2D8" d="M507.695 729.281C511.238 728.98 514.839 729.001 518.396 728.915C507.59 738.138 499.251 750.383 489.126 760.471C479.901 760.433 470.65 760.917 461.417 760.992L460.729 760.865C456.931 757.198 453.361 736.744 452.179 730.52C470.694 729.572 489.183 729.831 507.695 729.281Z"/>
	<path fill="#DFB29A" d="M683.939 212.851C700.449 210.322 717.553 210.629 734.171 208.983C735.454 219.94 736.775 230.942 737.562 241.947C708.008 242.006 678.594 244.062 649.079 244.97C660.996 234.801 671.786 223.244 684.097 213.538L683.939 212.851Z"/>
	<path fill="#DFB29A" d="M543.287 665.516C546.288 675.207 544.452 683.964 546.553 691.566C547.169 692.128 547.18 692.314 548.063 692.418C550.625 692.721 553.414 691.138 555.424 689.726C560.359 686.258 564.519 681.422 568.659 677.079C575.639 669.756 582.78 662.114 590.803 655.915C593.181 654.079 596.138 651.678 599.294 652.064C599.843 652.596 600.23 652.711 600.273 653.537C600.592 659.702 581.577 675.16 576.976 680.451L576.477 681.03C578.318 681.964 580.171 682.883 582.002 683.836C583.613 684.675 584.883 685.465 585.843 687.05C586.622 688.335 589.206 698.078 589.904 700.405C591.342 705.199 589.503 708.768 587.226 712.876C582.087 719.738 576.496 726.446 569.614 731.641C563.364 736.358 556.103 740.192 550.891 746.117C544.898 737.157 540.002 727.435 534.826 717.993C534.917 711.919 534.868 705.798 535.648 699.765C537.126 688.35 540.68 676.761 543.287 665.516Z"/>
	<path fill="#424F53" d="M570.282 702.653C569.023 702.399 568.957 702.646 568.154 701.549C568.908 698.225 579.472 692.838 582.564 690.508C582.452 694.825 581.895 699.211 581.991 703.51C584.185 706.372 586.87 709.148 587.226 712.876C584.507 712.749 583.228 711.261 581.386 709.404C579.811 710.806 578.399 712.405 576.277 712.855L575.124 712.53C574.917 711.501 574.959 710.689 575.635 709.8C576.663 708.448 578.393 707.435 579.771 706.479C579.192 703.146 579.005 700.026 578.992 696.646C575.994 698.547 573.121 700.523 570.282 702.653Z"/>
	<path fill="#E4DDD2" d="M257.605 663.629C256.661 659.763 255.154 655.529 255.224 651.552C255.677 651.172 256.109 650.778 256.555 650.39C257.284 649.758 258.064 649.136 258.603 648.321C260.5 645.452 261.878 640.852 263.293 637.639C269.483 623.585 275.239 610.066 271.429 594.531C285.731 606.475 301.648 620.72 321.594 619.226C318.999 632.302 315.852 644.952 311.147 657.451C308.056 665.659 304.308 673.662 300.956 681.77C285.383 681.678 269.357 673.398 257.605 663.629Z"/>
	<path fill="#E9E2D8" d="M534.435 217.6L534.719 216.142C537.281 214.434 599.634 216.983 608.416 216.918C633.654 216.733 658.779 214.62 683.939 212.851L684.097 213.538C671.786 223.244 660.996 234.801 649.079 244.97C620.673 247.075 591.613 246.968 563.152 246.082C553.68 245.787 543.924 246.008 534.519 244.866L531.286 244.8C531.305 239.001 530.899 233.149 530.422 227.373L530.589 221.171C531.84 222.611 530.186 224.734 531.481 226.312C532.752 224.87 532.712 220.725 532.91 218.779L534.435 217.6Z"/>
	<path fill="#424F53" d="M530.589 221.171C531.84 222.611 530.186 224.734 531.481 226.312C532.752 224.87 532.712 220.725 532.91 218.779L534.435 217.6C533.905 226.777 534.384 235.706 534.519 244.866L531.286 244.8C531.305 239.001 530.899 233.149 530.422 227.373L530.589 221.171Z"/>
	<path fill="#E4DDD2" d="M311.015 533.679L311.306 533.175C320.41 528.24 331.328 526.173 341.615 526.535C342.449 530.005 344.197 533.473 344.872 536.855L343.569 539.124C349.198 554.855 349.657 569.468 345.906 585.77C345.21 587.176 344.852 588.525 343.53 589.401C342.728 588.926 342.658 588.976 342.153 588.116C341.059 591.484 339.973 594.848 338.73 598.165C335.267 605.216 331.929 612.093 323.954 614.853C321.898 615.565 319.862 615.898 317.712 616.169C300.412 615.317 285.793 602.969 273.449 591.888C273.858 587.111 272.088 582.076 269.141 578.322C265.988 574.305 262.121 572.445 257.161 571.768C255.372 566.707 253.461 563.226 249.998 559.119C252.901 558.952 255.533 559.975 258.375 559.982C259.147 561.068 259.754 561.949 260.896 562.689C263.884 562.529 266.9 562.678 269.871 562.293C277.955 561.247 292.793 557.802 298.779 552.006C298.55 547.257 299.279 544.795 302.358 541.135C303.167 540.576 304.036 540.02 304.768 539.364C306.001 538.258 306.106 537.674 306.2 536.064C306.786 536.066 307.704 536.141 308.299 536.002C309.818 535.647 310.144 534.839 311.015 533.679Z"/>
	<path fill="#424F53" d="M326.892 572.221C328.28 572.913 328.59 572.929 329.308 574.273C329.03 575.483 328.906 575.901 327.74 576.591C327.31 576.846 326.352 576.935 325.897 577.011C326.885 578.401 327.021 578.341 326.816 580.008C326.178 580.753 325.564 581.521 324.856 582.201C322.684 581.865 321.915 581.684 320.494 580.009C320.266 579.516 320.228 579.075 320.148 578.541C322.033 576.072 324.403 574.056 326.892 572.221Z"/>
	<path fill="#525657" d="M320.494 580.009C320.767 579.756 321.161 579.401 321.392 579.134C321.72 578.754 322.219 577.987 322.607 577.66C323.701 576.74 324.58 576.951 325.897 577.011C326.885 578.401 327.021 578.341 326.816 580.008C326.178 580.753 325.564 581.521 324.856 582.201C322.684 581.865 321.915 581.684 320.494 580.009Z"/>
	<path fill="#424F53" d="M302.358 541.135C304.277 542.621 305.684 544.01 306.009 546.524C306.252 548.407 305.849 550.762 304.679 552.299C303.977 553.222 303.291 553.577 302.212 553.908C300.405 553.658 300.011 553.388 298.779 552.006C298.55 547.257 299.279 544.795 302.358 541.135Z"/>
	<path fill="#424F53" d="M319.031 601.84C312.862 600.461 307.83 597.422 304.295 592.073C302.837 589.867 299.676 583.767 300.199 581.234C301.149 580.393 300.919 580.252 302.277 580.316C302.884 581.162 303.709 582.533 304.613 583.059C307.341 584.646 321.759 584.824 325.408 584.005C325.578 583.967 325.746 583.924 325.915 583.883C327.856 583.092 330.893 581.296 332.98 581.91C334.203 583.012 334.769 583.799 334.791 585.503C334.851 589.957 332.441 595.268 329.198 598.281C326.152 601.112 323.081 601.762 319.031 601.84Z"/>
	<path fill="#E4DDD2" d="M304.253 585.797C308.698 586.665 313.342 586.849 317.85 587.343C316.682 588.342 316.549 589.964 316.21 591.395C317.043 593.728 318.004 596.068 318.516 598.495C315.202 597.632 312.73 596.379 310.063 594.221C307.355 591.951 305.843 588.876 304.253 585.797Z"/>
	<path fill="#E9E2D8" d="M317.85 587.343C320.403 587.383 322.503 587.357 324.989 586.681C326.836 586.178 328.255 585.802 330.165 586.085C330.918 586.828 331.144 586.962 331.16 588.093C331.198 590.696 329.343 594.523 327.396 596.246C324.874 598.478 321.698 598.499 318.516 598.495C318.004 596.068 317.043 593.728 316.21 591.395C316.549 589.964 316.682 588.342 317.85 587.343Z"/>
	<path fill="#E9E2D8" d="M335.078 539.03L333.764 538.601C333.245 537.329 333.32 537.345 333.762 536.029C335.079 534.957 336.683 534.368 338.409 534.627C340.221 534.899 341.94 536.279 342.895 537.802C343.297 538.442 343.304 538.511 343.569 539.124C349.198 554.855 349.657 569.468 345.906 585.77C345.21 587.176 344.852 588.525 343.53 589.401C342.728 588.926 342.658 588.976 342.153 588.116C341.059 591.484 339.973 594.848 338.73 598.165C335.267 605.216 331.929 612.093 323.954 614.853C321.898 615.565 319.862 615.898 317.712 616.169C317.581 612.109 315.881 605.96 317.445 602.209L319.031 601.84C323.081 601.762 326.152 601.112 329.198 598.281C332.441 595.268 334.851 589.957 334.791 585.503C334.769 583.799 334.203 583.012 332.98 581.91C330.893 581.296 327.856 583.092 325.915 583.883L324.962 583.217L324.856 582.201C325.564 581.521 326.178 580.753 326.816 580.008C327.021 578.341 326.885 578.401 325.897 577.011C326.352 576.935 327.31 576.846 327.74 576.591C328.906 575.901 329.03 575.483 329.308 574.273C328.59 572.929 328.28 572.913 326.892 572.221C325.248 566.841 331.447 558.803 332.398 553.332C332.565 552.374 332.771 551.712 333.24 550.837C333.196 549.413 332.921 547.652 333.119 546.258C333.337 544.732 334.519 543.887 335.608 542.936C335.186 541.812 335.525 540.356 335.078 539.03Z"/>
	<path fill="#424F53" d="M335.608 542.936C337.394 544.422 337.974 545.232 338.193 547.635C338.321 549.038 338.295 550.491 337.386 551.654C336.941 552.223 336.455 552.18 335.793 552.343C334.686 551.965 334.091 551.642 333.24 550.837C333.196 549.413 332.921 547.652 333.119 546.258C333.337 544.732 334.519 543.887 335.608 542.936Z"/>
	<path fill="#424F53" d="M335.078 539.03L333.764 538.601C333.245 537.329 333.32 537.345 333.762 536.029C335.079 534.957 336.683 534.368 338.409 534.627C340.221 534.899 341.94 536.279 342.895 537.802C343.297 538.442 343.304 538.511 343.569 539.124C349.198 554.855 349.657 569.468 345.906 585.77C345.21 587.176 344.852 588.525 343.53 589.401C342.728 588.926 342.658 588.976 342.153 588.116C345.926 574.182 347.636 557.129 342.063 543.415C341.164 541.202 340.074 538.6 337.729 537.624C336.168 537.761 336.199 537.901 335.078 539.03Z"/>
	<path fill="#E9E2D8" d="M340.684 663.162C336.523 685.702 330.869 707.953 326.303 730.423C321.057 756.24 316.861 782.359 312.627 808.36C308.385 834.416 304.035 860.479 301.566 886.773C300.607 881.355 300.716 875.574 300.466 870.072C300.159 863.323 299.657 856.632 299.06 849.903Q296.746 824.53 293.538 799.255C290.223 771.332 286.754 744.638 277.54 717.946C280.667 712.457 284.553 707.29 287.962 701.962C290.986 697.235 293.639 692.276 296.666 687.549C297.961 685.527 298.825 685.549 301.072 685.049C316.945 682.313 327.737 671.842 340.684 663.162Z"/>
	<path fill="#88958A" d="M246.089 537.936C245.649 527.533 244.568 522.757 248.867 512.735C253.301 502.4 260.29 494.8 270.873 490.678C275.894 488.722 281.087 487.938 286.293 486.706C301.144 483.191 315.554 479.934 330.183 486.497C339.225 490.553 345.307 497.209 348.774 506.446L342.535 503.733C341.883 504.546 341.463 505.13 340.492 505.554L339.838 506.337C341.02 514.277 343.571 522.298 345.78 530.011C347.615 534.892 350.337 541.032 350.361 546.279L349.281 546.163L350.331 546.133L350.194 547.128C347.489 544.379 346.25 540.381 344.872 536.855C344.197 533.473 342.449 530.005 341.615 526.535C331.328 526.173 320.41 528.24 311.306 533.175L311.015 533.679C310.144 534.839 309.818 535.647 308.299 536.002C307.704 536.141 306.786 536.066 306.2 536.064C306.106 537.674 306.001 538.258 304.768 539.364C304.036 540.02 303.167 540.576 302.358 541.135C299.279 544.795 298.55 547.257 298.779 552.006C292.793 557.802 277.955 561.247 269.871 562.293C266.9 562.678 263.884 562.529 260.896 562.689C259.754 561.949 259.147 561.068 258.375 559.982C255.533 559.975 252.901 558.952 249.998 559.119C249.87 559.03 249.733 558.954 249.614 558.853C246.485 556.19 243.104 551.975 242.547 547.819C241.964 543.467 243.606 541.226 246.089 537.936Z"/>
	<path fill="#424F53" d="M306.2 536.064C299.576 535.71 296.272 541.262 292.953 541.422L292.241 540.606C292.355 539.688 292.261 539.557 292.883 538.785C295.627 535.382 302.576 532.594 306.813 532.385C308.671 532.293 309.685 532.421 311.015 533.679C310.144 534.839 309.818 535.647 308.299 536.002C307.704 536.141 306.786 536.066 306.2 536.064Z"/>
	<path fill="#424F53" d="M336.21 504.324C331.724 502.968 311.529 498.105 309.507 495.458L310.062 494.659C316.756 493.865 335.852 500.99 342.535 503.733C341.883 504.546 341.463 505.13 340.492 505.554L339.838 506.337C341.02 514.277 343.571 522.298 345.78 530.011C347.615 534.892 350.337 541.032 350.361 546.279L349.281 546.163L350.331 546.133L350.194 547.128C347.489 544.379 346.25 540.381 344.872 536.855C344.197 533.473 342.449 530.005 341.615 526.535Q338.56 515.515 336.21 504.324Z"/>
	<path fill="#424F53" d="M258.813 554.759C254.7 552.234 247.098 548.485 245.796 543.6C244.985 540.553 246.375 537.725 247.976 535.208C253.919 525.861 264.738 521.659 273.518 515.455C279.175 511.458 282.458 497.304 288.039 494.924C288.521 499.936 282.282 509.809 279.107 513.656C270.422 524.179 251.845 527.802 248.912 541.038C249.589 545.083 253.416 548.333 256.654 550.573C257.98 551.49 259.031 552.075 260.679 552.11C262.296 551.501 264.026 550.89 264.713 549.121C265.976 545.865 262.627 542.885 263.538 540.108C277.271 533.766 288.398 526.325 296.833 513.439C298.726 510.548 300.748 507.396 301.954 504.143C302.762 501.963 303.103 499.559 302.065 497.392C300.019 493.117 291.528 491.818 291.105 488.202C291.903 487.702 292.104 487.543 293.094 487.751C296.666 488.501 302.637 492.234 304.523 495.273C306.025 497.693 305.945 500.536 305.206 503.194C304.271 506.551 302.532 509.73 300.8 512.731C292.847 526.513 280.903 534.693 267.365 542.464C267.85 544.992 268.636 547.974 267.052 550.294C264.257 554.386 261.022 555.271 260.962 560.739C260.955 561.388 260.917 562.041 260.896 562.689C259.754 561.949 259.147 561.068 258.375 559.982C258.256 558.123 258.426 556.579 258.813 554.759Z"/>
	<path fill="#88958A" d="M434.379 248.804C448.813 239.288 502.978 246.497 522.374 247.5C508.945 284.648 483.842 316.493 463.105 349.643C455.1 362.44 446.372 376.312 441.417 390.595C440.128 385.667 440.661 378.89 440.432 373.697Q439.511 355.668 438.785 337.63C437.546 308.021 435.314 278.417 434.379 248.804Z"/>
	<path fill="#E9E2D8" d="M534.76 212.364C535.696 206.372 537.324 200.882 541.372 196.199C553.738 181.891 577.161 186.953 593.696 185.768C596.348 184.402 596.494 181.075 597.413 178.515C601.165 168.067 609.863 158.101 619.979 153.473C638.814 144.856 660.737 150.575 672.136 168.106C674.009 170.985 677.565 180.677 679.758 182.097C680.947 182.866 706.073 182.429 710.341 182.832C714.141 183.191 717.577 183.918 721.151 185.255C712.056 191.856 696.602 201.72 689.261 209.11C681.028 210.078 672.657 210.466 664.386 211.055C648.127 212.212 631.752 213.312 615.452 213.517C588.567 213.856 561.651 212.636 534.76 212.364Z"/>
	<path fill="#424F53" d="M634.285 161.631C640.209 161.199 645.795 162.395 650.824 165.63C655.987 168.951 660.353 174.344 661.519 180.476C662.408 185.153 661.456 190.133 658.582 193.972C654.525 199.389 648.238 201.248 641.893 202.312C635.781 202.705 630.305 202.51 624.945 199.106C619.726 195.792 615.686 190.047 614.483 183.968C613.562 179.317 614.445 174.583 617.232 170.71C621.306 165.049 627.647 162.651 634.285 161.631Z"/>
	<path fill="#E9E2D8" d="M635.752 164.668C640.129 164.525 644.123 165.473 647.915 167.709C652.682 170.52 656.911 175.285 658.134 180.789Q658.294 181.477 658.381 182.179Q658.468 182.88 658.48 183.587Q658.493 184.293 658.431 184.997Q658.369 185.701 658.234 186.395Q658.099 187.089 657.891 187.764Q657.683 188.44 657.406 189.09Q657.129 189.74 656.784 190.357Q656.44 190.974 656.033 191.552C652.326 196.823 646.513 198.219 640.556 199.275C635.315 199.77 630.525 198.936 626.113 195.877C621.754 192.853 618.585 188.048 617.821 182.767C617.261 178.899 618.188 175.187 620.607 172.101C624.352 167.322 629.982 165.488 635.752 164.668Z"/>
	<path fill="#E9E2D8" d="M356.237 523.371C361.653 517.835 367.524 512.645 372.578 506.771C383.744 493.794 393.318 478.933 402.975 464.807C404.837 498.631 403.475 532.37 403.257 566.202L402.84 635.876C402.826 645.527 403.334 655.235 403.115 664.873C393.589 659.301 384.357 653.672 374.104 649.454C367.723 646.829 360.979 645.217 354.61 642.655C351.799 641.524 349.666 638.627 346.768 637.858C343.339 636.948 338.6 637.413 334.511 636.535C331.397 629.517 330.513 623.383 329.848 615.763C335.381 611.528 338.322 606.39 341.865 600.519C349.559 587.769 354.69 577.017 356.685 562.072Q357.293 557.255 357.569 552.408Q357.846 547.561 357.789 542.706Q357.733 537.851 357.345 533.012Q356.956 528.172 356.237 523.371Z"/>
	<path fill="#E9E2D8" d="M437.741 397.453C437.94 399.335 438.202 401.204 438.464 403.077Q443.018 549.131 444.046 695.253C441.005 689.563 438.182 684.775 431.545 682.923C429.362 682.314 427.366 682.48 425.154 682.802C419.192 677.211 412.994 672.206 406.422 667.364Q405.755 611.45 406.58 555.539C406.797 541.462 407.372 527.391 407.463 513.312C407.584 494.756 406.424 476.237 406.452 457.688C409.694 453.639 412.144 448.102 414.615 443.545Q426.836 420.829 437.741 397.453Z"/>
	<path fill="#88958A" d="M405.418 219.064C435.691 218.113 465.891 216.208 496.196 215.652C507.173 215.45 519.28 214.401 530.13 215.733C530.922 216.863 530.565 219.723 530.589 221.171L530.422 227.373C530.899 233.149 531.305 239.001 531.286 244.8L523.954 244.45C507.058 243.224 444.643 236.297 433.319 246.36C431.49 247.985 431.591 249.939 431.552 252.186C431.328 264.894 432.71 278.009 433.288 290.728Q434.734 327.966 436.687 365.181L437.935 391.623C438.11 395.369 438.729 399.358 438.464 403.077C438.202 401.204 437.94 399.335 437.741 397.453Q426.836 420.829 414.615 443.545C412.144 448.102 409.694 453.639 406.452 457.688C405.629 421.676 405.493 385.654 404.395 349.648C403.069 306.164 400.113 262.433 405.418 219.064Z"/>
	<path fill="#E9E2D8" d="M523.954 244.45C526.641 238.966 527.619 232.691 530.422 227.373C530.899 233.149 531.305 239.001 531.286 244.8L523.954 244.45Z"/>
	<path fill="#E9E2D8" d="M425.556 686.068C427.2 685.889 428.908 685.7 430.529 686.117C446.462 690.215 448.937 734.563 452.36 748.396C454.213 755.881 458.921 762.941 460.185 770.386C460.815 774.099 457.234 778.312 459.171 781.758C460.129 782.135 460.894 782.349 461.92 782.23C464.93 781.882 467.983 780.163 470.617 778.742C489.806 768.389 503.93 749.505 517.714 733.118C519.115 745.246 524.832 758.452 532.73 767.771C535.585 771.141 547.185 779.434 547.791 782.142C550.047 792.222 526.705 822.365 520.671 831.113C509.336 846.645 496.848 862.95 481.725 874.986C473.322 881.674 462.877 887.194 451.799 885.684C440.255 884.111 430.458 876.34 423.594 867.313C417.694 859.555 413.578 850.634 410.261 841.51C400.489 814.629 399.772 787.989 403.643 759.971C405.944 743.316 412.069 696.289 425.556 686.068Z"/>
	<path fill="#E9E2D8" d="M522.374 247.5C525.388 247.624 528.408 247.695 531.403 248.07C531.477 253.84 531.408 259.629 532.196 265.356C550.581 266.853 568.67 266.173 587.085 265.638Q609.511 265.209 631.925 264.347C629.716 268.81 565.992 321.747 559.464 324.545Q564.001 336.567 568.257 348.692C574.011 365.163 579.127 381.521 571.381 398.342Q570.934 399.295 570.441 400.226Q569.948 401.156 569.41 402.061Q568.871 402.966 568.29 403.843Q567.708 404.721 567.083 405.569Q566.459 406.417 565.794 407.233Q565.129 408.049 564.425 408.832Q563.72 409.615 562.979 410.362Q562.237 411.109 561.459 411.819Q560.682 412.529 559.87 413.2Q559.059 413.871 558.215 414.501Q557.372 415.131 556.499 415.72Q555.625 416.308 554.724 416.852Q553.823 417.397 552.896 417.897Q551.97 418.397 551.02 418.851Q550.07 419.304 549.098 419.711Q548.127 420.118 547.137 420.476C536.363 424.356 524.307 423.186 514.103 418.249Q511.113 416.77 508.269 415.028Q505.424 413.287 502.746 411.298Q500.069 409.308 497.581 407.087Q495.093 404.866 492.814 402.43C476.427 433.734 470.762 465.765 472.906 500.918C473.372 508.554 473.433 516.947 475.674 524.299C475.715 524.432 475.763 524.562 475.808 524.693C467.227 543.601 462.665 562.792 470.173 583.018C473.436 591.807 479.03 601.506 485.846 608.016C489.214 611.234 493.241 613.799 496.481 617.142C500.956 627.425 504.495 638.01 508.351 648.531Q515.316 667.231 522.728 685.759C524.969 691.291 528.094 700.549 531.529 705.238C531.45 714.317 532.53 717.259 527.404 725.464C502.25 727.011 476.9 726.497 451.702 727.139C450.599 718.792 447.841 710.439 447.026 702.165C446.549 697.331 447.356 692.238 447.44 687.368C447.564 680.155 447.246 672.887 447.088 665.672L445.311 545.591Q444.586 494.053 443.043 442.534C442.559 425.276 441.176 407.829 441.417 390.595C446.372 376.312 455.1 362.44 463.105 349.643C483.842 316.493 508.945 284.648 522.374 247.5Z"/>
	<path fill="#424F53" d="M492.814 402.43C489.924 398.98 487.404 395.419 485.378 391.386C478.053 376.801 479.137 359.743 484.212 344.61C490.823 324.894 511.053 297.936 530.249 288.871C533.129 287.511 536.766 286.438 539.862 287.758C547.445 290.992 556.027 316.694 559.464 324.545Q564.001 336.567 568.257 348.692C574.011 365.163 579.127 381.521 571.381 398.342Q570.934 399.295 570.441 400.226Q569.948 401.156 569.41 402.061Q568.871 402.966 568.29 403.843Q567.708 404.721 567.083 405.569Q566.459 406.417 565.794 407.233Q565.129 408.049 564.425 408.832Q563.72 409.615 562.979 410.362Q562.237 411.109 561.459 411.819Q560.682 412.529 559.87 413.2Q559.059 413.871 558.215 414.501Q557.372 415.131 556.499 415.72Q555.625 416.308 554.724 416.852Q553.823 417.397 552.896 417.897Q551.97 418.397 551.02 418.851Q550.07 419.304 549.098 419.711Q548.127 420.118 547.137 420.476C536.363 424.356 524.307 423.186 514.103 418.249Q511.113 416.77 508.269 415.028Q505.424 413.287 502.746 411.298Q500.069 409.308 497.581 407.087Q495.093 404.866 492.814 402.43Z"/>
	<path fill="#E9E2D8" d="M494.405 399.233Q492.459 397.044 490.839 394.604Q489.219 392.164 487.956 389.521C481.185 375.504 482.609 359.083 487.626 344.723C493.974 326.555 505.931 311.409 520.828 299.432C524.251 296.679 527.874 293.685 531.905 291.851C534.088 290.858 536.964 290.105 539.247 291.239C544.469 293.834 553.903 319.883 556.8 326.638C538.979 340.963 520.458 360.986 507.066 379.449C502.52 385.716 499.209 393.28 494.405 399.233Z"/>
	<path fill="#DFB29A" d="M556.8 326.638C559.707 333.659 562.178 340.857 564.68 348.03C570.068 363.479 575.792 379.47 569.245 395.546C565.309 405.212 557.241 412.962 547.596 416.865C537.98 420.756 527.415 420.342 517.927 416.3C509.273 412.615 500.512 406.416 494.405 399.233C499.209 393.28 502.52 385.716 507.066 379.449C520.458 360.986 538.979 340.963 556.8 326.638Z"/>
	<path fill="#88958A" d="M458.385 125.374C471.233 121.865 482.176 122.783 493.863 129.453C511.933 139.765 526.094 158.336 531.401 178.395C533.293 185.548 534.011 192.819 534.757 200.158C533.075 204.274 531.581 208.138 530.786 212.537Q492.059 212.615 453.355 213.93C436.988 214.433 418.595 214.666 402.46 216.659C400.839 223.613 400.957 231.628 400.503 238.776C398.477 270.696 399.758 302.28 400.712 334.188C402.012 377.67 403.285 421.305 402.975 464.807C393.318 478.933 383.744 493.794 372.578 506.771C367.524 512.645 361.653 517.835 356.237 523.371C355.294 517.792 354.915 509.874 350.02 506.249L350.028 505.559C350.057 499.341 346.771 495.654 342.515 491.459C334.1 483.166 322.417 479.497 310.759 479.645C302.341 479.752 294.974 482.083 286.9 484.063C274.42 487.124 265.062 487.664 255.49 497.493C247.901 505.287 241.96 517.721 242.163 528.748C242.207 531.118 242.548 533.492 243.052 535.805C240.361 540.067 238.719 543.676 239.947 548.83C240.604 551.588 242.175 554.249 243.45 556.764C233.139 552.577 223.525 543.764 215.673 536.043C185.469 506.347 162.672 470.13 144.401 432.097Q138.642 419.851 133.601 407.293C131.228 401.266 129.243 394.952 126.224 389.222L125.828 388.482C150.209 365.903 181.886 345.591 210.849 329.298C222.721 322.619 234.856 316.555 246.579 309.565C274.156 293.121 305.293 270.568 329.874 249.518C346.098 235.625 362.397 221.205 376.864 205.46C386.884 194.554 396.415 182.944 405.632 171.352C414.939 159.647 423.532 146.97 435.31 137.562C442.567 131.766 449.65 128.355 458.385 125.374Z"/>
	<path fill="#DFB29A" d="M737.509 208.912C772.484 206.505 807.413 204.467 842.463 207.021C843.847 242.018 847.141 276.851 848.3 311.86C849.152 337.622 847.711 363.403 848.22 389.155C848.529 404.752 850.386 420.245 850.739 435.853Q852.778 529.121 852.99 622.411C853.273 649.386 856.677 676.084 857.304 702.992C857.521 712.289 856.78 721.714 856.468 731.018C856.223 738.316 856.586 746.155 855.647 753.358C841.487 756.995 825.595 755.337 811.114 754.842C797.23 754.366 783.28 753.867 769.386 754.01C747.085 754.239 724.95 757.589 702.597 757.945C678.176 758.334 653.733 757.307 629.314 757.073Q591.827 757.08 554.351 757.962C553.87 755.273 553.073 753.203 551.412 751.02C556.525 743.592 565.046 739.104 572.107 733.785C578.682 728.833 584.768 722.669 589.343 715.809C593.537 709.519 595.442 702.809 592.225 695.569C591.315 693.52 589.764 691.554 589.144 689.402C588.807 688.231 588.762 686.976 588.427 685.812C587.667 683.173 583.931 681.609 581.671 680.415C588.173 673.928 595.577 668.093 600.937 660.567C602.614 658.211 604.779 654.682 603.936 651.637C603.596 650.41 602.747 649.239 601.605 648.643C590.585 642.897 561.14 685.037 551.529 688.348C550.435 688.724 550.293 688.587 549.341 688.076C547.314 683.848 549.165 673.26 547.212 667.187C546.643 665.416 545.639 663.219 543.825 662.448C543.053 662.12 542.744 662.441 542.015 662.708C538.026 666.997 532.296 698.548 531.529 705.238C528.094 700.549 524.969 691.291 522.728 685.759Q515.316 667.231 508.351 648.531C504.495 638.01 500.956 627.425 496.481 617.142C493.241 613.799 489.214 611.234 485.846 608.016C479.03 601.506 473.436 591.807 470.173 583.018C462.665 562.792 467.227 543.601 475.808 524.693C475.763 524.562 475.715 524.432 475.674 524.299C473.433 516.947 473.372 508.554 472.906 500.918C470.762 465.765 476.427 433.734 492.814 402.43Q495.093 404.866 497.581 407.087Q500.069 409.308 502.746 411.298Q505.424 413.287 508.269 415.028Q511.113 416.77 514.103 418.249C524.307 423.186 536.363 424.356 547.137 420.476Q548.127 420.118 549.098 419.711Q550.07 419.304 551.02 418.851Q551.97 418.397 552.896 417.897Q553.823 417.397 554.724 416.852Q555.625 416.308 556.499 415.72Q557.372 415.131 558.215 414.501Q559.059 413.871 559.87 413.2Q560.682 412.529 561.459 411.819Q562.237 411.109 562.979 410.362Q563.72 409.615 564.425 408.832Q565.129 408.049 565.794 407.233Q566.459 406.417 567.083 405.569Q567.708 404.721 568.29 403.843Q568.871 402.966 569.41 402.061Q569.948 401.156 570.441 400.226Q570.934 399.295 571.381 398.342C579.127 381.521 574.011 365.163 568.257 348.692Q564.001 336.567 559.464 324.545C565.992 321.747 629.716 268.81 631.925 264.347L632.885 264.214C639.145 263.394 645.917 263.557 652.247 263.339C662.419 262.988 672.671 262.463 682.848 262.577C691.776 262.678 736.006 267.48 740.568 262.85C742.619 257.936 741.234 250.273 740.906 245.019Q761.267 244.642 781.63 244.935C791.425 245.021 801.331 244.94 811.098 245.693C811.669 254.356 811.502 263.069 811.71 271.748L813.021 313.464Q814.718 381.168 815.475 448.89L815.342 529.68C815.609 568.032 817.868 606.362 819.309 644.68C819.86 659.34 819.966 674.082 820.266 688.756C820.356 693.126 820.57 715.562 818.162 717.662C813.797 721.47 765.073 719.718 756.858 719.882C746.028 720.097 735.255 721.722 724.407 721.933C709.221 722.228 694.071 721.544 678.892 721.478Q654.335 721.572 629.792 722.42C621.662 722.666 613.092 721.912 605.04 722.909C603.876 723.053 603.248 723.171 602.395 724.019C604.181 725.602 608.296 725.491 610.69 725.553C630.661 726.071 650.807 724.592 670.804 724.504C691.35 724.413 711.916 725.767 732.443 724.522C741.671 723.962 750.921 722.793 760.158 722.591C776.302 722.238 801.582 724.745 816.463 722.048C818.235 721.727 820.289 721.091 821.462 719.62C823.932 716.522 823.537 699.296 823.516 694.543C823.271 639.185 818.845 583.948 818.444 528.608L818.454 453.25Q818.013 388.309 816.448 323.385Q815.788 295.027 814.701 266.682C814.423 258.681 814.614 250.6 814.04 242.62C805.099 241.893 796.144 241.987 787.181 241.889Q763.903 241.587 740.627 241.971C739.815 231.112 739.315 219.647 737.509 208.912Z"/>
	<path fill="#424F53" d="M784.329 414.975C785.522 415.204 785.685 415.415 786.599 416.244L786.618 417.305C786.16 417.816 786.092 417.939 785.446 418.39C772.005 427.778 742.242 423.512 726.28 423.732C714.871 423.89 703.502 425.301 692.101 425.568C683.035 425.781 674.073 424.552 665.066 423.718C656.018 422.88 646.655 422.488 637.806 420.398C636.558 419.895 636.222 419.303 635.478 418.24L635.674 417.478C639.033 416.854 674.191 421.731 680.924 422.312C696.666 423.671 712.631 420.871 728.387 420.561C741.072 420.312 753.805 422.582 766.462 420.925C773.031 420.064 778.578 418.236 784.329 414.975Z"/>
	<path fill="#424F53" d="M788.81 546.187L791.643 545.906L792.442 547.067L791.657 545.987L792.747 546.565C792.582 547.462 792.341 547.712 791.569 548.271C786.285 552.094 763.237 550.395 756.049 550.642C742.476 551.108 728.962 553.158 715.395 553.866C690.725 555.152 665.396 553.711 640.881 550.853C639.241 550.64 638.396 550.878 637.31 549.578L637.465 549.248C641.744 546.356 658.201 549.486 663.95 549.873C679.797 550.941 695.75 551.833 711.628 551.016C725.135 550.32 738.563 548.35 752.06 547.642C764.424 546.993 776.45 547.935 788.81 546.187Z"/>
	<path fill="#424F53" d="M788.245 352.577C789.066 352.642 788.626 352.504 789.457 353.245C789.58 354.759 789.665 354.673 788.696 355.828C776.751 361.274 738.277 357.987 724.234 357.341Q710.191 356.719 696.135 356.631C676.795 356.62 656.856 358.792 637.617 357.227C636.735 356.615 636.326 356.156 635.78 355.233L636.123 354.38Q672.719 353.089 709.331 353.778Q721.994 353.988 734.641 354.64C752.684 355.625 770.503 357.214 788.245 352.577Z"/>
	<path fill="#424F53" d="M787.514 605.597C787.608 605.586 787.702 605.562 787.797 605.563C789.102 605.581 789.401 605.558 790.359 606.372C790.114 607.606 789.971 607.722 788.884 608.502C785.055 611.254 761.578 613.308 756.432 613.51C739.38 614.176 722.155 612.236 705.079 612.07C683.681 611.861 662.467 614.103 641.124 611.299C639.427 610.969 638.592 610.613 637.519 609.211L637.796 608.647C639.409 607.707 663.04 609.489 666.885 609.515C681.185 609.613 695.458 608.78 709.752 609.016C738.238 609.486 758.719 612.748 787.514 605.597Z"/>
	<path fill="#424F53" d="M681.578 481.71C694.151 480.271 707.247 481.81 719.748 483.113C736.024 484.809 755.094 486.87 771.41 485.181C775.505 484.758 786.137 482.185 789.29 484.312L788.996 485.026C781.118 489.961 751.445 488.857 741.382 488.082C727.083 487.981 712.983 484.705 698.702 484.323Q689.509 484.126 680.335 484.756C667.634 485.637 645.229 489.572 634.043 484.525L633.785 483.606L634.368 482.635C634.82 482.404 635.221 482.011 635.724 481.943C637.428 481.712 648.42 483.465 651.855 483.499C661.721 483.595 671.749 482.464 681.578 481.71Z"/>
	<path fill="#424F53" d="M475.808 524.693C479.672 517.29 483.545 509.863 488.138 502.878C497.282 488.972 523.763 455.41 539.115 450.654C542.254 449.681 545.794 449.416 548.73 451.14C552.061 453.096 553.708 456.955 555.198 460.351C560.399 472.211 562.793 485.518 567.343 497.704C573.486 514.154 582.138 529.161 590.219 544.663C592.346 548.743 594.24 553.07 595.256 557.573C598.422 571.595 592.993 587.942 585.425 599.69Q584.638 600.93 583.789 602.13Q582.941 603.329 582.034 604.485Q581.127 605.641 580.163 606.75Q579.199 607.859 578.182 608.919Q577.164 609.978 576.094 610.986Q575.025 611.993 573.907 612.946Q572.788 613.899 571.624 614.795Q570.46 615.691 569.252 616.528Q568.044 617.365 566.797 618.14Q565.549 618.916 564.264 619.628Q562.979 620.34 561.66 620.988Q560.341 621.635 558.991 622.216Q557.641 622.796 556.265 623.309Q554.888 623.822 553.487 624.265Q552.086 624.708 550.665 625.081Q549.244 625.454 547.806 625.756C534.554 628.486 520.055 626.889 507.472 622.071C503.742 620.643 500.168 618.463 496.481 617.142C493.241 613.799 489.214 611.234 485.846 608.016C479.03 601.506 473.436 591.807 470.173 583.018C462.665 562.792 467.227 543.601 475.808 524.693Z"/>
	<path fill="#E9E2D8" d="M475.804 533.502C478.059 537.96 478.505 548.123 479.74 553.479C481.374 560.565 482.96 567.744 484.849 574.762C486.829 582.12 494.534 604.992 494.383 610.931C485.984 603.913 479.41 596.475 475.075 586.305C467.6 568.77 468.767 550.924 475.804 533.502Z"/>
	<path fill="#DFB29A" d="M475.804 533.502Q481.036 520.673 488.18 508.803C497.224 494.088 523.111 460.575 538.172 454.498C540.67 453.49 543.836 452.721 546.42 453.872C550.148 455.532 552.072 460.326 553.288 463.95C555.835 471.542 557.614 479.39 560.015 487.029C562.144 493.803 564.879 500.56 567.753 507.054C571.838 516.281 576.219 525.571 581.009 534.455C584.217 540.405 587.856 546.192 590.274 552.527C595.2 565.434 592.108 579.758 586.112 591.768C579.327 605.354 568.053 616.223 553.502 621.022C537.787 626.206 517.94 624.383 503.219 616.921Q500.831 615.706 498.614 614.202Q496.396 612.699 494.383 610.931C494.534 604.992 486.829 582.12 484.849 574.762C482.96 567.744 481.374 560.565 479.74 553.479C478.505 548.123 478.059 537.96 475.804 533.502Z"/>
</svg>
