<?xml version="1.0" encoding="utf-8" ?>
<svg xmlns="http://www.w3.org/2000/svg" xmlns:xlink="http://www.w3.org/1999/xlink" width="1024" height="1024">
	<path d="M748.919 281.646C750.559 285.449 749.391 288.858 750.272 292.616L749.951 294.467C747.666 290.624 748.571 285.891 748.919 281.646Z"/>
	<path d="M352.26 493.501C353.443 499.987 353.858 508.552 352.869 515.142L353.524 515.712L353.329 516.068C351.096 514.407 352.108 507.198 351.583 504.226C351.519 501.596 351.333 498.99 351.128 496.368C351.313 495.331 351.813 494.449 352.26 493.501Z"/>
	<path fill="#83AAE8" d="M553.842 384.289L560.619 384.381L563.676 384.643C563.653 388.334 563.685 392.025 563.348 395.704L561.379 395.719C561.817 396.962 562.199 398.249 562.784 399.43L562.73 400.033C561.698 412.637 563.097 425.501 562.702 438.153C561.867 464.884 548.742 490.943 528.427 508.253C525.84 510.457 523.056 512.589 520.149 514.355L513.688 508.478C521.036 503.269 528.534 497.011 534.413 490.209C553.202 468.469 553.839 442.914 554.099 415.728C554.199 405.259 554.608 394.738 553.842 384.289Z"/>
	<path fill="#4784D4" d="M560.619 384.381L563.676 384.643C563.653 388.334 563.685 392.025 563.348 395.704L561.379 395.719C560.899 391.98 560.768 388.148 560.619 384.381Z"/>
	<path fill="#D9564C" d="M388.221 501.834C392.291 489.475 403.1 476.741 413.082 468.668C415.905 466.385 419.405 464.185 423.204 464.791C425.947 465.228 427.869 467.402 429.474 469.479C431.244 471.819 433.24 473.635 435.832 475.025C443.401 483.337 451.666 491.53 460.305 498.708C450.965 501.786 442.443 505.567 434.453 511.373L418.641 498.179C413.051 503.834 405.976 506.168 399.096 509.838C397.085 508.945 395.045 507.848 392.866 507.477C391.159 505.713 389.707 503.78 388.221 501.834Z"/>
	<path d="M764.723 247.999C767.436 241.25 772.285 236.378 778.991 233.509Q779.68 233.212 780.383 232.95Q781.086 232.688 781.802 232.461Q782.517 232.235 783.243 232.045Q783.969 231.855 784.704 231.702Q785.439 231.548 786.18 231.433Q786.922 231.317 787.668 231.238Q788.414 231.16 789.164 231.119Q789.913 231.078 790.663 231.075Q791.414 231.073 792.163 231.107Q792.913 231.142 793.66 231.215Q794.407 231.288 795.149 231.398Q795.891 231.508 796.627 231.656Q797.363 231.803 798.091 231.988Q798.818 232.172 799.535 232.393Q800.252 232.614 800.958 232.87Q801.663 233.127 802.354 233.419C811.119 237.029 818.408 244.53 821.931 253.307C824.976 260.894 825.817 270.671 822.477 278.268C820.046 283.799 815.751 287.419 810.422 289.988L810.073 289.223C809.265 287.427 807.507 284.161 807.507 282.325C808.221 282.048 808.619 282.065 809.372 282.069C811.685 280.535 813.104 278.065 813.572 275.328C813.813 273.919 813.643 272.976 813.173 271.648C811.425 269.375 807.133 269.044 804.408 268.709C799.131 268.061 793.765 267.891 788.455 267.653C788.359 269.783 788.406 271.736 787.467 273.697L786.825 273.812C785.807 271.917 785.963 269.927 785.912 267.832C782.929 267.799 779.938 267.718 776.955 267.744C777.771 273.799 779.249 279.102 781.376 284.822C775.477 285.482 769.958 285.412 764.058 284.814C760.624 279.333 759.048 273.876 758.332 267.461L750.866 267.577C750.991 275.611 751.928 284.772 750.272 292.616C749.391 288.858 750.559 285.449 748.919 281.646C748.746 277.191 748.928 272.692 748.981 268.234C747.819 267.452 746.351 266.553 745.85 265.188C745.563 264.406 745.889 264.146 746.197 263.439C750.83 260.599 761.066 262.115 766.514 262.312C766.498 258.881 766.332 255.416 766.982 252.031C766.224 250.692 765.441 249.36 764.723 247.999Z"/>
	<path fill="#FEFEFE" d="M760.744 267.435C762.193 267.387 763.5 267.197 764.809 267.94C768.154 271.792 768.587 278.725 769.648 283.667C767.98 283.545 766.453 283.265 765.133 282.186C761.038 278.838 761.068 272.264 760.744 267.435Z"/>
	<path fill="#FEFEFE" d="M768.459 267.501C769.747 267.465 771.539 267.245 772.725 267.804C776.027 269.359 776.142 275.763 777.013 278.776C777.49 280.424 778.32 281.999 779.075 283.536Q777.832 283.634 776.585 283.661C774.61 283.687 773.131 283.009 771.762 281.582C768.414 278.091 768.5 272.031 768.459 267.501Z"/>
	<path fill="#FEFEFE" d="M766.982 252.031L767.689 252.171C775.957 253.726 797.63 250.323 802.529 257.833C803.007 258.566 803.144 259.399 803.317 260.24L802.963 261.213C796.126 264.203 774.922 262.298 766.514 262.312C766.498 258.881 766.332 255.416 766.982 252.031Z"/>
	<path fill="#FEFEFE" d="M750.866 267.577L758.332 267.461C759.048 273.876 760.624 279.333 764.058 284.814C769.958 285.412 775.477 285.482 781.376 284.822C779.249 279.102 777.771 273.799 776.955 267.744C779.938 267.718 782.929 267.799 785.912 267.832C785.963 269.927 785.807 271.917 786.825 273.812L787.467 273.697C788.406 271.736 788.359 269.783 788.455 267.653C793.765 267.891 799.131 268.061 804.408 268.709C807.133 269.044 811.425 269.375 813.173 271.648C813.643 272.976 813.813 273.919 813.572 275.328C813.104 278.065 811.685 280.535 809.372 282.069C808.619 282.065 808.221 282.048 807.507 282.325C807.507 284.161 809.265 287.427 810.073 289.223L810.422 289.988C815.513 292.654 819.006 295.618 822.257 300.38C819.47 307.252 816.793 314.803 815.288 322.092L756.873 322.069C756.463 317.431 756.182 312.775 755.843 308.131C757.75 306.075 759.909 304.274 762.014 302.424C766.219 302.304 773.529 302.627 777.168 300.684C778.107 300.182 777.834 300.495 778.119 299.546C777.968 299.445 777.827 299.327 777.667 299.242C775.758 298.23 757.647 297.147 754.578 297.298C753.029 297.373 751.507 297.823 750.023 298.243L749.951 294.467L750.272 292.616C751.928 284.772 750.991 275.611 750.866 267.577Z"/>
	<path fill="#FEFEFE" d="M750.023 298.243C751.507 297.823 753.029 297.373 754.578 297.298C757.647 297.147 775.758 298.23 777.667 299.242C777.827 299.327 777.968 299.445 778.119 299.546C777.834 300.495 778.107 300.182 777.168 300.684C773.529 302.627 766.219 302.304 762.014 302.424C759.909 304.274 757.75 306.075 755.843 308.131C756.182 312.775 756.463 317.431 756.873 322.069C757.875 341.894 759.741 361.706 760.463 381.536L759.191 381.259C758.981 381.311 758.773 381.366 758.562 381.415C755.695 382.088 748.201 382.905 745.769 381.418C744.913 381.338 744.628 381.242 743.885 380.882C740.095 382.957 682.494 382.424 674.859 381.167C673.752 380.984 673.841 380.997 673.193 380.085L672.671 381.351C671.605 381.588 672.09 381.631 671.21 381.354C670.786 368.499 677.316 350.825 683.922 339.944C698.961 315.175 723.099 304.875 750.023 298.243Z"/>
	<path d="M750.023 298.243C751.507 297.823 753.029 297.373 754.578 297.298C757.647 297.147 775.758 298.23 777.667 299.242C777.827 299.327 777.968 299.445 778.119 299.546C777.834 300.495 778.107 300.182 777.168 300.684C773.529 302.627 766.219 302.304 762.014 302.424C759.909 304.274 757.75 306.075 755.843 308.131C756.182 312.775 756.463 317.431 756.873 322.069C757.875 341.894 759.741 361.706 760.463 381.536L759.191 381.259C757.685 365.975 757.04 350.591 756.015 335.269C755.471 327.125 755.311 318.608 753.562 310.626C752.802 307.158 751.614 304.301 749.859 301.234C746.942 301.4 744.148 301.6 741.274 302.168C737.487 309.661 734.913 317.017 733.156 325.227C740.555 328.489 748.196 331.285 754.708 336.173C748.408 339.797 741.938 343.156 735.535 346.596C738.76 358.257 742.594 369.74 745.769 381.418C744.913 381.338 744.628 381.242 743.885 380.882Q737.901 363.183 733.094 345.129Q742.516 341.247 751.264 336.022C744.926 332.333 737.925 329.689 731.144 326.938C732.74 318.854 735.177 311.186 738.29 303.568C726.68 307.435 715.309 311.656 705.421 319.066C685.363 334.098 676.67 355.931 673.193 380.085L672.671 381.351C671.605 381.588 672.09 381.631 671.21 381.354C670.786 368.499 677.316 350.825 683.922 339.944C698.961 315.175 723.099 304.875 750.023 298.243Z"/>
	<path fill="#FEFEFE" d="M741.274 302.168C744.148 301.6 746.942 301.4 749.859 301.234C751.614 304.301 752.802 307.158 753.562 310.626C755.311 318.608 755.471 327.125 756.015 335.269C757.04 350.591 757.685 365.975 759.191 381.259C758.981 381.311 758.773 381.366 758.562 381.415C755.695 382.088 748.201 382.905 745.769 381.418C742.594 369.74 738.76 358.257 735.535 346.596C741.938 343.156 748.408 339.797 754.708 336.173C748.196 331.285 740.555 328.489 733.156 325.227C734.913 317.017 737.487 309.661 741.274 302.168Z"/>
	<path d="M284.642 168.209C279.538 168.4 259.127 169.496 255.586 166.61C255.349 166.418 255.203 166.135 255.011 165.897C255.165 164.783 255.521 164.222 256.458 163.541C257.697 162.64 259.141 162.437 260.64 162.371C267.639 162.063 274.794 162.431 281.806 162.462L320.106 162.471C332.318 162.457 344.544 162.552 356.754 162.391C364.505 162.29 372.263 161.787 380.015 162.011C385.738 162.177 391.559 162.608 397.162 163.842C409.383 166.532 420.268 173.367 427.009 184.05C430.775 190.017 433.579 196.741 434.634 203.744C436.075 213.311 435.541 223.318 435.473 232.977Q435.348 250.453 435.45 267.928L435.409 420.773L435.27 456.735C435.293 462.684 434.973 469.133 435.832 475.025C433.24 473.635 431.244 471.819 429.474 469.479C430.464 447.744 430.007 425.842 430.014 404.086L429.85 291.877L429.935 238.632C429.982 227.814 430.896 216.277 429.231 205.584C427.844 196.677 423.512 188.637 417.444 182.036C408.669 172.492 398.074 168.625 385.26 168.155C370.384 167.61 355.339 168.078 340.449 168.101C323.836 168.126 307.094 167.758 290.492 168.248C289.847 177.154 289.785 187.188 291.077 196.016C308.499 196.012 326.002 195.642 343.415 196.071C343.551 200.484 345.213 215.484 342.746 218.459C340.493 221.175 338.975 217.052 338.563 224.007C337.702 238.554 338.579 253.578 338.611 268.171C338.656 289.363 338.437 309.403 321.609 324.748Q320.644 325.638 319.636 326.478Q318.627 327.319 317.578 328.108Q316.529 328.897 315.442 329.632Q314.354 330.367 313.231 331.047Q312.108 331.727 310.953 332.35Q309.797 332.972 308.612 333.537Q307.427 334.101 306.215 334.605Q305.003 335.109 303.767 335.551Q302.531 335.994 301.275 336.374Q300.018 336.754 298.744 337.071Q297.47 337.387 296.182 337.64Q294.894 337.892 293.595 338.08Q292.296 338.268 290.989 338.39Q289.682 338.512 288.37 338.569Q287.059 338.625 285.746 338.616Q284.434 338.607 283.123 338.532Q281.892 338.479 280.666 338.365Q279.44 338.251 278.22 338.076Q277.001 337.902 275.792 337.667Q274.583 337.433 273.386 337.138Q272.19 336.844 271.01 336.491Q269.83 336.138 268.669 335.727Q267.508 335.316 266.369 334.848Q265.229 334.379 264.115 333.855Q263 333.332 261.912 332.753Q260.825 332.175 259.768 331.543Q258.71 330.911 257.685 330.228Q256.66 329.545 255.67 328.812Q254.681 328.079 253.728 327.298Q252.776 326.516 251.863 325.689Q250.951 324.862 250.081 323.99Q249.21 323.119 248.384 322.205C233.416 305.619 235.452 283.81 235.492 263.09C235.52 248.392 235.887 233.641 235.496 218.949L228.544 219.006C228.657 211.369 228.518 203.631 229.016 196.013L284.83 196.009C284.913 186.799 285.332 177.392 284.642 168.209Z"/>
	<path fill="#FEFEFE" d="M248.288 197.753C279.459 197.338 310.722 197.881 341.905 197.888Q342.015 207.507 341.971 217.126L323.75 217.069L230.126 217.117C230.023 210.733 230.384 204.288 230.564 197.903L248.288 197.753Z"/>
	<path fill="#FEFEFE" d="M291.665 218.75Q314.437 218.53 337.205 219.017Q337.106 238.211 337.237 257.404C337.517 280.831 339.599 303.715 321.931 321.908C311.436 332.716 298.235 336.614 283.539 336.875C271.668 335.79 260.622 332.037 252.07 323.384C234.625 305.735 237.39 283.814 237.47 261.155L237.503 219.015L291.665 218.75Z"/>
	<path fill="#D9564C" d="M285.88 254.457C289.257 255.329 291.001 256.718 293.433 259.146L293.955 265.208C296.773 265.57 299.357 266.227 302.08 267.008C303.835 268.958 305.792 271.254 305.586 274.057C305.381 276.84 303.297 278.522 301.405 280.302L293.784 281.498C293.644 283.497 293.533 285.646 292.949 287.573C292.054 290.521 289.769 291.593 287.166 292.832C284.436 292.307 282.113 291.134 279.773 289.679C279.086 287.598 279.104 285.275 278.3 283.256C277.223 280.551 273.188 280.121 270.76 279.125C269.134 278.457 267.345 277.388 266.856 275.562C266.314 273.539 267.554 270.571 268.791 268.994C270.884 266.327 274.482 265.697 277.65 265.403C278.067 263.483 278.438 261.357 279.234 259.556C280.574 256.526 282.997 255.604 285.88 254.457Z"/>
	<path d="M662.51 82.0001C665.654 90.0286 667.744 98.2225 669.805 106.574C672.289 103.464 681.269 90.7258 684.163 90.0689C685.248 90.7565 685.392 91.2408 685.655 92.4535C686.809 97.7577 685.707 104.753 685.471 110.232C691.044 105.148 696.556 99.9586 702.959 95.9195C699.528 109.866 693.287 122.529 687.931 135.774C681.42 151.875 676.373 170.483 665.726 184.441C659.477 192.634 648.997 197.142 643.59 204.995C633.172 220.126 626.386 237.836 614.588 252.02C622.315 234.545 635.009 220.138 643.087 203.033C637.057 205.44 630.84 206.859 624.516 208.229C618.543 219.106 611.421 234.067 603.191 243.09C595.517 244.978 566.653 248.974 563.311 254.851C562.518 256.245 562.382 258.47 562.271 260.027C561.902 265.191 562.447 270.516 562.494 275.694C562.559 282.819 561.421 292.015 562.784 298.774C564.582 299.042 567.782 299.185 568.857 300.873C571.243 304.621 569.613 325.603 570.001 331.474C580.634 328.68 590.187 328.911 599.88 334.529C610.188 340.503 618.648 350.345 625.653 359.847C628.184 363.28 630.432 367.156 633.355 370.255C634.459 369.747 634.923 369.103 635.707 368.213L636.443 368.165C646.938 380.204 653.688 395.313 664.192 407.403C665.555 406.544 667.229 405.709 668.431 404.647C665.245 397.76 662.639 389.275 660.825 381.899C664.229 381.361 667.789 380.697 671.21 381.354C672.09 381.631 671.605 381.588 672.671 381.351L673.193 380.085C673.841 380.997 673.752 380.984 674.859 381.167C682.494 382.424 740.095 382.957 743.885 380.882C744.628 381.242 744.913 381.338 745.769 381.418C748.201 382.905 755.695 382.088 758.562 381.415C758.773 381.366 758.981 381.311 759.191 381.259L760.463 381.536C759.741 361.706 757.875 341.894 756.873 322.069L815.288 322.092C816.793 314.803 819.47 307.252 822.257 300.38C849.689 302.3 878.241 315.985 896.329 336.808Q898.824 339.703 901.088 342.783Q903.352 345.862 905.371 349.107Q907.39 352.352 909.153 355.743Q910.916 359.135 912.411 362.652C918.242 376.42 920.686 391.133 924.127 405.59C926.835 416.969 930.232 428.404 931.841 439.999Q932.394 444.035 932.52 448.107Q932.646 452.179 932.343 456.241C931.22 470.95 924.324 485.405 913.02 495.002C908.379 498.942 903.129 501.913 897.629 504.473C897.135 523.201 897.417 541.981 897.39 560.717L897.369 663.498C897.388 681.727 898.299 700.28 897.54 718.466L884.452 718.728C883.43 728.77 884.036 739.255 884.081 749.358L884.325 801.312L884.503 891.377C884.578 906.461 884.41 921.564 884.939 936.639L953.402 936.644C959.861 936.655 979.497 935.731 984.153 937.198L984.263 937.612C976.581 938.983 962.456 938.243 953.853 938.333L876.93 938.5L607 938.137L218.589 938.153L102.049 938.279C81.5056 938.298 60.5506 939.456 40.0829 937.743C40.9019 937.027 44.9989 936.9 46.2394 936.842C55.1774 936.42 64.3374 936.887 73.3056 936.848L131.298 936.548L177.865 936.472C186.275 936.467 194.952 936.082 203.338 936.665C204.684 936.758 205.995 936.944 207.315 937.22C194.952 931.287 184.474 922.978 179.747 909.66C176.109 899.407 177.276 889.544 180.379 879.353C169.65 879.374 158.501 879.938 147.807 879.272C147.484 859.443 147.243 839.499 148.128 819.684Q199.688 820.145 251.246 819.444C263.829 795.132 280.762 773.054 294.166 749.191C276.453 748.789 258.697 749.009 240.979 749.016C231.374 736.441 224.47 721.26 216.573 707.536L168.511 624.383L87.8806 485.067L66.2325 447.442C60.8759 438.275 55.0526 429.177 50.6033 419.527C47.6384 413.096 46.3831 406.267 47.3654 399.228C48.5395 390.813 52.7362 382.932 59.5786 377.792C66.2222 372.802 75.0296 370.443 83.2641 371.793C92.8036 373.357 100.716 379.688 107.225 386.486Q160.492 387.041 213.761 386.98C229.627 386.988 247.053 384.847 262.656 387.676C270.097 389.025 277.56 392.691 282.884 398.116C291.598 406.998 298.078 419.675 304.639 430.273Q319.596 454.024 333.838 478.211C340.463 480.533 347.404 482.763 350.724 489.565C351.335 490.817 351.789 492.19 352.26 493.501C351.813 494.449 351.313 495.331 351.128 496.368C351.333 498.99 351.519 501.596 351.583 504.226C352.108 507.198 351.096 514.407 353.329 516.068L353.524 515.712L352.869 515.142C364.467 512.166 382.569 512.052 392.866 507.477C395.045 507.848 397.085 508.945 399.096 509.838C405.976 506.168 413.051 503.834 418.641 498.179L434.453 511.373C442.443 505.567 450.965 501.786 460.305 498.708C479.636 495.39 497.031 497.987 513.688 508.478L520.149 514.355C523.056 512.589 525.84 510.457 528.427 508.253C548.742 490.943 561.867 464.884 562.702 438.153C563.097 425.501 561.698 412.637 562.73 400.033L562.784 399.43C562.199 398.249 561.817 396.962 561.379 395.719L563.348 395.704C563.685 392.025 563.653 388.334 563.676 384.643L560.619 384.381L553.842 384.289C553.525 383.043 553.459 381.601 553.297 380.318C547.656 380.411 540.618 380.999 535.374 378.59C533.648 377.797 532.022 376.542 531.51 374.623C530.547 371.013 533.316 367.919 535.261 365.216C533.687 363.373 531.491 361.139 531.104 358.679C530.61 355.546 532.774 353.159 534.516 350.824C533.208 348.94 531.544 346.838 530.917 344.619C530.424 342.875 530.387 341.022 531.496 339.485C535.259 334.268 546.571 336.358 552.113 335.798C552.264 335.783 552.415 335.764 552.566 335.746C552.705 328.822 550.402 304.879 553.882 299.946C555.86 298.95 558.002 299.049 560.173 298.946C560.193 298.776 560.215 298.607 560.233 298.437C561.542 286.321 558.786 268.753 560.83 257.727C561.22 255.625 561.964 253.203 563.679 251.79C568.595 247.739 579.298 246.517 585.482 245.611C587.995 240.18 591.344 235.07 594.399 229.93C598.634 222.804 602.779 215.596 607.214 208.593C586.971 208.197 553.165 207.289 538.286 191.929C537.336 190.948 536.467 189.895 535.596 188.845C528.802 192.642 521.107 195.876 513.507 197.601C519.552 192.028 525.993 186.945 531.689 180.999C530.176 174.361 529.865 167.643 533.54 161.563C536.572 156.547 541.812 153.268 547.486 152.084C553.432 150.844 559.963 151.921 564.938 155.491C569.751 158.943 572.453 163.925 574.175 169.455C581.085 155.019 594.699 145.417 609.495 140.215C622.342 135.698 634.768 135.105 648.23 135.558C652.795 117.781 656.666 99.3778 662.51 82.0001ZM562.784 399.43L562.73 400.033C561.698 412.637 563.097 425.501 562.702 438.153C561.867 464.884 548.742 490.943 528.427 508.253C525.84 510.457 523.056 512.589 520.149 514.355C541.859 539.528 561.043 566.916 583.084 591.858L585.386 591.102C600.15 589.148 615.093 588.637 629.96 587.947C644.079 587.293 657.93 587.025 671.613 583.05C670.783 554.04 671.573 524.763 671.478 495.729C661.557 499.179 651.76 501.131 641.229 499.75C631.646 498.493 622.308 494.499 615.29 487.769C608.451 481.21 604.571 472.007 600.003 463.866L576.829 423.036C572.542 415.464 568.468 406.691 563.116 399.843C563.007 399.704 562.895 399.568 562.784 399.43ZM583.331 432.127L600.336 461.794C610.04 478.739 615.111 491.637 635.582 497.289C648.785 500.935 663.059 498.466 674.834 491.606C681.245 487.871 684.761 480.639 690.913 477.01C688.787 470.543 687.353 463.788 685.303 457.274C681.492 445.165 677.612 433.099 674.036 420.917C672.653 416.208 670.592 411.018 670.161 406.131C668.227 407.626 666.223 408.645 664.042 409.709Q649.895 389.756 635.949 369.66C629.255 379.716 620.878 388.381 612.967 397.459L583.331 432.127ZM613.617 748.764L604.501 748.997C589.61 772.687 574.192 796.358 558.482 819.503C584.672 820.295 611.042 819.673 637.25 819.619Q664.851 819.603 692.446 819.059C692.521 795.661 692.826 772.207 692.468 748.813C666.482 748.279 639.562 747.811 613.617 748.764ZM372.117 748.765L362.213 749.058C357.482 755.848 353.73 763.433 349.403 770.511L319.153 819.483Q348.701 819.747 378.25 819.524C395.702 819.523 413.17 819.685 430.62 819.503C431.067 796 430.335 772.474 430.695 748.968C411.25 748.557 391.552 748.054 372.117 748.765ZM791.422 881.098Q777.704 898.078 764.362 915.355C759.136 922.217 753.979 930.531 747.832 936.546L840.25 936.575L883.466 936.526C883.906 918.106 883.932 899.42 883.458 881.001C852.847 880.353 822.044 880.798 791.422 881.098ZM436.545 748.925C436.207 763.286 436.533 777.674 436.502 792.041C436.482 801.132 435.843 810.611 436.592 819.661L489.737 819.5Q498.532 806.002 507.478 792.604C516.536 778.08 526.224 763.831 534.98 749.139C502.19 749.577 469.351 748.399 436.545 748.925ZM694.248 881.125C683.437 899 667.996 918.04 658.781 936.421C687.924 936.594 717.146 937.038 746.281 936.584L748.899 932.966C762.059 915.857 774.892 898.092 788.835 881.634C776.826 880.462 764.345 881.06 752.276 881.031Q723.262 880.809 694.248 881.125ZM576.27 347.621C581.281 356.854 587.537 365.965 591.11 375.834C585.567 369.137 578.647 352.51 574.936 348.906C573.059 348.147 570.991 347.958 569.032 348.598C568.225 348.863 568.291 349.323 567.993 350.046C569.763 357.888 568.888 366.681 568.957 374.708C569.017 377.393 569.776 381.695 567.786 383.774C566.748 384.86 565.063 384.662 563.676 384.643C563.653 388.334 563.685 392.025 563.348 395.704C566.38 405.774 577.532 420.294 582.643 430.896C599.007 410.965 616.262 391.798 632.702 371.913C622.894 357.931 610.238 338.297 593.423 332.62C585.682 330.006 577.221 330.024 569.874 333.869C567.89 334.908 565.611 336.454 565.093 338.795C564.69 340.616 565.523 342.376 566.544 343.833C568.584 346.746 573.061 346.989 576.27 347.621ZM790.391 717.178C788.138 726.27 789.002 736.557 789.002 745.895L789.005 779.24L789.011 848.003C789 856.747 788.601 865.52 788.726 874.258C788.745 875.625 788.693 877.836 789.481 878.995C790.044 879.823 790.953 880.523 791.761 881.106C792.878 876.223 792.738 870.805 792.853 865.807C793.172 851.939 793.643 721.823 792.17 718.077C791.578 717.745 791.028 717.418 790.391 717.178ZM418.994 501.414C413.135 504.855 407.248 508.232 401.036 511.006C401.575 513.712 401.556 516.342 401.558 519.085C403.209 520.642 405.089 522.117 405.874 524.305C405.931 524.463 405.996 524.618 406.049 524.777C406.786 526.995 406.568 529.877 406.613 532.208C408.737 531.05 410.786 529.941 412.685 528.423Q422.523 520.36 432.713 512.746C429.573 509.808 422.701 502.526 418.994 501.414ZM608.489 208.49L587.138 245.278C591.027 244.277 594.934 243.424 598.863 242.598C604.127 241.315 607.179 235.52 609.829 231.145C614.127 224.051 619.482 216.227 622.616 208.593L608.489 208.49ZM536.98 337.6C534.918 338.773 532.597 340.384 532.124 342.904C531.854 344.344 532.385 345.63 533.329 346.702C535.652 349.34 539.601 350.525 543.025 350.583C547.831 350.664 552.745 350.115 557.558 349.937C559.171 349.576 560.387 349.373 561.443 347.964C562.616 346.398 562.617 344.53 562.224 342.698C561.913 341.249 561.249 340.227 560.485 338.991C560.315 338.716 560.154 338.437 559.986 338.162L559.656 337.627C552.203 337.426 544.41 336.881 536.98 337.6ZM538.964 365.678C536.904 366.107 535.269 366.801 534.035 368.616C533.121 369.96 532.731 372.109 533.223 373.677C533.743 375.329 534.815 376.412 536.336 377.172C541.564 379.782 550.154 378.581 555.937 378.35C557.394 378.071 558.744 377.899 559.748 376.683C560.987 375.183 561.674 372.077 561.267 370.193C560.974 368.84 560.149 367.784 558.972 367.073C554.172 364.173 544.409 365.461 538.964 365.678ZM541.781 351.693C539.035 351.924 536.392 351.894 534.387 354.1C533.252 355.348 532.451 357.069 532.626 358.784C532.786 360.356 533.734 361.644 535.024 362.491C539.208 365.237 547.549 364.16 552.375 364.003C555.054 363.959 557.795 364.034 560.459 363.755C561.1 360.871 562.209 357.635 560.573 354.888C559.386 352.897 557.419 351.984 555.209 351.574C551.356 350.859 545.719 351.168 541.781 351.693ZM270.113 901.552C271.068 896.543 271.08 891.511 270.375 886.48C268.556 890.159 269.467 895.659 270.028 899.597C270.117 900.222 270.149 900.917 270.113 901.552Z"/>
	<path d="M270.113 901.552C270.149 900.917 270.117 900.222 270.028 899.597C269.467 895.659 268.556 890.159 270.375 886.48C271.08 891.511 271.068 896.543 270.113 901.552Z"/>
	<path fill="#C0201D" d="M563.561 372.868C565.124 373.017 566.642 373.201 568.186 373.493L568.957 374.708C569.017 377.393 569.776 381.695 567.786 383.774C566.748 384.86 565.063 384.662 563.676 384.643L560.619 384.381L553.842 384.289C553.525 383.043 553.459 381.601 553.297 380.318Q558.085 380.301 562.871 380.409L563.561 372.868Z"/>
	<path fill="#D9564C" d="M563.561 372.868C562.894 366.687 562.67 359.654 563.685 353.516C563.925 352.067 564.193 350.551 565.446 349.635L567.993 350.046C569.763 357.888 568.888 366.681 568.957 374.708L568.186 373.493C566.642 373.201 565.124 373.017 563.561 372.868Z"/>
	<path fill="#FEFEFE" d="M583.084 591.858L585.386 591.102C590.712 597.054 595.835 603.182 601.154 609.136C607.424 616.156 614.848 622.63 618.536 631.465C609.604 625.072 590.876 601.484 583.084 591.858Z"/>
	<path fill="#FEFEFE" d="M276.284 663.462C284.775 666.178 291.36 673.408 299.956 676.424C309.265 679.69 322.352 679.177 330.384 682.768C322.525 683.462 314.449 682.587 306.793 680.773C295.968 678.209 282.461 673.392 276.284 663.462Z"/>
	<path fill="#FEFEFE" d="M471.77 621.782C472.474 621.925 472.969 622.132 473.599 622.499C479.069 625.692 504.891 653.122 506.597 658.821C506.05 658.681 505.857 658.657 505.373 658.455C500.85 656.563 473.802 626.554 471.77 621.782Z"/>
	<path fill="#D9564C" d="M562.784 298.774C564.582 299.042 567.782 299.185 568.857 300.873C571.243 304.621 569.613 325.603 570.001 331.474C569.262 331.669 568.617 331.877 567.915 332.192C565.347 333.339 563.89 339.104 562.935 341.65C564.515 327.857 564.123 312.587 562.784 298.774Z"/>
	<path fill="#D9564C" d="M552.566 335.746C552.705 328.822 550.402 304.879 553.882 299.946C555.86 298.95 558.002 299.049 560.173 298.946C559.452 311.212 559.916 323.663 560.016 335.951C557.528 335.741 555.054 335.416 552.566 335.746Z"/>
	<path fill="#FEFEFE" d="M473.159 592.298C477.809 594.235 481.526 601.485 484.216 605.599C460.946 628.965 438.861 654.001 411.837 673.195C406.579 676.929 401.295 680.718 395.388 683.364C394.307 683.404 394.379 683.558 393.421 682.893C394.105 681.2 417.224 665.735 421.341 662.479C442.885 645.441 461.825 625.012 480.991 605.413C477.901 601.517 473.693 597.415 473.159 592.298Z"/>
	<path fill="#FEFEFE" d="M823.534 302.546L831.773 303.681C833.885 310.278 836.115 316.869 837.91 323.561L828.231 334.676C827.328 335.535 827.267 335.591 826.038 335.771C821.897 334.407 818.796 331.179 815.598 328.343C817.862 319.563 820.043 310.941 823.534 302.546Z"/>
	<path fill="#FEFEFE" d="M163.314 484.056Q192.505 483.702 221.694 484.185C212.875 488.328 204.759 492.552 197.126 498.712C190.267 506.093 187.684 513.464 186.311 523.312Q173.918 504.208 163.314 484.056Z"/>
	<path fill="#83AAE8" d="M754.918 499.506Q773.483 499.496 792.043 499.075C791.649 507.965 791.612 516.88 791.467 525.778C779.401 525.199 767.094 525.659 755.006 525.721C754.967 523.646 755.123 521.587 755.254 519.517C756.28 513.231 755.257 505.894 754.918 499.506Z"/>
	<path fill="#FEFEFE" d="M219.709 850.156C221.927 849.851 224.399 849.86 226.632 849.997Q227.777 850.074 228.917 850.207Q230.057 850.339 231.189 850.528Q232.322 850.716 233.443 850.96Q234.565 851.204 235.673 851.503Q236.781 851.801 237.874 852.154Q238.966 852.506 240.04 852.912Q241.113 853.318 242.166 853.775Q243.218 854.233 244.247 854.742Q245.276 855.251 246.278 855.81Q247.281 856.368 248.255 856.976Q249.229 857.583 250.172 858.237Q251.115 858.891 252.025 859.591Q252.935 860.291 253.809 861.034Q254.684 861.777 255.52 862.563Q256.357 863.348 257.155 864.174Q257.952 864.999 258.708 865.863C267.102 875.456 269.487 886.671 268.652 899.116L247.615 899C247.095 893.431 246.324 888.109 244.669 882.754C243.62 880.567 242.477 878.5 241.124 876.487C235.925 868.748 228.199 863.49 219 861.814C206.258 859.491 196.178 864.193 185.94 871.313C195.266 860.303 205.009 852.095 219.709 850.156Z"/>
	<path fill="#FEFEFE" d="M607.278 850.211C619.517 849.859 631.612 854.088 640.542 862.538C650.53 871.99 653.411 883.325 653.795 896.66Q643.113 899.791 632.579 903.389C632.648 897.925 632.42 893.281 631.001 887.994Q630.564 886.474 629.979 885.005C626.305 875.739 619.914 868.236 610.61 864.327C597.773 858.933 585.375 862.378 573.094 867.414L573.593 866.84C582.613 856.513 593.631 851.146 607.278 850.211Z"/>
	<path fill="#FEFEFE" d="M656.951 880.261C668.65 879.835 680.39 880.29 692.089 880.58C688.372 890.38 680.686 899.321 674.814 907.923Q665.285 921.912 656.357 936.293C645.022 937.425 633.193 936.575 621.807 936.478C626.619 934.444 631.443 932.319 635.757 929.341C647.335 921.346 655.519 907.409 655.403 893.201C655.378 890.149 653.794 883.203 654.994 880.622L656.951 880.261Z"/>
	<path fill="#FEFEFE" d="M221.87 406.509C227.152 406.015 232.801 406.08 237.954 407.461C245.018 409.355 251.485 414.054 255.04 420.505C257.39 424.771 258.068 429.647 256.622 434.327C254.198 442.174 247.492 446.415 240.647 449.973C245.705 456.183 250.473 462.609 255.268 469.022Q247.244 472.884 239.097 476.478C235.175 478.256 231.167 479.804 227.159 481.373C220.971 471.284 215.172 460.944 209.086 450.789C207.397 451.593 205.551 452.067 203.763 452.607C201.417 451.969 199.284 451.216 197.626 449.337C196.486 448.044 195.586 446.218 195.846 444.453C196.017 443.293 196.707 442.262 197.614 441.544C199.946 439.699 202.571 440.228 205.295 440.541C208.62 433.258 214.065 427.502 217.553 420.404C219.708 416.018 219.456 410.959 221.87 406.509Z"/>
	<path d="M240.491 413.623C241.535 413.975 242.046 414.388 242.839 415.145C243.378 416.76 242.963 417.718 242.448 419.249C241.228 418.837 240.523 418.545 239.6 417.637C239.246 416.151 239.935 414.97 240.491 413.623Z"/>
	<path fill="#D9564C" d="M231.179 425.377C232.965 425.398 234.65 425.58 236.242 426.469C237.959 427.429 239.32 429.054 239.813 430.975C240.473 433.544 239.834 436.177 238.435 438.379C236.542 441.358 234.077 442.315 230.76 443.052C229.754 442.786 228.736 442.465 227.773 442.073C225.585 441.182 222.32 439.356 221.441 436.996C221.032 435.898 221.184 434.746 221.818 433.744C223.269 431.45 226.48 430.973 228.912 430.266C229.594 428.598 230.386 426.994 231.179 425.377Z"/>
	<path fill="#FEFEFE" d="M706.756 574.576C707.487 574.544 708.264 574.478 708.995 574.573C710.39 574.754 711.227 575.47 712.109 576.51C712.922 578.757 712.535 581.105 712.196 583.419C710.544 594.703 707.509 606.034 705.086 617.204L690.661 683C677.28 683.016 663.872 683.198 650.499 682.762Q660.651 680.16 670.594 676.845C674.63 675.717 680.694 674.554 684.003 671.825C684.992 671.01 685.276 670.523 685.369 669.272C681.202 661.68 661.327 649.865 653.315 644.478C655.806 625.224 660.797 606.387 663.96 587.237C669.958 584.806 676.398 583.181 682.605 581.357C690.618 579.003 698.625 576.49 706.756 574.576Z"/>
	<path fill="#FEFEFE" d="M794.583 439.273L805.078 438.997L804.983 496.89C792.11 497.37 779.259 497.387 766.379 497.49C759.985 497.541 753.508 498.012 747.127 497.753C742.468 497.563 736.431 496.176 733.343 492.39C732.454 491.301 732.34 490.702 732.426 489.338C736.148 484.319 762.741 486.904 770.156 485.428L770.84 485.285C759.427 481.944 737.195 487.838 729.732 483.948C727.77 482.925 726.491 480.867 725.933 478.792C726.138 477.669 726.156 477.2 727.004 476.36C729.64 473.747 735.456 474.033 738.875 473.92C748.549 473.807 758.526 474.482 767.841 471.528C758.373 470.171 748.487 471.701 739.005 472.454C735.858 472.705 732.385 473.241 729.241 472.925C727.524 472.753 725.968 472.401 724.873 470.956C723.683 469.385 723.047 466.937 723.512 464.993C723.811 463.742 724.326 462.612 725.499 461.959C731.922 458.381 755.99 462.223 761.15 458.737L760.527 458.133C755.933 457.008 752.072 457.603 747.483 458.011C742.458 458.457 727.534 461.169 724.102 457.23C723.591 456.643 723.244 455.859 723.263 455.082C723.306 453.34 724.29 451.835 725.487 450.629C730.354 445.729 749.909 446.73 756.939 446.502L760.209 441.706C770.751 438.58 783.635 439.436 794.583 439.273Z"/>
	<path fill="#BEBDBC" d="M296.128 749.485L359.954 749.391C354.339 760.085 347.55 770.221 341.197 780.487C333.266 793.304 325.567 806.299 317 818.705C309.183 820.501 300.241 819.186 292.23 819.129L253.923 819.058C258.981 809.561 264.811 800.591 270.436 791.432L296.128 749.485Z"/>
	<path fill="#BEBDBC" d="M537.285 749.494L602.21 749.485C595.913 759.952 588.886 769.99 582.216 780.221C573.732 793.235 565.506 806.364 556.562 819.076C551.104 820.717 539.668 819.564 533.562 819.539L492.298 819.393C498.073 809.36 504.769 799.731 511.05 789.997C519.774 776.478 528.302 762.845 537.285 749.494Z"/>
	<path fill="#FEFEFE" d="M624.629 630.545C634.035 630.587 676.115 662.214 683.846 670.005L683.055 670.428C678.083 673.127 672.377 674.466 666.991 676.126C659.441 678.453 651.844 680.934 644.003 682.076C635.487 683.316 626.834 682.846 618.26 682.772L586.179 682.607C577.114 682.6 531.093 683.657 526.864 682.134L526.531 681.341C531.281 675.431 603.787 639.156 615.154 633.994C618.249 632.589 621.369 631.495 624.629 630.545Z"/>
	<path fill="#FEFEFE" d="M114.379 388.24Q158.174 387.901 201.966 388.459C218.617 388.537 253.399 385.836 267.91 390.831C273.029 392.593 277.753 395.261 281.55 399.129C290.835 408.587 297.023 421.225 304.021 432.401C313.299 447.216 323.405 462.022 331.131 477.712C312.351 472.711 293.173 470.47 274.156 466.73C277.769 464.169 281.413 461.351 282.83 456.947C284.503 451.743 282.361 447.104 280.014 442.556C274.19 433.994 265.571 428.877 258.739 421.338C254.042 416.155 250.697 409.881 245.718 404.907C237.56 396.758 226.385 392.482 214.897 392.487C205.117 392.492 195.46 394.975 188.43 402.115C179.281 411.407 179.44 423.489 179.436 435.616C176.57 440.034 172.634 443.727 169.563 448.019C162.451 457.962 163.476 471.518 162.983 483.237C154.851 471.27 147.989 458.452 140.725 445.95C129.647 426.884 118.535 407.911 108.112 388.474L114.379 388.24Z"/>
	<path fill="#FEFEFE" d="M465.245 879.25Q514.326 878.936 563.404 879.505C560.942 890.322 560.424 901.192 564.573 911.659C569.774 924.78 579.678 930.942 592.053 936.383Q578.447 936.841 564.836 936.557L436.915 936.486L437.003 879.408L465.245 879.25Z"/>
	<path fill="#BEBDBC" d="M662.498 89.2572C665.677 94.991 667.251 104.604 668.981 111.139C674.046 105.287 678.746 99.1359 683.505 93.0358Q683.375 103.929 683.536 114.821C688.838 110.644 693.604 105.872 699.039 101.834C695.348 114.652 689.552 127.055 684.602 139.429C679.413 152.4 675.342 165.91 667.911 177.86Q666.384 180.356 664.631 182.7Q662.878 185.043 660.914 187.212Q658.951 189.382 656.793 191.359Q654.635 193.336 652.303 195.103C630.216 211.668 599.567 207.556 573.89 203.991C562.732 202.148 550.409 199.688 541.518 192.168C536.292 187.748 532.769 181.372 532.355 174.48C532.03 169.059 534.008 163.852 537.625 159.83Q537.959 159.456 538.311 159.099Q538.663 158.743 539.033 158.404Q539.402 158.065 539.788 157.745Q540.174 157.425 540.575 157.124Q540.976 156.824 541.392 156.544Q541.808 156.264 542.237 156.005Q542.666 155.746 543.107 155.508Q543.549 155.271 544.002 155.056Q544.455 154.841 544.917 154.649Q545.38 154.456 545.852 154.287Q546.324 154.118 546.804 153.973Q547.284 153.828 547.77 153.706Q548.256 153.585 548.748 153.488Q549.24 153.391 549.736 153.319Q550.232 153.247 550.731 153.199Q551.23 153.152 551.731 153.129C557.314 152.907 562.294 155.002 566.317 158.823C573.478 165.624 571.366 172.448 571.496 181.21C576.654 169.646 578.575 162.238 588.799 153.857C605.947 139.799 628.084 135.661 649.676 137.908C653.513 121.622 657.416 105.203 662.498 89.2572Z"/>
	<path fill="#BEBDBC" d="M671.21 381.354C672.09 381.631 671.605 381.588 672.671 381.351L673.193 380.085C673.841 380.997 673.752 380.984 674.859 381.167C682.494 382.424 740.095 382.957 743.885 380.882C744.628 381.242 744.913 381.338 745.769 381.418C748.201 382.905 755.695 382.088 758.562 381.415C758.773 381.366 758.981 381.311 759.191 381.259L760.463 381.536L766.081 381.441L773.971 416.697C775.579 423.728 777.625 430.877 778.703 438.005C772.249 438.075 762.13 437.015 757.313 442.097C756.563 442.888 755.958 443.786 755.357 444.69C747.522 444.85 729.26 443.358 723.277 449.17C722.106 450.309 721.413 451.777 721.51 453.435C721.633 455.551 722.804 458.001 723.538 459.992C722.512 462.788 720.242 466.787 721.676 469.779C722.466 471.427 723.894 473.02 725.008 474.473L724.131 482.025C726.228 484.079 728.358 486.043 730.59 487.95C731.639 492.064 732.271 495.171 736.197 497.493C741.161 500.428 749.284 499.55 754.918 499.506C755.257 505.894 756.28 513.231 755.254 519.517C755.12 519.49 754.987 519.461 754.853 519.436L754.181 519.318C747.329 518.071 740.281 518.921 733.348 518.905C723.027 518.882 712.695 518.644 702.375 518.48C698.909 505.509 696.228 491.138 690.732 478.924L690.913 477.01C688.787 470.543 687.353 463.788 685.303 457.274C681.492 445.165 677.612 433.099 674.036 420.917C672.653 416.208 670.592 411.018 670.161 406.131C670.311 405.56 670.233 405.966 670.162 404.892L668.431 404.647C665.245 397.76 662.639 389.275 660.825 381.899C664.229 381.361 667.789 380.697 671.21 381.354Z"/>
	<path fill="#FEFEFE" d="M269.16 879.509L375.902 879.437C394.083 879.426 412.32 879.12 430.496 879.43L430.49 936.501L238.612 936.505L238.995 936.264C242.393 934.16 246.064 932.566 249.451 930.434C259.383 924.18 266.907 914.899 269.693 903.376Q269.913 902.466 270.113 901.552C271.068 896.543 271.08 891.511 270.375 886.48C270.106 884.102 269.682 881.84 269.16 879.509Z"/>
	<path fill="#FEFEFE" d="M388.955 510.674L389.471 510.608C393.256 510.152 396.594 510.672 399.555 513.303C400.571 514.206 400.717 514.709 400.707 516.021C396.383 522.523 378.306 520.191 371.5 524.055C375.795 526.569 389.379 522.078 394.417 521.539C397.13 521.249 400.245 521.078 402.438 522.961C403.586 523.946 404.49 525.318 404.435 526.89C404.191 533.763 381.91 531.295 374.846 536.489L375.076 537.14C383.699 537.005 393.559 532.1 403.19 533.094C404.905 533.271 406.958 533.732 407.926 535.319C408.798 536.749 408.417 538.887 407.777 540.356C407.741 540.439 407.19 541.59 406.994 541.749C402.801 545.159 382.537 544.519 375.251 548.127C375.052 548.225 374.855 548.328 374.657 548.429L376.879 548.508C384.01 548.747 404.503 542.356 409.226 546.086C409.966 546.671 410.325 548.333 410.215 549.251C409.222 557.577 380.074 559.333 372.413 566.63C364.194 574.46 357.022 583.642 349.461 592.116C333.776 609.695 318.164 627.248 301.425 643.84C299.836 645.205 298.264 646.442 296.452 647.504C288.382 652.235 277.72 652.91 268.785 650.577C265.073 649.608 261.28 647.938 258.511 645.223C252.896 639.717 249.395 631.535 245.408 624.824L225.386 591.18C241.984 580.445 258.265 569.389 275.186 559.143C279.466 564.368 282.871 570.413 286.535 576.087C281.886 580.245 278.291 584.287 275.68 589.992C280.803 586.354 285.021 580.962 289.32 576.372C299.864 565.117 335.904 523.115 346.044 518.964C357.32 514.347 376.605 512.626 388.955 510.674Z"/>
	<path fill="#FEFEFE" d="M690.732 478.924C696.228 491.138 698.909 505.509 702.375 518.48C712.695 518.644 723.027 518.882 733.348 518.905C740.281 518.921 747.329 518.071 754.181 519.318L754.853 519.436C754.987 519.461 755.12 519.49 755.254 519.517C755.123 521.587 754.967 523.646 755.006 525.721C753.06 544.402 754.993 563.985 755.065 582.761L755.002 657.346C754.986 676.889 755.196 696.442 754.593 715.978L729.674 715.997C729.323 708.43 726.767 701.088 721.832 695.283C713.961 686.023 704.26 683.875 692.681 682.94C697.349 666.103 700.15 648.793 703.796 631.716C707.184 615.85 711.497 599.838 714.137 583.843C714.453 581.929 714.813 579.876 714.463 577.946C714.141 576.175 713.134 574.445 711.526 573.56C706.298 570.685 680.322 579.918 673.702 581.943C673.315 571.635 673.48 561.295 673.5 550.981C683.843 551.383 694.195 551.918 704.469 550.327C694.251 548.371 683.821 549.16 673.487 549.492L673.504 494.874C679.919 490.064 685.286 484.763 690.732 478.924Z"/>
	<path d="M732.035 549.753Q732.562 549.677 733.09 549.616C736.287 549.247 741.613 548.538 744.233 550.59Q743.696 550.713 743.153 550.811C739.784 551.417 734.92 551.749 732.035 549.753Z"/>
	<path fill="#FEFEFE" d="M263.064 467.495C278.035 469.701 331.406 477.101 342.071 483.23C347.379 486.281 349.649 490.679 351.128 496.368C351.333 498.99 351.519 501.596 351.583 504.226L351.024 516.712C343.03 509.804 335.826 501.732 327.25 495.542C331.96 503.927 339.516 509.792 346.843 515.772C334.904 521.467 320.487 539.833 311.13 549.917Q299.626 562.328 287.853 574.486Q279.078 560.518 270.138 546.654C264.969 538.531 260.43 529.388 253.415 522.716C259.423 534.795 267.079 546.193 274.185 557.648C257.252 566.881 240.527 578.484 224.603 589.411C217.759 578.926 211.85 567.508 205.534 556.676C200.706 548.395 195.072 540.263 190.948 531.624C188.025 525.501 187.777 519.422 190.147 513.042C197.221 494.006 220.627 486.75 237.618 479.29C246.173 475.534 254.599 471.452 263.064 467.495Z"/>
	<path fill="#FEFEFE" d="M792.043 499.075L805.028 498.91L805.044 507.88L849.313 507.915C864.906 507.947 880.723 509.165 895.97 505.159L895.977 549.492C888.329 549.257 868.531 547.627 862.224 550.501C866.001 552.749 890.261 551.319 895.986 551.241L896.014 660.31C896.051 679.065 896.687 697.838 896.169 716.59Q843.43 717.175 790.691 716.529C791.472 692.293 791.337 667.929 791.408 643.68L791.467 525.778C791.612 516.88 791.649 507.965 792.043 499.075Z"/>
	<path d="M809.282 549.228C818.807 548.896 828.483 548.619 837.913 550.189C832.501 551.627 826.929 551.474 821.375 551.528C812.909 551.579 803.975 552.243 795.665 550.485L796.473 550.562L795.886 550.064L796.056 550.482L796.236 549.996L796.713 549.919L796.846 550.529L797.213 549.85L797.348 550.557L797.716 549.79C801.521 549.302 805.447 549.341 809.282 549.228Z"/>
	<path fill="#FEFEFE" d="M833.443 303.979C861.024 309.124 886.547 324.49 902.522 347.736Q905.677 352.334 908.251 357.281Q910.826 362.228 912.781 367.45C917.923 381.239 920.375 395.933 923.621 410.237C926.207 421.629 929.644 433.102 930.765 444.757Q931.207 449.068 931.015 453.397Q930.823 457.727 930.002 461.982C927.312 475.986 919.598 488.876 907.682 496.902C902.231 500.573 896.249 503.265 889.802 504.587C878.171 506.971 865.287 506.006 853.444 505.959L807.111 505.917Q807.639 467.919 807.405 429.918C816.841 429.894 881.406 430.577 885.24 428.401C880.28 426.76 873.758 427.46 868.554 427.506C866.569 411.25 866.841 393.739 862.297 377.978C860.791 392.869 864.969 412.172 866.11 427.512Q835.547 427.344 804.984 427.571L804.903 436.94C799.45 437.152 793.979 437.47 788.523 437.515C785.273 437.709 781.956 438.039 778.703 438.005C777.625 430.877 775.579 423.728 773.971 416.697L766.081 381.441L760.463 381.536C759.741 361.706 757.875 341.894 756.873 322.069L815.288 322.092C814.598 324.188 813.06 327.558 813.848 329.717C813.905 329.872 813.998 330.012 814.073 330.16C821.345 335.293 828.787 340.568 835.17 346.795L810.432 394.067C805.367 403.871 799.086 414.4 796.195 425.071C805.167 413.674 815.508 389.768 822.645 375.883C827.748 365.955 834.107 355.998 838.063 345.582C834.789 343.097 831.466 340.657 828.277 338.062C832.293 333.227 836.517 328.544 840.468 323.662L833.443 303.979Z"/>
	<path fill="#83AAE8" d="M756.873 322.069L815.288 322.092C814.598 324.188 813.06 327.558 813.848 329.717C813.905 329.872 813.998 330.012 814.073 330.16C810.331 340.912 808.551 352.953 805.781 364.05Q801.238 382.394 796.471 400.681C793.382 412.37 788.815 425.386 788.523 437.515C785.273 437.709 781.956 438.039 778.703 438.005C777.625 430.877 775.579 423.728 773.971 416.697L766.081 381.441L760.463 381.536C759.741 361.706 757.875 341.894 756.873 322.069Z"/>
	<path fill="#FEFEFE" d="M181.668 821.245L692.082 821.027C692.022 840.161 692.508 859.288 692.306 878.423L653.533 878.294C648.062 865.682 639.497 858.038 627.419 851.827C617.929 847.974 606.856 846.999 596.925 849.66C581.894 853.686 571.843 864.296 564.351 877.44Q512.37 878.016 460.388 877.512L268.49 877.5C263.821 867.456 256.853 859.425 247.091 854.033C236.246 848.043 223.548 846.072 211.592 849.682C197.305 853.996 187.699 864.643 180.882 877.492L149.515 877.766Q149.301 849.636 149.668 821.509L181.668 821.245Z"/>
	<path fill="#FEFEFE" d="M77.144 373.147C78.4785 373.042 79.9111 373.07 81.2511 373.164C89.4899 373.743 97.1508 378.445 102.475 384.603C109.379 392.59 113.947 402.784 119.044 411.963Q128.448 428.816 138.106 445.524L236.881 614.439L263.4 658.992C268.346 667.22 273.168 676.544 279.361 683.854C291.451 685.169 304.229 684.609 316.401 684.659L387.823 684.492L609.828 684.664L668.286 684.78C678.774 684.814 689.917 684.136 700.314 685.431C705.605 686.09 710.368 687.937 714.647 691.121Q715.277 691.582 715.883 692.075Q716.489 692.567 717.07 693.089Q717.651 693.611 718.205 694.161Q718.759 694.711 719.285 695.288Q719.811 695.865 720.308 696.468Q720.804 697.07 721.27 697.697Q721.736 698.324 722.17 698.973Q722.605 699.622 723.006 700.292Q723.407 700.961 723.774 701.651Q724.142 702.34 724.474 703.046Q724.807 703.753 725.104 704.475Q725.401 705.197 725.661 705.933Q725.922 706.669 726.145 707.417Q726.369 708.166 726.555 708.924Q726.741 709.682 726.889 710.449Q727.036 711.216 727.146 711.989C728.257 720.249 726.094 728.936 720.901 735.506C715.18 742.743 707.105 745.792 698.212 746.82C683.329 748.505 663.418 747.315 647.955 747.315L553.253 747.43L241.743 747.435C232.394 733.362 224.726 718.118 216.262 703.495L165.333 615.577L76.097 460.629C69.0786 448.181 61.3194 436.073 54.5518 423.506C52.3243 419.37 49.9028 414.897 49.1516 410.208Q49.0156 409.38 48.9214 408.547Q48.8272 407.714 48.775 406.877Q48.7228 406.04 48.7128 405.201Q48.7028 404.363 48.735 403.525Q48.7671 402.687 48.8414 401.851Q48.9156 401.016 49.0318 400.185Q49.148 399.355 49.3058 398.531Q49.4636 397.708 49.6626 396.893Q49.8617 396.078 50.1014 395.275Q50.3411 394.471 50.621 393.68Q50.9009 392.89 51.2201 392.114Q51.5394 391.339 51.8972 390.58Q52.2551 389.822 52.6506 389.082Q53.0462 388.343 53.4784 387.624Q53.9106 386.906 54.3784 386.21Q54.8463 385.514 55.3485 384.842C60.7439 377.731 68.5456 374.372 77.144 373.147Z"/>
</svg>
