<?xml version="1.0" encoding="utf-8" ?>
<svg xmlns="http://www.w3.org/2000/svg" xmlns:xlink="http://www.w3.org/1999/xlink" width="1024" height="1024">
	<path d="M786.063 633.237C786.349 635.408 786.522 637.455 786.454 639.644C785.194 641.69 785.791 646.664 785.446 649.194C784.52 645.127 784.546 640.09 784.547 635.921C784.9 636.68 785.274 637.397 785.699 638.119Q785.838 635.675 786.063 633.237Z"/>
	<path d="M785.06 616.741C785.317 618.762 785.51 620.667 785.453 622.706C784.136 624.703 784.676 630.893 784.458 633.64C783.63 630.09 783.526 625.675 783.607 622.013C783.775 621.905 783.955 621.815 784.11 621.689C785.115 620.875 784.981 618.016 785.06 616.741Z"/>
	<path d="M785.453 622.706C785.707 626.173 786.172 629.768 786.063 633.237Q785.838 635.675 785.699 638.119C785.274 637.397 784.9 636.68 784.547 635.921L784.458 633.64C784.676 630.893 784.136 624.703 785.453 622.706Z"/>
	<path d="M863.236 550.03C865.287 564.362 866.305 578.87 867.506 593.294Q870.565 631.771 873.119 670.285C874.086 684.307 874.364 698.529 876.253 712.459C876.572 714.819 876.939 717.694 878.751 719.394C879.876 719.415 880.029 719.456 880.855 718.578C882.283 717.062 883.053 713.923 883.773 711.942L885.23 713.896C884.159 716.518 882.353 721.884 879.765 723.211C879.009 723.599 878.614 723.184 877.891 722.899C874.73 719.428 874.345 711.276 873.802 706.695C872.459 695.384 872.277 683.81 871.472 672.437L865.896 593.465C864.813 579.119 863.906 564.558 862.099 550.289L863.236 550.03Z"/>
	<path d="M907.076 574.274C910.865 581.543 912.155 591.46 913.851 599.506C936.339 599.022 958.72 598.335 981.208 599.076C988.571 599.319 996.302 599.08 1003.57 600.403C1006.35 600.91 1009.54 601.867 1011.7 603.783C1012.82 604.776 1013.08 605.488 1013.33 606.92C1012.67 608.418 1011.82 609.034 1010.35 609.614C1003.54 612.282 975.373 612.442 966.276 613.002C946.294 614.231 926.219 615.987 906.22 616.718Q904.861 629.096 902.864 641.387Q900.868 653.678 898.239 665.85Q895.61 678.022 892.355 690.041Q889.101 702.061 885.23 713.896L883.773 711.942C894.837 682.04 900.643 646.768 904.717 615.077C925.861 614.555 947.034 612.674 968.152 611.47C979.344 610.831 999.317 611.033 1009.26 608.342C1010.59 607.982 1011.35 607.769 1012.08 606.554C1011.89 606.093 1011.8 605.769 1011.45 605.371C1009.51 603.189 1005.1 602.025 1002.33 601.569C994.499 600.282 985.561 600.574 977.594 600.458C956.062 600.144 934.492 601.117 912.976 600.694C910.548 592.123 909.385 583.338 906.35 574.907L907.076 574.274Z"/>
	<path d="M166.998 554.778C167.649 547.951 170.688 523.518 173.59 518.835C174.207 519.236 174.084 518.981 174.201 519.574C175.633 526.863 174.202 535.526 174.293 542.998C174.367 549.166 175.29 555.688 174.797 561.799C175.234 573.023 175.319 584.263 176.016 595.475C177.156 613.8 179.047 632.068 180.306 650.382C181.662 670.109 182.437 689.827 184.435 709.51L183.249 709.497C180.927 691.414 180.7 673.283 179.514 655.121C178.139 634.057 175.975 613.048 174.634 591.979C173.97 581.55 174.538 570.808 173.264 560.454L168.239 556.742C164.007 575.147 159.308 593.083 153.599 611.088C120.801 608.804 87.583 608.566 54.7147 607.532C42.2977 607.142 25.6217 608.347 13.8631 605.654C9.2962 604.608 5.78386 602.101 2.18102 599.273C14.4432 597.359 27.8487 598.627 40.2903 598.293C68.6243 597.533 96.6668 595.614 125.044 596.552C129.904 596.712 136.168 596.164 140.783 597.314L142.13 598.084C138.981 599.614 111.246 597.492 105.322 597.544C88.3179 597.691 71.355 598.741 54.3702 599.358C37.8315 599.958 21.2757 600.117 4.73048 600.528C9.07713 602.284 13.427 604.318 18.1002 604.951C26.5776 606.101 35.1603 605.962 43.6924 606.068L71.5717 606.621C98.6105 607.308 125.599 608.799 152.622 609.603C158.95 592.573 163.953 572.635 166.998 554.778Z"/>
	<path fill="#9EAF83" d="M168.239 556.742C169.577 551.486 170.597 546.2 171.597 540.873C172.455 547.374 172.827 553.914 173.264 560.454L168.239 556.742Z"/>
	<path d="M821.604 578.145C825.343 583.213 828.914 598.385 832.704 601.011C842.184 594.218 857.668 463.424 862.727 442.261C863.23 440.155 863.821 437.752 865.422 436.21L866.334 436.358C867.297 437.935 867.682 439.514 867.947 441.339C870.608 459.653 871.155 478.726 872.459 497.196L881.057 606.442C882.335 621.938 882.506 637.598 884.603 653.014C889.024 642.21 890.253 630.153 892.735 618.793C894.067 612.696 902.292 576.077 905.995 573.697L907.076 574.274L906.35 574.907C902.826 578.366 892.359 631.674 890.265 640.129C888.703 646.439 887.057 652.721 884.448 658.693C879.804 646.007 880.397 625.228 879.38 611.349L871.543 504.224L868.926 465.128C868.215 455.092 867.808 445.026 865.602 435.18C862.274 447.75 861.154 460.815 859.123 473.638L852.083 517.917C849.154 537.296 846.455 556.397 842.149 575.537C840.54 582.688 839.004 593.842 836.351 600.141C835.833 601.371 834.867 602.315 833.933 603.239C835.059 608.719 836.565 614.172 837.87 619.615C839.979 613.602 841.516 607.29 843.25 601.156C845.947 591.608 848.749 582.055 851.003 572.392C854.607 556.937 857.551 541.333 861.45 525.946C862.202 533.96 862.498 542.011 863.236 550.03L862.099 550.289Q861.292 543.67 860.574 537.04C857.473 548.472 855.701 560.083 853.154 571.633C850.797 582.316 847.584 592.887 844.591 603.41C842.64 610.271 840.963 617.487 838.082 624.028C834.999 617.836 833.479 610.961 832.047 604.222C823.547 616.214 822.259 633.752 819.303 647.867C816.658 660.493 813.485 673.043 810.482 685.588C808.233 694.987 806.482 704.985 802.684 713.9C801.43 716.843 800.085 719.541 797.355 721.361C796.051 721.537 795.721 721.664 794.591 720.836C787.68 715.766 785.588 661.399 785.447 651.308Q785.431 650.251 785.446 649.194C785.791 646.664 785.194 641.69 786.454 639.644C787.61 653.017 788.623 709.942 794.435 717.457C795.273 718.541 795.476 718.605 796.738 718.721C806.483 714.233 819.774 628.443 825.26 613.124C826.697 609.112 828.465 606.179 831.213 602.948C827.442 596.494 825.169 589.247 822.01 582.485C815.953 598.979 812.13 616.929 807.991 634.004C806.344 640.8 804.948 651.696 801.767 657.478L800.904 657.495C799.633 656.124 799.371 654.079 799.114 652.288C798.22 646.057 798.345 639.508 798 633.21Q796.758 612.294 796.03 591.353C797.209 590.08 796.8 578.574 797.054 575.979C798.485 584.829 798.005 594.705 798.388 603.732Q799.418 629.085 801.257 654.392C805.586 636.993 809.491 619.518 814.143 602.197C816.286 594.22 818.239 585.709 821.604 578.145Z"/>
	<path d="M751.219 594.566L753.295 594.223C752.96 595.459 752.786 596.975 751.923 597.933C746.585 598.378 741.108 597.866 735.759 597.723C728.106 597.518 720.439 597.49 712.791 597.177L712.579 595.649C720.194 595.08 727.724 595.291 735.347 595.536C740.03 595.686 746.114 596.6 750.638 595.621L751.219 594.566Z"/>
	<path d="M759.186 610.512C763.79 588.223 771.829 566.04 775.28 543.744C776.091 538.505 776.134 518.681 778.192 515.893L778.625 516.227C780.853 536.655 781.443 557.54 782.759 578.063L784.425 604.376C784.666 608.4 785.228 612.736 785.06 616.741C784.981 618.016 785.115 620.875 784.11 621.689C783.955 621.815 783.775 621.905 783.607 622.013C781.296 594.66 779.284 566.894 778.442 539.454C776.301 547.418 774.818 555.549 772.811 563.546C768.71 579.886 764.255 596.09 760.3 612.481C747.227 612.476 733.96 611.557 720.906 610.775C720.351 610.601 720.641 610.655 719.925 610.639C718.864 610.615 717.871 610.65 716.835 610.371C715.999 610.146 715.809 609.395 715.368 608.702C720.764 608.314 726.31 608.854 731.709 609.127L759.186 610.512Z"/>
	<path d="M751.219 594.566C757.187 572.194 760.792 549.466 764.837 526.704Q769.351 502.252 774.227 477.87C776.628 465.284 777.879 450.727 781.905 438.718C782.461 437.061 783.106 434.724 784.754 433.895C785.749 435.12 785.904 436.368 786.148 437.898C788.351 451.696 788.867 466.167 790.101 480.107C791.815 499.477 794.05 518.9 795.417 538.286C796.295 550.74 797.028 563.492 797.054 575.979C796.8 578.574 797.209 590.08 796.03 591.353C794.902 573.457 794.916 555.482 793.706 537.592C791.383 503.21 787.718 468.864 784.673 434.548C778.855 450.181 777.384 468.749 774.482 485.242L764.973 537.826C761.542 556.673 758.132 575.684 753.295 594.223L751.219 594.566Z"/>
	<path fill="#FEE5A7" d="M358.568 831.156L358.975 831.417C370.738 839.088 380.579 849.228 392.661 856.656C437.11 883.983 493.33 894.955 544.572 884.425C569.6 879.283 592.317 868.437 614.691 856.411C619.825 859.631 625.249 862.788 630.859 865.106C612.623 901.529 562.157 945.294 524.664 961.17C503.572 970.102 481.158 973.699 459.425 964.758C423.241 949.873 398.9 906.794 380.65 874.149C372.801 860.11 364.824 845.993 358.568 831.156Z"/>
	<path fill="#9EAF83" d="M157.822 540.03C155.486 535.131 153.843 529.673 152.18 524.51C140.94 489.633 138.779 452.492 156.065 419.011C165.649 400.449 180.392 384.666 195.622 370.573C217.283 350.529 241.871 333.998 266.373 317.685C293.866 299.381 322.728 279.17 354.548 269.247C390.406 258.065 420.594 266.592 452.673 283.47C445.479 297.003 437.411 310.051 429.897 323.404L387.017 400.712C369.488 432.015 351.668 463.191 336.008 495.492Q321.598 525.187 310.487 556.267C307.345 565.227 301.633 588.946 297.715 595.507C297.627 593.468 297.872 589.22 296.541 587.639C296.449 587.53 296.328 587.451 296.221 587.357C294.36 588.399 293.428 591.919 292.851 593.968C290.955 600.703 289.826 607.704 288.136 614.503C286.434 621.351 283.906 628.509 282.831 635.447L284.384 636.554L283.253 640.359C284.96 641.266 286.674 642.298 288.493 642.959C286.743 660.455 287.77 676.57 283.755 693.984L285.812 694.019C284.328 700.772 282.881 707.647 280.773 714.235C279.853 717.111 277.426 724.754 274.491 725.928C273.864 726.179 273.855 725.99 273.106 725.728C270.826 723.398 270.343 719.345 270 716.206C268.799 705.205 269.851 693.786 270.16 682.754C270.458 672.153 270.201 661.514 270.035 650.912C269.945 645.17 270.196 638.971 269.367 633.294C269.326 633.007 269.278 632.722 269.233 632.436C256.659 625.617 245.755 615.981 233.559 608.545C232.857 609.673 232.063 610.723 231.269 611.788C231.256 610.416 231.592 609.306 231.929 607.99L231.066 608.293C230.057 613.248 228.956 621.38 225.268 624.972C224.427 625 224.356 625.205 223.713 624.549C221.037 621.819 219.102 610.6 218.014 606.466C212.389 631.402 209.157 656.863 204.474 681.993C202.263 693.852 200.152 706.568 196.017 717.934C195.072 720.531 193.716 723.974 191.293 725.508C190.415 726.064 190.109 725.944 189.115 725.974C186.785 724.699 185.854 721.94 185.166 719.513C184.239 716.244 183.748 712.852 183.249 709.497L184.435 709.51C182.437 689.827 181.662 670.109 180.306 650.382C179.047 632.068 177.156 613.8 176.016 595.475C175.319 584.263 175.234 573.023 174.797 561.799C175.29 555.688 174.367 549.166 174.293 542.998C174.202 535.526 175.633 526.863 174.201 519.574C174.084 518.981 174.207 519.236 173.59 518.835C170.688 523.518 167.649 547.951 166.998 554.778C164.114 551.926 160.382 548.816 158.898 544.971C153.419 562.783 148.588 580.56 142.13 598.084L140.783 597.314C147.25 581.023 155.051 557.172 157.822 540.03ZM157.822 540.03C155.051 557.172 147.25 581.023 140.783 597.314L142.13 598.084C148.588 580.56 153.419 562.783 158.898 544.971C160.382 548.816 164.114 551.926 166.998 554.778C167.649 547.951 170.688 523.518 173.59 518.835C174.207 519.236 174.084 518.981 174.201 519.574C175.633 526.863 174.202 535.526 174.293 542.998C174.367 549.166 175.29 555.688 174.797 561.799C175.234 573.023 175.319 584.263 176.016 595.475C177.156 613.8 179.047 632.068 180.306 650.382C181.662 670.109 182.437 689.827 184.435 709.51L183.249 709.497C183.748 712.852 184.239 716.244 185.166 719.513C185.854 721.94 186.785 724.699 189.115 725.974C190.109 725.944 190.415 726.064 191.293 725.508C193.716 723.974 195.072 720.531 196.017 717.934C200.152 706.568 202.263 693.852 204.474 681.993C209.157 656.863 212.389 631.402 218.014 606.466C219.102 610.6 221.037 621.819 223.713 624.549C224.356 625.205 224.427 625 225.268 624.972C228.956 621.38 230.057 613.248 231.066 608.293L231.929 607.99C231.592 609.306 231.256 610.416 231.269 611.788C232.063 610.723 232.857 609.673 233.559 608.545C245.755 615.981 256.659 625.617 269.233 632.436C269.278 632.722 269.326 633.007 269.367 633.294C270.196 638.971 269.945 645.17 270.035 650.912C270.201 661.514 270.458 672.153 270.16 682.754C269.851 693.786 268.799 705.205 270 716.206C270.343 719.345 270.826 723.398 273.106 725.728C273.855 725.99 273.864 726.179 274.491 725.928C277.426 724.754 279.853 717.111 280.773 714.235C282.881 707.647 284.328 700.772 285.812 694.019L283.755 693.984C287.77 676.57 286.743 660.455 288.493 642.959C286.674 642.298 284.96 641.266 283.253 640.359L284.384 636.554L282.831 635.447L281.872 638.878C278.09 637.52 274.404 635.351 270.894 633.408C270.135 627.605 270.329 621.348 270.094 615.475L268.622 581.451Q266.359 529.202 263.433 476.986C262.996 468.571 262.694 441.692 259.797 435.052C259.339 434.003 259.348 433.974 258.243 433.531C257.75 433.733 257.426 433.833 256.982 434.179C255.307 435.482 254.705 438.448 254.193 440.419C248.714 461.515 246.314 483.784 242.963 505.319C239.33 528.667 234.935 551.94 231.976 575.386C231.589 572.739 231.587 569.145 230.274 566.824L229.59 566.689C226.347 570.529 223.494 586.217 223.288 591.545C226.323 584.411 228.034 576.598 229.737 569.052C230.652 581.157 230.225 593.771 229.397 605.865C225.748 603.779 222.254 600.813 218.84 598.333C218.221 596.037 217.675 593.445 216.759 591.255C216.275 590.097 216.018 589.656 214.808 589.194C213.375 589.996 213.001 591.518 212.402 592.958C205.567 586.925 198.426 581.347 191.245 575.741C190.083 571.181 190.32 565.806 190.091 561.095Q189.55 549.058 188.806 537.032Q185.571 487.974 181.361 438.989C181.133 436.602 180.942 432.767 178.994 431.183L178.019 431.426C176.462 433.155 175.986 435.282 175.453 437.49C172.564 449.464 171.115 461.886 169.258 474.053C165.917 495.95 162.63 518.412 157.822 540.03Z"/>
	<path d="M157.822 540.03C162.63 518.412 165.917 495.95 169.258 474.053C171.115 461.886 172.564 449.464 175.453 437.49C175.986 435.282 176.462 433.155 178.019 431.426L178.994 431.183C180.942 432.767 181.133 436.602 181.361 438.989Q185.571 487.974 188.806 537.032Q189.55 549.058 190.091 561.095C190.32 565.806 190.083 571.181 191.245 575.741C198.426 581.347 205.567 586.925 212.402 592.958C213.001 591.518 213.375 589.996 214.808 589.194C216.018 589.656 216.275 590.097 216.759 591.255C217.675 593.445 218.221 596.037 218.84 598.333C222.254 600.813 225.748 603.779 229.397 605.865C230.225 593.771 230.652 581.157 229.737 569.052C228.034 576.598 226.323 584.411 223.288 591.545C223.494 586.217 226.347 570.529 229.59 566.689L230.274 566.824C231.587 569.145 231.589 572.739 231.976 575.386C234.935 551.94 239.33 528.667 242.963 505.319C246.314 483.784 248.714 461.515 254.193 440.419C254.705 438.448 255.307 435.482 256.982 434.179C257.426 433.833 257.75 433.733 258.243 433.531C259.348 433.974 259.339 434.003 259.797 435.052C262.694 441.692 262.996 468.571 263.433 476.986Q266.359 529.202 268.622 581.451L270.094 615.475C270.329 621.348 270.135 627.605 270.894 633.408C274.404 635.351 278.09 637.52 281.872 638.878L282.831 635.447L284.384 636.554L283.253 640.359C284.96 641.266 286.674 642.298 288.493 642.959C286.743 660.455 287.77 676.57 283.755 693.984L285.812 694.019C284.328 700.772 282.881 707.647 280.773 714.235C279.853 717.111 277.426 724.754 274.491 725.928C273.864 726.179 273.855 725.99 273.106 725.728C270.826 723.398 270.343 719.345 270 716.206C268.799 705.205 269.851 693.786 270.16 682.754C270.458 672.153 270.201 661.514 270.035 650.912C269.945 645.17 270.196 638.971 269.367 633.294C269.326 633.007 269.278 632.722 269.233 632.436C256.659 625.617 245.755 615.981 233.559 608.545C232.857 609.673 232.063 610.723 231.269 611.788C231.256 610.416 231.592 609.306 231.929 607.99L231.066 608.293C230.057 613.248 228.956 621.38 225.268 624.972C224.427 625 224.356 625.205 223.713 624.549C221.037 621.819 219.102 610.6 218.014 606.466C212.389 631.402 209.157 656.863 204.474 681.993C202.263 693.852 200.152 706.568 196.017 717.934C195.072 720.531 193.716 723.974 191.293 725.508C190.415 726.064 190.109 725.944 189.115 725.974C186.785 724.699 185.854 721.94 185.166 719.513C184.239 716.244 183.748 712.852 183.249 709.497L184.435 709.51C182.437 689.827 181.662 670.109 180.306 650.382C179.047 632.068 177.156 613.8 176.016 595.475C175.319 584.263 175.234 573.023 174.797 561.799C175.29 555.688 174.367 549.166 174.293 542.998C174.202 535.526 175.633 526.863 174.201 519.574C174.084 518.981 174.207 519.236 173.59 518.835C170.688 523.518 167.649 547.951 166.998 554.778C164.114 551.926 160.382 548.816 158.898 544.971C153.419 562.783 148.588 580.56 142.13 598.084L140.783 597.314C147.25 581.023 155.051 557.172 157.822 540.03ZM174.797 561.799C175.234 573.023 175.319 584.263 176.016 595.475C177.156 613.8 179.047 632.068 180.306 650.382C181.662 670.109 182.437 689.827 184.435 709.51C185.078 713.523 185.558 719.8 187.962 723.216C188.734 724.313 189.221 724.442 190.501 724.575C200.467 719.3 211.6 620.992 218.103 602.432C217.329 599.154 216.182 595.943 215.1 592.755C208.772 602.891 203.346 620.056 201.28 631.932C199.729 640.85 199.058 650.086 196.299 658.739C193.428 650.411 193.177 641.257 192.652 632.529Q191.688 615.202 191.096 597.858C190.788 589.945 190.687 581.929 189.632 574.074C184.879 569.989 180.079 565.109 174.797 561.799ZM283.253 640.359C280.423 651.469 278.131 663.51 271.509 673.063C271.257 680.716 269.049 717.846 273.174 722.592C273.284 722.719 273.422 722.821 273.546 722.935C274.857 722.681 275.303 722.123 276.064 721.077C280.276 715.284 282.406 701.188 283.755 693.984C287.77 676.57 286.743 660.455 288.493 642.959C286.674 642.298 284.96 641.266 283.253 640.359ZM191.245 575.741C192.828 600.911 191.523 631.894 196.64 656.099C198.543 634.24 203.39 613.058 212.402 592.958C205.567 586.925 198.426 581.347 191.245 575.741ZM270.894 633.408C271.15 645.611 272.211 660.358 271.656 672.329C276.133 661.368 278.553 650.189 281.872 638.878C278.09 637.52 274.404 635.351 270.894 633.408ZM218.84 598.333C219.653 607.319 222.232 615.687 224.559 624.351C226.903 618.589 230.012 612.223 229.397 605.865C225.748 603.779 222.254 600.813 218.84 598.333Z"/>
	<path fill="#9EAF83" d="M158.898 544.971C158.96 540.786 160.463 536.079 161.302 531.921Q163.33 521.869 165.038 511.757Q169.317 486.241 173.333 460.683C174.831 451.269 175.613 440.829 178.623 431.796C182.404 463.474 184.301 495.609 186.298 527.451C187.264 542.866 187.188 558.834 189.632 574.074C184.879 569.989 180.079 565.109 174.797 561.799C175.29 555.688 174.367 549.166 174.293 542.998C174.202 535.526 175.633 526.863 174.201 519.574C174.084 518.981 174.207 519.236 173.59 518.835C170.688 523.518 167.649 547.951 166.998 554.778C164.114 551.926 160.382 548.816 158.898 544.971Z"/>
	<path fill="#9EAF83" d="M231.066 608.293C231.136 596.405 232.576 583.992 234.103 572.189C236.128 556.532 254.206 440.003 257.357 436.548C257.459 436.436 257.59 436.355 257.706 436.258C258.802 437.057 258.993 439.289 259.201 440.645C261.245 453.967 261.262 468.313 262.042 481.778Q264.808 531.799 266.937 581.852L268.2 613.071C268.454 619.492 268.455 626.058 269.233 632.436C256.659 625.617 245.755 615.981 233.559 608.545C232.857 609.673 232.063 610.723 231.269 611.788C231.256 610.416 231.592 609.306 231.929 607.99L231.066 608.293Z"/>
	<path d="M231.929 607.99C237.613 590.296 243.442 572.466 246.771 554.15C247.858 548.17 249.488 527.733 251.241 524.364L252.036 524.222C255.457 531.225 254.847 583.932 253.044 593.94C248.893 581.393 249.59 567.588 249.532 554.526C243.987 567.787 241.666 582.978 237.611 596.797C236.515 600.532 235.47 605.187 233.559 608.545C232.857 609.673 232.063 610.723 231.269 611.788C231.256 610.416 231.592 609.306 231.929 607.99Z"/>
	<path fill="#3F3E3E" d="M452.673 283.47Q463.418 264.063 473.741 244.429C481.233 230.018 504.088 180.614 513.617 172.572C515.059 172.264 516.222 172.679 517.418 173.475C519.716 175.004 521.479 177.414 522.942 179.717C527.252 186.502 530.816 194.002 534.673 201.072Q548.041 225.587 560.98 250.331Q601.097 327.043 638.802 404.97Q660.883 450.824 680.022 497.983Q692.637 529.024 702.782 560.958Q706.378 572.809 709.634 584.757C710.598 588.258 711.252 592.307 712.579 595.649L712.791 597.177C713.203 601.059 714.148 604.996 715.368 608.702C715.809 609.395 715.999 610.146 716.835 610.371C717.871 610.65 718.864 610.615 719.925 610.639C720.641 610.655 720.351 610.601 720.906 610.775L715.548 610.835C717.658 627.496 719.486 644.1 719.462 660.93C719.392 711.267 704.579 762.981 673.322 802.966C668.127 809.611 662.412 815.993 656.529 822.035C653.014 825.644 641.583 834.691 639.814 838.051C637.36 846.601 635.309 857.48 630.859 865.106C625.249 862.788 619.825 859.631 614.691 856.411C592.317 868.437 569.6 879.283 544.572 884.425C493.33 894.955 437.11 883.983 392.661 856.656C380.579 849.228 370.738 839.088 358.975 831.417L358.568 831.156C356.13 827.099 351.61 823.331 348.298 819.888C343.485 814.884 338.783 809.782 334.568 804.258C313.41 776.535 298.303 742.436 290.987 708.362C289.429 701.102 288.622 693.559 287.58 686.204C286.919 688.795 286.364 691.403 285.812 694.019L283.755 693.984C287.77 676.57 286.743 660.455 288.493 642.959C286.674 642.298 284.96 641.266 283.253 640.359L284.384 636.554L282.831 635.447C283.906 628.509 286.434 621.351 288.136 614.503C289.826 607.704 290.955 600.703 292.851 593.968C293.428 591.919 294.36 588.399 296.221 587.357C296.328 587.451 296.449 587.53 296.541 587.639C297.872 589.22 297.627 593.468 297.715 595.507C301.633 588.946 307.345 565.227 310.487 556.267Q321.598 525.187 336.008 495.492C351.668 463.191 369.488 432.015 387.017 400.712L429.897 323.404C437.411 310.051 445.479 297.003 452.673 283.47ZM508.116 204.721C499.682 217.839 492.249 231.522 484.297 244.924C475.881 259.109 467.014 273.008 458.746 287.286C474.522 299.924 489.829 312.85 502.656 328.582C526.132 357.372 543.882 390.391 559.634 423.847Q569.574 445.078 578.45 466.776Q587.326 488.474 595.115 510.586Q602.904 532.697 609.587 555.168Q616.27 577.638 621.831 600.412Q629.248 628.771 634.63 657.585Q640.013 686.399 643.332 715.523C645.29 733.284 648.081 758.817 647.027 776.542C661.355 759.325 671.733 740.135 679.115 719.005Q680.19 715.945 681.167 712.852Q682.144 709.759 683.022 706.637Q683.901 703.515 684.68 700.366Q685.459 697.218 686.137 694.046Q686.816 690.874 687.393 687.683Q687.971 684.491 688.446 681.283Q688.922 678.074 689.296 674.852Q689.67 671.63 689.941 668.398Q690.212 665.166 690.381 661.927Q690.549 658.688 690.615 655.445Q690.681 652.202 690.643 648.959Q690.606 645.716 690.465 642.475Q690.325 639.235 690.082 636.001Q689.839 632.766 689.493 629.541Q689.148 626.316 688.7 623.104Q688.252 619.892 687.702 616.695C682.804 587.158 672.098 558.261 661.224 530.494C638.596 472.712 610.766 417.161 583.577 361.437L508.116 204.721ZM515.08 174.982C512.069 180.103 487.784 226.27 487.704 228.857C489.195 228.711 502.937 200.268 508.905 198.076C509.41 197.89 509.449 197.881 509.864 198.181C512.939 200.401 535.057 248.315 538.738 255.663C570.823 319.719 603.737 383.337 634.363 448.12Q649.648 480.367 663.121 513.412C676.581 546.58 689.338 581.122 695.558 616.456C703.56 661.921 696.54 711.746 671.576 751.158C667.983 756.831 663.977 762.686 659.658 767.825C655.49 772.785 650.672 777.615 646.997 782.928C646.904 783.062 646.814 783.198 646.723 783.333C646.568 789.291 646.324 795.216 645.748 801.149C645.411 804.614 642.369 820.11 643.472 822.36C676.427 794.003 698.119 751.534 706.33 709.229Q707.585 702.564 708.505 695.845Q709.425 689.125 710.008 682.368Q710.591 675.612 710.836 668.834Q711.081 662.056 710.987 655.275Q710.893 648.494 710.46 641.725Q710.027 634.957 709.256 628.219Q708.486 621.481 707.38 614.79Q706.273 608.099 704.834 601.471C695.568 558.679 679.551 518.176 662.723 477.925C633.959 409.128 600.447 342.438 567.287 275.685L541.675 224.303C533.418 207.558 525.532 190.508 515.08 174.982ZM297.151 645.522C295.477 652.65 295.766 661.075 295.965 668.394C297.033 707.633 309.758 748.264 330.439 781.573C332.801 785.379 343.341 801.853 347.252 802.954C344.735 795.694 341.45 788.61 338.595 781.468Q331.797 764.396 326.193 746.896C316.052 714.914 308.778 682.062 299.185 649.913C298.659 648.321 297.975 646.98 297.151 645.522Z"/>
	<path fill="#9EAF83" d="M294.831 596.916C298.064 604.321 292.125 622.547 290.516 630.268Q289.23 636.57 288.493 642.959C286.674 642.298 284.96 641.266 283.253 640.359L284.384 636.554C285.082 632.304 287.29 627.568 288.462 623.313C290.863 614.598 292.779 605.72 294.831 596.916Z"/>
	<path fill="#9EAF83" d="M614.691 856.411C617.79 853.776 637.498 838.686 639.814 838.051C637.36 846.601 635.309 857.48 630.859 865.106C625.249 862.788 619.825 859.631 614.691 856.411Z"/>
	<path fill="#9EAF83" d="M347.282 484.287C344.053 497.115 338.29 509.008 334.11 521.519C320.69 561.687 306.059 614.396 312.312 657.123C307.708 655.026 303.486 652.571 299.185 649.913C298.659 648.321 297.975 646.98 297.151 645.522C301.239 588.526 323.284 535.44 347.282 484.287Z"/>
	<path fill="#9EAF83" d="M576.04 832.596C603.386 821.446 626.179 804.354 646.723 783.333C646.568 789.291 646.324 795.216 645.748 801.149C645.411 804.614 642.369 820.11 643.472 822.36C638.59 830.079 614.554 845.679 606.233 851.384C596.059 845.254 585.942 839.175 576.04 832.596Z"/>
	<path fill="#FEE5A7" d="M299.185 649.913C303.486 652.571 307.708 655.026 312.312 657.123C315.028 670.814 317.029 684.484 320.677 697.987C323.589 708.765 327.541 719.216 331.844 729.508C346.021 763.41 365.86 791.715 396.727 812.391C438.84 840.601 491.745 852.881 541.741 842.859C553.456 840.511 564.878 836.82 576.04 832.596C585.942 839.175 596.059 845.254 606.233 851.384C582.245 865.401 557.152 874.984 529.416 878.189C475.716 884.395 419.607 866.54 377.554 833.087C371.791 828.503 347.845 808.204 347.252 802.954C344.735 795.694 341.45 788.61 338.595 781.468Q331.797 764.396 326.193 746.896C316.052 714.914 308.778 682.062 299.185 649.913Z"/>
	<path fill="#FEE5A7" d="M323.199 665.123C332.241 670.307 340.538 677.101 348.958 683.248Q367.615 696.83 386.596 709.956Q435.536 743.721 485.572 775.841C495.069 781.896 504.935 787.362 514.426 793.428C533.269 805.471 551.171 819.015 570.702 829.966Q564.344 832.275 557.809 834.024Q551.275 835.773 544.613 836.949C494.626 845.887 443.701 832.579 402.35 803.706C354.806 770.51 333.118 720.584 323.199 665.123Z"/>
	<path fill="#9EAF83" d="M458.746 287.286C474.522 299.924 489.829 312.85 502.656 328.582C526.132 357.372 543.882 390.391 559.634 423.847Q569.574 445.078 578.45 466.776Q587.326 488.474 595.115 510.586Q602.904 532.697 609.587 555.168Q616.27 577.638 621.831 600.412Q629.248 628.771 634.63 657.585Q640.013 686.399 643.332 715.523C645.29 733.284 648.081 758.817 647.027 776.542C624.708 801.523 602.062 817.967 570.702 829.966C551.171 819.015 533.269 805.471 514.426 793.428C504.935 787.362 495.069 781.896 485.572 775.841Q435.536 743.721 386.596 709.956Q367.615 696.83 348.958 683.248C340.538 677.101 332.241 670.307 323.199 665.123C318.571 639.57 321.149 608.784 325.54 583.241C340.722 494.943 384.91 419.123 427.958 342.161L447.646 307.319C451.292 300.899 455.269 294.487 458.482 287.844L458.746 287.286Z"/>
</svg>
