<?xml version="1.0" encoding="utf-8" ?>
<svg xmlns="http://www.w3.org/2000/svg" xmlns:xlink="http://www.w3.org/1999/xlink" width="1024" height="1024">
	<path d="M338.519 734.215C339.295 731.445 339.835 728.925 342.07 726.936L342.855 727.077C343.532 729.83 341.474 732.644 340.113 734.915C340 735.104 339.882 735.289 339.766 735.475L338.519 734.215Z"/>
	<path d="M344.071 323.229C348.694 324.531 361.446 332.409 364.362 336.088C365.199 337.144 364.899 337.712 364.786 338.996C358.658 337.477 350.488 332.159 345.847 327.817C344.157 326.236 344.093 325.41 344.071 323.229Z"/>
	<path d="M320.052 320.699C321.871 320.933 323.094 321.592 324.623 322.558C332.553 327.569 339.768 333.679 347.536 338.931C352.591 342.349 360.745 346.038 364.962 350.019C365.915 350.919 365.547 352.086 365.492 353.262C357.512 353.113 331.338 333.436 324.498 327.477C322.162 325.441 320.294 323.981 320.052 320.699Z"/>
	<path d="M301.292 319.49C303.363 320.127 305.177 321.335 306.926 322.58C319.367 331.433 331.107 341.477 343.422 350.558Q349.304 354.961 355.388 359.081C357.539 360.541 360.688 362.11 362.505 363.91C363.623 365.018 363.489 366.322 363.682 367.801C353.91 366.243 326.791 343.358 318.11 336.576C313.346 332.854 308.01 329.295 303.6 325.183C301.617 323.334 301.417 322.154 301.292 319.49Z"/>
	<path d="M265.369 708.145Q276.848 710.675 288.032 714.293Q299.216 717.91 310.003 722.581C315.473 724.951 332.428 735.14 336.673 735.184C337.783 735.195 337.748 734.918 338.519 734.215L339.766 735.475Q338.183 737.982 336.744 740.573C327.088 757.987 321.96 780.164 323.242 800.098C323.52 804.407 325.378 809.475 326.417 813.697C329.98 828.17 334.054 842.395 338.013 856.754C346.208 886.473 353.53 916.483 361.951 946.131C338.663 946.35 315.371 946.038 292.082 946.086C291.043 930.804 287.842 915.189 285.583 900.019Q280.06 861.549 273.932 823.17C268.061 788.199 255.679 743.237 265.369 708.145Z"/>
	<path d="M484.819 114.923C476.431 96.2773 469.306 76.0619 469.42 55.3746C469.436 52.54 469.321 48.2415 470.535 45.6417C470.902 44.8559 470.942 44.8622 471.404 44.2825C472.426 44.0004 472.078 43.8842 472.877 44.3104C478.398 47.2555 483.362 62.4197 486.252 68.2142C488.17 72.0623 490.4 75.7807 492.6 79.4734C500.201 92.2267 508.787 103.736 518.051 115.319C515.107 106.446 508.814 86.6161 510.65 78.1553C511.41 77.3347 511.061 77.3892 512.072 77.3463C513.514 77.2851 514.532 77.7598 515.557 78.7427C517.551 80.6547 528.485 100.755 531.798 105.675Q536.982 113.216 542.616 120.426Q548.25 127.637 554.312 134.491Q560.375 141.345 566.844 147.817Q573.314 154.289 580.165 160.355C590.598 154.675 602.77 151.901 614.411 155.262C630.059 159.781 639.985 172.328 648.901 185.123C657.703 179.034 666.967 173.637 675.753 167.496C696.507 152.989 722.551 130.634 736.386 109.237C740.005 103.639 742.874 97.3601 745.513 91.2425C748.787 83.6496 758.863 57.2053 766.946 56.1958C768.063 56.763 768.429 57.1153 768.821 58.3412C772.063 68.4877 762.901 102.869 760.311 113.985C769.028 102.069 792.596 67.9856 805.588 64.1299C806.98 64.3422 806.928 64.3179 807.826 65.4043C810.264 75.507 797.866 103.061 792.798 112.526C788.699 120.18 783.795 127.382 779.652 134.997C786.822 127.914 815.715 97.7962 824.752 97.5C825.49 97.8964 825.862 97.874 826.157 98.73C827.942 103.912 819.853 117.866 817.306 122.38C809.156 136.823 798.187 151.212 786.77 163.267C792.88 159.468 811.784 147.198 818.193 148.558C818.693 149.062 819.015 149.097 818.933 149.878C818.461 154.333 813.721 159.932 810.975 163.26C796.088 181.307 777.829 195.765 758.73 209.105L757.942 209.646C764.517 207.64 776.719 202.684 783.28 205.244C784.149 206.163 784.4 206.315 784.328 207.669C783.897 215.732 763.185 231.699 756.295 236.506C741.946 246.517 726.802 254.36 711.203 262.187C729.702 281.816 744 303.623 750.673 330.025C751.984 335.211 753.69 340.293 753.407 345.728C753.345 346.933 753.38 347.732 752.449 348.574C749.935 346.888 749.055 342.356 748.493 339.536C747.537 334.742 746.755 329.923 745.379 325.224C739.14 303.922 726.519 284.802 711.767 268.415C711.083 273.367 711.584 279.229 710.052 283.877C714.775 292.379 720.656 300.131 725.653 308.457C731.881 318.833 736.046 330.255 739.225 341.893C740.223 345.546 741.953 351.475 740.68 355.105C740.427 355.826 740.477 355.625 739.737 355.919C738.03 355.008 737.421 353.562 736.891 351.792C735.368 346.705 735.415 341.273 733.536 336.264C731.534 330.929 729.89 325.414 727.478 320.242C722.508 309.588 715.304 300.107 708.879 290.312C706.762 294.782 704.378 299.058 701.943 303.358C706.134 306.88 709.355 312.015 712.199 316.636C722.82 333.887 728.922 351.721 730.646 371.896C731.116 377.402 731.816 396.495 728.394 400.662C728.183 400.918 727.915 401.12 727.675 401.35C726.554 400.932 726.553 400.671 726.08 399.611C724.159 395.304 727.254 387.514 727.426 382.795C728.331 358.004 717.268 324.476 699.766 306.371C697.373 308.866 694.897 311.221 692.339 313.546C707.173 329.777 716.693 364.899 715.663 386.624C715.376 392.682 715.387 405.321 711.121 409.814L710.271 409.846C707.899 406.19 709.723 400.496 710.558 396.576C715.371 373.994 707.939 344.099 695.448 324.928C693.417 321.812 691.12 318.956 688.698 316.14L680.3 319.439C683.695 324.358 687.068 329.238 689.71 334.618C697.711 350.911 700.302 371.423 697.129 389.256C695.901 396.157 692.066 409.739 686.885 414.48C686.549 414.788 686.359 414.839 685.982 414.997C685.175 414.215 685.236 413.992 685.187 412.9C684.947 407.587 690.092 401.369 691.497 396.193Q692.001 394.351 692.424 392.489Q692.847 390.627 693.188 388.748Q693.529 386.869 693.787 384.977Q694.046 383.085 694.221 381.184Q694.396 379.282 694.487 377.375Q694.579 375.467 694.587 373.558Q694.594 371.648 694.518 369.74Q694.443 367.832 694.283 365.929Q694.124 364.027 693.881 362.133Q693.638 360.238 693.312 358.357Q692.987 356.475 692.579 354.61Q692.171 352.744 691.682 350.898Q691.193 349.053 690.623 347.23Q690.054 345.407 689.405 343.611Q688.756 341.816 688.029 340.05Q687.302 338.284 686.498 336.552C684.158 331.576 681.361 326.556 677.382 322.694C674.947 320.331 672.787 319.548 669.579 318.613C680.316 340.076 683.665 358.895 675.997 382.205C674.784 385.893 672.69 393.177 669.261 395.353L668.092 395.053C667.287 393.581 667.545 392.297 667.986 390.759C669.49 385.517 672.496 380.682 673.939 375.46C678.067 360.521 677.244 342.622 670.048 328.737C665.279 319.537 658.674 315.686 649.652 311.316C649.741 310.165 649.763 309.689 649.004 308.778C648.874 308.623 648.73 308.48 648.593 308.331L650.093 307.119C658.31 309.922 665.784 316.026 674.693 316.314C676.106 316.36 678.224 316.383 679.275 315.4C678.736 314.528 678.297 313.715 677.917 312.763C678.721 312.01 678.982 312.163 680.038 312.032C680.253 312.165 680.465 312.302 680.682 312.431C682.019 313.232 682.529 313.543 684.063 313.134C692.867 310.785 699.079 299.431 703.126 292.104C702.243 290.579 701.202 289.08 700.923 287.314C702.04 286.765 703.041 287.355 704.193 287.731L704.815 287.94C705.026 287.475 705.122 287.298 705.277 286.843C706.427 283.469 707.128 266.407 705.99 263.971C703.238 263.924 700.322 266.639 698.264 268.348C696.554 268.39 695.052 268.426 693.409 268.931C692.229 270.152 692.404 270.363 692.309 271.993C691.351 272.929 690.969 272.867 689.629 273.111C688.128 272.285 689.009 271.537 687.746 270.532C684.968 270.944 683.311 273.562 680.529 273.945C679.855 273.679 679.174 273.394 678.484 273.169C674.63 271.918 674.902 275.441 671.97 276.892C671.367 275.967 670.78 275.514 669.877 274.889C668.875 274.736 668.441 274.702 667.462 275.082C665 276.036 667.772 277.838 666.975 279.79C665.979 280.083 665.552 280.014 664.545 279.887L664.034 279.198C664.111 278.081 664.232 277.241 663.839 276.168L662.857 275.808L660.941 277.314L660.078 276.96C659.415 275.55 659.043 274.209 658.681 272.696C667.166 270.346 675.872 269.024 684.33 266.496C720.508 255.687 755.524 237.076 780.564 208.336C762.046 212.058 747.02 217.313 729.926 225.406C725.046 227.717 705.323 238.632 700.952 237.55C700.193 237.362 700.184 237.056 699.787 236.459C700.472 235.054 701.487 234.342 702.786 233.493C706.845 230.838 711.595 228.857 715.957 226.72C725.292 222.145 734.745 217.803 743.752 212.593C770.231 197.277 794.63 178.57 812.915 153.807C805.646 157.059 798.789 161.451 791.939 165.493Q776.764 174.625 761.262 183.191C756.01 186.082 750.518 189.599 744.811 191.46C743.289 191.956 742.361 192.117 740.91 191.415C741.232 189.984 742.213 189.142 743.338 188.247C750.822 182.3 760.351 178.441 768.215 172.813C788.796 158.086 811.677 127.051 821.294 104.097C810.581 110.814 802.229 120.671 793.16 129.356C786.497 135.738 778.949 141.054 771.925 147.019C762.094 155.369 752.463 166.871 740.808 172.576C739.439 173.246 738.528 173.379 737.102 172.884C736.767 171.764 736.912 171.749 737.623 170.795C739.813 167.86 749.566 161.364 753.138 158.166C758.045 153.774 762.978 149.33 767.168 144.231C771.651 138.775 775.216 132.619 778.859 126.589C789.785 108.506 799.036 90.5271 803.964 69.8373C789.712 79.1849 775.231 102.543 764.598 116.021C757.22 125.374 749.16 134.249 741.275 143.178C738.347 146.494 734.166 152.616 730.107 154.159C729.068 154.554 729.114 154.54 728.071 154.019C727.718 152.452 728.569 150.983 729.37 149.677C734.275 141.683 742.389 135.361 748.267 128.061C760.69 112.633 763.604 82.3303 764.938 62.868C754.309 78.8702 749.028 97.4271 738.643 113.447C719.994 142.216 686.652 165.481 658.367 184.052C652.135 188.143 644.969 193.968 638.014 196.464C636.194 197.118 633.9 197.541 632.1 196.685L631.906 195.922C634.147 192.304 641.262 189.663 645.019 187.701C640.342 179.567 634.339 172.468 626.813 166.811C614.713 157.718 600.743 154.793 587.105 162.387C582.236 165.098 578.012 168.91 572.993 171.346C568.054 173.744 562.699 175.115 557.279 175.877C560.762 177.567 564.201 179.791 567.214 182.225C581.713 193.935 576.938 203.577 578.519 218.266C578.74 220.318 580.824 222.689 580.389 224.675C579.792 227.395 578.165 227.847 578.513 231.224C580.634 233.732 580.725 235.591 581.226 238.734L582.036 238.558C582.349 238.212 582.753 238.055 583.161 237.837C583.623 237.903 583.801 237.893 584.256 238.155C585.419 238.825 585.81 239.66 585.913 240.909C584.612 241.711 583.542 241.374 582.039 241.295C582.006 241.933 581.976 242.525 582.072 243.16C582.586 246.566 584.617 250.435 586.852 253.022C587.786 254.104 589.255 255.083 589.861 256.391C591.582 260.108 590.842 263.715 594.414 266.543C594.141 267.283 594.086 268.196 593.32 268.538C592.347 268.974 591.312 268.956 590.265 269.007C563.756 265.581 516.162 243.506 499.923 222.816C498.041 220.418 496.163 217.437 496.633 214.246C496.793 213.155 497.126 212.903 497.754 212.042C500.957 210.316 504.522 211.282 507.905 211.973C502.128 207.795 496.335 203.628 491.106 198.761C484.511 192.623 468.543 174.468 467.265 165.415C467.086 164.147 467.182 163.906 467.897 162.974C470.914 162.063 475.128 164.726 477.75 166.14C485.832 170.498 492.661 176.415 500.506 180.901C480.113 160.083 467.841 131.833 461.884 103.592C460.739 98.161 458.987 91.7318 459.167 86.2034C459.217 84.6539 459.591 83.4437 460.531 82.2035L461.585 81.9657C465.326 85.0559 469.812 93.6995 472.734 97.95Q478.709 106.484 484.819 114.923ZM474.228 55.3008C472.167 95.8423 500.451 136.992 526.595 165.937C530.357 170.102 535.348 174.299 537.257 179.697L537.126 180.738C535.87 181.069 535.233 180.654 534.156 180.018C524.273 174.182 506.026 147.811 497.83 137.656C489.942 127.881 481.468 118.47 474.016 108.362C470.444 103.516 467.096 98.5339 464.274 93.2101C468.594 122.613 479.737 149.092 498.652 172.16C503.409 177.961 508.487 183.873 514.549 188.342C518.601 191.329 539.945 201.272 540.726 204.742C539.813 205.487 539.004 205.401 537.866 205.255C524.981 203.604 484.841 176.258 472.413 168.191L479.322 178.435Q480.415 179.84 481.54 181.219Q482.665 182.598 483.821 183.951Q484.978 185.303 486.165 186.629Q487.353 187.954 488.571 189.252Q489.789 190.55 491.037 191.819Q492.285 193.088 493.562 194.327Q494.839 195.567 496.144 196.777Q497.449 197.987 498.782 199.166Q500.115 200.345 501.475 201.493Q502.835 202.642 504.221 203.758Q505.607 204.874 507.019 205.958Q508.431 207.042 509.867 208.092Q511.303 209.143 512.764 210.16Q514.224 211.178 515.708 212.161Q517.191 213.144 518.697 214.092Q520.203 215.041 521.731 215.954Q523.258 216.867 524.807 217.745Q526.355 218.623 527.923 219.464Q529.491 220.306 531.079 221.111Q532.666 221.916 534.271 222.684Q535.877 223.452 537.5 224.182Q539.123 224.913 540.762 225.605Q542.401 226.298 544.056 226.953Q545.711 227.607 547.381 228.223Q549.051 228.839 550.734 229.416Q552.418 229.994 554.115 230.532Q555.811 231.07 557.52 231.568Q559.228 232.067 560.948 232.525Q562.667 232.984 564.397 233.403Q566.127 233.822 567.866 234.2Q569.605 234.579 571.352 234.917Q573.099 235.255 574.854 235.553L574.795 235.027C573.599 223.58 576.282 206.134 572.102 195.827C570.517 191.916 567.703 188.656 564.455 186.019C559.768 182.214 552.655 180.078 548.715 175.791C548.874 174.572 548.879 174.624 549.839 173.942C555.881 169.646 572.349 170.248 575.864 163.888C574.631 160.779 556.072 143.437 552.197 139.217Q545.742 132.177 539.854 124.656Q533.965 117.135 528.68 109.179C524.331 102.531 520.533 95.4862 515.989 88.9749C518.947 104.6 522.583 119.567 532.373 132.49C534.961 135.906 542.24 142.135 541.174 146.457C540.486 146.833 540.307 147.17 539.493 146.9C535.035 145.425 508.783 112.07 504.354 105.889Q496.599 94.8416 489.661 83.264C486.375 77.7009 477.311 58.0271 474.228 55.3008ZM499.716 215.881C522.769 242.614 555.741 256.187 589.077 264.818C583.748 256.972 579.581 248.991 575.96 240.227C565.9 237.934 555.817 235.763 546.105 232.211C531.264 226.785 515.77 216.308 499.716 215.881Z"/>
	<path d="M582.447 226.153C583.798 226.742 584.215 226.847 585.081 228.01C585.185 229.561 584.531 230.612 583.855 231.949C583.115 231.555 582.392 231.123 581.664 230.706C581.098 229.009 581.889 227.82 582.447 226.153Z"/>
	<path d="M595.416 210.272C596.784 210.463 597.917 210.701 599.217 211.162C600.214 212.502 600.086 213.263 600.223 214.901C598.856 214.741 597.791 214.579 596.526 213.974C595.558 212.868 595.568 211.667 595.416 210.272Z"/>
	<path d="M588.655 210.21C589.863 210.756 590.462 211.133 591.29 212.175C591.572 213.771 591.024 214.653 590.334 216.029C589.133 215.584 588.609 215.287 587.797 214.289C587.413 212.684 588.025 211.644 588.655 210.21Z"/>
	<path d="M592.366 215.278C593.748 215.674 595.059 215.902 596.091 216.972C596.042 218.419 595.4 218.672 594.411 219.682C594.193 219.72 593.979 219.808 593.758 219.795C592.571 219.727 592.149 219.255 591.432 218.444C591.221 216.671 591.318 216.749 592.366 215.278Z"/>
	<path d="M596.762 219.715C597.979 220.221 598.764 220.73 599.773 221.545C600.249 223.137 599.948 223.685 599.533 225.262C598.136 224.838 597.142 224.595 596.126 223.465C595.737 221.974 596.212 221.071 596.762 219.715Z"/>
	<path d="M586.714 242.43C587.959 242.813 588.698 243.089 589.732 243.929C590.601 245.522 590.222 246.982 590.001 248.696C588.616 247.888 587.592 247.23 586.559 245.993C586.104 244.536 586.333 243.852 586.714 242.43Z"/>
	<path d="M592.524 225.225C593.778 226.108 594.421 226.613 595.192 227.989C595.408 229.581 595.222 230.058 594.495 231.409C593.162 230.958 592.321 230.666 591.24 229.718C591.018 227.861 591.755 226.905 592.524 225.225Z"/>
	<path d="M588.679 218.916C589.152 220.362 589.929 221.803 590.472 223.247C590.264 224.729 589.986 225.022 589.067 226.232C587.797 225.491 587.088 225.09 586.452 223.684C586.494 221.887 587.732 220.384 588.679 218.916Z"/>
	<path d="M603.932 212.954C605.059 213.613 605.338 214.099 605.89 215.268C605.924 216.593 605.947 217.713 604.901 218.733C603.916 219.694 603.252 219.718 601.987 219.769C601.214 218.58 600.623 217.778 600.64 216.314C601.443 215.597 603.146 215.794 604.225 215.73C604.063 214.978 603.934 214.311 603.924 213.537C603.921 213.343 603.929 213.148 603.932 212.954Z"/>
	<path d="M598.07 170.438C599.354 170.533 600.914 170.578 602.012 171.341C602.615 171.759 603.142 172.371 603.257 173.102C603.568 175.064 602.261 176.437 601.11 177.839C599.958 177.667 598.825 177.478 597.818 176.847C596.728 176.164 596.446 175.219 596.13 174.063C596.432 172.401 596.958 171.69 598.07 170.438Z"/>
	<path d="M594.414 266.543L596.374 267.659L597.117 267.428L597.195 266.723C597.32 265.674 597.259 266.084 597.494 264.992C598.62 265.196 599.167 265.697 600.038 266.41C600 268.082 598.405 268.794 598.372 270.344C599.208 270.622 599.856 270.666 600.722 270.69C601.775 270.719 602.275 270.847 603.166 271.464C603.436 273.063 602.447 273.192 603.083 274.9C604.251 275.679 604.46 275.989 605.898 275.711C606.306 275.632 606.966 275.404 607.379 275.269C608.296 276.081 608.443 276.098 608.67 277.281L607.938 278.759C608.87 280.136 610.022 280.52 611.502 281.076C614.701 282.278 626.744 295.896 629.637 294.128C630.168 293.803 630.788 292.827 631.197 292.326C632.536 292.069 632.583 292.218 633.805 292.871L634.002 293.5L630.687 295.761C631.158 296.766 631.696 297.147 632.582 297.791C634.193 298.121 635.363 297.469 636.813 296.863C637.839 297.201 637.796 297.022 638.46 297.988L637.743 299.691C639.636 302.596 646.86 305.431 650.093 307.119L648.593 308.331C648.73 308.48 648.874 308.623 649.004 308.778C649.763 309.689 649.741 310.165 649.652 311.316C635.342 305.98 618.558 293.934 607.042 283.908C603.5 280.825 593.944 269.923 590.265 269.007C591.312 268.956 592.347 268.974 593.32 268.538C594.086 268.196 594.141 267.283 594.414 266.543Z"/>
	<path d="M285.616 321.984C291.79 323.026 298.093 329.988 302.834 333.873C312.521 341.81 322.377 349.56 332.189 357.341C339.122 362.839 346.188 369.03 353.883 373.415C357.021 375.203 361.004 376.752 364.593 377.226C375.119 378.615 385.166 367.109 392.662 361.259C402.141 353.862 414.866 346.891 427.335 348.748C447.707 351.781 443.229 377.236 448.803 382.601C452.514 386.173 477.242 384.004 483.454 383.963C507.381 413.141 514.328 468.272 514.379 504.91Q514.312 515.469 513.862 526.019C513.621 530.761 512.575 536.164 513.334 540.858C514.993 551.128 521.364 560.939 525.194 570.555C530.635 584.218 535.32 598.151 540.663 611.845C566.275 604.006 589.675 591.713 611.81 576.71C661.341 543.139 722.748 479.043 756.05 428.875C765.754 414.258 781.682 378.456 794.723 369.977C796.561 368.782 798.859 367.862 801.061 368.556C803.835 369.429 805.008 372.671 806.11 375.067C811.942 368.45 834.276 347.366 842.626 346.483C843.546 346.865 843.993 346.764 844.31 347.894C845.743 353.004 836.871 366.68 834.057 371.119C840.181 364.711 846.981 357.792 854.738 353.379C856.862 352.171 859.247 350.892 861.731 351.584C862.596 352.451 862.926 352.723 863.185 353.964C864.554 360.538 857.368 370.169 853.839 375.25C857.48 372.45 861.856 368.699 866.572 368.189C868.183 368.015 869.101 368.319 870.353 369.298C870.846 370.169 871.125 370.749 871.193 371.772C871.667 378.907 858.99 391.252 854.307 396.178C856.277 395.347 858.491 394.281 860.677 394.294C862.121 394.302 863.822 394.866 864.732 396.035C865.426 396.927 865.586 398.095 865.449 399.188C863.978 410.836 825.473 436.159 815.734 443.248Q807.674 449.101 800.019 455.475C782.262 470.385 773.492 485.752 761.302 504.688L737.168 541.889C712.097 580.006 682.7 617.18 647.615 646.596L651.57 657.344C643.299 664.415 633.576 670.221 624.6 676.393Q597.445 695.275 569.671 713.236C573.968 730.908 579.413 748.279 584.522 765.725C592.932 794.438 603.7 836.743 619.928 861.118C632.332 856.077 643.588 849.177 652.803 839.369C663.386 828.107 669.887 814.732 675.975 800.732Q685.838 778.036 693.406 754.476C700.422 732.489 706.29 709.956 716.865 689.318C727.09 669.361 741.914 650.769 761.707 639.675C766.755 636.845 772.211 634.961 777.397 632.438C781.724 630.333 783.436 626.884 788.662 625.202C788.472 621.434 788.543 617.695 788.635 613.924C798.451 612.549 808.579 613.459 818.469 613.505C818.483 613.338 818.495 613.171 818.511 613.005C818.962 608.334 817.114 600.639 819.357 596.733C820.351 595.864 821.153 595.359 822.47 595.105C825.747 594.473 831.789 594.107 834.445 596.373C837.605 599.069 836.059 609.343 836.057 613.479C841.953 613.447 847.846 613.015 853.746 613.119C857.209 613.181 863.257 612.855 865.757 615.445C866.541 619.738 865.996 624.576 865.884 628.943C863.799 629.276 861.68 629.381 859.576 629.539C859.115 640.29 859.4 651.156 859.357 661.927L859.148 718.686C859.143 729.113 859.618 739.715 859.029 750.12Q848.592 750.055 838.157 750.243C837.157 758.952 835.687 767.473 835.338 776.26C834.292 802.58 836.982 828.214 826.234 853.214C804.674 903.363 753.399 891.364 709.936 892.627C688.813 893.241 666.241 896.783 646.528 904.566C652.362 912.23 657.891 920.298 663.551 928.108C667.941 934.165 672.611 940.064 676.758 946.288C648.896 945.875 621.048 946.308 593.186 946.3L453.023 946.102C424.637 946.114 396.147 946.869 367.778 946.061C361.142 924.012 355.497 901.724 349.244 879.571C342.273 854.875 327.756 813.139 328.383 788.749C328.813 772.005 335.298 754.378 342.121 739.185C346.025 741.978 349.628 745.141 353.195 748.344C361.257 755.25 368.869 763.131 375.793 771.175C387.837 785.167 398.547 800.183 414.231 810.454C452.322 835.399 498.617 829.997 541.611 836.082C567.329 839.722 591.539 847.661 613.479 861.77C600.273 833.851 590.927 805.052 582.528 775.386C575.671 751.168 568.342 715.984 555.824 694.763C544.893 676.23 527.439 662.712 511.049 649.26C507.426 646.287 499.818 641.195 497.462 637.406C496.881 636.472 497.025 636.15 497.215 635.137L498.449 634.487C499.308 634.512 500.122 634.536 500.932 634.857C506.608 637.109 536.541 664.778 542.288 670.489C546.155 674.332 549.848 678.317 553.178 682.639C559.267 690.544 563.86 699.439 568.097 708.434C594.722 691.747 620.138 673.251 646.002 655.434C640.869 641.247 635.155 627.238 629.711 613.167C625.37 601.946 621.318 590.612 616.771 579.472Q608.81 584.546 600.761 589.478C572.656 606.541 539.247 622.128 505.652 621.478C489.646 621.168 473.997 617.693 458.513 613.918C451.304 632.514 439.74 648.321 425.521 662.133C401.234 653.489 372.222 626.844 353.995 608.836C347.988 611.315 342.215 614.578 336.385 617.468C318.26 626.453 300.924 635.232 288.072 651.493C276.088 666.657 259.407 705.549 257.43 724.992C253.897 759.753 265.475 801.275 271.087 835.936Q279.89 890.866 286.121 946.147C262.069 945.746 237.957 946.074 213.898 946.077C209.781 932.057 204.881 918.273 200.705 904.261C180.207 835.5 161.183 767.552 148.893 696.76Q139.445 643.313 132.537 589.479C129.667 567.465 127.455 545.367 124.457 523.367C122.335 507.796 120.236 492.194 117.888 476.656C116.036 464.401 113.35 451.958 113.44 439.529C113.502 430.964 115.235 422.838 120.301 415.773C127.216 406.128 137.671 403.014 148.88 401.19C148.549 397.18 147.814 389.28 149.763 385.667C150.167 384.917 150.458 384.374 151.284 384.126C156.568 382.537 164.438 383.476 170.014 383.479L224.583 383.482C230.882 383.461 243.674 384.227 249.041 382.775Q247.98 381.147 246.86 379.558L247.066 378.786C247.508 378.615 247.757 378.493 248.261 378.433C251.437 378.053 253.873 380.441 256.169 382.262C259.966 382.931 263.659 383.351 267.513 383.456C262.611 379.748 247.962 370.474 246.453 364.719L246.869 364.174C251.343 364.012 269.525 379.937 274.165 383.516L286.817 383.428Q285.837 382.797 284.881 382.132C279.459 378.401 251.898 359.462 250.943 354.3L251.63 353.366C256.441 352.444 284.084 379.22 293.014 382.521C296.537 383.824 300.071 383.491 303.754 383.368C296.489 376.359 258.618 349.903 257.171 344.655C257.51 344.124 257.424 344.016 258.134 343.941C260.239 343.717 262.773 345.259 264.446 346.355C268.902 349.275 272.988 353.428 277.199 356.764C287.794 365.158 298.862 373.354 308.828 382.487C314.022 382.642 318.757 383.207 323.748 384.684C317.747 379.521 311.222 374.887 304.982 370.011C296.97 363.751 289.149 357.248 281.149 350.973C275.984 346.921 270.149 343.041 265.371 338.568C264.6 337.846 264.207 337.23 263.859 336.215C264.221 334.932 264.151 334.946 265.273 334.243C266.46 334.3 267.273 334.587 268.261 335.22C274.637 339.301 280.668 344.956 286.527 349.801C299.649 360.65 312.684 371.906 326.699 381.602L334.81 377.243C320.506 369.049 307.991 357.437 295.006 347.376C288.56 342.382 280.677 337.824 274.923 332.129C273.866 331.082 272.715 329.895 272.733 328.327L273.351 327.755C274.064 327.688 274.136 327.647 274.941 327.755C276.721 327.992 278.813 329.427 280.242 330.478C289.33 337.164 297.992 344.84 306.954 351.764C314.275 357.42 322.2 362.487 329.271 368.424C332.166 370.855 334.763 373.377 337.053 376.389L347.373 373.666C347.215 373.567 347.055 373.471 346.9 373.369C339.374 368.46 285.626 327.565 284.693 323.087L285.616 321.984ZM780.339 641.488C749.993 653.206 734.003 672.747 721.01 702.053C714.062 717.724 709.111 734.193 703.792 750.463Q697.133 770.836 689.533 790.877C683.098 807.958 676.43 824.674 665.002 839.171C653.943 853.199 640.009 863.202 623.405 869.634L622.945 869.811C628.59 878.854 633.959 887.605 640.406 896.13C648.44 893.322 656.645 891.146 664.892 889.062C679.071 886.04 692.967 884.111 707.482 883.865C741.984 883.281 790.24 892.446 812.178 858.48C826.759 835.903 827.427 795.458 825.712 769.248C825.296 762.879 824.052 756.584 823.576 750.226C816.05 750.274 808.533 750.024 801.007 750.239C800.31 714.756 801.17 679.236 800.888 643.748C793.648 644.066 787.19 644.136 780.339 641.488ZM438.033 398.052C427.081 402.155 417.703 408.98 406.982 413.367C391.029 419.893 364.724 419.479 356.635 437.507C354.777 441.648 353.956 446.078 353.388 450.553C350.983 469.488 350.99 475.548 334.053 486.685C325.683 492.189 319.911 495.889 324.271 506.753C326.63 512.633 332.846 522.693 338.922 525.09C340.31 525.638 341.798 525.826 343.152 525.041C344.576 524.215 345.263 522.142 345.911 520.705C359.946 542.069 384.497 557.898 409.451 563.173C413.186 563.963 416.927 564.471 420.721 564.877C433.23 564.871 444.085 562.428 453.205 553.368C470.012 536.673 478.219 497.186 478.039 473.722C477.928 459.231 472.632 445.664 466.411 432.791C446.029 429.652 445.737 433.627 429.141 442.342C431.648 436.342 435.296 432.843 441.371 430.309C448.445 427.36 455.787 427.348 463.323 427.336C459.092 421.327 457.315 413.972 453.777 407.609C450.302 407.941 436.858 410.652 434.949 409.427C434.494 408.206 434.677 408.153 435.162 406.918C438.395 403.693 447.112 404.164 451.637 403.924C447.391 400.66 443.639 397.948 438.033 398.052ZM233.041 388.722C208.263 389.846 183.377 388.444 158.58 389.514C163.827 402.584 168.654 415.466 172.264 429.101C182.229 466.735 184.406 508.543 184.81 547.381C184.928 558.75 183.837 570.105 184.054 581.496C217.024 581.519 250.246 581.59 283.191 580.192C271.076 572.943 254.249 563.176 250.32 548.49C248.424 541.401 250.794 534.729 254.429 528.693C262.194 515.8 281.071 499.084 277.04 482.486C276.657 480.907 276.095 479.361 275.55 477.833C273.448 472.818 271.444 468.002 267.998 463.744C263.348 458 254.732 453.452 250.998 448.359C250.263 447.357 250.229 446.868 250.388 445.672C251.223 445.167 251.269 445.163 252.185 445.415C257.52 446.884 265.85 455.456 270.189 459.316C270.88 456.259 271.702 453.278 272.609 450.277C268.573 448.544 251.338 436.52 249.928 432.966C249.522 431.941 249.24 431.305 249.591 430.214C253.561 429.951 269.114 444.057 272.953 447.402L273.334 447.736L276.185 441.985C269.238 435.683 254.47 425.665 249.436 419.422C248.223 417.916 247.483 416.108 246.726 414.346C258.475 420.316 268.689 429.944 278.859 438.288L283.969 432.711C277.59 427.935 247.964 406.449 246.745 400.994C246.71 400.839 246.717 400.678 246.703 400.52L247.29 399.94C252.927 400.119 268.693 415.681 273.563 419.629C277.91 423.152 282.602 426.365 287.107 429.69C288.826 427.805 290.589 425.947 292.252 424.015C278.689 414.728 258.385 401.463 248.27 388.517C243.217 388.562 238.082 388.415 233.041 388.722ZM838.882 351.88C826.367 360.17 805.298 379.222 797.89 392.158C798.144 405.212 801.622 419.644 791.752 430.454C790.877 431.412 790.093 432.068 788.759 432.199C787.81 431.414 787.89 431.422 787.719 430.19C789.112 425.892 792.69 422.303 793.741 417.993C795.976 408.835 792.298 400.23 794.513 391.94C795.749 387.317 801.127 380.129 801.644 376.694C801.839 375.392 801.477 374.168 801.118 372.931L800.279 372.07C797.602 372.096 795.919 373.915 794.113 375.733C779.44 390.501 769.598 417.471 757.276 435.521C749.084 447.52 739.904 458.872 730.652 470.064Q718.458 484.893 705.436 499.001Q692.414 513.108 678.608 526.449Q664.802 539.79 650.256 552.321Q635.711 564.852 620.473 576.531Q633.016 609.106 646.07 641.48C660.046 630.247 681.854 609.236 692.241 594.699Q705.858 578.13 718.513 560.817Q731.169 543.503 742.823 525.5C756.118 505.069 767.992 482.496 784.361 464.316C804.109 442.383 849.262 419.185 861.489 398.144C858.008 399.017 854.946 400.089 851.791 401.816C847.906 403.942 838.301 412.019 834.534 411.991C833.5 411.25 833.632 411.193 833.401 409.92C833.643 408.87 833.977 408.227 834.703 407.453C837.824 404.126 842.084 401.408 845.609 398.48C848.677 395.932 851.452 392.891 854.191 389.992C859.532 384.337 863.864 378.347 867.952 371.764C862.709 374.671 857.557 377.544 852.746 381.147C847.789 384.86 834.084 398.286 829.945 399.78C828.506 399.367 828.538 399.093 827.693 397.825C827.724 396.551 827.85 396.138 828.783 395.236C831.629 392.484 834.896 390.079 837.807 387.368C847.235 378.59 855.041 368.074 859.523 355.925C855.734 358.116 852.201 360.355 848.839 363.167C843.867 367.327 816.942 394.341 813.769 394.327C813.403 393.835 812.801 393.367 812.894 392.715C813.639 387.472 838.985 363.621 839.462 352.441L838.882 351.88ZM154.348 397.321L154.482 398.023C155.666 404.021 158.064 409.916 160.069 415.686C162.7 423.253 165.087 430.954 166.735 438.801Q171.907 464.64 174.769 490.835C176.823 510.144 176.828 529.604 177.342 548.997C177.494 554.746 177.482 560.497 177.639 566.244C177.723 569.318 178.187 572.602 177.925 575.648C177.768 577.467 177.297 579.641 176.246 581.163C175.725 581.919 175.047 582.603 174.373 583.225C175.183 584.143 176.023 584.686 177.037 585.353C176.919 617.976 178.326 654.079 202.678 678.838C216.94 693.338 238.644 702.091 258.539 705.406C261.841 689.832 268.573 673.629 276.532 659.885C285.3 646.149 295.379 634.425 309.414 625.833C314.311 622.836 319.695 620.524 324.481 617.394C319.848 614.227 315.58 611.125 311.841 606.89C305.839 600.092 301.47 592.171 294.164 586.58C283.582 585.75 272.945 586.038 262.34 586.175L210.729 587.168C200.78 587.31 190.412 588.026 180.538 586.788C176.898 577.203 178.67 536.625 177.997 523.165C176.167 486.537 172.792 451.045 161.976 415.838C160.678 411.61 158.074 399.742 154.348 397.321ZM451.311 389.16C459.517 413.58 479.753 442.397 481.841 467.208C482.702 477.443 481.272 487.917 479.66 498.022C477.342 512.557 473.546 527.353 466.923 540.538C461.166 551.999 452.924 561.235 441.133 566.599C440.908 570.739 440.483 574.973 440.651 579.115Q454.761 579.47 468.875 579.379L505.981 579.501C506.915 561.443 508.765 543.469 509.407 525.374C510.905 483.137 508.183 423.937 481.035 389.21C471.123 389.298 461.23 388.748 451.311 389.16ZM364.58 548.127C364.032 555.42 364.196 562.717 363.706 570.004C362.878 582.342 360.869 593.882 358.343 605.96C373.911 624.65 402.537 645.16 424.179 656.73C428.224 652.663 432.209 648.638 435.848 644.196C443.15 634.337 448.839 623.88 454.37 612.968C449.179 611.285 443.94 609.688 438.812 607.82C435.911 594.695 436.313 581.4 436.381 568.044C405.97 572.107 390.164 562.291 364.58 548.127ZM805.119 629.81C803.811 652.544 804.883 675.702 804.95 698.466C804.995 713.738 803.922 731.055 804.873 746.005L854.125 745.984L855.321 745.84C856.276 732.813 855.452 719.087 855.474 705.982L855.531 629.5C838.786 629.412 821.835 628.978 805.119 629.81ZM512.503 552.278C512.293 558.072 512.069 578.797 509.708 582.865C502.507 585.082 493.165 584.031 485.656 583.998C471.438 583.937 455.381 583.128 441.356 584.47C441.371 590.582 441.67 596.472 442.539 602.533C451.906 605.812 461.217 609.181 470.883 611.494C492.894 616.203 514.47 618.414 536.654 612.97C530.796 601.062 519.087 559.061 512.503 552.278ZM793.053 617.603C792.981 619.704 792.655 622.087 793.341 624.094C794.647 625.278 798.278 625.251 800.078 625.336C806.444 625.634 812.879 625.083 819.255 625.035L861.456 624.948L861.609 617.829C838.899 616.799 815.801 617.452 793.053 617.603ZM253.313 388.255C258.859 395.411 286 415.411 294.665 420.94L297.355 417.777L298.353 416.195C296.825 412.38 269.868 394.96 264.215 388.251C260.586 388.289 256.938 388.402 253.313 388.255ZM269.379 388.612C274.492 392.835 296.349 411.369 301.449 412.306C302.096 411.716 302.662 411.174 303.178 410.466L305.436 406.974C297.709 401.028 289.964 395.176 282.904 388.428L269.379 388.612ZM286.653 388.033C290.394 390.694 303.671 402.861 307.446 402.692C308.049 401.98 308.612 401.317 309.119 400.532L311.755 396.989C308.752 394.001 305.627 391.077 302.738 387.983Q294.695 387.873 286.653 388.033ZM787.545 630.127C785.452 631.113 783.094 632.338 782.232 634.624C782.464 635.989 782.664 636.598 783.804 637.467C787.722 640.448 793.495 640.107 798.125 640.077L800.191 640.188C801.129 639.163 801.214 637.715 801.17 636.384C801.097 634.215 800.869 632.098 800.913 629.921C796.439 629.819 792.015 629.921 787.545 630.127ZM824.328 598.998C821.734 602.816 822.729 608.996 823 613.459L830.953 613.432C832.085 612.393 831.938 611.654 832.019 610.117C832.198 606.702 832.042 603.119 831.752 599.71C829.292 599.441 826.802 599.074 824.328 598.998ZM827.528 750.409C827.45 754.009 827.256 758.885 829.984 761.655C830.702 762.384 830.672 762.216 831.6 762.289C832.42 761.835 832.121 762.147 832.542 761.398C833.239 757.723 833.64 754.246 833.761 750.509L827.528 750.409ZM307.112 387.945Q310.197 391.156 313.37 394.28C314.453 393.117 315.589 391.973 316.592 390.741L319.151 388.004L307.112 387.945Z"/>
	<path d="M254.258 465.229C257.968 465.559 260.984 468.045 263.849 470.248C267.672 473.186 274.23 477.564 274.884 482.659C274.286 482.46 273.705 482.258 273.125 482.006C267.021 479.35 256.724 471.507 254.258 465.229Z"/>
	<path d="M455.214 484.246C458.259 483.702 463.231 482.182 466.037 483.983C466.358 484.794 466.165 484.782 465.849 485.549C465.018 486.035 464.49 486.495 463.508 486.53C460.912 486.341 457.676 485.139 455.214 484.246Z"/>
	<path d="M432.683 445.175C436.82 447.264 440.822 456.234 442.765 460.436C443.492 462.009 445.111 465.476 444.3 467.142C442.537 470.761 434.777 472.802 431.129 474.185C430.059 474.422 429.87 474.469 428.84 474.128L428.673 473.408C431.656 469.543 436.793 467.759 441.153 465.961C437.963 459.518 433.547 452.367 432.683 445.175Z"/>
	<path d="M394.227 440.699C397.23 440.483 401.298 440.398 403.751 442.348C404.48 442.928 404.244 442.734 404.294 443.782C400.939 446.348 393.123 444.366 388.813 445.28C384.509 446.192 381.029 448.172 377.43 450.57C376.204 451.826 374.96 453.232 373.594 454.331C372.575 455.151 371.646 455.467 370.334 455.31L369.827 454.477C370.098 452.704 371.101 451.217 372.267 449.886C377.593 443.803 386.448 441.272 394.227 440.699Z"/>
	<path d="M463.508 486.53C462.138 487.006 461.422 487.005 460.597 488.232C460.062 498.568 457.731 513.174 450.45 521.054C447.423 524.33 443.415 526.354 438.914 526.374C429.664 526.417 419.74 518.895 413.738 512.427C411.558 510.079 409.801 507.371 407.652 504.999C406.08 503.263 404.19 501.845 402.583 500.154C401.62 499.141 401.299 498.753 401.383 497.356C402.872 495.79 405.054 495.147 407.141 494.847C423.018 492.559 439.49 487.786 455.214 484.246C457.676 485.139 460.912 486.341 463.508 486.53ZM454.983 488.681C439.593 491.346 423.399 494.66 408.523 499.355C412.316 504.507 416.618 509.018 421.222 513.448C426.611 517.558 433.767 523.39 441.04 522.213C444.641 521.631 447.483 519.308 449.542 516.39C453.239 511.149 458.279 495.536 457.086 489.571C457.041 489.349 456.982 489.131 456.931 488.911C455.866 488.453 456.008 488.53 454.983 488.681Z"/>
</svg>
