<?xml version="1.0" encoding="utf-8" ?>
<svg xmlns="http://www.w3.org/2000/svg" xmlns:xlink="http://www.w3.org/1999/xlink" width="1024" height="1024">
	<path fill="#394345" d="M442.018 308.144C459.531 314.64 477.939 316.131 486.695 335.041C499.695 363.119 493.098 410.533 494.387 441.212Q495.101 460.266 497.433 479.189Q499.765 498.113 503.699 516.77C504.833 522.195 506.377 535.345 512.179 537.79C513.419 538.313 514.494 538.26 515.75 537.771C516.904 537.322 517.569 536.489 517.891 535.319C519.114 530.873 516.548 522.987 515.509 518.447C512.897 507.044 504.332 467.067 506.717 457.176C508.56 449.531 516.692 440.455 522.832 435.829C531.617 429.21 541.509 427.932 552.103 426.614C592.117 421.639 612.682 412.98 636.687 379.406C640.177 383.579 643.569 388.354 647.462 392.129C651.915 379.43 657.431 365.248 670.459 359.147C676.833 356.163 683.521 356.092 690.239 357.744C694.374 346.808 699.768 336.888 710.968 331.946C717.651 328.997 724.92 328.601 731.793 331.286C739.563 334.323 744.982 340.505 748.183 348.042C750.958 354.579 751.955 361.464 752.642 368.481C757.395 362.304 762.574 356.234 770.82 355.123C777.382 354.238 784.331 357.266 789.367 361.314C795.686 366.393 799.938 373.633 802.918 381.069C809.491 397.469 810.545 415.034 814.654 432.028C817.216 442.623 821.361 452.713 824.329 463.179C826.585 471.133 827.767 479.177 828.595 487.383C830.505 506.315 829.784 525.728 832.68 544.514C842.784 535.437 855.211 526.288 869.534 526.969C874.867 527.222 879.82 529.073 883.356 533.204C884.73 534.81 885.502 536.713 886.311 538.639C887.134 549.892 882.775 559.332 878.399 569.469C887.244 605.298 900.512 622.269 882.335 658.372C877.358 668.257 871.431 677.638 866.605 687.601Q861.531 698.13 857.442 709.079C854.382 717.193 851.715 725.546 847.227 733.017C840.717 743.852 830.774 752.798 821.796 761.578Q801.747 781.022 781.961 800.732C772.888 809.799 763.293 818.85 755.69 829.226C751.793 834.543 748.54 840.297 746.41 846.552C743.216 855.936 743.669 866.706 745.955 876.239C748.061 885.026 751.593 893.586 755.467 901.736C760.374 912.058 766.165 922.323 771.854 932.241C774.915 937.58 778.656 942.981 781.047 948.632C781.857 950.546 782.332 952.223 782.212 954.301L781.538 954.695C780.374 954.031 779.644 953.428 778.867 952.326C773.577 944.834 769.84 936.304 765.515 928.254C759.937 917.873 754.038 907.802 749.203 897.029C746.664 891.373 744.425 885.47 742.81 879.481C738.578 863.791 739.609 848.107 747.792 833.891C754.518 822.206 764.663 812.648 774.13 803.195L814.595 763.033C823.615 754.105 833.576 745.294 841.103 735.058C848.413 725.119 851.864 713.03 856.311 701.661Q861.18 689.384 867.243 677.65C880.605 652.346 893.109 637.697 885.221 607.392C880.699 590.017 875.105 576.492 873.413 558.069C856.752 580.2 843.687 595.721 822.245 613.474C817.085 617.746 811.772 622.36 806.132 625.978C798.293 634.276 789.403 641.64 781.071 649.437C777.396 649.472 773.879 649.297 770.229 648.865C758.196 656.596 746.144 664.418 733.706 671.486Q721.298 678.382 708.61 684.748Q695.922 691.113 682.975 696.937Q670.029 702.76 656.849 708.031Q643.668 713.301 630.276 718.01C621.293 721.145 611.859 725.124 602.646 727.339C602.421 727.498 602.193 727.653 601.971 727.817C594.087 733.642 584.39 755.421 581.082 757.803C580.732 758.056 580.259 758.061 579.847 758.189L578.789 757.576C578.036 754.627 581.135 749.947 582.615 747.44Q587.786 738.799 594.006 730.879C571.369 736.274 541.897 748.282 521.784 760.452C525.078 780.661 525.221 803.693 521.851 823.921C520.529 831.859 517.56 839.585 517.043 847.64C515.667 869.076 534.72 910.039 545.289 929.183C548.377 934.776 551.995 940.096 555.45 945.469C557.238 948.248 561.762 953.99 560.791 957.347L559.891 957.747C552.808 955.007 533.408 914.181 529.693 905.79Q524.661 894.334 520.716 882.459Q516.771 870.584 513.948 858.394C506.249 887.339 489.204 918.38 473.549 943.848C471.174 947.712 467.572 955.113 463.809 957.681C463.289 958.035 463.152 958.032 462.622 958.17C461.891 956.645 462.456 954.787 462.991 953.219C464.962 947.449 471.057 940.434 474.443 935.191Q479.962 926.466 484.813 917.353C510.189 870.384 526.12 816.07 517.81 762.365C474.335 787.977 409.003 815.404 357.842 816.44C317.699 817.252 275.65 804.209 246.392 775.948C200.664 731.779 209.909 675.244 209.015 618.013C204.853 615.729 199.666 615.539 195.29 613.102C195.795 612.761 196.303 612.438 196.816 612.111C200.171 609.972 204.116 608.938 207.788 607.445C206.442 599.069 204.907 590.549 204.396 582.077C204.238 579.957 204.293 577.615 203.899 575.536C201.811 564.526 192.388 550.261 184.311 542.591C176.804 535.463 166.627 529.765 155.98 530.246C151.466 530.45 145.76 531.864 142.659 535.408C141.205 537.07 140.514 539.129 140.746 541.329C141.208 545.7 144.009 548.173 147.129 550.844Q147.591 555.367 147.751 559.91Q147.912 564.453 147.771 568.997Q147.63 573.541 147.189 578.065Q146.747 582.59 146.006 587.075C143.47 602.433 137.488 617.056 140.792 632.813C145.277 654.205 160.606 672.44 170.211 691.68C181.439 714.17 188.5 739.575 204.208 759.557C217.205 776.091 233.922 789.347 249.568 803.226C257.757 810.491 266.276 817.822 272.816 826.663Q273.808 827.979 274.726 829.349Q275.643 830.719 276.482 832.138Q277.322 833.556 278.081 835.02Q278.839 836.483 279.515 837.987Q280.192 839.49 280.783 841.029Q281.374 842.568 281.878 844.137Q282.382 845.707 282.798 847.302Q283.214 848.897 283.54 850.513C289.171 879.819 269.61 906.444 256.934 930.983C253.835 936.982 249.354 948.948 245.858 953.779C245.019 954.939 244.017 956.064 242.537 956.25C239.749 952.032 263.609 911.612 267.142 904.805Q271.355 896.675 274.663 888.137C277.949 879.635 280.266 870.547 280.436 861.392Q280.467 859.51 280.363 857.631Q280.258 855.751 280.018 853.884Q279.778 852.017 279.404 850.172Q279.029 848.328 278.523 846.515Q278.017 844.702 277.381 842.93Q276.745 841.159 275.982 839.438Q275.22 837.717 274.336 836.055Q273.451 834.393 272.449 832.8C265.052 820.911 253.55 811.791 243.178 802.584C231.954 792.619 220.514 782.836 210.163 771.948C203.385 764.818 197.488 757.191 192.541 748.681C182.84 731.994 176.876 713.442 168.256 696.22C160.29 680.304 149.756 665.634 142.584 649.338C139.439 642.192 136.473 634.52 135.772 626.679C134.814 615.949 138.338 604.789 140.576 594.357C142.635 584.759 144.379 574.12 144.167 564.265C143.977 555.463 136.104 549.238 136.576 540.543C136.795 536.503 138.957 533.532 141.986 531.016C147.141 526.737 153.771 525.62 160.278 526.281C175.83 527.859 186.986 539.463 196.349 550.878Q195.04 544.963 194.129 538.974Q193.218 532.985 192.71 526.949Q192.202 520.912 192.099 514.855Q191.995 508.798 192.297 502.748C193.894 494.195 193.712 485.439 195.37 476.851C198.733 459.424 204.267 442.52 209.191 425.498C213.004 412.318 216.102 398.877 220.784 385.966C224.994 374.358 231.043 361.178 243.05 355.837C248.015 353.628 253.839 353.379 258.907 355.431C269.001 359.52 272.886 370.74 276.623 380.021C278.686 367.207 281.504 353.155 288.416 342.017C291.905 336.395 296.543 331.984 303.228 330.609C310.22 329.17 317.449 331.343 323.245 335.294C334.327 342.848 337.208 354.568 339.545 366.974C342.214 364.664 345.278 362.911 348.07 360.762C358.417 346.255 398.497 324.656 415.457 317.881C424.051 314.448 434.294 313.337 442.018 308.144ZM882.677 541.39C878.224 546.104 876.825 550.728 876.997 557.142C877.037 558.601 877.25 560.021 877.522 561.453C879.87 556.68 884.08 547.251 882.822 541.81C882.789 541.666 882.726 541.53 882.677 541.39Z"/>
	<path fill="#DFB39D" d="M216.794 607.563C219.456 610.134 220.149 615.637 220.943 619.093L216.295 616.944C214.033 615.96 210.776 615.441 209.156 613.466C208.635 612.832 208.867 612.632 208.98 611.893C211.081 609.824 214.145 608.83 216.794 607.563Z"/>
	<path fill="#DFB39D" d="M204.396 582.077C204.406 580.195 204.37 578.302 204.552 576.427L204.873 576.116L205.085 576.425L204.914 577.053L205.298 578.622L205.917 578.486C209.804 586.672 213.192 595.45 216.315 603.957C213.628 605.096 210.596 606.77 207.788 607.445C206.442 599.069 204.907 590.549 204.396 582.077Z"/>
	<path fill="#E2B370" d="M522.342 675.333C535.291 671.89 547.927 666.635 561.127 664.267C553.534 672.301 531.345 679.074 520.236 681.887L522.342 675.333Z"/>
	<path fill="#E2B370" d="M335.733 371.068C337.038 386.293 332.406 400.39 330.848 415.354C322.942 413.333 314.906 412.946 306.774 413.022C314.875 398.416 323.792 382.922 335.733 371.068Z"/>
	<path fill="#DFB39D" d="M806.132 625.978C814.482 605.064 814.456 582.244 825.557 562.353C832.873 549.244 843.93 536.089 858.968 531.967C865.115 530.282 873.216 530.013 878.765 533.586C879.847 534.282 880.183 534.756 880.486 535.978C874.745 543.329 873.496 548.922 873.413 558.069C856.752 580.2 843.687 595.721 822.245 613.474C817.085 617.746 811.772 622.36 806.132 625.978Z"/>
	<path fill="#E2B370" d="M304.325 416.898C311.922 416.217 325.58 414.633 331.814 420.015C336.601 424.148 337.082 431.867 337.313 437.757C338.127 458.545 332.969 479.129 333.782 499.888C323.292 493.755 312.749 492.814 300.987 495.835C297.174 496.815 293.179 498.163 289.743 500.106C290.907 489.195 290.701 478.149 292.127 467.26C294.364 450.187 299.607 433.405 304.325 416.898Z"/>
	<path fill="#E2B370" d="M289.96 503.819C300.213 498.864 313.517 495.408 324.729 499.112C328.431 500.336 332.099 502.703 333.861 506.291C334.282 507.147 334.63 508.042 334.973 508.931C324.661 507.01 304.557 504.464 295.648 510.962C295.137 511.335 295.207 511.325 294.897 511.834C295.607 512.725 295.849 512.637 296.944 512.754C301.249 513.213 305.868 511.706 310.087 510.906C319.013 509.213 330.414 509.135 336.865 516.55C346.806 527.977 349.252 559.797 350.902 574.938C336.96 576.265 323.8 578.937 310.463 583.192C302.138 563.307 295.409 543.463 291.78 522.12C290.774 516.204 291.182 510.075 290.051 504.251C290.023 504.107 289.991 503.963 289.96 503.819Z"/>
	<path fill="#E2B370" d="M523.051 671.423C525.592 662.589 530.528 653.685 535.088 645.708C553.765 613.035 563.224 617.668 593.554 602.329C600.646 598.743 606.822 593.672 613.677 589.689C624.058 583.657 632.402 585.705 643.257 588.615C630.135 607.189 617.32 623.752 599.908 638.659C593.972 643.741 582.917 650.074 578.503 655.042C577.877 655.747 577.713 656.181 577.502 657.068C569.928 658.646 562.226 660.049 554.741 661.998C544.112 664.766 533.576 668.274 523.051 671.423Z"/>
	<path fill="#DFB39D" d="M602.646 727.339C603.831 723.839 608.226 719.765 610.792 717.092C634.257 692.655 664.278 672.778 693.492 655.972C722.755 639.138 736.213 634.733 769.581 643.747Q763.114 643.991 756.659 644.452C751.881 644.791 738.297 645.624 735.196 649.797C734.698 650.468 734.954 650.821 735.065 651.581C736.029 652.347 736.482 652.573 737.742 652.409C740.464 652.053 743.339 651.1 746.021 650.463C753.962 648.576 761.464 647.667 769.616 648.776L770.229 648.865C758.196 656.596 746.144 664.418 733.706 671.486Q721.298 678.382 708.61 684.748Q695.922 691.113 682.975 696.937Q670.029 702.76 656.849 708.031Q643.668 713.301 630.276 718.01C621.293 721.145 611.859 725.124 602.646 727.339Z"/>
	<path fill="#E2B370" d="M650.433 395.301C662.035 406.203 675.244 433.216 679.925 448.643C682.864 458.327 684.628 468.81 684.934 478.929C685.688 503.885 676.122 538.026 663.713 559.682C658.63 568.554 651.205 576.523 647.158 585.912C635.427 582.438 627.146 581.101 615.197 584.477C620.071 568.956 621.697 552.784 627.668 537.536C644.164 525.388 651.378 531.747 669.077 531.367L669.516 530.555C668.782 529.529 667.783 529.198 666.618 528.858C652.448 524.724 641.299 525.379 628.238 532.31C637.321 510.939 661.955 528.022 668.349 525.305L668.53 524.203C667.569 522.585 666.401 522.063 664.721 521.407C658.368 518.929 647.904 516.655 641.166 518.219C638.133 518.922 635.126 520.448 632.274 521.677C635.258 507.924 638.403 494.076 640.867 480.226C642.562 470.701 643.73 461.07 645.18 451.503C655.747 446.161 660.388 448.502 670.315 446.005C671.489 445.709 672.484 445.507 673.141 444.446C672.764 444.105 672.702 444.008 672.17 443.768C665.372 440.712 651.964 444.355 645.462 447.276C645.509 430.119 646.713 412.079 650.433 395.301Z"/>
	<path fill="#E2B370" d="M626.208 434.552C632.551 434.235 636.741 435.111 642.299 438.252C640.717 459.069 637.106 479.061 632.914 499.494C631.172 507.987 629.729 516.677 627.46 525.048C624.807 534.839 620.853 544.259 618.248 554.088C615.967 562.695 615.645 571.899 612.849 580.356C611.973 583.008 610.714 585.406 608.787 587.445C597.159 599.752 567.247 610.203 551.3 618.277C557.115 602.764 561.458 587.044 568.398 571.913C571.64 565.905 576.801 561.142 583.291 558.856C588.754 556.932 596.257 556.411 601.54 558.97C603.565 559.95 605.447 561.376 607.539 562.218C608.831 562.738 609.457 562.892 610.746 562.377C610.879 561.675 611.104 561.424 610.676 560.772C608.639 557.667 602.499 555.27 598.958 554.318C589.68 551.824 582.078 554.859 574.2 559.388C576.402 547.503 579.844 524.352 587.539 515.401C595.578 506.052 604.783 517.163 614.131 516.459L614.441 515.854C613.968 515.178 613.478 514.631 612.836 514.107C606.222 508.707 597.084 507.679 588.898 508.584C592.17 492.65 595.353 476.466 601.482 461.339C606.731 448.384 613.17 440.058 626.208 434.552Z"/>
	<path fill="#DFB39D" d="M269.64 518.778C268.489 503.984 270.919 489.335 271.045 474.51C271.112 466.614 269.226 458.673 269.822 450.806C270.582 440.761 274.504 430.919 276.005 420.88C277.512 410.806 277.456 400.58 278.432 390.452C279.827 375.976 284.342 352.898 293.484 341.454C296.807 337.294 301.489 334.241 306.894 333.827C312.496 333.397 318.584 336.129 322.805 339.658C332.512 347.773 334.572 359.073 335.733 371.068C323.792 382.922 314.875 398.416 306.774 413.022C301.218 413.379 292.494 413.071 287.963 416.953L288.16 416.787C290.856 418.862 293.591 418.463 296.86 418.035Q300.6 417.514 304.325 416.898C299.607 433.405 294.364 450.187 292.127 467.26C290.701 478.149 290.907 489.195 289.743 500.106C289.572 501.502 289.699 502.46 289.96 503.819C289.991 503.963 290.023 504.107 290.051 504.251C291.182 510.075 290.774 516.204 291.78 522.12C295.409 543.463 302.138 563.307 310.463 583.192C306.993 583.85 304.433 584.239 301.636 586.566L301.253 587.557C302.249 588.416 302.992 588.573 304.321 588.549C306.529 588.51 309.212 587.452 311.349 586.84C311.545 588.623 311.725 590.394 312.076 592.155C300.999 590.979 290.274 586.921 279.763 583.424C281.808 577.918 283.146 572.325 283.559 566.457C284.414 554.32 282.603 532.971 274.02 523.536C266.376 515.132 244.838 514.442 233.785 513.77C239.418 510.924 244.864 508.759 251.298 508.835C259.984 508.938 263.974 513.052 269.64 518.778Z"/>
	<path fill="#E2B370" d="M390.83 436.537C397.083 436.495 403.398 439.453 408.282 443.199C429.025 459.113 433.587 488.486 436.661 512.684C432.72 512.098 428.927 511.98 424.964 512.35C420.66 512.752 414.971 513.568 412.07 517.047L412.231 517.857C414.674 519.035 417.792 517.572 420.22 516.871C424.961 515.501 430.853 514.338 435.344 516.994C443.955 522.084 449.727 549.874 452.406 560.104Q448.24 557.957 443.737 556.658C435.93 554.473 418.906 556.097 412.124 560.395C411.017 561.097 410.671 561.559 410.371 562.807L410.914 563.537C415.006 564.489 421.211 560.848 425.454 559.94Q428.329 559.315 431.265 559.103Q434.2 558.892 437.135 559.099C443.834 559.614 449.794 562.174 454.181 567.365C454.311 567.519 454.438 567.676 454.567 567.831C464.611 582.081 468.667 602.104 473.484 618.645C451.914 607.605 429.19 599.118 407.691 587.827C406.648 573.4 405.847 558.32 401.981 544.337C399.223 534.359 394.837 524.92 392.495 514.799C389.305 501.014 388.414 486.852 386.17 472.911C384.576 463.004 381.581 453.493 380.312 443.495C383.409 439.889 386.474 438.165 390.83 436.537Z"/>
	<path fill="#E2B370" d="M314.978 596.186C324.21 596.18 333.205 595.488 342.324 594.045C355.117 592.021 375.861 586.434 388.078 586.769C390.7 586.841 393.403 587.606 395.924 588.313C411.314 592.63 425.017 601.12 439.604 607.409C449.782 611.797 468.099 617.504 475.78 625.078C488.623 637.742 499.027 657.702 504.491 674.797C484.347 663.423 460.836 657.32 437.932 654.618C423.424 652.906 408.668 652.037 394.317 649.224C374.306 645.302 354.95 637.651 337.089 627.893C336.957 626.656 336.65 625.9 335.964 624.855C333.154 620.575 329.466 616.72 326.337 612.655C322.288 607.392 318.674 601.704 314.978 596.186Z"/>
	<path fill="#E2B370" d="M339.487 371.768C343.51 367.832 347.635 363.885 353.649 363.79C359.398 363.7 365.431 366.969 369.4 370.954C378.315 379.905 379.736 393.814 379.504 405.799C379.235 419.724 376.62 433.539 376.536 447.467C368.775 444.173 360.136 442.716 352.134 446.281C350.973 446.798 350.597 447.169 350.023 448.282C351.07 449.167 351.824 449.136 353.185 449.047C359.761 448.615 368.465 445.792 374.068 450.536C382.455 457.637 387.008 505.032 388.75 517.74C382.028 515.083 369.207 512.022 362.371 515.445C361.027 516.118 360.663 516.762 360.047 518.084L360.134 519.077C361.874 519.965 364.011 519.512 365.874 519.245C380.981 517.077 386.869 516.072 394.415 531.684C383.685 525.304 372.812 520.224 360.058 523.762C358.997 524.056 358.292 524.399 357.59 525.252C357.8 526.482 357.882 526.448 358.847 527.265C362.136 528.045 365.401 526.579 368.704 526.426C377.951 525.999 390.394 530.106 395.535 538.184C402.431 549.022 403.118 574.053 404.084 587.037C398.996 585.307 394.145 583.897 388.749 583.636C380.624 583.242 372.252 585.123 364.288 586.572C346.953 589.727 329.806 593.449 312.076 592.155C311.725 590.394 311.545 588.623 311.349 586.84C320.17 584.337 329.373 581.086 338.441 579.778C343.745 579.013 349.096 579.737 354.393 578.656C355.078 563.628 350.574 540.11 345.732 525.729C341.74 513.869 337.588 511.885 337.327 497.856Q337.131 488.441 338.143 479.078C340.039 460.966 346.387 431.833 334.368 416.43C338.032 401.829 340.439 386.873 339.487 371.768Z"/>
	<path fill="#DFB39D" d="M770.303 358.549C772.012 358.457 773.796 358.441 775.493 358.663C782.06 359.521 787.767 363.94 791.73 369.042C805.473 386.737 806.241 411.877 811.167 432.96C813.84 444.402 818.694 455.191 821.414 466.598C825.709 484.612 826.171 503.686 827.383 522.1C827.91 530.1 829.293 539.1 828.126 547.025C826.874 555.526 820.985 561.964 817.518 569.548C812.844 579.771 810.739 591.008 809.277 602.083Q803.882 598.151 798.293 594.499C782.622 584.357 764.972 578.168 746.259 582.135C741.436 560.46 746.888 543.739 758.198 525.175C760.696 524.88 763.103 524.294 765.549 523.725C771.518 521.361 778.563 518.285 785.042 517.94C789.058 517.727 793.195 518.297 797.182 517.764C798.608 517.573 799.906 517.238 800.841 516.073L800.518 515.332C793.446 511.102 779.379 515.163 772.172 517.609C768.854 518.735 764.213 521.058 760.764 520.908C759.722 520.862 760.133 520.982 759.367 520.093C759.405 519.496 759.516 519.07 759.805 518.542C762.825 513.022 772.547 509.789 778.526 509.473C783.793 509.195 789.022 510.673 794.227 509.141L794.493 508.588C793.423 507.501 791.856 506.962 790.422 506.516C780.168 503.323 768.916 507.871 759.931 512.605C759.015 505.577 759.137 498.122 758.83 491.016Q758.054 472.874 756.915 454.752Q758.365 453.189 759.988 451.807C767.48 445.372 778.792 441.136 788.75 441.885C792.354 442.156 795.827 443.682 799.466 443.755C800.721 443.781 801.344 443.718 802.249 442.803L802.098 441.753C800.139 439.685 796.03 439.012 793.256 438.662C779.454 436.918 767.162 441.184 756.307 449.543C751.683 428.042 745.239 397.651 753.157 376.565C756.453 367.787 761.756 362.36 770.303 358.549Z"/>
	<path fill="#DFB39D" d="M249.451 357.555C250.969 357.594 252.534 357.618 254.027 357.923C259.71 359.084 264.281 362.844 267.332 367.655C280.454 388.35 272.107 423.715 266.731 446.193C251.923 437.789 243.713 436.796 226.606 438.313C223.955 438.549 220.653 438.65 218.869 440.792L219.101 441.692C221.87 443.641 230.813 441.401 234.502 441.342C245.399 441.167 256.622 442.552 264.727 450.527L265.252 451.052C269.17 468.998 268.431 490.846 265.314 508.998C260.056 506.736 254.986 505.338 249.227 505.336C241.292 505.333 234.956 507.941 229.299 513.512C224.669 513.378 220.3 512.955 215.985 514.953L215.673 515.925C219.374 517.604 225.141 517.099 229.184 517.224C240.391 517.571 257.779 517.777 267.625 522.95C273.821 526.205 275.248 533.224 277.074 539.392C281.374 554.197 280.649 568.382 275.839 582.891C255.137 580.013 236.277 590.525 219.682 601.647C214.044 587.741 207.272 574.025 202.512 559.81C192.224 529.08 194.769 494.23 202.408 463.153C205.529 450.455 209.69 438.063 213.214 425.481C217.815 409.059 221.227 391.865 228.945 376.536C233.705 367.079 239.118 360.973 249.451 357.555Z"/>
	<path fill="#DFB39D" d="M693.592 419.021C692.423 395.453 684.76 362.143 702.207 342.892C707.028 337.574 713.936 333.736 721.177 333.317Q721.724 333.281 722.272 333.273Q722.82 333.264 723.368 333.283Q723.916 333.301 724.462 333.347Q725.008 333.393 725.552 333.466Q726.095 333.538 726.634 333.638Q727.173 333.737 727.707 333.863Q728.24 333.99 728.767 334.142Q729.294 334.294 729.812 334.472Q730.33 334.651 730.839 334.854Q731.348 335.058 731.846 335.287Q732.345 335.515 732.831 335.768Q733.317 336.021 733.791 336.298Q734.264 336.575 734.723 336.875Q735.182 337.174 735.625 337.497Q736.068 337.819 736.495 338.163Q736.922 338.506 737.332 338.871C745.151 345.858 748.168 357.181 748.51 367.322C748.945 380.215 745.112 392.819 745.998 405.753C746.936 419.436 749.714 432.891 751.659 446.445C753.503 459.303 754.158 472.337 754.925 485.294C755.513 495.234 756.429 505.442 755.739 515.386C755.233 522.684 751.951 528.451 748.66 534.782C740.439 550.595 738.061 565.717 743.236 582.988C732.007 589.291 727.586 592.033 714.446 588.353C708.555 586.703 702.62 584.566 696.461 584.273C678.594 583.424 665.886 591.264 647.158 585.912C651.205 576.523 658.63 568.554 663.713 559.682C676.122 538.026 685.688 503.885 684.934 478.929C684.628 468.81 682.864 458.327 679.925 448.643C675.244 433.216 662.035 406.203 650.433 395.301C653.959 383.837 658.643 369.846 669.841 363.724C674.074 361.411 681.17 358.957 685.892 360.333C686.631 360.548 687.909 361.171 688.23 361.888C689.078 363.785 687.363 385.001 687.497 389.435C687.832 400.496 689.88 411.229 689.546 422.388C689.184 434.463 686.495 446.321 686.487 458.438C686.478 473.626 689.175 489.122 687.328 504.252C686.169 513.748 681.642 522.271 678.076 531.019C673.241 542.879 669.876 558.155 673.496 570.767C673.646 571.293 673.786 571.819 673.942 572.344L673.327 572.742C671.773 573.765 670.63 574.556 669.544 576.071L669.508 577.028C672.48 578.164 681.908 574.329 685.812 573.864C699.058 572.287 708.555 579.354 715.832 578.57L716.392 578.053C714.921 575.191 710.071 573.461 707.087 572.516C701.072 570.611 694.212 569.55 687.897 569.934C685.45 570.083 682.615 570.991 680.219 570.561C678.505 570.253 677.377 569.324 676.611 567.773C673.411 561.287 679.925 535.714 682.709 529.077C686.201 520.751 691.984 515.289 700.323 511.966C706.207 509.62 712.812 508.325 719.149 508.496C721.866 508.57 724.975 509.037 727.651 508.667C728.649 508.53 728.863 508.306 729.561 507.644C729.473 506.535 729.449 506.053 728.419 505.353C723.931 502.304 706.266 506.327 701.108 508.127C696.682 509.672 692.576 511.792 688.483 514.059C692.227 506.667 696.879 500.908 705.121 498.227C715.377 494.892 723.237 500.251 729.682 499.009L730.046 498.245C728.395 495.718 724.925 494.669 722.104 494.092C714.178 492.473 704.88 492.831 697.995 497.412C695.673 498.958 693.563 500.801 691.499 502.669C691.37 475.277 689.062 450.18 693.687 422.842C698.544 421.171 703.412 419.681 708.526 419.043C713.806 418.385 728.409 420.353 731.842 417.685C731.647 416.669 731.904 416.971 731.075 416.429C724.403 412.07 706.871 415.376 699.566 417.276Q696.554 418.064 693.592 419.021Z"/>
	<path fill="#DFB39D" d="M643.257 588.615C668.801 595.983 676.714 586.558 698.937 588.061C708.448 588.705 717.112 594.692 726.768 593.879C733.775 593.29 739.187 588.538 745.609 586.311C767.268 578.8 792.592 592.989 808.696 606.659C803.2 625.488 794.615 634.063 778.544 644.999Q777.121 644.12 775.656 643.312Q774.19 642.505 772.687 641.772Q771.183 641.039 769.645 640.381Q768.107 639.724 766.537 639.144Q764.968 638.564 763.372 638.064Q761.776 637.563 760.157 637.142Q758.538 636.721 756.9 636.382Q755.261 636.043 753.608 635.785Q751.955 635.528 750.292 635.353Q748.628 635.179 746.958 635.088Q745.287 634.996 743.614 634.988Q741.941 634.98 740.27 635.056Q738.599 635.131 736.934 635.29Q735.268 635.448 733.613 635.69Q731.958 635.931 730.316 636.255Q728.675 636.579 727.052 636.984C717.544 639.263 709.557 644.197 700.446 647.266C690.276 650.692 679.314 651.338 669.039 654.657Q657.313 658.537 646.168 663.862C636.008 668.684 593.852 691.42 588.244 698.468L588.436 699.087C590.464 699.063 592.1 698.663 593.934 697.768C601.887 693.885 609.486 688.681 617.094 684.142Q634.082 673.86 652.162 665.649Q656.853 663.481 661.664 661.596Q666.474 659.711 671.389 658.115Q676.303 656.518 681.304 655.216Q686.304 653.915 691.373 652.912C666.28 668.473 640.162 683.732 618.58 704.121Q610.726 711.61 603.679 719.863C600.529 723.525 597.532 727.583 594.006 730.879C571.369 736.274 541.897 748.282 521.784 760.452C517.424 734.235 515.19 708.183 520.236 681.887C531.345 679.074 553.534 672.301 561.127 664.267C572.97 660.895 585.259 659.294 597.47 657.915C634.577 653.725 663.877 651.584 695.333 627.892C697.628 626.164 701.495 623.429 701.928 620.463L701.329 619.82C698.56 620.193 696.18 622.199 693.966 623.788C682.524 631.996 670.631 639.409 657.239 644.049C631.922 652.821 603.872 653.355 577.502 657.068C577.713 656.181 577.877 655.747 578.503 655.042C582.917 650.074 593.972 643.741 599.908 638.659C617.32 623.752 630.135 607.189 643.257 588.615Z"/>
	<path fill="#E2B370" d="M442.018 308.144C459.531 314.64 477.939 316.131 486.695 335.041C499.695 363.119 493.098 410.533 494.387 441.212Q495.101 460.266 497.433 479.189Q499.765 498.113 503.699 516.77C504.833 522.195 506.377 535.345 512.179 537.79C513.419 538.313 514.494 538.26 515.75 537.771C516.904 537.322 517.569 536.489 517.891 535.319C519.114 530.873 516.548 522.987 515.509 518.447C512.897 507.044 504.332 467.067 506.717 457.176C508.56 449.531 516.692 440.455 522.832 435.829C531.617 429.21 541.509 427.932 552.103 426.614C592.117 421.639 612.682 412.98 636.687 379.406C640.177 383.579 643.569 388.354 647.462 392.129C643.023 405.492 643.135 419.754 642.655 433.679C640.655 432.893 638.566 432.195 636.474 431.691Q635.832 431.536 635.183 431.413Q634.534 431.29 633.88 431.2Q633.226 431.11 632.568 431.052Q631.911 430.994 631.251 430.97Q630.591 430.945 629.931 430.953Q629.27 430.962 628.611 431.003Q627.952 431.044 627.296 431.118Q626.64 431.192 625.988 431.299Q625.337 431.405 624.691 431.544Q624.046 431.683 623.408 431.855Q622.77 432.026 622.142 432.228Q621.513 432.431 620.896 432.665Q620.278 432.899 619.673 433.163Q619.068 433.427 618.477 433.721Q617.885 434.016 617.31 434.339Q616.734 434.662 616.175 435.014C607.517 440.427 602.053 450.112 598.279 459.307C591.66 475.429 589.258 492.534 584.648 509.221C582.172 518.185 577.868 526.457 575.52 535.529C573.238 544.344 572.499 553.628 569.361 562.209C567.116 568.348 562.7 573.427 560.382 579.545C555.024 593.686 552.324 608.775 545.607 622.417C542.307 629.12 537.093 634.802 533.196 641.165C521.374 660.465 518.874 672.224 513.561 693.508C508.271 674.278 503.929 659.993 493.326 642.717C488.61 635.034 482.751 627.951 478.716 619.87C472.326 607.07 470.171 592.388 464.97 579.119C462.886 573.802 458.954 569.366 456.987 564.005C453.663 554.945 452.489 545.251 449.452 536.103C446.987 528.675 442.358 521.638 440.661 514.006C439.808 510.167 440.015 506.029 439.406 502.127C436.903 486.116 432.419 469.326 423.654 455.581C417.698 446.241 408.441 436.139 397.089 433.876C390.481 432.558 385.666 434.738 380.339 438.316C380.573 422.469 384.775 407.299 382.402 391.307C380.924 381.345 376.555 370.872 368.139 364.822C361.915 360.349 355.424 359.677 348.07 360.762C358.417 346.255 398.497 324.656 415.457 317.881C424.051 314.448 434.294 313.337 442.018 308.144Z"/>
	<path fill="#DFB39D" d="M220.773 605.646C237.438 592.635 258.915 582.211 280.404 587.662C292.055 590.618 302.882 594.906 314.978 596.186C318.674 601.704 322.288 607.392 326.337 612.655C329.466 616.72 333.154 620.575 335.964 624.855C336.65 625.9 336.957 626.656 337.089 627.893C332.953 625.709 325.284 620.446 320.566 621.477C320.524 622.702 320.761 622.768 321.561 623.638C325.844 628.296 340.553 634.165 346.901 637.245C360.661 642.991 374.359 648.734 389.032 651.77C404.817 655.035 421.097 656.14 437.075 658.184C455.411 660.529 473.94 664.711 491.171 671.475C495.902 673.332 504.042 676.286 506.127 681.297C506.371 681.882 506.565 682.483 506.754 683.087C508.674 689.608 510.723 696.107 511.896 702.813C513.414 711.49 513.778 720.495 514.49 729.274Q515.787 745.856 517.81 762.365C474.335 787.977 409.003 815.404 357.842 816.44C317.699 817.252 275.65 804.209 246.392 775.948C200.664 731.779 209.909 675.244 209.015 618.013C230.49 626.363 236.853 636.695 252.242 651.971C264.416 648.483 276.526 647.108 288.404 652.485C290.787 653.563 293.795 655.756 296.36 655.784C297.427 654.988 297.313 654.954 297.554 653.625C297.243 652.686 297.016 652.225 296.26 651.543C294.616 650.06 291.941 649.387 289.865 648.751C279.867 645.687 270.812 645.196 260.46 645.539C271.419 641.019 283.132 637.683 295.07 639.738C306.664 641.734 317.202 648.588 327.249 654.353C362.003 674.294 396.3 697.831 423.002 728.014C427.257 732.823 431.278 737.933 434.522 743.488C436.752 747.306 438.643 751.832 441.318 755.325C442.016 756.237 442.13 756.292 443.207 756.441L443.83 755.486C444.105 751.738 442.379 748.592 440.49 745.471C417.607 707.65 367.665 672.669 329.675 651.089C319.962 645.571 309.841 639.104 298.876 636.55C282.903 632.83 265.826 637.811 252.223 646.24C243.438 636.792 234.798 628.278 224.164 620.865C223.41 615.665 222.248 610.689 220.773 605.646Z"/>
	<path fill="#394345" d="M332.591 646.856C338.279 648.42 343.825 650.856 349.312 653.021C371.249 661.674 391.603 672.43 412.155 683.932C417.166 686.736 424.536 689.85 428.496 693.984C429.771 695.315 429.346 696.127 429.218 697.826C423.544 697.286 399.064 680.801 392.005 676.869C383.236 671.985 374.096 667.01 364.811 663.211C358.188 660.5 337.614 654.419 333.44 650.221C332.289 649.063 332.569 648.353 332.591 646.856Z"/>
	<path fill="#E2B370" d="M346.901 637.245C360.661 642.991 374.359 648.734 389.032 651.77C404.817 655.035 421.097 656.14 437.075 658.184C455.411 660.529 473.94 664.711 491.171 671.475C495.902 673.332 504.042 676.286 506.127 681.297C506.371 681.882 506.565 682.483 506.754 683.087C479.22 690.302 445.824 688.269 419.032 679.002C404.391 673.938 353.149 650.121 346.901 637.245Z"/>
	<path fill="#DFB39D" d="M192.297 502.748C182.951 474.598 160.557 445.706 138.106 426.558C124.015 414.541 108.676 403.401 96.5107 389.352C67.2239 355.532 52.2071 303.898 56.9367 259.57Q57.2761 256.476 57.7525 253.399Q58.229 250.323 58.8416 247.271Q59.4542 244.219 60.2017 241.197Q60.9492 238.175 61.8302 235.19Q62.7112 232.204 63.7239 229.26Q64.7366 226.317 65.879 223.421Q67.0214 220.525 68.2912 217.683Q69.5611 214.841 70.9559 212.058C90.6156 173.021 125.633 147.169 166.569 133.841Q171.743 132.198 176.984 130.784Q182.225 129.37 187.524 128.189Q192.822 127.007 198.167 126.06Q203.513 125.113 208.894 124.403Q214.276 123.692 219.684 123.22Q225.092 122.747 230.515 122.513Q235.939 122.279 241.367 122.284Q246.796 122.29 252.219 122.534C274.919 123.428 297.471 127.351 319.813 131.246C374.735 140.821 431.336 153.188 487.232 144.753Q492.458 143.978 497.645 142.968Q502.831 141.958 507.966 140.716Q513.102 139.473 518.176 138.001Q523.25 136.528 528.253 134.828Q533.255 133.128 538.176 131.204Q543.097 129.281 547.927 127.137Q552.756 124.994 557.484 122.635Q562.211 120.276 566.828 117.706C582.415 109.189 597.438 99.647 613.241 91.5214C678.286 58.0777 748.613 51.5103 815.009 85.4203C879.558 118.387 937.527 190.055 959.696 258.699C978.848 318.003 969.262 367.531 946.968 424.161Q934.446 456.18 918.812 486.8C911.073 501.895 897.577 526.619 886.311 538.639C885.502 536.713 884.73 534.81 883.356 533.204C879.82 529.073 874.867 527.222 869.534 526.969C855.211 526.288 842.784 535.437 832.68 544.514C829.784 525.728 830.505 506.315 828.595 487.383C827.767 479.177 826.585 471.133 824.329 463.179C821.361 452.713 817.216 442.623 814.654 432.028C810.545 415.034 809.491 397.469 802.918 381.069C799.938 373.633 795.686 366.393 789.367 361.314C784.331 357.266 777.382 354.238 770.82 355.123C762.574 356.234 757.395 362.304 752.642 368.481C751.955 361.464 750.958 354.579 748.183 348.042C744.982 340.505 739.563 334.323 731.793 331.286C724.92 328.601 717.651 328.997 710.968 331.946C699.768 336.888 694.374 346.808 690.239 357.744C683.521 356.092 676.833 356.163 670.459 359.147C657.431 365.248 651.915 379.43 647.462 392.129C643.569 388.354 640.177 383.579 636.687 379.406C612.682 412.98 592.117 421.639 552.103 426.614C541.509 427.932 531.617 429.21 522.832 435.829C516.692 440.455 508.56 449.531 506.717 457.176C504.332 467.067 512.897 507.044 515.509 518.447C516.548 522.987 519.114 530.873 517.891 535.319C517.569 536.489 516.904 537.322 515.75 537.771C514.494 538.26 513.419 538.313 512.179 537.79C506.377 535.345 504.833 522.195 503.699 516.77Q499.765 498.113 497.433 479.19Q495.101 460.266 494.387 441.212C493.098 410.533 499.695 363.119 486.695 335.041C477.939 316.131 459.531 314.64 442.018 308.144C434.294 313.337 424.051 314.448 415.457 317.881C398.497 324.656 358.417 346.255 348.07 360.762C345.278 362.911 342.214 364.664 339.545 366.974C337.208 354.568 334.327 342.848 323.245 335.294C317.449 331.343 310.22 329.17 303.228 330.609C296.543 331.984 291.905 336.395 288.416 342.017C281.504 353.155 278.686 367.207 276.623 380.021C272.886 370.74 269.001 359.52 258.907 355.431C253.839 353.379 248.015 353.628 243.05 355.837C231.043 361.178 224.994 374.358 220.784 385.966C216.102 398.877 213.004 412.318 209.191 425.498C204.267 442.52 198.733 459.424 195.37 476.851C193.712 485.439 193.894 494.195 192.297 502.748Z"/>
	<path fill="#394345" d="M510.351 307.87C513.226 298.865 517.408 290.514 520.593 281.656C524.09 271.933 527.083 262.017 531.152 252.507C542.094 226.935 560.262 206.542 585.078 193.804C607.874 182.103 634.197 179.679 658.539 172.651C662.557 171.491 666.589 170.318 670.477 168.77C673.084 167.731 677.547 164.489 680.012 164.491C680.689 165.027 680.891 164.946 681.015 165.87C681.83 171.955 664.968 206.159 660.656 213.422Q655.726 221.828 649.353 229.2C613.214 270.612 557.249 252.38 529.425 282.614C522.313 290.342 518.571 299.227 514.66 308.8C551.031 315.153 582.127 333.239 610.367 356.374C618.937 354.237 646.439 346.361 653.406 349.416C654.084 350.845 653.719 352.149 653.187 353.61C649.914 362.585 642.212 371.675 636.687 379.406C612.682 412.98 592.117 421.639 552.103 426.614C541.509 427.932 531.617 429.21 522.832 435.829C516.692 440.455 508.56 449.531 506.717 457.176C504.332 467.067 512.897 507.044 515.509 518.447C516.548 522.987 519.114 530.873 517.891 535.319C517.569 536.489 516.904 537.322 515.75 537.771C514.494 538.26 513.419 538.313 512.179 537.79C506.377 535.345 504.833 522.195 503.699 516.77Q499.765 498.113 497.433 479.19Q495.101 460.266 494.387 441.212C493.098 410.533 499.695 363.119 486.695 335.041C477.939 316.131 459.531 314.64 442.018 308.144C420.928 299.58 404.62 283.271 394.625 262.891Q391.575 256.702 389.541 250.109C387.358 242.978 382.365 220.989 385.037 214.4C385.417 213.461 385.179 213.783 386.174 213.359C387.304 213.747 388.352 214.187 389.403 214.755C398.259 219.539 406.346 225.738 415.137 230.711C453.028 252.147 472.675 261.129 486.299 305.702C494.343 306.275 502.363 306.692 510.351 307.87Z"/>
	<path fill="#E2B370" d="M471.477 307.311C473.931 310.598 476.181 313.927 478.326 317.423C471.171 313.717 464.08 311.001 456.449 308.443C461.004 306.413 466.617 307.224 471.477 307.311Z"/>
	<path fill="#DFB39D" d="M627.377 370.622C633.992 365.28 640.54 360.015 647.767 355.503C643.536 362.364 639.226 369.138 634.403 375.603C631.957 374.09 629.683 372.336 627.377 370.622Z"/>
	<path fill="#DFB39D" d="M644.063 352.911C637.567 357.973 630.628 362.457 624.069 367.446C621.212 365.162 618.211 362.37 616.201 359.309C625.391 356.566 634.816 355.302 644.063 352.911Z"/>
	<path fill="#E2B370" d="M498.238 414.934C499.645 416.94 500.251 440.639 500.6 444.843Q502.764 471.031 507.185 496.933C508.837 506.3 514.8 526.861 514.439 534.689C513.615 534.302 513.059 534 512.459 533.288C508.993 529.168 508.065 519.118 507.061 513.919C500.743 481.198 496.707 448.34 498.238 414.934Z"/>
	<path fill="#E2B370" d="M486.299 305.702C494.343 306.275 502.363 306.692 510.351 307.87C503.365 328.045 500.665 349.171 498.541 370.313C495.793 348.281 491.297 327.305 486.299 305.702Z"/>
	<path fill="#E2B370" d="M616.201 359.309C618.211 362.37 621.212 365.162 624.069 367.446C615.48 374.347 606.824 380.365 596.701 384.869C582.57 391.156 566.675 393.843 552.993 400.896C545.98 404.511 539.896 409.337 533.843 414.333Q535.735 411.262 537.686 408.228C558.158 376.552 580.506 367.034 616.201 359.309Z"/>
	<path fill="#DFB39D" d="M456.449 308.443C445.662 305.71 435.696 301.838 426.686 295.181C410.467 283.199 397.673 264.888 392.123 245.492C390.273 239.028 389.405 232.388 388.422 225.752C394.835 236.561 400.18 246.398 409.041 255.623C428.067 275.429 456.321 285.993 471.477 307.311C466.617 307.224 461.004 306.413 456.449 308.443Z"/>
	<path fill="#E2B370" d="M524.04 430.404C539.954 411.226 553.285 403.719 576.555 396.315C584.803 393.69 593.199 391.088 601.096 387.51C610.524 383.239 619.053 376.704 627.377 370.622C629.683 372.336 631.957 374.09 634.403 375.603C609.838 407.501 596.868 417.198 556.308 422.448C544.711 423.949 534.667 425.188 524.04 430.404Z"/>
	<path fill="#DFB39D" d="M391.998 222.172C399.963 224.561 407.263 231.001 414.476 235.166C425.804 241.706 437.65 247.241 448.204 255.075C469.972 271.232 482.67 296.621 486.517 323.128C484.068 321.271 479.149 311.284 477.026 308.025C474.154 303.615 470.991 299.139 467.275 295.39C460.292 288.345 451.753 282.938 443.518 277.5C421.475 262.945 402.034 247.428 391.998 222.172Z"/>
	<path fill="#DFB39D" d="M667.31 174.495C668.137 174.405 667.654 174.399 668.749 174.664C668.383 177.116 661.827 181.082 659.743 182.618C645.644 193.012 631.285 202.633 615.783 210.83C599.631 219.371 582.816 226.479 567.505 236.551C553.66 245.658 540.672 256.502 530.635 269.767L529.711 270.518L529.483 269.947C531.988 261.056 535.743 252.445 540 244.254C569.543 187.425 614.948 191.091 667.31 174.495Z"/>
	<path fill="#DFB39D" d="M671.404 178.989L671.82 179.551C671.722 180.411 671.623 181.163 671.388 181.999C668.941 190.684 663.664 199.211 659.444 207.164C639.772 244.232 612.776 250.453 574.854 258.455C561.037 261.371 548.39 264.409 536.014 271.527L535.617 271.141C536.147 268.055 541.678 263.165 543.898 260.99C558.771 246.421 575.979 235.23 594.457 225.8C607.375 219.208 620.64 213.248 633.146 205.869C646.578 197.944 659.119 188.566 671.404 178.989Z"/>
	<path fill="#E2B370" d="M514.66 308.8C551.031 315.153 582.127 333.239 610.367 356.374C610.148 356.406 609.927 356.429 609.708 356.468C586.829 360.603 561.103 373.124 545.83 390.808C539.024 398.688 533.709 407.826 527.827 416.395C520.065 427.702 512.094 438.792 504.595 450.289C499.338 402.319 500.742 355.243 514.66 308.8Z"/>
</svg>
