<?xml version="1.0" encoding="utf-8" ?>
<svg xmlns="http://www.w3.org/2000/svg" xmlns:xlink="http://www.w3.org/1999/xlink" width="1024" height="1024">
	<path fill="#020101" fill-opacity="0.90980393" d="M603.068 388.661L604.164 391.915C604.186 395.732 603.927 399.81 604.443 403.583C604.78 414.232 604.832 425.079 604.475 435.726C603.911 438.959 604.067 442.38 603.38 445.538C602.178 439.814 602.959 432.486 602.973 426.595L603.068 388.661Z"/>
	<path fill="#020101" d="M186.682 795.218C188.204 795.823 188.254 795.669 188.899 797.148Q210.167 797.387 231.436 797.33L232.386 799.202C222.832 798.875 213.191 798.945 203.632 799.043C198.259 799.098 192.794 799.461 187.44 799.04C186.685 797.793 186.778 796.642 186.682 795.218Z"/>
	<path fill="#020101" fill-opacity="0.98431373" d="M450.631 908.243C450.686 908.389 450.746 908.533 450.797 908.681C451.832 911.669 451.656 915.024 451.735 918.153C451.719 914.814 451.804 911.769 452.498 908.493C452.522 916.357 453.667 956.624 451.613 960.583C449.78 956.642 450.687 916.378 450.631 908.243Z"/>
	<path fill="#020101" fill-opacity="0.92941177" d="M603.508 264.951C605.211 271.406 604 295.322 603.985 303.491L604.164 391.915L603.068 388.661C602.685 381.06 602.979 373.308 602.97 365.69L603.037 317.571L602.991 285.887C602.979 278.965 602.721 271.836 603.508 264.951Z"/>
	<path fill="#020101" d="M519.366 890.081Q537.071 889.835 554.778 889.938C561.752 889.95 569.721 889.2 576.507 890.697L577.124 891.424C572.981 892.617 511.132 892.661 504.246 891.722L504.258 890.845C508.695 889.121 514.981 891.8 519.366 890.081Z"/>
	<path fill="#020101" d="M921.083 703.619L923.448 704.269C931.972 714.799 939.835 725.97 947.926 736.84C953.06 743.737 959.676 750.953 963.387 758.714C964.855 761.784 965.619 764.841 965.316 768.259C965.044 771.324 963.888 774.003 961.459 775.961C959.081 777.877 955.976 778.948 952.983 779.374C947.51 780.154 941.746 779.362 936.227 779.409C927.726 779.481 918.903 780.626 910.47 779.431C899.32 777.852 892.673 766.006 886.236 757.752L888.053 756.856C893.769 764.042 899.627 776.176 909.45 777.716C915.496 778.664 921.881 777.7 927.981 777.685C935.824 777.666 944 779.015 951.789 777.853C954.859 777.396 957.967 776.484 960.438 774.533C962.606 772.821 963.881 770.516 964.118 767.759C964.346 765.101 963.713 762.409 962.586 760.012C959.376 753.182 953.963 746.797 949.488 740.72Q935.71 721.844 921.083 703.619Z"/>
	<path fill="#191615" d="M433.138 797.435C439.975 796.805 447.266 797.276 454.155 797.273L489.61 797.099L489.821 798.893Q471.147 798.566 452.476 799.058C451.904 835.518 452.632 872.025 452.498 908.493C451.804 911.769 451.719 914.814 451.735 918.153C451.656 915.024 451.832 911.669 450.797 908.681C450.746 908.533 450.686 908.389 450.631 908.243C450.619 903.415 451.469 896.327 449.996 891.866C449.928 891.605 449.931 891.316 449.793 891.085C448.597 889.077 413.63 892.517 409.628 890.15C423.069 889.38 436.942 890.08 450.429 890.08L450.359 799.474Q440.566 799.412 430.775 799.164L433.138 797.435Z"/>
	<path fill="#191615" d="M833.471 567.096C838.176 570.948 844.707 576.434 847.291 582.066C854.895 593.06 856.533 606.693 854.225 619.646C849.889 643.984 838.161 671.552 826.102 693.089C844.408 694.362 863.259 693.462 881.634 693.398C891.008 693.365 902.663 691.975 911.647 694.752C915.948 696.082 919.344 699.317 922.21 702.66C922.656 703.179 923.05 703.713 923.448 704.269L921.083 703.619C919.617 702.125 918.12 700.639 916.558 699.245C914.416 697.333 911.988 695.908 909.146 695.359C897.955 693.196 885.264 694.826 873.848 694.886C856.859 694.974 839.946 694.239 822.962 695.235L824.172 693.176C825.683 688.168 830.035 683.182 832.255 678.272C840.104 660.913 847.559 642.57 851.952 623.994C855.255 610.03 854.453 596.02 846.748 583.628C842.912 579.145 839.346 577.641 833.724 576.509L834.59 574.682L839.956 575.788C837.53 573.271 835.133 570.851 832.427 568.633L833.471 567.096Z"/>
	<path fill="#020101" d="M240.665 806.538Q251.093 848.369 262.081 890.056L337.203 889.932C336.611 887.358 336.109 884.701 335.387 882.164L336.746 880.344C337.57 883.537 338.441 886.723 339.082 889.96L384.535 890.018C391.061 890.009 398.866 890.778 405.243 889.646C406.645 890.238 408.132 890.128 409.628 890.15C413.63 892.517 448.597 889.077 449.793 891.085C449.931 891.316 449.928 891.605 449.996 891.866C434.308 892.376 418.459 891.672 402.754 891.73L260.854 891.667C252.607 863.771 247.702 834.877 239.059 807.061L240.665 806.538Z"/>
	<path fill="#1B1B1B" d="M871.509 736.36C877.674 742.2 883.206 749.889 888.053 756.856L886.236 757.752C884.665 755.879 883.124 753.959 881.509 752.124L881.488 842.612C910.039 850.542 930.715 867.701 945.238 893.519C956.679 913.858 963.988 940.61 962.125 964.123C962.058 963.925 961.988 963.727 961.922 963.528C960.038 957.832 960.376 951.447 959.913 945.508C959.606 941.582 958.973 937.654 958.241 933.787C951.954 900.581 931.696 867.245 900.988 851.592C891.505 846.758 879.805 842.88 869.103 842.426L870.082 840.865C870.966 840.91 871.301 840.89 872.177 840.615C873.362 837.791 872.554 750.474 872.557 740.477C871.505 739.073 870.374 737.73 869.261 736.375L871.509 736.36Z"/>
	<path fill="#FEFEFE" d="M656.704 202C655.032 199.357 654.517 196.656 655.109 193.536C655.479 191.589 656.478 189.647 658.17 188.533C661.101 186.603 744.951 186.153 752.463 187.97C753.824 188.3 754.602 189.093 755.218 190.319C756.471 192.814 757.063 196.737 756.109 199.416C755.522 201.064 754.257 202.263 752.678 202.972C749.763 204.281 746.546 204.109 743.427 204.104C742.339 204.737 742.542 204.62 742.077 205.64L741.81 204.259C738.138 202.325 688.704 205.291 678.868 203.629L678.334 202.533C673.551 202.023 668.643 202.5 663.858 202.04C660.639 201.731 658.755 201.394 656.619 198.825L656.704 202Z"/>
	<path fill="#020101" d="M656.704 202C655.032 199.357 654.517 196.656 655.109 193.536C655.479 191.589 656.478 189.647 658.17 188.533C661.101 186.603 744.951 186.153 752.463 187.97C753.824 188.3 754.602 189.093 755.218 190.319C756.471 192.814 757.063 196.737 756.109 199.416C755.522 201.064 754.257 202.263 752.678 202.972C749.763 204.281 746.546 204.109 743.427 204.104C742.339 204.737 742.542 204.62 742.077 205.64L741.81 204.259C738.138 202.325 688.704 205.291 678.868 203.629L678.334 202.533C695.61 202.216 712.937 202.623 730.224 202.463C736.044 202.409 742.097 202.785 747.877 202.313C749.499 202.18 751.599 201.975 752.957 200.977C754.328 199.969 754.925 198.047 754.933 196.412C754.944 194.156 754.171 191.937 752.474 190.404C751.428 189.46 750.401 189.112 749.032 188.955C736.754 187.543 722.782 188.863 710.307 188.939C695.301 189.03 680.155 188.25 665.171 188.846C662.633 188.947 659.563 189.456 657.893 191.586C656.257 193.673 656.331 196.337 656.619 198.825L656.704 202Z"/>
	<path fill="#1B1B1B" d="M489.61 797.099C491.917 797.207 494.23 797.279 496.533 797.46Q502.36 806.914 507.95 816.511C512.153 823.794 516.084 832.235 521.982 838.29C523.812 840.169 525.796 841.48 528.351 842.126C529.617 842.447 531.194 842.424 532.375 842.851C532.179 842.891 531.985 842.94 531.787 842.972C530.915 843.112 530.207 843.024 529.341 842.915L528.418 843.962C522.633 842.898 519.175 839.613 515.964 834.886C511.731 828.654 508.856 821.539 504.503 815.406L504.497 889.986C509.404 889.99 514.483 889.71 519.366 890.081C514.981 891.8 508.695 889.121 504.258 890.845L504.246 891.722C505.377 898.834 504.545 907.332 504.547 914.599Q504.655 937.749 504.397 960.898L494.552 960.632C494.408 952.884 493.993 945.162 493.985 937.408L494.305 839.065L494.199 811.14C494.186 808.176 494.572 805.146 494.43 802.202C494.385 801.272 494.115 800.591 493.745 799.751C492.427 798.674 491.491 798.946 489.821 798.893L489.61 797.099Z"/>
	<path fill="#020101" d="M136.42 416.314Q133.224 402.603 129.499 389.025C127.565 381.859 124.716 374.023 124.311 366.601C124.119 363.067 124.849 360.152 127.391 357.56C133.897 350.929 182.387 332.156 194.282 326.663C201.11 323.511 206.067 317.474 213.731 316.121C221.827 314.693 230.814 315.572 239.023 315.63L278.284 315.687C280.033 315.769 281.731 315.752 283.396 316.354C280.381 318.062 273.348 317.292 269.875 317.244L237.784 317.174C229.918 317.153 221.177 316.434 213.475 318.149C208.682 319.217 203.827 321.486 200.348 324.999C196.815 328.565 194.455 333.756 194.583 338.818C194.92 352.095 202.679 376.12 206.131 390.159Q217.245 434.758 227.806 479.491C231.063 493.151 234.87 506.882 237.59 520.65L236.007 520.054L206.661 398.909Q202.834 383.111 198.841 367.354C196.665 358.961 193.857 350.443 193.001 341.792C192.505 336.773 194.312 332.491 195.668 327.792C182.774 332.9 170.174 338.901 157.458 344.445C149.737 347.811 141.313 350.651 133.983 354.756C131.252 356.286 127.542 358.322 126.336 361.315C125.488 363.418 125.248 365.424 125.614 367.653C127.581 379.635 131.473 391.491 134.692 403.185Q139.582 421.587 144.134 440.075L180.735 583.088Q190.642 619.518 199.239 656.278C201.403 665.343 204.075 674.427 205.806 683.574C208.142 662.427 211.186 641.112 214.76 620.141L216.638 621.161C213.693 636.134 211.847 651.311 209.829 666.429C207.291 685.434 202.692 707.032 205.68 726.115C207.234 736.044 211.579 745.399 216.843 753.877L369.631 754.185C374.101 756.495 420.005 752.694 426.387 755.319C418.827 757.072 410.213 754.972 402.471 756.081C395.243 756.809 387.372 756.191 380.073 756.172L335.691 756.084L188.205 755.965C187.801 758.423 188.044 760.559 186.579 762.666L186.548 754.153C195.707 753.662 205.014 753.974 214.191 753.957C205.739 737.27 201.838 721.703 203.718 702.889C204.295 697.114 205.827 690.471 204.548 684.745C202.363 674.965 199.612 665.245 197.235 655.504L170.543 550.133L149.143 466.368C145.048 450.335 141.235 434.162 136.675 418.256C117.001 425.095 94.87 431.477 81.9233 448.98C73.5716 460.271 69.2157 475.666 69.9843 489.657C70.6564 501.891 74.7087 514.08 77.527 525.963Q85.6699 560.853 94.4798 595.581L154.32 836.584L173.246 911.47C177.018 926.016 182.872 945.062 185.028 959.536C185.157 960.402 184.879 960.433 184.384 961.106L184.616 961.212C184.177 960.601 183.828 960.002 183.564 959.294C181.406 953.505 180.33 946.852 178.833 940.83L169.404 903.293L136.011 769.632L88.4873 578.113L76.8291 529.994C73.9858 518.486 70.5738 506.812 69.0672 495.043Q68.7784 492.678 68.6561 490.299Q68.5338 487.92 68.5786 485.538Q68.6234 483.156 68.8351 480.783Q69.0467 478.41 69.4242 476.058Q69.8017 473.706 70.3431 471.386Q70.8845 469.066 71.5872 466.79Q72.29 464.514 73.1506 462.292Q74.0111 460.071 75.0253 457.915C86.6656 432.567 112.287 425.211 136.42 416.314Z"/>
	<path fill="#020101" d="M654.501 247.855L655.285 247.36C657.759 251.345 653.994 272.38 656.343 275.862C656.502 292.235 656.262 308.563 656.221 324.93C656.205 331.13 656.936 337.472 656.691 343.641C663.768 343.222 670.767 343.564 677.85 342.785C686.118 343.822 694.447 343.576 702.763 343.569L734.987 343.535C741.838 344.246 748.72 343.758 755.573 344.215C756.992 321.837 755.717 299.157 756.067 276.725C757.461 284.268 756.502 300.639 756.668 309.223C757.889 306.11 757.068 289.787 757.426 284.991C757.877 295.535 757.457 306.182 757.605 316.743C757.732 325.779 759.076 335.397 757.466 344.32C756.812 347.94 755.477 351.334 752.928 354.043C746.321 361.065 736.001 360.865 727.126 361.157C726.281 364.57 725.646 368.375 723.087 370.974C719.644 374.471 712.503 373.436 707.976 373.371C705.869 396.837 702.67 420.192 701.438 443.739Q735.87 444.061 770.302 443.872C780.328 443.856 790.608 443.274 800.601 443.875C801.379 417.107 800.823 390.171 800.805 363.391Q801.128 314.512 800.709 265.634C786.36 265.26 771.497 266.634 757.238 265.385C757.247 264.798 757.554 264.631 757.913 264.186C772.469 263.574 787.823 263.372 802.351 264.43C801.831 276.512 802.466 288.773 802.438 300.881Q802.032 345.441 802.154 390C802.211 408.383 803.002 427.029 802.293 445.387L701.359 445.552C698.64 470.649 696.919 502.923 713.851 523.721C718.693 529.67 725.633 534.863 733.487 535.523C742.662 536.295 750.835 530.01 757.313 524.277C769.952 513.09 779.2 504.529 797.158 505.698C808.395 506.43 820.046 510.729 827.585 519.388C832.708 525.272 834.705 533.001 834.064 540.685C833.448 548.083 830.8 556.261 827.344 562.79C829.382 564.211 831.51 565.574 833.471 567.096L832.427 568.633C820.534 560.456 806.927 558.205 792.708 560.815C783.451 562.515 777.51 567.54 772.355 575.111C765.44 585.269 760.561 597.266 757.134 609.019C755.442 614.822 754.219 621.377 751.471 626.775C751.892 622.621 752.517 618.574 753.667 614.552C733.679 614.683 713.518 616.552 693.575 617.903C670.055 619.497 646.525 620.752 623.027 622.699C615.379 616.149 608.423 608.752 601.304 601.636C594.48 594.814 587.439 588.152 580.759 581.194L580.741 579.159C594.275 593.576 608.966 607.369 623.31 620.98C649.489 618.935 675.797 617.593 702.008 615.926C719.259 614.829 736.881 612.935 754.162 613.011Q754.784 610.874 755.457 608.753C760.554 592.699 768.278 569.95 784.287 561.818C797.202 555.258 812.918 557.814 826.05 562.202C829.027 554.999 832.048 547.614 832.625 539.757C833.192 532.017 830.89 524.942 825.674 519.178C820.425 513.378 813.175 510.151 805.655 508.469C766.246 499.655 759.675 538.273 733.868 536.807C725.895 536.355 719.16 531.777 713.94 526.024C694.92 505.062 698.248 471.713 699.541 445.544C667.556 444.728 635.388 445.477 603.38 445.538C604.067 442.38 603.911 438.959 604.475 435.726L604.722 443.742C636.351 443.777 668.075 444.2 699.693 443.552C701.632 420.144 704.193 396.844 706.517 373.476C701.265 373.091 693.233 374.488 688.7 371.619C685.127 369.357 684.395 365.577 683.406 361.772C675.448 361.057 667.245 359.928 661.216 354.135C658.597 351.62 656.874 349.081 655.943 345.551C653.553 336.48 654.591 325.871 654.591 316.55C654.59 299.687 655.044 282.737 654.547 265.885C646.157 265.416 637.685 265.573 629.282 265.519C621.117 265.467 612.792 265.151 604.658 265.942C603.888 311.805 605.024 357.714 604.443 403.583C603.927 399.81 604.186 395.732 604.164 391.915L603.985 303.491C604 295.322 605.211 271.406 603.508 264.951C606.467 262.906 647.577 264.227 654.707 264.053L654.501 247.855ZM677.85 342.785C670.767 343.564 663.768 343.222 656.691 343.641C657.182 347.536 659.355 351.58 662.472 354.003C670.366 360.141 675.501 357.447 682.793 360.388C686.912 362.05 685.386 366.922 688.079 369.555C691.247 372.652 714.473 371.955 719.574 371.119C721.146 370.861 722.178 370.485 723.169 369.169C725.219 366.448 723.816 361.649 727.816 360.289C735.991 357.511 747.27 361.691 753.616 350.78C754.823 348.705 755.414 346.601 755.573 344.215C748.72 343.758 741.838 344.246 734.987 343.535L702.763 343.569C694.447 343.576 686.118 343.822 677.85 342.785Z"/>
	<path fill="#020101" d="M826 735.164L827.333 733.85C827.022 769.346 827.493 804.895 827.505 840.398C841.587 840.436 856.054 839.825 870.082 840.865L869.103 842.426C853.916 841.875 838.692 842.212 823.497 842.18L823.984 840.436L825.137 839.985C826.375 836.445 825.507 827.195 825.523 823.089L825.673 767.078C825.65 760.851 824.603 740.105 826 735.164Z"/>
	<path fill="#FEFEFE" d="M656.619 198.825C658.755 201.394 660.639 201.731 663.858 202.04C668.643 202.5 673.551 202.023 678.334 202.533L678.868 203.629C688.704 205.291 738.138 202.325 741.81 204.259L742.077 205.64C742.542 204.62 742.339 204.737 743.427 204.104C743.78 210.022 743.287 215.992 743.97 221.885C749.602 224.771 754.01 228.147 756.137 234.401C759.064 243.011 755.872 259.708 757.913 264.186C757.554 264.631 757.247 264.798 757.238 265.385C757.954 271.754 757.553 278.579 757.426 284.991C757.068 289.787 757.889 306.11 756.668 309.223C756.502 300.639 757.461 284.268 756.067 276.725C755.717 299.157 756.992 321.837 755.573 344.215C748.72 343.758 741.838 344.246 734.987 343.535C735.576 343.084 736.151 342.62 736.701 342.122C739.777 339.335 740.233 335.017 740.428 331.065C740.971 320.071 739.9 308.848 739.917 297.819L739.992 268.323C740.004 262.701 740.36 256.791 739.67 251.214C739.299 248.215 738.445 244.526 736.2 242.329C735.02 241.174 733.94 240.917 732.329 240.702C724.99 239.722 717.249 240.584 709.849 240.691C703.183 240.786 696.512 240.479 689.844 240.5C684.835 240.516 678.811 240.336 675.043 244.122C673.867 246.954 673.532 250.256 673.373 253.308C672.636 267.451 673.601 282.03 673.652 296.238C673.697 308.632 672.672 321.475 673.887 333.794C674.27 337.679 674.708 340.213 677.85 342.785C670.767 343.564 663.768 343.222 656.691 343.641C656.936 337.472 656.205 331.13 656.221 324.93C656.262 308.563 656.502 292.235 656.343 275.862C653.994 272.38 657.759 251.345 655.285 247.36L654.501 247.855C654.54 242.731 654.497 237.454 656.555 232.653C658.964 227.033 663.726 223.697 669.217 221.48C669.059 216.8 669.129 212.101 669.12 207.418C669.107 207.178 669.109 206.936 669.083 206.696C668.607 202.242 661.505 206.244 656.704 202L656.619 198.825ZM742.077 205.64Q741.89 214.57 742.367 223.489C747.77 225.94 751.92 228.478 754.218 234.304C758.229 244.472 754.988 265.042 756.067 276.725C757.461 284.268 756.502 300.639 756.668 309.223C757.889 306.11 757.068 289.787 757.426 284.991C757.553 278.579 757.954 271.754 757.238 265.385C757.247 264.798 757.554 264.631 757.913 264.186C755.872 259.708 759.064 243.011 756.137 234.401C754.01 228.147 749.602 224.771 743.97 221.885C743.287 215.992 743.78 210.022 743.427 204.104C742.339 204.737 742.542 204.62 742.077 205.64Z"/>
	<path fill="#191615" d="M669.12 207.418L670.193 207.882C671.019 212.843 669.892 217.972 670.578 222.919C664.937 225.969 659.678 228.426 657.763 235.079C655.008 244.656 656.57 265.105 656.343 275.862C653.994 272.38 657.759 251.345 655.285 247.36L654.501 247.855C654.54 242.731 654.497 237.454 656.555 232.653C658.964 227.033 663.726 223.697 669.217 221.48C669.059 216.8 669.129 212.101 669.12 207.418Z"/>
	<path fill="#1B1B1B" d="M656.619 198.825C658.755 201.394 660.639 201.731 663.858 202.04C668.643 202.5 673.551 202.023 678.334 202.533L678.868 203.629C688.704 205.291 738.138 202.325 741.81 204.259C734.407 205.071 726.448 204.512 718.977 204.508C702.98 204.501 686.966 204.33 670.972 204.508C670.996 210.388 671.671 217.149 670.578 222.919C669.892 217.972 671.019 212.843 670.193 207.882L669.12 207.418C669.107 207.178 669.109 206.936 669.083 206.696C668.607 202.242 661.505 206.244 656.704 202L656.619 198.825Z"/>
	<path fill="#020101" fill-opacity="0.95686275" d="M742.077 205.64C742.542 204.62 742.339 204.737 743.427 204.104C743.78 210.022 743.287 215.992 743.97 221.885C749.602 224.771 754.01 228.147 756.137 234.401C759.064 243.011 755.872 259.708 757.913 264.186C757.554 264.631 757.247 264.798 757.238 265.385C757.954 271.754 757.553 278.579 757.426 284.991C757.068 289.787 757.889 306.11 756.668 309.223C756.502 300.639 757.461 284.268 756.067 276.725C754.988 265.042 758.229 244.472 754.218 234.304C751.92 228.478 747.77 225.94 742.367 223.489Q741.89 214.57 742.077 205.64Z"/>
	<path fill="#4F65EF" d="M677.85 342.785C674.708 340.213 674.27 337.679 673.887 333.794C672.672 321.475 673.697 308.632 673.652 296.238C673.601 282.03 672.636 267.451 673.373 253.308C673.532 250.256 673.867 246.954 675.043 244.122C678.811 240.336 684.835 240.516 689.844 240.5C696.512 240.479 703.183 240.786 709.849 240.691C717.249 240.584 724.99 239.722 732.329 240.702C733.94 240.917 735.02 241.174 736.2 242.329C738.445 244.526 739.299 248.215 739.67 251.214C740.36 256.791 740.004 262.701 739.992 268.323L739.917 297.819C739.9 308.848 740.971 320.071 740.428 331.065C740.233 335.017 739.777 339.335 736.701 342.122C736.151 342.62 735.576 343.084 734.987 343.535L702.763 343.569C694.447 343.576 686.118 343.822 677.85 342.785Z"/>
	<path fill="#191615" d="M309.605 797.497C313.041 797.465 316.524 797.322 319.952 797.547C320.864 798.656 320.901 798.713 322.388 798.87C324.634 799.108 326.898 798.788 329.139 799.106Q322.332 799.376 315.52 799.47L313.094 799.341C306.175 799.308 299.022 799.689 292.138 799.123C297.133 798.161 305.304 800.287 309.762 798.566L309.605 797.497Z"/>
	<path fill="#191615" d="M231.436 797.33C237.102 797.306 242.787 797.184 248.449 797.46L248.991 798.549C256.742 800.354 271.763 798.068 280.751 799.119C266.889 799.609 252.991 799.213 239.12 799.5C239.606 801.845 240.026 804.23 240.665 806.538L239.059 807.061C238.539 804.487 237.636 801.935 236.885 799.417L232.386 799.202L231.436 797.33Z"/>
	<path fill="#020101" d="M248.449 797.46Q279.027 797.318 309.605 797.497L309.762 798.566C305.304 800.287 297.133 798.161 292.138 799.123C288.329 799.24 284.56 799.247 280.751 799.119C271.763 798.068 256.742 800.354 248.991 798.549L248.449 797.46Z"/>
	<path fill="#1B1B1B" d="M313.094 799.341L315.52 799.47Q322.293 826.978 329.861 854.278C332.169 862.895 334.93 871.62 336.746 880.344L335.387 882.164C333.553 873.451 330.796 864.69 328.525 856.069Q321.134 827.617 313.094 799.341Z"/>
	<path fill="#020101" d="M820.8 706.955C831.29 706.931 858.75 705.699 867.297 707.888C867.539 707.95 867.782 708.006 868.023 708.069C868.168 708.107 868.311 708.151 868.455 708.192C852.518 709.673 836.236 709.026 820.231 709.008L820.8 706.955Z"/>
	<defs>
		<linearGradient id="gradient_0" gradientUnits="userSpaceOnUse" x1="829.50092" y1="728.44806" x2="828.99908" y2="734.05194">
			<stop offset="0" stop-color="#010300" stop-opacity="0.98431373"/>
			<stop offset="1" stop-color="#282227"/>
		</linearGradient>
	</defs>
	<path fill="url(#gradient_0)" d="M800.129 731.17L801.101 729.522L803.257 730.456L840.545 730.458C847.867 730.457 856.865 729.412 863.957 731.224C866.574 731.892 868.715 733.456 870.599 735.354C870.917 735.675 871.212 736.02 871.509 736.36L869.261 736.375C868.751 735.92 868.254 735.479 867.692 735.088C865.626 733.65 863.425 733.058 860.967 732.67C855.198 731.759 833.373 731.851 827.655 732.823L827.333 733.85L826 735.164C825.837 734.391 825.649 733.816 825.274 733.119C820.212 731.124 808.967 732.854 802.961 732.387L802.386 732.337L802.215 731.647L800.815 731.899L800.129 731.17Z"/>
	<path fill="#4F65EF" d="M430.775 799.164Q440.566 799.412 450.359 799.474L450.429 890.08C436.942 890.08 423.069 889.38 409.628 890.15C408.132 890.128 406.645 890.238 405.243 889.646C398.866 890.778 391.061 890.009 384.535 890.018L339.082 889.96C338.441 886.723 337.57 883.537 336.746 880.344C334.93 871.62 332.169 862.895 329.861 854.278Q322.293 826.978 315.52 799.47Q322.332 799.376 329.139 799.106Q334.744 799.372 340.353 799.213L340.849 799.471C361.202 799.471 381.891 800.201 402.2 799.102C411.724 799.268 421.256 798.934 430.775 799.164ZM329.139 799.106Q322.332 799.376 315.52 799.47Q322.293 826.978 329.861 854.278C332.169 862.895 334.93 871.62 336.746 880.344C337.57 883.537 338.441 886.723 339.082 889.96L384.535 890.018C391.061 890.009 398.866 890.778 405.243 889.646C398.924 887.329 392.51 885.913 386.354 883.001C363.644 872.256 357.221 850.688 350.389 828.325Q345.996 813.773 340.849 799.471L340.353 799.213Q334.744 799.372 329.139 799.106Z"/>
	<path fill="#FEFEFE" d="M186.579 762.666C188.044 760.559 187.801 758.423 188.205 755.965L335.691 756.084L380.073 756.172C387.372 756.191 395.243 756.809 402.471 756.081C418.617 757.04 435.139 756.375 451.333 756.419C470.267 756.47 489.377 757.106 508.292 756.441C515.261 756.698 522.302 756.101 529.291 756.153C534.161 756.555 539.778 756.454 543.222 760.498C549.627 768.021 556.029 781.186 561.248 790.095C568.038 801.686 576.1 813.335 581.509 825.61C582.427 827.694 583.048 829.711 582.897 832.019C582.704 834.954 581.101 837.917 578.83 839.767C574.099 843.622 566.689 843.155 560.886 843.358L532.375 842.851C531.194 842.424 529.617 842.447 528.351 842.126C525.796 841.48 523.812 840.169 521.982 838.29C516.084 832.235 512.153 823.794 507.95 816.511Q502.36 806.914 496.533 797.46C494.23 797.279 491.917 797.207 489.61 797.099L454.155 797.273C447.266 797.276 439.975 796.805 433.138 797.435L430.775 799.164C421.256 798.934 411.724 799.268 402.2 799.102C381.891 800.201 361.202 799.471 340.849 799.471L340.353 799.213Q334.744 799.372 329.139 799.106C326.898 798.788 324.634 799.108 322.388 798.87C320.901 798.713 320.864 798.656 319.952 797.547C316.524 797.322 313.041 797.465 309.605 797.497Q279.027 797.318 248.449 797.46C242.787 797.184 237.102 797.306 231.436 797.33Q210.167 797.387 188.899 797.148C188.254 795.669 188.204 795.823 186.682 795.218C187.116 784.467 186.539 773.447 186.579 762.666Z"/>
	<path fill="#020101" d="M319.952 797.547Q331.296 797.343 342.64 797.505C341.827 798.247 341.35 798.735 340.353 799.213Q334.744 799.372 329.139 799.106C326.898 798.788 324.634 799.108 322.388 798.87C320.901 798.713 320.864 798.656 319.952 797.547Z"/>
	<path fill="#020101" d="M397.031 797.488C408.999 797.237 421.184 796.984 433.138 797.435L430.775 799.164C421.256 798.934 411.724 799.268 402.2 799.102C400.369 798.751 398.598 798.56 397.031 797.488Z"/>
	<path fill="#191615" d="M342.64 797.505Q358.334 797.276 374.029 797.359C381.669 797.355 389.403 797.11 397.031 797.488C398.598 798.56 400.369 798.751 402.2 799.102C381.891 800.201 361.202 799.471 340.849 799.471L340.353 799.213C341.35 798.735 341.827 798.247 342.64 797.505Z"/>
	<path fill="#191615" d="M186.579 762.666C188.044 760.559 187.801 758.423 188.205 755.965C188.736 760.124 188.473 764.336 188.615 768.517L417.816 768.485L480.79 768.472C489.852 768.471 499.398 767.75 508.392 768.35C509.949 768.454 511.223 768.661 512.668 769.248L512.868 769.924C510.957 770.999 508.112 770.816 505.957 770.872C476.34 771.643 446.513 770.879 416.87 770.889L188.583 770.989Q188.452 784.072 188.899 797.148C188.254 795.669 188.204 795.823 186.682 795.218C187.116 784.467 186.539 773.447 186.579 762.666Z"/>
	<path fill="#FEFEFE" d="M218.131 613.761C250.699 611.735 279.89 617.384 305.102 639.393C305.652 639.874 306.179 640.365 306.708 640.868Q303.394 665.194 299.649 689.457C291.248 689.461 282.094 688.836 273.827 690.254C284.133 692.006 294.999 691.626 305.441 691.684C313.179 691.726 321.057 692.007 328.782 691.583C334.442 691.855 340.326 691.936 345.979 691.545C352.866 691.853 359.917 691.893 366.803 691.551L367.238 691.59C374.307 692.167 381.664 691.758 388.761 691.776C419.943 691.852 446.18 693.792 467.844 719.175C474.522 726.999 479.25 736.194 485.704 744.046C487.415 747.277 489.415 750.487 490.802 753.866L491.675 752.857L492.9 753.025C496.294 755.913 503.805 754.46 508.059 754.544C517.319 754.152 527.44 752.98 536.557 754.832L536.868 755.587C538.424 756.026 540.009 756.283 541.269 757.33L537.559 756.107C534.81 755.171 532.073 755.558 529.291 756.153C522.302 756.101 515.261 756.698 508.292 756.441C489.377 757.106 470.267 756.47 451.333 756.419C435.139 756.375 418.617 757.04 402.471 756.081C410.213 754.972 418.827 757.072 426.387 755.319C420.005 752.694 374.101 756.495 369.631 754.185L216.843 753.877C211.579 745.399 207.234 736.044 205.68 726.115C202.692 707.032 207.291 685.434 209.829 666.429C211.847 651.311 213.693 636.134 216.638 621.161C217.132 618.7 217.574 616.208 218.131 613.761Z"/>
	<path fill="#1B1B1B" d="M435.573 729.153C432.068 725.058 421.233 716.738 420.1 712.132L420.762 712.018C427.482 715.638 432.796 722.294 437.681 728.041L435.573 729.153Z"/>
	<path fill="#1B1B1B" d="M440.503 709.416C449.543 714.319 456.38 723.933 462.271 732.097L461.089 733.594C454.216 725.856 445.76 718.342 440.503 709.416Z"/>
	<path fill="#1B1B1B" d="M402.435 718.001C414.369 724.179 425.181 739.513 433.808 749.954L431.181 750.567C426.93 745.165 422.416 740.129 417.644 735.19C412.432 729.797 406.225 724.518 402.435 718.001Z"/>
	<path fill="#191615" d="M435.573 729.153L437.681 728.041C445.059 736.443 451.727 745.123 458.086 754.318L474.6 754.464C471.062 746.943 466.109 740.185 461.089 733.594L462.271 732.097Q470.304 742.945 477.587 754.311C481.278 754.394 487.478 755.308 490.802 753.866L491.675 752.857L492.9 753.025C496.294 755.913 503.805 754.46 508.059 754.544C517.319 754.152 527.44 752.98 536.557 754.832L536.868 755.587C538.424 756.026 540.009 756.283 541.269 757.33L537.559 756.107C534.81 755.171 532.073 755.558 529.291 756.153C522.302 756.101 515.261 756.698 508.292 756.441C489.377 757.106 470.267 756.47 451.333 756.419C435.139 756.375 418.617 757.04 402.471 756.081C410.213 754.972 418.827 757.072 426.387 755.319C420.005 752.694 374.101 756.495 369.631 754.185C384.713 753.54 400.087 754.224 415.202 754.182C420.989 754.165 427.273 754.587 432.995 753.831C433.102 752.775 431.797 751.456 431.181 750.567L433.808 749.954L437.17 754.167L455.042 754.122Q450.68 747.502 445.805 741.25Q440.93 734.997 435.573 729.153Z"/>
	<path fill="#4F65EF" d="M566.568 730.324C573.808 732.258 581.237 734.114 588.36 736.43L590.184 737.326C597.835 738.697 605.51 741.563 613.011 743.664C646.584 753.069 674.023 763.659 705.952 777.414C717.479 782.38 730.066 786.916 740.399 794.148C748.65 799.922 754.56 807.755 760.262 815.943C763.463 820.539 774.05 838.428 777.594 840.505L777.993 842.108C781.473 846.098 784.205 851.102 787.025 855.584Q794.135 866.988 801.393 878.298L831.283 924.568C838.697 936.005 846.759 947.624 852.885 959.786C828.207 960.121 803.485 959.706 778.799 959.817C766.611 959.873 753.953 959.471 741.823 960.623L739.505 960.051Q679.802 959.589 620.105 960.488L596.517 922.766C592.539 916.489 578.407 897.238 577.124 891.424L576.507 890.697C569.721 889.2 561.752 889.95 554.778 889.938Q537.071 889.835 519.366 890.081C514.483 889.71 509.404 889.99 504.497 889.986L504.503 815.406C508.856 821.539 511.731 828.654 515.964 834.886C519.175 839.613 522.633 842.898 528.418 843.962L529.341 842.915C530.207 843.024 530.915 843.112 531.787 842.972C531.985 842.94 532.179 842.891 532.375 842.851L560.886 843.358C566.689 843.155 574.099 843.622 578.83 839.767C581.101 837.917 582.704 834.954 582.897 832.019C583.048 829.711 582.427 827.694 581.509 825.61C576.1 813.335 568.038 801.686 561.248 790.095C556.029 781.186 549.627 768.021 543.222 760.498C539.778 756.454 534.161 756.555 529.291 756.153C532.073 755.558 534.81 755.171 537.559 756.107L541.269 757.33C540.009 756.283 538.424 756.026 536.868 755.587L536.557 754.832C527.44 752.98 517.319 754.152 508.059 754.544C503.805 754.46 496.294 755.913 492.9 753.025L492.999 752.682C499.31 750.325 506.11 749.041 512.591 747.175C519.158 745.284 525.631 743.064 532.182 741.116C543.075 737.878 553.784 734.911 564.31 730.546L566.568 730.324Z"/>
	<path fill="#191615" d="M528.418 843.962L529.341 842.915C530.207 843.024 530.915 843.112 531.787 842.972C531.985 842.94 532.179 842.891 532.375 842.851L560.886 843.358C563.992 844.318 567.924 842.997 570.492 844.862C560.205 846.166 538.507 846.526 528.418 843.962Z"/>
	<path fill="#1B1B1B" d="M536.557 754.832C539.77 754.898 542.537 756.346 544.74 758.619C547.166 761.122 548.916 764.228 550.607 767.249C561.668 769.193 573.308 770.534 583.746 774.817C572.828 774.591 562.656 772.47 552.067 770.074L571.724 803.669C575.904 810.785 581.058 817.986 583.796 825.811C584.817 828.731 585.265 831.58 584.495 834.618C583.545 838.366 580.89 841.578 577.502 843.405C575.397 844.54 572.864 844.914 570.492 844.862C567.924 842.997 563.992 844.318 560.886 843.358C566.689 843.155 574.099 843.622 578.83 839.767C581.101 837.917 582.704 834.954 582.897 832.019C583.048 829.711 582.427 827.694 581.509 825.61C576.1 813.335 568.038 801.686 561.248 790.095C556.029 781.186 549.627 768.021 543.222 760.498C539.778 756.454 534.161 756.555 529.291 756.153C532.073 755.558 534.81 755.171 537.559 756.107L541.269 757.33C540.009 756.283 538.424 756.026 536.868 755.587L536.557 754.832Z"/>
	<path fill="#1B1B1B" d="M639.053 806.722C641.525 808.528 643.142 810.421 644.917 812.882C652.154 822.921 658.662 833.559 665.524 843.861Q688.999 878.91 711.991 914.276L730.436 942.077C734.3 947.883 739.251 954.151 741.823 960.623L739.505 960.051C730.786 945.17 720.58 931.298 711.013 916.965L663.046 844.378C657.055 835.313 642.296 815.555 639.053 806.722Z"/>
	<path fill="#1B1B1B" d="M288.325 315.56C292.639 300.005 301.081 288.8 315.228 280.752C321.126 277.396 327.784 274.698 334.516 273.671C338.27 273.098 342.2 272.861 345.887 271.958C351.636 270.55 357.163 267.967 362.771 266.063C376.992 261.237 392.708 261.432 407.069 265.532C422.418 269.913 438.515 279.03 446.389 293.464C451.519 302.869 451.678 313.629 449.495 323.919C463.544 332.16 471.01 340.231 475.195 356.131C477.629 365.378 479.517 374.786 481.846 384.065L502.093 463.697C504.782 474.314 510.839 505.81 515.896 513.006C521.598 521.12 533.392 531.316 540.861 538.695Q561.115 558.617 580.741 579.159L580.759 581.194C587.439 588.152 594.48 594.814 601.304 601.636C608.423 608.752 615.379 616.149 623.027 622.699C646.525 620.752 670.055 619.497 693.575 617.903C713.518 616.552 733.679 614.683 753.667 614.552C752.517 618.574 751.892 622.621 751.471 626.775C754.219 621.377 755.442 614.822 757.134 609.019C760.561 597.266 765.44 585.269 772.355 575.111C777.51 567.54 783.451 562.515 792.708 560.815C806.927 558.205 820.534 560.456 832.427 568.633C835.133 570.851 837.53 573.271 839.956 575.788L834.59 574.682L833.724 576.509C839.346 577.641 842.912 579.145 846.748 583.628C854.453 596.02 855.255 610.03 851.952 623.994C847.559 642.57 840.104 660.913 832.255 678.272C830.035 683.182 825.683 688.168 824.172 693.176L822.962 695.235C820.719 695.344 818.468 695.498 816.223 695.549C816.212 698.691 814.766 704.53 816.748 706.801C818.127 707.071 819.408 707.01 820.8 706.955L820.231 709.008L814.684 708.958C811.19 716.323 807.255 723.359 803.257 730.456L801.101 729.522L800.129 731.17L800.815 731.899L802.215 731.647L802.386 732.337L802.961 732.387C808.967 732.854 820.212 731.124 825.274 733.119C825.649 733.816 825.837 734.391 826 735.164C824.603 740.105 825.65 760.851 825.673 767.078L825.523 823.089C825.507 827.195 826.375 836.445 825.137 839.985L823.984 840.436L823.497 842.18C808.37 842.026 793.083 843.196 777.993 842.108L777.594 840.505C774.05 838.428 763.463 820.539 760.262 815.943C754.56 807.755 748.65 799.922 740.399 794.148C730.066 786.916 717.479 782.38 705.952 777.414C674.023 763.659 646.584 753.069 613.011 743.664C605.51 741.563 597.835 738.697 590.184 737.326L588.36 736.43C581.237 734.114 573.808 732.258 566.568 730.324L564.31 730.546C553.784 734.911 543.075 737.878 532.182 741.116C525.631 743.064 519.158 745.284 512.591 747.175C506.11 749.041 499.31 750.325 492.999 752.682L492.9 753.025L491.675 752.857L490.802 753.866C489.415 750.487 487.415 747.277 485.704 744.046C479.25 736.194 474.522 726.999 467.844 719.175C446.18 693.792 419.943 691.852 388.761 691.776C381.664 691.758 374.307 692.167 367.238 691.59L366.803 691.551C359.917 691.893 352.866 691.853 345.979 691.545C340.326 691.936 334.442 691.855 328.782 691.583C321.057 692.007 313.179 691.726 305.441 691.684C294.999 691.626 284.133 692.006 273.827 690.254C282.094 688.836 291.248 689.461 299.649 689.457Q303.394 665.194 306.708 640.868C306.179 640.365 305.652 639.874 305.102 639.393C279.89 617.384 250.699 611.735 218.131 613.761C217.574 616.208 217.132 618.7 216.638 621.161L214.76 620.141C219.056 589.686 227.17 562.604 240.039 534.818C238.349 530.007 237.237 524.998 236.007 520.054L237.59 520.65C234.87 506.882 231.063 493.151 227.806 479.491Q217.244 434.758 206.131 390.159C202.679 376.12 194.92 352.095 194.583 338.818C194.455 333.756 196.815 328.565 200.348 324.999C203.827 321.486 208.682 319.217 213.475 318.149C221.177 316.434 229.918 317.153 237.784 317.174L269.875 317.244C273.348 317.292 280.381 318.062 283.396 316.354C281.731 315.752 280.033 315.769 278.284 315.687L288.325 315.56ZM751.471 626.775C751.892 622.621 752.517 618.574 753.667 614.552C733.679 614.683 713.518 616.552 693.575 617.903C670.055 619.497 646.525 620.752 623.027 622.699C615.379 616.149 608.423 608.752 601.304 601.636C594.48 594.814 587.439 588.152 580.759 581.194L578.006 578.728C556.097 587.835 537.654 602.92 526.68 624.269C531.217 636.51 537.9 659.366 544.012 669.623C548.213 676.675 559.981 687.229 567.503 690.791C571.906 692.877 577.264 693.151 582.071 693.343C598.872 694.011 615.931 693.414 632.756 693.383L727.436 693.34L778.979 693.49C784.755 693.51 799.454 694.387 804.201 693.072C804.71 692.931 804.852 692.778 805.224 692.493C805.448 691.148 805.572 690.837 804.729 689.648C802.584 686.62 795.98 684.857 792.526 683.581L792.387 682.657C791.951 682.237 791.542 681.819 791.143 681.363L790.771 680.931C794.546 681.422 798.472 683.784 802.392 684.611C807.375 677.214 811.082 668.134 814.337 659.848L815.737 661.23C812.262 669.71 808.025 677.779 804.324 686.144C808.316 690.107 811.734 693.5 817.747 693.49Q820.966 693.461 824.172 693.176C825.683 688.168 830.035 683.182 832.255 678.272C840.104 660.913 847.559 642.57 851.952 623.994C855.255 610.03 854.453 596.02 846.748 583.628C842.912 579.145 839.346 577.641 833.724 576.509L834.59 574.682L839.956 575.788C837.53 573.271 835.133 570.851 832.427 568.633C820.534 560.456 806.927 558.205 792.708 560.815C783.451 562.515 777.51 567.54 772.355 575.111C765.44 585.269 760.561 597.266 757.134 609.019C755.442 614.822 754.219 621.377 751.471 626.775ZM237.59 520.65C239.125 524.297 239.893 528.658 240.929 532.497Q244.86 525.233 249.184 518.195C254.252 510.114 260.34 502.477 267.469 496.112C283.613 481.699 310.939 468.621 331.833 463.781C331.906 462.165 332.071 460.712 332.425 459.132L334.375 457.846C334.711 447.267 334.529 436.774 334.07 426.201L332.094 426.478L331.665 415.459C330.433 414.208 329.267 412.887 328.081 411.593L328.446 408.986C325.332 404.339 323.966 399.81 323.158 394.343Q321.464 394.552 319.766 394.728C313.058 395.412 306.973 394.013 301.731 389.582C295.73 384.51 292.978 377.506 292.248 369.874C291.704 369.073 291.8 367.886 291.839 366.939L291.881 366.071L290.725 364.798C291.834 359.593 294.037 355.655 297.171 351.431C292.03 340.14 289.039 329.905 288.465 317.477C282.282 317.224 276.064 317.288 269.875 317.244L237.784 317.174C229.918 317.153 221.177 316.434 213.475 318.149C208.682 319.217 203.827 321.486 200.348 324.999C196.815 328.565 194.455 333.756 194.583 338.818C194.92 352.095 202.679 376.12 206.131 390.159Q217.245 434.758 227.806 479.491C231.063 493.151 234.87 506.882 237.59 520.65ZM734.77 730.226C725.491 731.693 708.058 730.631 698.108 730.615L622.308 730.638C614.962 730.642 600.206 729.687 593.886 730.871L593.346 732.018C591.817 732.142 590.996 731.962 589.804 732.968C589.844 734.439 590.001 735.866 590.184 737.326C597.835 738.697 605.51 741.563 613.011 743.664C646.584 753.069 674.023 763.659 705.952 777.414C717.479 782.38 730.066 786.916 740.399 794.148C748.65 799.922 754.56 807.755 760.262 815.943C763.463 820.539 774.05 838.428 777.594 840.505L777.993 842.108C793.083 843.196 808.37 842.026 823.497 842.18L823.984 840.436L825.137 839.985C826.375 836.445 825.507 827.195 825.523 823.089L825.673 767.078C825.65 760.851 824.603 740.105 826 735.164C825.837 734.391 825.649 733.816 825.274 733.119C820.212 731.124 808.967 732.854 802.961 732.387L802.386 732.337C799.764 733.089 798.305 737.221 796.24 739.055C794.939 740.212 793.432 740.59 791.72 740.423C787.199 739.981 786.558 735.795 783.802 733.077C782.558 731.851 781.119 732.215 779.502 732.195L779.139 730.509L734.77 730.226ZM448.416 325.689C445.089 332.053 441.241 337.041 436.085 342.037C441.72 365.578 440.659 390.534 427.594 411.601C420.378 423.237 410.102 430.845 397.912 436.74C398.844 445.841 401.539 452.91 408.866 458.795C421.771 469.161 439.193 469.97 454.472 474.449C463.292 477.035 472.33 481.105 480.374 485.576C491.495 492.31 502.486 499.712 511.754 508.9C507.555 494.945 504.724 480.457 501.174 466.308L482.062 391.11C478.788 377.849 475.038 355.783 469.433 344.229C466.019 337.19 458.982 331.285 452.216 327.625Q450.343 326.605 448.416 325.689ZM587.22 706.482L587.276 708.457C586.062 708.479 583.684 708.232 582.724 708.851C584.819 715.906 587.264 723.015 588.967 730.166C637.547 730.192 686.199 729.612 734.77 730.226L779.139 730.509C780.169 730.564 781.291 730.681 782.316 730.583C785.737 730.255 789.255 723.958 791.169 721.376L792.605 722.469C795.683 717.637 798.34 712.582 801.047 707.537L800.56 705.578C799.593 706.686 799.496 706.687 797.966 706.819C790.133 707.493 781.81 707.009 773.929 706.996L726.088 706.745L587.22 706.482ZM579.253 695.172C579.872 699.047 580.668 702.761 581.905 706.493L587.22 706.482L726.088 706.745L773.929 706.996C781.81 707.009 790.133 707.493 797.966 706.819C799.496 706.687 799.593 706.686 800.56 705.578L804.478 695.041C765.639 693.912 726.676 694.797 687.821 694.915C651.627 695.024 615.438 694.317 579.253 695.172ZM546.991 678.199C546.688 679.258 546.288 680.358 546.085 681.437L550.394 693.134C555.084 705.574 559.977 717.979 564.31 730.546L566.568 730.324C573.808 732.258 581.237 734.114 588.36 736.43C585.243 722.541 580.074 709.242 576.889 695.406C567.343 692.839 561.3 689.101 553.873 682.572C551.557 680.536 549.543 678.22 546.963 676.507L546.575 676.866L546.991 678.199ZM301.864 689.533L316.983 689.503C316.722 688.036 316.339 686.488 316.194 685.012C314.113 673.481 312.232 661.86 309.467 650.47L308.766 648.035L308.176 647.979C306.764 653.059 306.267 658.535 305.517 663.752L301.864 689.533Z"/>
	<path fill="#191615" d="M328.782 691.583C326.137 690.661 323.246 690.708 320.473 690.579C327.214 690.767 334.068 690.162 340.844 690.205C343.82 691.031 347.523 689.97 350.117 690.87C348.721 691.002 347.272 690.986 345.979 691.545C340.326 691.936 334.442 691.855 328.782 691.583Z"/>
	<path fill="#020101" d="M340.844 690.205C349.442 690.196 358.123 689.939 366.708 690.393C364.974 690.528 363.207 690.596 361.485 690.826L362.593 690.859L362.61 691.894L362.514 690.829C363.957 691.025 365.395 691.169 366.803 691.551C359.917 691.893 352.866 691.853 345.979 691.545C347.272 690.986 348.721 691.002 350.117 690.87C347.523 689.97 343.82 691.031 340.844 690.205Z"/>
	<path fill="#4F65EF" d="M807.925 693.774C809.931 694.421 812.859 694.977 813.88 697.005C815.489 700.2 813.928 704.919 812.729 708.059C809.863 715.562 805.708 722.952 801.101 729.522L800.129 731.17L800.815 731.899L802.215 731.647L802.386 732.337C799.764 733.089 798.305 737.221 796.24 739.055C794.939 740.212 793.432 740.59 791.72 740.423C787.199 739.981 786.558 735.795 783.802 733.077C782.558 731.851 781.119 732.215 779.502 732.195L779.139 730.509C780.169 730.564 781.291 730.681 782.316 730.583C785.737 730.255 789.255 723.958 791.169 721.376L792.605 722.469C795.683 717.637 798.34 712.582 801.047 707.537L807.925 693.774Z"/>
	<path fill="#1B1B1B" d="M791.169 721.376L792.605 722.469C790.449 725.922 788.144 729.226 785.758 732.524C787.839 735.527 789.704 737.552 792.825 739.554C795.506 736.928 797.808 734.115 800.129 731.17L800.815 731.899L802.215 731.647L802.386 732.337C799.764 733.089 798.305 737.221 796.24 739.055C794.939 740.212 793.432 740.59 791.72 740.423C787.199 739.981 786.558 735.795 783.802 733.077C782.558 731.851 781.119 732.215 779.502 732.195L779.139 730.509C780.169 730.564 781.291 730.681 782.316 730.583C785.737 730.255 789.255 723.958 791.169 721.376Z"/>
	<path fill="#191615" d="M546.991 678.199C549.464 682.888 551.074 688.229 552.79 693.243C557.383 705.55 562.451 717.86 566.568 730.324L564.31 730.546C559.977 717.979 555.084 705.574 550.394 693.134L546.085 681.437C546.288 680.358 546.688 679.258 546.991 678.199Z"/>
	<path fill="#FEFEFE" d="M334.07 426.201C334.038 424.497 333.683 423.276 334.671 421.854C338.425 421.835 343.671 428.502 347.094 430.568C354.236 434.877 361.513 438.435 369.595 440.611C378.577 443.029 386.986 442.96 396.172 442.369C399.454 453.069 403.879 459.632 413.871 464.932C418.416 467.344 423.324 469.128 428.137 470.929C422.694 479.885 415.882 485.619 405.551 488.22C384.977 493.4 363.432 483.207 346.229 472.774Q339.936 468.942 333.894 464.724C334.05 462.434 334.157 460.13 334.375 457.846C334.711 447.267 334.529 436.774 334.07 426.201Z"/>
	<path fill="#020101" d="M587.22 706.482L726.088 706.745L773.929 706.996C781.81 707.009 790.133 707.493 797.966 706.819C799.496 706.687 799.593 706.686 800.56 705.578L801.047 707.537C798.34 712.582 795.683 717.637 792.605 722.469L791.169 721.376C794.068 717.379 796.496 713.181 798.947 708.905C788.781 708.374 778.507 708.723 768.327 708.691L711.161 708.542C669.888 708.5 628.536 707.709 587.276 708.457L587.22 706.482Z"/>
	<path fill="#FEFEFE" d="M320.891 345.584C339.911 337.889 359.235 331.872 368.073 311.39Q369.461 308.107 370.373 304.662Q371.284 301.216 371.7 297.676C388.163 315.723 406.377 324.415 430.605 327.065C438.417 352.791 441.717 381.529 428.662 406.226C422.098 418.643 411.369 429.565 397.64 433.64C380.366 438.768 361.113 431.147 346.098 422.856C339.4 419.157 333.312 414.941 328.446 408.986C325.332 404.339 323.966 399.81 323.158 394.343Q321.464 394.552 319.766 394.728C313.058 395.412 306.973 394.013 301.731 389.582C295.73 384.51 292.978 377.506 292.248 369.874C292.738 363.543 294.316 357.776 299.248 353.367C302.482 350.476 306.547 349.06 310.876 349.462C314.398 349.79 317.547 351.317 320.58 353.05L320.891 345.584Z"/>
	<path fill="#1B1B1B" d="M418.016 337.085C420.381 337.346 422.714 337.75 424.935 338.639C427.559 339.689 429.033 341.065 430.055 343.665C426.761 342.814 422.335 341.274 419.492 339.387C418.305 338.599 418.308 338.409 418.016 337.085Z"/>
	<path fill="#1B1B1B" d="M370.542 333.591C375.252 333.237 377.644 334.698 381.13 337.633C378.174 336.978 375.159 336.501 372.178 335.959C369.592 335.99 365.047 338.362 362.817 337.216C364.831 334.936 367.726 334.331 370.542 333.591Z"/>
	<path fill="#1B1B1B" d="M394.521 359.322C395.227 359.968 395.609 360.373 395.915 361.305C396.7 363.699 395.986 366.947 396.411 369.504C396.803 371.871 398.187 373.808 398.36 376.228C397.054 376.934 395.836 376.761 394.382 376.777C393.008 376.58 391.809 376.537 390.713 375.593L390.916 374.678C392.022 374.573 393.093 374.429 394.185 374.227C395.26 372.373 394.486 362.413 394.521 359.322Z"/>
	<path fill="#1B1B1B" d="M413.601 354.314C415.547 354.447 417.36 354.945 418.812 356.314C420.004 357.438 420.445 358.854 420.411 360.476C420.35 363.336 418.553 365.14 416.639 367.019C414.886 367.025 413.167 366.566 411.849 365.358C410.696 364.3 410.15 362.789 410.17 361.24C410.211 358.166 411.482 356.403 413.601 354.314Z"/>
	<path fill="#1B1B1B" d="M369.68 351.366C371.236 351.358 372.756 351.534 374.084 352.395C375.438 353.272 376.333 354.569 376.578 356.18C377.077 359.457 375.596 361.729 373.65 364.183C371.821 364.18 370.165 364.136 368.631 362.98Q368.4 362.809 368.188 362.615Q367.977 362.42 367.787 362.205Q367.597 361.989 367.431 361.754Q367.265 361.519 367.125 361.268Q366.986 361.017 366.873 360.753Q366.761 360.488 366.677 360.213Q366.594 359.938 366.54 359.656Q366.486 359.373 366.462 359.087C366.188 355.892 367.702 353.684 369.68 351.366Z"/>
	<path fill="#1B1B1B" d="M367.627 382.46C385.248 385.8 399.512 386.368 417.081 387.812Q415.47 392.172 413.299 396.282Q411.128 400.392 408.434 404.18C408.216 404.422 408.002 404.667 407.779 404.905C403.841 409.102 397.772 411.637 392.059 411.646C385.713 411.657 379.816 408.617 375.517 404.053C370.021 398.219 367.366 390.398 367.627 382.46Z"/>
	<path fill="#FEFEFE" d="M369.893 385.254C384.161 388.356 398.631 388.841 413.141 389.905C411.447 394.696 409.604 398.651 406.657 402.799C403.48 406.003 399.248 408.511 394.776 409.321C389.862 410.21 384.995 408.897 380.955 406.023C373.801 400.934 371.366 393.431 369.893 385.254Z"/>
	<path fill="#1B1B1B" d="M777.594 840.505C787.547 839.825 797.691 840.149 807.673 840.138C812.902 840.133 818.873 839.548 823.984 840.436L823.497 842.18C808.37 842.026 793.083 843.196 777.993 842.108L777.594 840.505Z"/>
	<path fill="#020101" d="M734.77 730.226L779.139 730.509L779.502 732.195C753.995 731.607 728.423 732.087 702.911 732.165L593.346 732.018L593.886 730.871C600.206 729.687 614.962 730.642 622.308 730.638L698.108 730.615C708.058 730.631 725.491 731.693 734.77 730.226Z"/>
	<path fill="#020101" d="M332.094 426.478L334.07 426.201C334.529 436.774 334.711 447.267 334.375 457.846L332.425 459.132C332.913 448.237 333.058 437.356 332.094 426.478Z"/>
	<path fill="#191615" d="M290.725 364.798L291.881 366.071L291.839 366.939C291.8 367.886 291.704 369.073 292.248 369.874C292.978 377.506 295.73 384.51 301.731 389.582C306.973 394.013 313.058 395.412 319.766 394.728Q321.464 394.552 323.158 394.343C323.966 399.81 325.332 404.339 328.446 408.986L328.081 411.593C324.739 406.75 322.887 402.269 320.982 396.7C319.099 396.949 317.206 396.939 315.312 396.832C308.315 396.438 301.985 393.132 297.422 387.862C291.593 381.132 290.038 373.512 290.725 364.798Z"/>
	<path fill="#020101" d="M782.497 679.504Q782.096 679.102 781.712 678.683C776.286 672.73 777.128 662.436 777.521 654.951C777.939 646.981 778.805 638.994 779.453 631.037C780.775 614.797 781.03 595.623 794.219 583.975C805.513 574.001 820.366 573.745 834.59 574.682L833.724 576.509C819.966 575.503 805.254 576.404 794.379 585.922C780.716 597.88 780.021 636.053 779.038 653.173C778.568 661.354 777.837 671.778 783.652 678.339L782.497 679.504Z"/>
	<path fill="#191615" d="M783.652 678.339C784.319 678.773 785.281 679.451 786.043 679.639C787.181 679.92 788.192 679.609 789.116 678.928C798.08 672.327 797.315 619.846 800.434 606.485C801.028 603.94 801.811 600.409 804.398 599.171C805.869 598.467 807.646 598.524 809.165 599.029C813.426 600.443 816.163 605.115 817.932 608.988C825.799 626.208 822.008 644.24 815.737 661.23L814.337 659.848C820.359 643.799 823.624 626.194 816.149 609.984C814.729 606.903 812.168 602.371 808.83 601.074C807.813 600.679 807.165 600.691 806.106 600.786C803.931 601.889 803.415 603.596 802.711 605.799C800.743 611.961 800.522 618.636 800.045 625.045C798.688 643.287 799.013 664.228 790.771 680.931L791.143 681.363C791.542 681.819 791.951 682.237 792.387 682.657L792.526 683.581C788.791 682.74 785.704 681.589 782.497 679.504L783.652 678.339Z"/>
	<path fill="#8D9BF3" d="M790.771 680.931C799.013 664.228 798.688 643.287 800.045 625.045C800.522 618.636 800.743 611.961 802.711 605.799C803.415 603.596 803.931 601.889 806.106 600.786C807.165 600.691 807.813 600.679 808.83 601.074C812.168 602.371 814.729 606.903 816.149 609.984C823.624 626.194 820.359 643.799 814.337 659.848C811.082 668.134 807.375 677.214 802.392 684.611C798.472 683.784 794.546 681.422 790.771 680.931Z"/>
	<path fill="#8D9BF3" d="M225.971 579.518C232.291 552.923 245.473 521.559 264.449 501.598C270.12 495.633 276.693 490.704 283.672 486.372C296.135 478.637 317.309 468.355 331.664 465.689C350.738 479.921 377.828 494.956 402.36 491.284C412.486 489.769 421.44 484.676 427.422 476.297C428.666 474.554 429.694 472.644 430.734 470.775C459.013 476.601 483.911 486.898 505.75 506.283C512.11 511.929 517.94 518.249 523.947 524.269L558.612 558.898C539.344 566.792 528.062 575.622 515.441 592.127C508.573 575.761 502.644 558.898 496.32 542.308C493.71 535.462 491.385 527.815 488.093 521.287C487.622 520.353 487.211 519.575 486.229 519.126L485.342 519.706C485.042 521.185 485.521 522.195 486.005 523.561C490.3 535.696 495.673 547.488 500.227 559.538L546.085 681.437L550.394 693.134C555.084 705.574 559.977 717.979 564.31 730.546C553.784 734.911 543.075 737.878 532.182 741.116C525.631 743.064 519.158 745.284 512.591 747.175C506.11 749.041 499.31 750.325 492.999 752.682C490.662 748.216 488.423 743.374 485.289 739.404C482.458 732.602 470.747 718.189 465.363 712.724C439.752 686.731 403.726 689.395 370.179 689.615L319.227 689.503L318.002 682.523Q315.031 666.166 311.322 649.96C310.369 644.675 309.522 639.541 309.885 634.155C310.474 625.435 313.498 616.449 315.213 607.855C317.568 596.057 326.886 541.996 324.56 533.778C322.847 535.569 322.344 539.459 321.91 541.901C320.229 551.359 319.683 561.396 318.469 570.964C316.986 582.655 314.86 594.251 313.226 605.919C291.224 586.58 263.331 576.63 233.896 578.628C231.249 578.808 228.585 579.062 225.971 579.518Z"/>
</svg>
