<?xml version="1.0" encoding="utf-8" ?>
<svg xmlns="http://www.w3.org/2000/svg" xmlns:xlink="http://www.w3.org/1999/xlink" width="1024" height="1024">
	<path fill="#E87824" d="M0 0L106.416 0L165.769 0L290.637 0L354.395 0L478.142 0L540.272 0L660.067 0L694.235 0L694.722 0L727.808 0L849.057 0L883.415 0L885.235 0L919.814 0L1024 0L1024 13.425L1024 40.5259L1024 77.6129L1024 103.413L1024 140.018L1024 166.958L1024 203.484L1024 229.778L1024 266.968L1024 293.393L1024 329.54L1024 356.391L1024 392.785L1024 418.754L1024 434.827L1024 832.475L1024 1024L720.732 1024L190.031 1024L0 1024L0 728.715L0 696.908L0 673.115L0 629.105L0 606.259L0 565.056L0 542.438L0 502.573L0 479.352L0 439.284L0 416.511L0 411.071L0 369.331L0 262.893L0 179.315L0 156.047L0 150.939L0 138.115L0 102.507L0 76.1508L0 39.0726L0 13.0834L0 0Z"/>
	<path fill="#FBB7A7" d="M282.815 137.51C288.52 131.779 315.595 111.577 322.732 111.661C328.716 111.731 369.411 140.499 377.467 146.041C386.562 152.298 399.028 163.144 409.864 164.899C438.111 169.474 488.962 108.317 512.562 112.815C523.41 114.882 537.697 127.743 547.254 134.124C553.695 138.423 580.001 155.64 584.112 160.679C572.243 159.647 564.549 160.005 552.986 163.283C542.586 166.88 533.54 172.228 524.112 177.786L523.238 177.271C523.019 177.232 522.799 177.197 522.581 177.155C519.96 176.649 517.418 175.339 514.744 174.74C505.107 172.584 497.959 178.241 490.284 183.188C485.294 186.403 455.471 206.611 454.033 210.001C454.293 210.236 454.524 210.525 454.842 210.672C453.778 210.897 452.601 211.043 451.585 211.423C451.581 211.124 451.621 210.821 451.571 210.526C451.368 209.318 449.919 207.488 449.197 206.429C443.204 197.641 434.74 190.64 425.358 185.774C416.556 181.913 405.866 178.054 396.105 179.126Q392.686 175.299 389.131 171.598Q387.763 170.038 386.326 168.542Q384.889 167.046 383.385 165.617Q381.881 164.188 380.313 162.829Q378.746 161.469 377.118 160.183Q375.491 158.897 373.806 157.686Q372.121 156.475 370.383 155.342Q368.645 154.209 366.858 153.157Q365.07 152.104 363.236 151.134Q361.402 150.164 359.526 149.278Q357.65 148.393 355.735 147.594Q353.821 146.794 351.872 146.083Q349.923 145.372 347.944 144.75Q345.965 144.128 343.959 143.597Q341.953 143.067 339.926 142.627Q337.898 142.188 335.853 141.842Q333.807 141.496 331.748 141.243C330.55 139.31 329.213 137.46 327.917 135.592C323.953 135.18 320.253 134.787 316.33 135.787C306.845 138.743 292.955 137.499 282.815 137.51Z"/>
	<path fill="#E87824" d="M508.148 130.061C516.226 137.464 525.518 143.81 534.376 150.254C540.481 154.695 546.467 159.461 552.986 163.283C542.586 166.88 533.54 172.228 524.112 177.786L523.238 177.271C523.019 177.232 522.799 177.197 522.581 177.155C519.96 176.649 517.418 175.339 514.744 174.74C505.107 172.584 497.959 178.241 490.284 183.188C485.294 186.403 455.471 206.611 454.033 210.001C454.293 210.236 454.524 210.525 454.842 210.672C453.778 210.897 452.601 211.043 451.585 211.423C451.581 211.124 451.621 210.821 451.571 210.526C451.368 209.318 449.919 207.488 449.197 206.429C443.204 197.641 434.74 190.64 425.358 185.774Q432.468 182.88 439.116 179.041C448.451 173.671 457.371 167.349 466.311 161.347C479.024 152.811 498.125 140.934 508.148 130.061Z"/>
	<path fill="#FBB7A7" d="M598.898 164.843C603.781 162.528 609.219 162.717 615.114 159.292C635.49 147.456 670.812 116.675 690.732 111.451C710.984 106.139 758.13 154.207 780.796 161.757C784.946 163.139 789.227 163.533 793.536 162.704C802.498 160.98 810.116 154.529 817.158 149.108C837.596 133.374 864.979 107.144 892.981 112.606C909.696 115.867 936.371 138.144 950.967 148.954C959.699 155.421 968.016 162.98 979.319 164.133C1000.47 166.291 1009.34 151.856 1024 140.018L1024 166.958C1010.12 177.845 995.132 186.113 976.898 183.95C956.186 181.493 938.129 166.13 921.922 154.087C909.381 144.77 896.851 134.812 883.818 126.215C872.602 134.059 861.72 142.207 850.837 150.507C831.935 164.924 806.969 188.133 781.236 183.669C774.622 182.522 768.47 179.894 762.583 176.736C751.788 170.944 742.463 163.526 732.573 156.393C719.089 146.668 705.319 137.734 693.557 125.835C690.541 129.607 687.45 132.966 683.761 136.09C674.907 143.591 664.854 149.933 655.378 156.634C646.578 162.856 637.885 169.833 628.541 175.208C625.704 176.84 622.841 178.234 619.582 178.794C613.544 172.598 606.65 168.541 598.898 164.843Z"/>
	<path fill="#E87824" d="M693.557 125.835C705.319 137.734 719.089 146.668 732.573 156.393C742.463 163.526 751.788 170.944 762.583 176.736C768.47 179.894 774.622 182.522 781.236 183.669C806.969 188.133 831.935 164.924 850.837 150.507C861.72 142.207 872.602 134.059 883.818 126.215C896.851 134.812 909.381 144.77 921.922 154.087C938.129 166.13 956.186 181.493 976.898 183.95C995.132 186.113 1010.12 177.845 1024 166.958L1024 203.484C1009.15 214.43 998.856 230.615 978.042 227.566C967.977 226.092 960.097 219.473 952.23 213.544L921.484 190.708C888.92 166.845 873.337 170.962 841.818 194.025C831.698 201.429 808.589 221.336 798.702 225.196Q797.057 225.855 795.342 226.297Q793.626 226.74 791.868 226.958Q790.109 227.176 788.338 227.166Q786.566 227.156 784.81 226.918C762.984 223.99 723.895 180.904 699.109 175.826C695.048 174.994 691.519 175.368 687.632 176.667C673.101 181.52 659.815 191.904 647.529 200.822C643.283 203.904 638.966 207.516 634.319 209.961C632.068 197.815 627.854 187.996 619.582 178.794C622.841 178.234 625.704 176.84 628.541 175.208C637.885 169.833 646.578 162.856 655.378 156.634C664.854 149.933 674.907 143.591 683.761 136.09C687.45 132.966 690.541 129.607 693.557 125.835Z"/>
	<path fill="#FEFEFE" d="M316.33 135.787C320.253 134.787 323.953 135.18 327.917 135.592C329.213 137.46 330.55 139.31 331.748 141.243Q333.807 141.496 335.853 141.842Q337.898 142.188 339.926 142.627Q341.953 143.067 343.959 143.597Q345.965 144.128 347.944 144.75Q349.923 145.372 351.872 146.083Q353.821 146.794 355.735 147.594Q357.65 148.393 359.526 149.278Q361.402 150.164 363.236 151.134Q365.07 152.104 366.858 153.157Q368.645 154.209 370.383 155.342Q372.121 156.475 373.806 157.686Q375.491 158.897 377.118 160.183Q378.746 161.469 380.313 162.829Q381.881 164.188 383.385 165.617Q384.889 167.046 386.326 168.542Q387.763 170.038 389.131 171.598Q392.686 175.299 396.105 179.126C405.191 192.045 412.841 206.158 412.913 222.405C407.823 222.376 403.017 222.168 398.103 223.798C398.257 236.393 399.174 249.408 398.331 261.96Q357.579 262.153 316.831 261.522C310.52 257.709 304.819 250.613 299.334 245.655Q263.64 213.408 228.904 180.132C219.933 172.55 211.597 163.733 203.119 155.574C200.962 153.892 198.99 151.714 197.02 149.802Q190.48 144.246 184.455 138.135C188.44 136.215 270.602 137.641 282.815 137.51C292.955 137.499 306.845 138.743 316.33 135.787Z"/>
	<path fill="#FC9F26" d="M375.989 178.652C376.425 178.186 376.848 177.75 377.322 177.323C380.687 174.288 384.391 171.292 389.131 171.598Q392.686 175.299 396.105 179.126C405.191 192.045 412.841 206.158 412.913 222.405C407.823 222.376 403.017 222.168 398.103 223.798C398.092 223.577 398.084 223.356 398.07 223.135C397.052 206.876 388.163 189.601 375.998 178.899L375.989 178.652Z"/>
	<path fill="#FC9F26" d="M316.33 135.787C320.253 134.787 323.953 135.18 327.917 135.592C329.213 137.46 330.55 139.31 331.748 141.243Q333.807 141.496 335.853 141.842Q337.898 142.188 339.926 142.627Q341.953 143.067 343.959 143.597Q345.965 144.128 347.944 144.75Q349.923 145.372 351.872 146.083Q353.821 146.794 355.735 147.594Q357.65 148.393 359.526 149.278Q361.402 150.164 363.236 151.134Q365.07 152.104 366.858 153.157Q368.645 154.209 370.383 155.342Q372.121 156.475 373.806 157.686Q375.491 158.897 377.118 160.183Q378.746 161.469 380.313 162.829Q381.881 164.188 383.385 165.617Q384.889 167.046 386.326 168.542Q387.763 170.038 389.131 171.598C384.391 171.292 380.687 174.288 377.322 177.323C376.848 177.75 376.425 178.186 375.989 178.652L375.998 178.899L344.061 178.89C337.487 178.873 330.823 179.103 324.271 178.568L322.229 178.571C304.128 179.966 285.578 178.772 267.408 179.092C260.049 179.072 233.943 177.87 228.904 180.132C219.933 172.55 211.597 163.733 203.119 155.574C200.962 153.892 198.99 151.714 197.02 149.802Q190.48 144.246 184.455 138.135C188.44 136.215 270.602 137.641 282.815 137.51C292.955 137.499 306.845 138.743 316.33 135.787Z"/>
	<path fill="#FB5B22" d="M316.33 135.787C320.253 134.787 323.953 135.18 327.917 135.592C329.213 137.46 330.55 139.31 331.748 141.243Q333.807 141.496 335.853 141.842Q337.898 142.188 339.926 142.627Q341.953 143.067 343.959 143.597Q345.965 144.128 347.944 144.75Q349.923 145.372 351.872 146.083Q353.821 146.794 355.735 147.594Q357.65 148.393 359.526 149.278Q361.402 150.164 363.236 151.134Q365.07 152.104 366.858 153.157Q368.645 154.209 370.383 155.342Q372.121 156.475 373.806 157.686Q375.491 158.897 377.118 160.183Q378.746 161.469 380.313 162.829Q381.881 164.188 383.385 165.617Q384.889 167.046 386.326 168.542Q387.763 170.038 389.131 171.598C384.391 171.292 380.687 174.288 377.322 177.323C376.848 177.75 376.425 178.186 375.989 178.652Q373.789 176.106 371.297 173.845C350.557 155.34 328.866 153.595 302.42 155.151C291.994 154.872 206.012 154.219 203.119 155.574C200.962 153.892 198.99 151.714 197.02 149.802C226.309 149.204 255.743 149.865 285.044 149.926C296.618 149.95 309.262 150.933 320.708 149.938C322.027 149.824 323.328 149.33 324.276 148.37C325.233 147.402 325.593 146.23 325.594 144.901C325.597 141.68 324.079 139.683 321.974 137.445C320.137 136.784 318.21 136.318 316.33 135.787Z"/>
	<path fill="#E87824" d="M203.119 155.574C206.012 154.219 291.994 154.872 302.42 155.151C290.419 162.497 278.426 170.322 267.408 179.092C260.049 179.072 233.943 177.87 228.904 180.132C219.933 172.55 211.597 163.733 203.119 155.574Z"/>
	<path fill="#FBB7A7" d="M302.42 155.151C328.866 153.595 350.557 155.34 371.297 173.845Q373.789 176.106 375.989 178.652L375.998 178.899L344.061 178.89C337.487 178.873 330.823 179.103 324.271 178.568L322.229 178.571C304.128 179.966 285.578 178.772 267.408 179.092C278.426 170.322 290.419 162.497 302.42 155.151Z"/>
	<path fill="#E87824" d="M325.359 168.222C336.902 170.346 347.436 174.507 358.494 178.227C347.176 179.083 335.522 177.353 324.271 178.568L322.229 178.571C316.76 178.207 311.249 178.34 305.77 178.35C312.033 174.774 318.504 170.544 325.359 168.222Z"/>
	<path fill="#FEFEFE" d="M552.986 163.283C564.549 160.005 572.243 159.647 584.112 160.679C589.109 161.893 594.055 163.09 598.898 164.843C606.65 168.541 613.544 172.598 619.582 178.794C627.854 187.996 632.068 197.815 634.319 209.961C635.012 218.297 635.571 226.537 635.505 234.909C635.26 249.67 632.382 264.944 628.244 279.08L627.769 281.082C619.302 280.689 610.682 280.959 602.202 280.964L554.474 280.993L553.925 281.036C546.521 281.565 538.985 281.265 531.551 281.477C522.591 281.733 512.554 282.915 503.679 281.838C496.945 281.021 490.774 277.558 484.134 276.224C458.656 271.108 432.576 277.028 412.967 294.247C412.249 270.382 412.942 246.299 412.913 222.405C412.841 206.158 405.191 192.045 396.105 179.126C405.866 178.054 416.556 181.913 425.358 185.774C434.74 190.64 443.204 197.641 449.197 206.429C449.919 207.488 451.368 209.318 451.571 210.526C451.621 210.821 451.581 211.124 451.585 211.423C452.601 211.043 453.778 210.897 454.842 210.672C454.524 210.525 454.293 210.236 454.033 210.001C455.471 206.611 485.294 186.403 490.284 183.188C497.959 178.241 505.107 172.584 514.744 174.74C517.418 175.339 519.96 176.649 522.581 177.155C522.799 177.197 523.019 177.232 523.238 177.271L524.112 177.786C533.54 172.228 542.586 166.88 552.986 163.283Z"/>
	<path fill="#131215" d="M556.315 245.371C557.394 245.389 559.045 245.436 560.014 246.036C561.237 246.793 561.333 247.104 561.628 248.407C561.202 249.869 560.437 250.412 559.309 251.327C558.541 251.296 557.438 251.354 556.725 251.094C555.44 250.626 555.256 250.155 554.709 249.023C554.846 247.336 555.317 246.646 556.315 245.371Z"/>
	<path fill="#131215" d="M561.333 207.161C562.151 207.29 562.726 207.365 563.441 207.82C564.393 208.427 564.816 210.391 564.957 211.477C565.259 213.808 565.086 217.816 563.594 219.713L561.265 218.972C560.152 217.769 559.667 216.205 559.448 214.598C559.079 211.876 559.59 209.262 561.333 207.161Z"/>
	<path fill="#131215" d="M454.842 210.672C459.717 210.769 474.072 210.324 477.367 213.766C477.575 213.984 477.77 214.215 477.972 214.439C477.283 215.805 476.894 216.611 475.417 217.281C471.25 219.173 458.231 217.91 454.039 216.194C452.607 214.847 452.208 213.247 451.585 211.423C452.601 211.043 453.778 210.897 454.842 210.672Z"/>
	<path fill="#131215" d="M507.386 212.311C508.832 212.344 509.738 212.361 511.017 213.15C512.42 216.613 507.242 220.37 505.879 223.514C504.733 226.158 504.334 229.904 504.546 232.754C505.172 241.188 510.998 247.49 518.423 250.879C520.426 251.794 523.625 252.741 525.197 254.288C526.294 255.367 526.215 256.11 526.232 257.577C525.421 257.788 524.586 258.003 523.748 258.07C519.506 258.411 513.536 254.694 510.362 252.136C504.494 247.409 500.432 240.877 499.736 233.265C498.937 224.54 502.008 218.729 507.386 212.311Z"/>
	<path fill="#FC9F26" d="M536.008 201.13C537.709 201.081 539.548 201.11 541.177 201.64C543.915 202.53 546.327 204.602 547.464 207.26Q547.649 207.689 547.788 208.134Q547.928 208.58 548.02 209.037Q548.113 209.495 548.157 209.959Q548.201 210.424 548.197 210.891Q548.193 211.358 548.141 211.821Q548.088 212.285 547.988 212.741Q547.887 213.197 547.74 213.64Q547.593 214.083 547.4 214.508C545.98 217.697 543.158 219.722 539.992 220.935C537.763 221.058 535.375 221.121 533.29 220.193C530.916 219.138 528.924 217.018 528.019 214.586Q527.847 214.122 527.723 213.643Q527.599 213.163 527.524 212.674Q527.449 212.185 527.423 211.691Q527.398 211.196 527.422 210.702Q527.447 210.207 527.522 209.718Q527.596 209.229 527.719 208.749Q527.843 208.27 528.014 207.805Q528.185 207.341 528.402 206.896C529.974 203.749 532.759 202.111 536.008 201.13Z"/>
	<path fill="#FC9F26" d="M541.126 251.558C542.812 251.486 544.438 251.395 546.052 251.972C549.223 253.106 551.902 255.231 553.239 258.375C554.31 260.894 554.41 263.7 553.357 266.241C551.711 270.216 548.563 271.936 544.785 273.466C542.868 273.576 541.154 273.444 539.319 272.833C536.454 271.881 534.031 270.037 532.738 267.263C531.572 264.763 531.554 261.889 532.556 259.333C534.168 255.221 537.252 253.261 541.126 251.558Z"/>
	<path fill="#FBB7A7" d="M454.842 210.672C454.524 210.525 454.293 210.236 454.033 210.001C455.471 206.611 485.294 186.403 490.284 183.188C497.959 178.241 505.107 172.584 514.744 174.74C517.418 175.339 519.96 176.649 522.581 177.155C522.799 177.197 523.019 177.232 523.238 177.271C520.111 178.526 517.204 180.585 514.355 182.379C500.59 191.049 488.502 201.382 478.055 213.861L477.972 214.439C477.77 214.215 477.575 213.984 477.367 213.766C474.072 210.324 459.717 210.769 454.842 210.672Z"/>
	<path fill="#131215" d="M552.986 163.283C564.549 160.005 572.243 159.647 584.112 160.679C589.109 161.893 594.055 163.09 598.898 164.843C606.65 168.541 613.544 172.598 619.582 178.794C627.854 187.996 632.068 197.815 634.319 209.961C635.012 218.297 635.571 226.537 635.505 234.909C635.26 249.67 632.382 264.944 628.244 279.08L627.769 281.082C619.302 280.689 610.682 280.959 602.202 280.964L554.474 280.993C555.885 276.882 557.462 272.985 560.134 269.508C568.076 259.171 580.365 256.535 592.556 254.875C586.111 235.803 583.966 214.219 588.723 194.512C574.678 191.4 560.825 187.692 546.894 184.13C539.527 182.247 531.036 180.884 524.112 177.786C533.54 172.228 542.586 166.88 552.986 163.283Z"/>
	<path fill="#E87824" d="M634.319 209.961C638.966 207.516 643.283 203.904 647.529 200.822C659.815 191.904 673.101 181.52 687.632 176.667C691.519 175.368 695.048 174.994 699.109 175.826C723.895 180.904 762.984 223.99 784.81 226.918Q786.566 227.156 788.337 227.166Q790.109 227.176 791.868 226.958Q793.626 226.74 795.342 226.297Q797.057 225.855 798.702 225.196C808.589 221.336 831.698 201.429 841.818 194.025C873.337 170.962 888.92 166.845 921.484 190.708L952.23 213.544C960.097 219.473 967.977 226.092 978.042 227.566C998.856 230.615 1009.15 214.43 1024 203.484L1024 229.778L1024 266.968L1024 293.393L1024 329.54C1015.67 335.987 1008.06 344.716 998.86 349.752C991.438 353.814 982.547 355.577 974.243 353.499C966.136 351.47 959.056 346.337 952.356 341.547C935.292 329.349 914.813 309.749 894.875 303.921C889.371 302.312 883.593 301.883 877.941 302.93C857.319 306.749 833.491 327.27 816.948 340.239C811.934 344.17 807.028 348.699 801.397 351.725C797.191 353.985 792.272 355.447 787.466 354.971C772.485 353.484 742.698 330.005 730.209 321.022C722.772 315.673 713.444 308.552 704.602 306.112C704.319 306.033 704.032 305.964 703.747 305.89C704.163 297.619 704.086 289.326 704.075 281.047Q683.074 281.122 662.073 280.886C650.78 281.56 639.099 281.174 627.769 281.082L628.244 279.08C632.382 264.944 635.26 249.67 635.505 234.909C635.571 226.537 635.012 218.297 634.319 209.961Z"/>
	<path fill="#FBB7A7" d="M628.244 279.08C637.231 272.123 646.911 265.882 656.299 259.475C665.422 253.248 680.556 242.286 691.151 240.124C715.185 235.221 758.569 285.99 784.094 290.228C789.426 291.113 795.279 290.428 800.242 288.292C810.319 283.954 831.562 265.067 841.897 257.654C866.341 240.121 882.36 230.265 910.291 247.085C925.008 255.948 938.36 267.394 952.176 277.602C959.946 283.343 968.418 289.68 978.203 291.199C1000.11 294.601 1008.59 278.117 1024 266.968L1024 293.393C1015.03 302.114 1003.68 308.869 991.245 311.045Q989.31 311.369 987.358 311.557Q985.405 311.745 983.444 311.795Q981.483 311.845 979.523 311.758Q977.563 311.67 975.615 311.446Q973.666 311.221 971.738 310.86Q969.809 310.499 967.911 310.003Q966.013 309.508 964.155 308.88Q962.296 308.252 960.486 307.496C946.862 301.932 934.357 290.833 922.62 282.061Q902.898 267.062 882.651 252.781C879.218 255.314 876.11 258.307 872.779 260.979C865.435 266.871 857.842 272.47 850.407 278.248C836.092 289.372 820.945 302.547 803.839 309.095Q801.845 309.865 799.786 310.438Q797.727 311.011 795.622 311.381Q793.517 311.751 791.386 311.915Q789.255 312.078 787.118 312.034Q784.778 312.009 782.452 311.746Q780.127 311.483 777.84 310.984Q775.553 310.485 773.33 309.755Q771.106 309.026 768.968 308.073C759.31 303.868 750.617 297.237 742.014 291.237C725.164 279.486 708.691 267.951 694.307 253.177C688.209 262.645 671.871 275.421 662.073 280.886C650.78 281.56 639.099 281.174 627.769 281.082L628.244 279.08Z"/>
	<path fill="#FBB7A7" d="M634.319 209.961C638.966 207.516 643.283 203.904 647.529 200.822C659.815 191.904 673.101 181.52 687.632 176.667C691.519 175.368 695.048 174.994 699.109 175.826C723.895 180.904 762.984 223.99 784.81 226.918Q786.566 227.156 788.337 227.166Q790.109 227.176 791.868 226.958Q793.626 226.74 795.342 226.297Q797.057 225.855 798.702 225.196C808.589 221.336 831.698 201.429 841.818 194.025C873.337 170.962 888.92 166.845 921.484 190.708L952.23 213.544C960.097 219.473 967.977 226.092 978.042 227.566C998.856 230.615 1009.15 214.43 1024 203.484L1024 229.778C1012.59 240.685 996.877 248.91 980.734 248.456C973.295 248.246 965.918 246.252 959.224 243.045C946.781 237.083 935.476 227.517 924.422 219.312L883.421 189.027C874.662 196.449 865.105 203.098 856.018 210.124C838.722 223.497 808.712 250.869 785.829 248.842Q783.485 248.63 781.171 248.208Q778.856 247.786 776.588 247.158Q774.32 246.53 772.118 245.701Q769.916 244.872 767.797 243.848C756.742 238.588 746.663 230.475 736.799 223.292C720.784 211.629 708.743 203.82 694.649 189.433C684.129 201.799 670.22 210.406 657.045 219.684C649.873 224.734 642.818 230.077 635.505 234.909C635.571 226.537 635.012 218.297 634.319 209.961Z"/>
	<path fill="#E87824" d="M694.307 253.177C708.691 267.951 725.164 279.486 742.014 291.237C750.617 297.237 759.31 303.868 768.968 308.073Q771.106 309.026 773.33 309.755Q775.553 310.485 777.84 310.984Q780.127 311.483 782.452 311.746Q784.778 312.009 787.118 312.034Q789.255 312.078 791.386 311.915Q793.517 311.751 795.622 311.381Q797.727 311.011 799.786 310.438Q801.845 309.865 803.839 309.095C820.945 302.547 836.092 289.372 850.407 278.248C857.842 272.47 865.435 266.871 872.779 260.979C876.11 258.307 879.218 255.314 882.651 252.781Q902.898 267.062 922.62 282.061C934.357 290.833 946.862 301.932 960.486 307.496Q962.296 308.252 964.155 308.88Q966.013 309.508 967.911 310.003Q969.809 310.499 971.738 310.86Q973.666 311.221 975.615 311.446Q977.563 311.67 979.523 311.758Q981.483 311.845 983.444 311.795Q985.405 311.745 987.358 311.557Q989.31 311.369 991.245 311.045C1003.68 308.869 1015.03 302.114 1024 293.393L1024 329.54C1015.67 335.987 1008.06 344.716 998.86 349.752C991.438 353.814 982.547 355.577 974.243 353.499C966.136 351.47 959.056 346.337 952.356 341.547C935.292 329.349 914.813 309.749 894.875 303.921C889.371 302.312 883.593 301.883 877.941 302.93C857.319 306.749 833.491 327.27 816.948 340.239C811.934 344.17 807.028 348.699 801.397 351.725C797.191 353.985 792.272 355.447 787.466 354.971C772.485 353.484 742.698 330.005 730.209 321.022C722.772 315.673 713.444 308.552 704.602 306.112C704.319 306.033 704.032 305.964 703.747 305.89C704.163 297.619 704.086 289.326 704.075 281.047Q683.074 281.122 662.073 280.886C671.871 275.421 688.209 262.645 694.307 253.177Z"/>
	<path fill="#E87824" d="M0 0L106.416 0L165.769 0L290.637 0L354.395 0L478.142 0L540.272 0L660.067 0L694.235 0L694.722 0L727.808 0L849.057 0L883.415 0L885.235 0L919.814 0L1024 0L1024 13.425L1024 40.5259L1024 77.6129L1024 103.413C1015.58 110.878 1006.86 116.585 995.773 119.189Q993.954 119.618 992.109 119.921Q990.265 120.224 988.404 120.4Q986.543 120.577 984.674 120.626Q982.806 120.675 980.938 120.596Q979.071 120.517 977.213 120.311Q975.355 120.105 973.516 119.772Q971.677 119.439 969.864 118.982Q968.052 118.524 966.275 117.944C952.558 113.5 940.692 104.524 929.212 96.0688L900.262 74.8853C894.874 70.953 889.578 66.6694 883.894 63.1872L883.359 62.8659C876.765 67.1625 870.663 72.124 864.396 76.8693L836.693 97.6548C828.463 103.865 820.355 110.405 811.061 114.987C804.634 118.156 797.841 120.234 790.664 120.653C784.183 121.032 777.84 120.255 771.758 117.946C760.054 113.503 749.093 105.041 738.957 97.8109C728.63 90.4443 718.074 83.2526 708.204 75.2784C703.092 71.1479 698.349 66.6302 693.447 62.2588C692.28 63.7545 691.105 65.2532 689.857 66.6821C681.558 76.1819 632.076 111.642 620.326 117.266C614.51 120.05 608.491 121.588 602.054 121.993C596.485 122.343 590.861 121.849 585.638 119.784C570.453 113.779 521.106 77.4634 508.218 66.1082C498.853 75.7819 486.796 83.4533 475.876 91.2526C463.555 100.052 450.639 109.905 437.195 116.852C432.91 119.067 428.415 120.702 423.648 121.495Q422.061 121.761 420.461 121.925Q418.86 122.089 417.252 122.149Q415.644 122.209 414.036 122.165Q412.428 122.122 410.825 121.975Q409.223 121.828 407.634 121.578Q406.044 121.328 404.474 120.976Q402.904 120.625 401.36 120.173Q399.816 119.721 398.304 119.17C383.269 113.804 369.243 102.194 356.427 92.8435Q338.894 79.9328 321.2 67.2449C311.779 76.118 299.834 83.1612 289.28 90.634C280.074 97.1519 271.027 104.556 261.277 110.209C254.421 114.185 246.373 117.997 238.63 119.786C215.017 125.239 195.97 109.189 177.598 97.0255C171.435 92.945 164.833 89.6516 158.567 85.746C155.391 78.1299 151.434 71.7039 144.39 67.112C135.402 61.2532 126.172 60.7633 115.926 62.8374C110.334 65.1489 104.705 67.7581 100.312 72.0266L82.3666 72.0992C74.4162 72.014 66.0483 71.8553 58.2151 73.2861C57.2218 74.2573 56.9743 74.3904 56.6799 75.7247C58.1474 80.5571 67.9068 86.9629 71.7234 90.5943C65.4139 92.8381 60.3813 97.7138 53.7726 99.49C40.9193 102.944 28.2567 98.3284 18.1888 90.2472C12.1121 85.3696 6.8405 80.0144 0 76.1508L0 39.0726L0 13.0834L0 0Z"/>
	<path fill="#FBB7A7" d="M885.235 0L919.814 0L1024 0L1024 13.425L1024 40.5259C1013.7 48.4855 1003.66 54.4997 990.553 56.2732Q988.924 56.5065 987.283 56.6429Q985.643 56.7794 983.997 56.8184Q982.352 56.8574 980.707 56.7989Q979.062 56.7405 977.423 56.5847Q975.785 56.4288 974.158 56.1763Q972.532 55.9237 970.923 55.5752Q969.315 55.2268 967.729 54.7836Q966.144 54.3405 964.588 53.8043C944.843 47.0675 922.675 28.5068 906.103 15.7343C899.205 10.4176 892.179 5.25797 885.235 0Z"/>
	<path fill="#E87824" d="M919.814 0L1024 0L1024 13.425C1014.15 21.2662 1004.9 33.1844 992.179 35.9581C972.485 40.2521 959.859 28.8683 945.137 17.9013C936.822 11.7068 928.512 5.65237 919.814 0Z"/>
	<path fill="#FBB7A7" d="M694.722 0L727.808 0L849.057 0L883.415 0C874.213 7.8348 863.703 14.7893 854.003 22.0238C840.132 32.3693 826.29 44.6513 810.61 52.1139C803.719 55.3934 796.275 57.3594 788.619 57.4287Q786.137 57.435 783.668 57.1763Q781.199 56.9176 778.771 56.3969Q776.344 55.8762 773.986 55.0995Q771.629 54.3227 769.367 53.2987C754.733 46.7764 741.34 35.6874 728.436 26.29C717 17.9609 704.891 9.87623 694.722 0Z"/>
	<path fill="#E87824" d="M727.808 0L849.057 0Q835.042 9.57559 821.395 19.6674C815.455 24.0145 809.495 28.9411 803.109 32.5864C800.4 34.1325 797.562 35.3756 794.493 36.0153C789.237 37.1111 783.742 36.4654 778.765 34.5221C767.464 30.1092 756.966 20.6338 747.197 13.4565Q737.679 6.47336 727.808 0Z"/>
	<path fill="#FBB7A7" d="M321.248 44.6716C330.393 48.8877 338.624 55.0138 346.93 60.6663Q363.365 71.7419 379.512 83.2323C388.729 89.7789 399.163 98.7117 410.19 101.813C414.789 103.106 419.366 102.377 423.767 100.73C431.076 97.9953 437.651 92.8867 444.012 88.4495C456.123 80.0011 493.57 51.1431 505.584 48.2251C509.29 47.325 513.481 48.4463 516.876 49.952C523.486 52.8837 529.668 57.5719 535.622 61.6445Q553.094 73.7529 570.266 86.282C576.874 91.045 583.637 96.6824 591.401 99.4047C597.24 101.452 603.337 101.603 609.164 99.3613C615.731 96.8353 621.719 91.7425 627.422 87.6685C641.225 77.8067 676.3 50.1846 691.582 48.006C696.143 47.3558 700.595 48.5069 704.775 50.2644C718.507 56.0379 740.76 73.0919 753.418 82.2854C761.237 87.9639 769.445 94.4374 778.645 97.6516C785.266 99.9645 792.434 100.341 799.046 97.7418C805.857 95.0644 811.882 89.9502 817.67 85.5757L838.516 69.8439C857.153 55.8784 877.918 42.5561 901.686 52.4787C917.454 59.0613 937.874 76.3864 952.127 86.6642C958.888 91.5389 966.2 97.1943 974.283 99.5696C981.776 101.771 989.67 101.142 996.892 98.2643C1007.37 94.0892 1015 84.2214 1024 77.6129L1024 103.413C1015.58 110.878 1006.86 116.585 995.773 119.189Q993.954 119.618 992.109 119.921Q990.265 120.224 988.404 120.4Q986.543 120.577 984.674 120.626Q982.806 120.675 980.938 120.596Q979.071 120.517 977.213 120.311Q975.355 120.105 973.516 119.772Q971.677 119.439 969.864 118.982Q968.052 118.524 966.275 117.944C952.558 113.5 940.692 104.524 929.212 96.0688L900.262 74.8853C894.874 70.953 889.578 66.6694 883.894 63.1872L883.359 62.8659C876.765 67.1625 870.663 72.124 864.396 76.8693L836.693 97.6548C828.463 103.865 820.355 110.405 811.061 114.987C804.634 118.156 797.841 120.234 790.664 120.653C784.183 121.032 777.84 120.255 771.758 117.946C760.054 113.503 749.093 105.041 738.957 97.8109C728.63 90.4443 718.074 83.2526 708.204 75.2784C703.092 71.1479 698.349 66.6302 693.447 62.2588C692.28 63.7545 691.105 65.2532 689.857 66.6821C681.558 76.1819 632.076 111.642 620.326 117.266C614.51 120.05 608.491 121.588 602.054 121.993C596.485 122.343 590.861 121.849 585.638 119.784C570.453 113.779 521.106 77.4634 508.218 66.1082C498.853 75.7819 486.796 83.4533 475.876 91.2526C463.555 100.052 450.639 109.905 437.195 116.852C432.91 119.067 428.415 120.702 423.648 121.495Q422.061 121.761 420.461 121.925Q418.86 122.089 417.252 122.149Q415.644 122.209 414.036 122.165Q412.428 122.122 410.825 121.975Q409.223 121.828 407.634 121.578Q406.044 121.328 404.474 120.976Q402.904 120.625 401.36 120.173Q399.816 119.721 398.304 119.17C383.269 113.804 369.243 102.194 356.427 92.8435Q338.894 79.9328 321.2 67.2449C311.779 76.118 299.834 83.1612 289.28 90.634C280.074 97.1519 271.027 104.556 261.277 110.209C254.421 114.185 246.373 117.997 238.63 119.786C215.017 125.239 195.97 109.189 177.598 97.0255C171.435 92.945 164.833 89.6516 158.567 85.746C155.391 78.1299 151.434 71.7039 144.39 67.112C135.402 61.2532 126.172 60.7633 115.926 62.8374C110.334 65.1489 104.705 67.7581 100.312 72.0266L82.3666 72.0992C83.2388 67.9688 84.6653 64.5 87.5937 61.3876Q87.9345 61.0275 88.2934 60.6854Q88.6523 60.3433 89.0284 60.0202Q89.4044 59.6971 89.7967 59.3938Q90.1889 59.0906 90.5962 58.8079Q91.0036 58.5253 91.4249 58.264Q91.8463 58.0027 92.2806 57.7635Q92.7149 57.5243 93.1609 57.3078Q93.607 57.0914 94.0636 56.8982Q94.5202 56.705 94.9862 56.5356Q95.4522 56.3662 95.9263 56.2211Q96.4004 56.0759 96.8813 55.9554Q97.3622 55.8349 97.8487 55.7394Q98.3353 55.6439 98.8261 55.5736Q99.3168 55.5032 99.8106 55.4583Q100.304 55.4134 100.8 55.394Q101.295 55.3746 101.791 55.3808Q102.287 55.3826 102.783 55.4093Q103.278 55.436 103.771 55.4876Q104.265 55.5391 104.755 55.6154Q105.246 55.6916 105.731 55.7924Q106.217 55.8932 106.697 56.0182Q107.177 56.1432 107.651 56.2922Q108.124 56.4412 108.589 56.6137Q109.054 56.7862 109.51 56.9819Q109.966 57.1776 110.412 57.3959Q110.857 57.6142 111.291 57.8546Q111.725 58.095 112.147 58.3569Q112.568 58.6188 112.976 58.9015Q113.384 59.1842 113.777 59.487Q114.17 59.7899 114.547 60.112Q114.924 60.4342 115.285 60.7749Q115.646 61.1156 115.989 61.474C119.197 61.3131 132.438 50.293 137.343 48.1646C147.29 53.2784 156.785 58.5613 166.092 64.768C178.089 72.7685 208.423 95.4028 220.137 99.219C225.636 101.011 231.479 100.783 236.936 99.0051C251.591 94.2308 283.957 69.4837 297.248 59.8091C304.773 54.3322 312.549 48.1457 321.248 44.6716Z"/>
	<path fill="#FBB7A7" d="M0 0L106.416 0L165.769 0L290.637 0L354.395 0L478.142 0L540.272 0L660.067 0L694.235 0C685.288 9.26469 674.11 15.9598 663.711 23.4394C649.871 33.394 635.785 45.2938 620.328 52.5326C614.206 55.4001 607.898 57.0118 601.124 57.1016Q598.541 57.1413 595.969 56.8936Q593.397 56.646 590.869 56.1141Q588.341 55.5823 585.887 54.7728Q583.433 53.9633 581.085 52.8862C567.53 46.7724 552.228 34.3013 539.952 25.5034C529.441 17.9696 517.711 10.6772 508.447 1.64929C499.669 12.0794 449.957 46.3539 437.37 52.6836C432.164 55.302 426.703 57.0635 420.88 57.5734C412.531 58.3044 403.831 56.4444 396.153 53.194C386.173 48.9685 376.903 41.556 367.995 35.4002C353.987 25.7195 339.637 16.1795 326.647 5.14202C325.053 3.78728 323.496 2.40625 322.029 0.913019C309.863 11.8626 295.715 21.2397 282.343 30.6507C271.397 38.3547 260.449 47.1717 248.2 52.6753C241.642 55.6214 234.942 57.4051 227.715 57.0197C220.568 56.6384 213.557 54.343 207.118 51.3139C198.148 47.0942 190.062 41.2195 181.908 35.639C166.178 24.8739 150.945 13.4389 135.255 2.64999Q118.482 15.5475 101.386 28.0144C82.3959 42.0129 61.7131 59.7916 36.372 56.515C22.6147 54.7361 10.6552 47.589 0 39.0726L0 13.0834L0 0Z"/>
	<path fill="#E87824" d="M540.272 0L660.067 0C653.141 5.81147 645.324 10.9112 637.983 16.1896C630.345 21.681 622.669 27.7671 614.539 32.4939C612.118 33.9008 609.554 35.1177 606.802 35.7064C601.351 36.8726 595.497 36.0679 590.332 34.0697C581.054 30.4805 572.761 23.3302 564.821 17.4481C556.736 11.4584 548.706 5.49685 540.272 0Z"/>
	<path fill="#E87824" d="M0 0L106.416 0Q95.5316 7.23676 84.9077 14.851C74.9586 21.9304 63.9311 31.914 52.2003 35.5262C46.7697 37.1983 40.7296 37.1315 35.1928 35.9958C20.115 32.9031 12.402 20.4968 0 13.0834L0 0Z"/>
	<path fill="#E87824" d="M165.769 0L290.637 0C283.08 6.13154 274.558 11.3754 266.487 16.8214C258.368 22.2992 250.255 28.3363 241.636 32.9785C238.853 34.4774 235.935 35.7416 232.838 36.4251C228.614 37.3577 224.839 36.8645 220.805 35.3587C210.641 31.5644 200.817 23.3925 191.946 17.2617Q179.019 8.38673 165.769 0Z"/>
	<path fill="#E87824" d="M354.395 0L478.142 0C472.099 4.80555 465.366 9.00485 459.054 13.4846C449.697 20.1255 440.35 27.5039 430.239 32.9481C426.595 34.9103 422.685 36.6089 418.553 37.1714C414.767 37.687 411.206 37.0391 407.65 35.7111C393.505 30.4277 367.34 9.63893 354.395 0Z"/>
	<path fill="#FC9F26" d="M115.926 62.8374C126.172 60.7633 135.402 61.2532 144.39 67.112C151.434 71.7039 155.391 78.1299 158.567 85.746C160.624 95.5985 160.435 104.149 159.786 114.115L184.455 138.135Q190.48 144.246 197.02 149.802C198.99 151.714 200.962 153.892 203.119 155.574C211.597 163.733 219.933 172.55 228.904 180.132Q263.64 213.408 299.334 245.655C304.819 250.613 310.52 257.709 316.831 261.522Q357.579 262.153 398.331 261.96C397.297 274.572 398.056 287.71 398.16 300.373C398.215 306.991 399.294 314.762 397.268 321.078C391.219 336.755 388.393 352.325 386.946 368.971C390.552 368.834 394.239 368.536 397.842 368.658C397.855 375.675 398.9 407.132 397.352 412.017L354.014 412.019L323.144 411.906L315.368 411.913C309.999 414.423 305.034 417.951 299.977 421.039C295.122 424.005 290.08 426.594 284.955 429.056Q277.301 420.42 269.415 411.995C267.146 410.007 265.213 406.991 263.276 404.636C254.575 410.535 246.743 418.928 239.062 426.1L188.564 474.194C180.604 481.83 172.143 491.006 163.598 497.803C157.509 494.924 151.529 491.789 145.539 488.71Q138.488 484.772 131.576 480.595C130.258 479.48 128.478 478.586 127.008 477.653C121.495 473.466 116.342 469.023 111.313 464.277C102.971 456.292 96.9808 446.035 92.4766 435.486C89.955 428.736 88.5203 422.045 86.7432 415.118L86.2465 409.636L86.05 410.712C84.6919 411.541 8.86942 411.005 0 411.071L0 369.331L0 262.893L0 179.315L0 156.047L0 150.939L0 138.115L0 102.507L0 76.1508C6.8405 80.0144 12.1121 85.3696 18.1888 90.2472C28.2567 98.3284 40.9193 102.944 53.7726 99.49C60.3813 97.7138 65.4139 92.8381 71.7234 90.5943C67.9068 86.9629 58.1474 80.5571 56.6799 75.7247C56.9743 74.3904 57.2218 74.2573 58.2151 73.2861C66.0483 71.8553 74.4162 72.014 82.3666 72.0992L100.312 72.0266C104.705 67.7581 110.334 65.1489 115.926 62.8374Z"/>
	<path fill="#EF6723" d="M148.025 269.652C150.393 270.448 152.996 271.571 155.428 272.066C153.962 277.166 154.961 288.075 154.959 293.905Q154.882 316.516 155.04 339.126C159.211 335.142 163.254 333.302 169.159 333.504C172.277 333.61 175.404 334.3 178.425 335.032C177.812 315.554 178.761 296.054 178.458 276.576C180.767 276.591 183.186 276.46 185.468 276.818L185.409 316.094C185.399 325.033 185.099 334.066 186.07 342.963L123.364 343.031C124.791 339.881 126.395 337.375 129.424 335.547C135.283 332.01 141.925 333.836 148.062 335.4C148.463 313.52 147.998 291.541 148.025 269.652Z"/>
	<path fill="#FC9F26" d="M155.04 339.126Q154.882 316.516 154.959 293.905C154.961 288.075 153.962 277.166 155.428 272.066C163.094 274.315 170.501 275.799 178.458 276.576C178.761 296.054 177.812 315.554 178.425 335.032C175.404 334.3 172.277 333.61 169.159 333.504C163.254 333.302 159.211 335.142 155.04 339.126Z"/>
	<path fill="#011B42" d="M0 369.331C30.3801 369.33 60.8574 369.739 91.2278 369.226C86.9582 382.499 85.1577 395.688 86.2465 409.636L86.05 410.712C84.6919 411.541 8.86942 411.005 0 411.071L0 369.331Z"/>
	<path fill="#011B42" d="M239.018 368.647C264.287 369.227 289.627 368.999 314.903 369.021C338.903 369.041 362.95 369.323 386.946 368.971C390.552 368.834 394.239 368.536 397.842 368.658C397.855 375.675 398.9 407.132 397.352 412.017L354.014 412.019L323.144 411.906L315.368 411.913C309.999 414.423 305.034 417.951 299.977 421.039C295.122 424.005 290.08 426.594 284.955 429.056Q277.301 420.42 269.415 411.995C267.146 410.007 265.213 406.991 263.276 404.636C255.557 392.357 246.847 380.818 239.018 368.647Z"/>
	<path fill="#FBB7A7" d="M269.415 411.995L315.368 411.913C309.999 414.423 305.034 417.951 299.977 421.039C295.122 424.005 290.08 426.594 284.955 429.056Q277.301 420.42 269.415 411.995Z"/>
	<path fill="#FEFEFE" d="M186.625 369.041C186.086 360.946 184.305 338.702 189.432 332.718C191.783 329.974 195.701 328.697 199.231 328.625C205.437 328.5 210.329 332.641 214.455 336.797C223.941 346.35 231.407 357.606 239.018 368.647C246.847 380.818 255.557 392.357 263.276 404.636C254.575 410.535 246.743 418.928 239.062 426.1L188.564 474.194C180.604 481.83 172.143 491.006 163.598 497.803C157.509 494.924 151.529 491.789 145.539 488.71Q138.488 484.772 131.576 480.595C130.258 479.48 128.478 478.586 127.008 477.653C121.495 473.466 116.342 469.023 111.313 464.277C102.971 456.292 96.9808 446.035 92.4766 435.486C89.955 428.736 88.5203 422.045 86.7432 415.118L86.2465 409.636C85.1577 395.688 86.9582 382.499 91.2278 369.226C93.0866 363.194 95.4854 354.957 100.142 350.456C101.792 348.861 103.866 347.872 106.191 348.067C114.022 348.721 123.154 362.759 128.114 368.497C136.051 369.371 144.146 369.084 152.122 369.081L186.625 369.041Z"/>
	<path fill="#EF6723" d="M128.114 368.497C136.051 369.371 144.146 369.084 152.122 369.081L186.625 369.041C189.323 376.31 195.112 383.275 194.379 391.32C193.844 397.193 190.472 402.758 185.951 406.452C181.693 409.931 176.273 411.774 170.771 411.163Q169.491 411.013 168.241 410.697Q166.991 410.38 165.794 409.903Q164.596 409.425 163.472 408.795Q162.347 408.164 161.315 407.392C154.126 401.983 134.635 376.524 128.114 368.497Z"/>
	<path fill="#131215" d="M115.926 62.8374C126.172 60.7633 135.402 61.2532 144.39 67.112C151.434 71.7039 155.391 78.1299 158.567 85.746C160.624 95.5985 160.435 104.149 159.786 114.115L184.455 138.135Q190.48 144.246 197.02 149.802C198.99 151.714 200.962 153.892 203.119 155.574C211.597 163.733 219.933 172.55 228.904 180.132Q263.64 213.408 299.334 245.655C304.819 250.613 310.52 257.709 316.831 261.522C328.438 271.577 341.351 280.213 352.817 290.422L253.442 290.516L253.479 276.974C230.85 276.938 208.079 277.438 185.468 276.818C183.186 276.46 180.767 276.591 178.458 276.576C170.501 275.799 163.094 274.315 155.428 272.066C152.996 271.571 150.393 270.448 148.025 269.652Q141.101 266.121 134.096 262.752C128.684 264.596 93.1886 263.12 84.7105 263.069L0 262.893L0 179.315L0 156.047L0 150.939L0 138.115L0 102.507L0 76.1508C6.8405 80.0144 12.1121 85.3696 18.1888 90.2472C28.2567 98.3284 40.9193 102.944 53.7726 99.49C60.3813 97.7138 65.4139 92.8381 71.7234 90.5943C67.9068 86.9629 58.1474 80.5571 56.6799 75.7247C56.9743 74.3904 57.2218 74.2573 58.2151 73.2861C66.0483 71.8553 74.4162 72.014 82.3666 72.0992L100.312 72.0266C104.705 67.7581 110.334 65.1489 115.926 62.8374Z"/>
	<path fill="#FEFEFE" d="M127.061 80.5543C128.973 80.4093 131.043 80.2908 132.895 80.8769C135.706 81.7659 138.172 83.9805 139.437 86.6282C140.586 89.0326 140.804 91.8684 139.872 94.3819C138.646 97.6894 136.013 99.6607 132.88 100.988C131.068 101.293 129.303 101.491 127.48 101.12C124.692 100.552 122.136 98.5934 120.741 96.1341Q120.469 95.6458 120.249 95.1317Q120.03 94.6176 119.865 94.0834Q119.7 93.5492 119.592 93.0007Q119.484 92.4521 119.434 91.8953Q119.385 91.3385 119.393 90.7795Q119.402 90.2206 119.469 89.6656Q119.536 89.1106 119.66 88.5656Q119.785 88.0206 119.966 87.4917C121.221 83.8564 123.712 82.1285 127.061 80.5543Z"/>
	<path fill="#131215" d="M126.876 85.878C128.056 85.7788 129.362 85.6343 130.447 86.2462C131.524 86.853 132.172 87.7182 132.32 88.956C132.492 90.3899 131.609 91.5567 130.828 92.6462C129.763 92.808 128.517 92.9894 127.494 92.5193C126.45 92.0399 125.683 91.2142 125.495 90.0606C125.231 88.4483 126.053 87.1679 126.876 85.878Z"/>
	<path fill="#FB5B22" d="M82.3666 72.0992L100.312 72.0266C102.293 74.4934 102.895 77.1922 102.558 80.3435C102.113 84.5064 100.42 89.7146 97.1397 92.4872C96.6097 92.9352 95.8192 93.4814 95.1076 93.395C92.1857 93.0401 61.7488 75.6932 58.2151 73.2861C66.0483 71.8553 74.4162 72.014 82.3666 72.0992Z"/>
	<path fill="#FB5B22" d="M128.588 163.98C129.522 164.035 131.166 164.067 132.016 164.5C132.226 164.607 133.075 165.154 133.258 165.42C134.232 166.836 135.719 173.749 136.535 176.018Q138.491 181.357 141.209 186.351C163.379 227.837 222.086 248.216 266.35 253.259Q275.846 254.281 285.391 254.609C290.289 254.782 299.03 254.077 303.428 255.421C304.031 256.029 304.639 256.558 304.84 257.433C305.305 259.462 304.185 261.371 303.207 263.041Q295.886 263.125 288.566 262.992C242.155 262.145 182.938 245.322 150.371 211.328C141.616 202.189 125.92 180.894 126.567 167.593C126.657 165.748 127.279 165.104 128.588 163.98Z"/>
	<path fill="#FEFEFE" d="M0 76.1508C6.8405 80.0144 12.1121 85.3696 18.1888 90.2472C28.2567 98.3284 40.9193 102.944 53.7726 99.49C60.3813 97.7138 65.4139 92.8381 71.7234 90.5943C76.3883 95.1091 81.1054 99.4487 86.1045 103.597C86.9195 104.331 88.1687 104.982 88.0117 106.226C87.5852 109.604 85.7891 113.045 85.15 116.448C83.9242 122.974 84.9283 131.377 85.0528 138.06L85.1805 151.159C85.2829 154.352 85.4755 157.572 85.3538 160.764L85.4318 179.567C86.0214 205.277 97.6733 231.52 116.262 249.288C121.72 254.505 127.56 258.98 134.096 262.752C128.684 264.596 93.1886 263.12 84.7105 263.069L0 262.893L0 179.315L0 156.047L0 150.939L0 138.115L0 102.507L0 76.1508Z"/>
	<path fill="#E87824" d="M0 138.115L85.0528 138.06L85.1805 151.159C85.2829 154.352 85.4755 157.572 85.3538 160.764L85.4318 179.567C77.5144 179.205 69.4701 179.537 61.5355 179.454Q30.769 178.849 0 179.315L0 156.047L0 150.939L0 138.115Z"/>
	<path fill="#FB5B22" d="M0 150.939C28.4119 150.816 56.7792 150.154 85.1805 151.159C85.2829 154.352 85.4755 157.572 85.3538 160.764C85.2085 159.197 85.0014 157.747 84.6238 156.218C79.0854 155.198 67.5836 156.114 61.3857 156.111L0 156.047L0 150.939Z"/>
	<path fill="#FC9F26" d="M0 138.115L85.0528 138.06L85.1805 151.159C56.7792 150.154 28.4119 150.816 0 150.939L0 138.115Z"/>
	<path fill="#E87824" d="M0 76.1508C6.8405 80.0144 12.1121 85.3696 18.1888 90.2472C28.2567 98.3284 40.9193 102.944 53.7726 99.49C60.3813 97.7138 65.4139 92.8381 71.7234 90.5943C76.3883 95.1091 81.1054 99.4487 86.1045 103.597C86.9195 104.331 88.1687 104.982 88.0117 106.226C87.5852 109.604 85.7891 113.045 85.15 116.448C83.9242 122.974 84.9283 131.377 85.0528 138.06L0 138.115L0 102.507L0 76.1508Z"/>
	<path fill="#FBB7A7" d="M0 76.1508C6.8405 80.0144 12.1121 85.3696 18.1888 90.2472C28.2567 98.3284 40.9193 102.944 53.7726 99.49C60.3813 97.7138 65.4139 92.8381 71.7234 90.5943C76.3883 95.1091 81.1054 99.4487 86.1045 103.597C74.4749 109.457 69.0807 116.334 54.9986 119.11C33.6612 123.316 17.0771 114.003 0 102.507L0 76.1508Z"/>
	<path fill="#FEFEFE" d="M398.103 223.798C403.017 222.168 407.823 222.376 412.913 222.405C412.942 246.299 412.249 270.382 412.967 294.247C432.576 277.028 458.656 271.108 484.134 276.224C490.774 277.558 496.945 281.021 503.679 281.838C512.554 282.915 522.591 281.733 531.551 281.477C538.985 281.265 546.521 281.565 553.925 281.036L554.474 280.993L602.202 280.964C610.682 280.959 619.302 280.689 627.769 281.082C639.099 281.174 650.78 281.56 662.073 280.886Q683.074 281.122 704.075 281.047C704.086 289.326 704.163 297.619 703.747 305.89C704.032 305.964 704.319 306.033 704.602 306.112C713.444 308.552 722.772 315.673 730.209 321.022C742.698 330.005 772.485 353.484 787.466 354.971C792.272 355.447 797.191 353.985 801.397 351.725C807.028 348.699 811.934 344.17 816.948 340.239C833.491 327.27 857.319 306.749 877.941 302.93C883.593 301.883 889.371 302.312 894.875 303.921C914.813 309.749 935.292 329.349 952.356 341.547C959.056 346.337 966.136 351.47 974.243 353.499C982.547 355.577 991.438 353.814 998.86 349.752C1008.06 344.716 1015.67 335.987 1024 329.54L1024 356.391L1024 392.785L1024 418.754L1024 434.827L1024 832.475L1024 1024L720.732 1024C726.776 1014.2 734.829 1005.4 741.671 996.105Q750.612 984.406 759.398 972.59C762.306 969.125 764.998 965.48 767.733 961.878C772.178 956.747 776.918 950.953 780.28 945.04C784.513 940.226 787.974 934.268 791.846 929.105C800.149 918.034 808.95 907.184 816.872 895.847C817.396 895.097 817.612 894.564 817.836 893.693C812.379 891.213 807.107 888.079 801.847 885.199C778.085 872.189 755.264 856.84 733.582 840.626L718.403 828.906C698.653 812.024 680.862 794.154 663.932 774.487C675.824 759.105 688.44 744.314 700.25 728.881C695.014 729.169 689.698 728.996 684.452 729.007Q665.159 729.221 645.867 728.974C620.957 729.728 595.678 729.17 570.748 729.015C559.038 717.501 547.801 705.474 536.46 693.598C526.542 683.212 516.377 672.951 506.964 662.103C502.418 658.261 498.313 653.077 494.226 648.708Q481.823 635.556 469.597 622.24C464.737 617.289 460.174 611.958 455.499 606.825C447.474 598.459 439.705 590.038 432.298 581.116C427.407 576.189 422.834 570.86 418.114 565.761C416.173 563.562 414.278 561.319 412.366 559.096Q404.586 551.024 396.546 543.212Q396.623 534.546 396.399 525.882L396.377 521.634C396.789 515.101 396.429 508.357 396.446 501.796L396.507 461.614L396.519 438.119C396.503 429.589 395.886 420.419 397.352 412.017C398.9 407.132 397.855 375.675 397.842 368.658C394.239 368.536 390.552 368.834 386.946 368.971C388.393 352.325 391.219 336.755 397.268 321.078C399.294 314.762 398.215 306.991 398.16 300.373C398.056 287.71 397.297 274.572 398.331 261.96C399.174 249.408 398.257 236.393 398.103 223.798Z"/>
	<path fill="#131215" d="M792.769 484.59C796.422 484.453 799.763 484.825 802.988 486.684Q803.645 487.059 804.261 487.498Q804.877 487.936 805.447 488.433Q806.017 488.931 806.535 489.482Q807.053 490.033 807.514 490.633Q807.975 491.233 808.374 491.875Q808.773 492.517 809.107 493.196Q809.441 493.875 809.706 494.583Q809.97 495.292 810.164 496.023C811.269 500.157 810.674 504.819 808.481 508.504C805.977 512.712 802.382 514.564 797.827 515.83C794.642 516.104 791.69 515.864 788.765 514.471C785.082 512.717 782.387 509.546 781.036 505.718Q780.763 504.958 780.569 504.174Q780.375 503.39 780.263 502.59Q780.15 501.791 780.119 500.984Q780.088 500.177 780.139 499.371Q780.191 498.565 780.324 497.769Q780.458 496.972 780.672 496.194Q780.885 495.415 781.178 494.662Q781.47 493.909 781.837 493.19C784.212 488.522 787.995 486.21 792.769 484.59Z"/>
	<path fill="#131215" d="M915.696 614.584C918.528 614.45 921.782 615.348 924.282 616.662Q924.93 617.005 925.541 617.411Q926.151 617.816 926.719 618.28Q927.287 618.744 927.806 619.261Q928.325 619.779 928.791 620.346Q929.256 620.912 929.664 621.522Q930.071 622.131 930.416 622.778Q930.761 623.425 931.04 624.103Q931.32 624.781 931.531 625.483Q931.654 625.871 931.757 626.266Q931.86 626.661 931.942 627.06Q932.024 627.459 932.085 627.862Q932.146 628.265 932.187 628.671Q932.227 629.077 932.245 629.484Q932.264 629.891 932.262 630.299Q932.259 630.707 932.235 631.114Q932.212 631.521 932.167 631.926Q932.122 632.331 932.056 632.734Q931.99 633.136 931.903 633.534Q931.816 633.932 931.708 634.326Q931.601 634.719 931.473 635.106Q931.344 635.493 931.196 635.873Q931.048 636.253 930.881 636.625Q930.713 636.996 930.526 637.359Q930.339 637.721 930.134 638.073C927.458 642.742 923.422 645.066 918.429 646.53C914.686 646.65 910.933 645.766 907.777 643.697C904.391 641.478 902.188 638.075 901.386 634.125Q901.221 633.316 901.136 632.496Q901.052 631.675 901.048 630.85Q901.045 630.024 901.123 629.203Q901.2 628.381 901.359 627.572Q901.517 626.762 901.754 625.971Q901.991 625.181 902.305 624.418Q902.618 623.654 903.006 622.926Q903.393 622.197 903.85 621.51C906.805 617.162 910.747 615.536 915.696 614.584Z"/>
	<path fill="#131215" d="M752.002 595.479C752.871 595.43 753.712 595.379 754.578 595.505C756.389 595.769 757.985 596.491 758.851 598.217C760.338 601.183 760.01 605.199 760.442 608.446Q760.681 610.245 761.032 612.025Q761.382 613.806 761.844 615.56Q762.306 617.315 762.877 619.038Q763.448 620.76 764.125 622.444Q764.803 624.127 765.584 625.764Q766.366 627.402 767.249 628.987Q768.132 630.573 769.112 632.1Q770.093 633.626 771.167 635.089C781.8 649.272 798.126 656.651 815.348 659.041C819.71 659.647 824.181 659.242 828.495 659.979C830.448 660.313 832.866 661.163 833.832 663.057C834.362 664.095 834.314 665.325 834.004 666.415C833.282 668.947 831.851 670.034 829.647 671.292C825.261 671.49 820.469 670.995 816.105 670.568C795.058 668.506 776.369 660.138 762.921 643.483C755 633.674 750.678 622.91 748.721 610.513C748.283 607.739 747.645 604.78 747.995 601.974C748.382 598.878 749.612 597.389 752.002 595.479Z"/>
	<path fill="#FC9F26" d="M864.527 529.061C866.803 528.93 869.129 528.905 871.177 530.059C874.129 531.723 875.113 534.808 876.084 537.838Q875.663 539.444 875.14 541.02C874.551 542.757 873.629 544.224 872.456 545.625C865.347 554.123 857.031 561.785 849.645 570.091L826.744 595.772C821.676 601.49 816.721 607.537 811.236 612.855C809.58 614.46 807.846 615.482 805.782 616.485C804.384 616.545 802.878 616.414 801.538 616.002C798.999 615.22 796.619 613.491 795.44 611.064C794.405 608.933 794.369 606.342 795.214 604.137C797.036 599.38 837.741 556.314 844.024 549.491C849.307 543.754 854.302 537.234 859.985 531.915C861.366 530.623 862.811 529.833 864.527 529.061Z"/>
	<path fill="#FBB7A7" d="M746.602 511.61C752.86 511.205 758.591 511.665 764.206 514.643C770.514 517.989 775.145 523.986 777.205 530.781Q777.411 531.437 777.582 532.102Q777.754 532.768 777.891 533.441Q778.029 534.114 778.132 534.794Q778.234 535.473 778.302 536.157Q778.37 536.841 778.403 537.527Q778.436 538.213 778.433 538.901Q778.431 539.588 778.394 540.274Q778.356 540.96 778.284 541.643Q778.211 542.327 778.104 543.005Q777.996 543.684 777.854 544.356Q777.712 545.029 777.536 545.693Q777.36 546.357 777.15 547.012Q776.94 547.666 776.697 548.309Q776.453 548.951 776.178 549.581Q775.902 550.21 775.594 550.825Q775.287 551.439 774.948 552.037C770.834 559.235 764.168 563.287 756.414 565.485C749.513 566.895 742.386 565.424 736.445 561.692C730.349 557.864 726.19 552.053 724.659 545.01C723.026 537.5 724.515 528.999 728.797 522.589C733.03 516.252 739.315 513.077 746.602 511.61Z"/>
	<path fill="#FBB7A7" d="M883.918 653.201C890.691 652.579 898.642 654.985 903.901 659.201C910.038 664.122 914.329 671.936 915.101 679.764C915.859 687.444 913.37 695.864 908.304 701.713C902.843 708.017 895.391 711.094 887.224 711.744C879.784 711.726 872.959 709.784 867.023 705.19Q866.443 704.75 865.887 704.281Q865.33 703.813 864.798 703.317Q864.266 702.82 863.759 702.298Q863.253 701.775 862.774 701.228Q862.294 700.68 861.843 700.109Q861.392 699.538 860.971 698.945Q860.549 698.351 860.159 697.737Q859.768 697.124 859.408 696.491Q859.049 695.858 858.722 695.208Q858.395 694.558 858.102 693.892Q857.808 693.226 857.549 692.546Q857.29 691.867 857.065 691.174Q856.84 690.482 856.651 689.78Q856.462 689.077 856.308 688.366Q856.154 687.654 856.037 686.936Q855.92 686.218 855.839 685.495C855 677.753 857.718 669.23 862.73 663.249C868.378 656.509 875.505 654.035 883.918 653.201Z"/>
	<path fill="#131215" d="M904.072 394.574C913.371 392.55 928.825 395.621 938.471 397.096C956.692 400.688 974.154 407.013 990.992 414.802C998.698 418.357 1005.68 422.609 1012.91 427.005Q1018.54 430.794 1024 434.827L1024 832.475C1014.87 832.588 1005.73 833.395 996.589 833.61C978.693 834.03 960.328 833.617 942.48 832.198C928.218 831.065 913.782 829.455 899.624 827.397C890.439 826.062 881.303 824.175 872.056 823.333C894.619 794.263 916.356 764.528 939.116 735.604C960.529 708.392 982.864 681.798 1003.7 654.141C1005.61 651.605 1008.74 647.509 1009.5 644.432Q1009.67 643.747 1009.8 643.053Q1009.94 642.36 1010.03 641.66Q1010.13 640.96 1010.18 640.256Q1010.24 639.552 1010.26 638.847Q1010.28 638.141 1010.26 637.435Q1010.24 636.729 1010.18 636.025Q1010.12 635.322 1010.02 634.622Q1009.93 633.923 1009.79 633.229Q1009.66 632.536 1009.48 631.851Q1009.31 631.167 1009.1 630.492Q1008.89 629.818 1008.65 629.155Q1008.4 628.493 1008.12 627.845Q1007.84 627.198 1007.53 626.566Q1007.21 625.935 1006.86 625.321Q1006.51 624.708 1006.13 624.114Q1005.74 623.521 1005.33 622.949C1000.79 616.618 987.02 606.696 980.578 600.84C957.798 580.133 941.194 559.085 926.531 531.964C909.04 499.61 900.988 461.317 900.952 424.738C900.943 414.61 901.146 404.335 904.072 394.574Z"/>
	<path fill="#E87824" d="M582.09 561.676C587.326 565.474 593.586 567.761 600.106 567.614C603.132 567.545 605.799 566.336 608.454 564.996C621.875 558.227 634.8 549.245 647.62 541.359C659.355 534.141 687.529 518.43 696.078 509.698C699.515 514.154 703.742 518.225 708.222 521.623Q704.788 529.541 701.533 537.534Q695.032 557.521 691.284 578.201C689.759 590.187 689.391 601.804 689.362 613.878C689.763 623.414 690.13 633.714 692.271 643.027Q693.645 651.455 696.068 659.643C699.795 676.406 708.358 691.612 718.029 705.634C717.162 706.903 716.325 708.206 715.362 709.404C711.527 714.382 707.895 719.835 703.773 724.545L700.25 728.881C695.014 729.169 689.698 728.996 684.452 729.007Q665.159 729.221 645.867 728.974C620.957 729.728 595.678 729.17 570.748 729.015C559.038 717.501 547.801 705.474 536.46 693.598C526.542 683.212 516.377 672.951 506.964 662.103C502.418 658.261 498.313 653.077 494.226 648.708Q481.823 635.556 469.597 622.24C464.737 617.289 460.174 611.958 455.499 606.825C447.474 598.459 439.705 590.038 432.298 581.116C436.933 577.479 443.02 574.666 448.119 571.597C467.273 560.068 488.144 549.749 505.665 535.844C509.65 538.997 516.276 544.486 521.291 545.348C527.712 553.445 535.821 560.647 545.561 564.476C548.402 565.593 551.549 566.026 554.478 566.905C564.176 567.508 573.337 565.934 582.09 561.676Z"/>
	<path fill="#FBB7A7" d="M494.226 648.708C498.969 646.453 504.276 642.034 509.7 642.027C512.211 642.024 514.842 643.08 517.073 644.148C523.739 647.34 530.063 651.754 536.324 655.688L568.949 676.329C576.982 681.412 587.351 689.723 597.036 690.3C600.48 690.505 603.964 689.651 607.136 688.359C613.363 685.822 619.235 681.878 624.992 678.429C638.191 670.519 651.017 662.023 664.149 654.005C670.989 649.828 678.616 644.463 686.579 642.838C688.505 642.445 690.352 642.731 692.271 643.027Q693.645 651.455 696.068 659.643C694.972 659.565 694.166 659.534 693.157 660.04C686.609 663.324 680.218 667.87 673.944 671.689Q654.673 683.49 635.208 694.968C628.54 698.924 621.711 703.601 614.477 706.404C609.666 708.268 604.332 709.174 599.179 709.198C579.433 709.288 556.801 691.503 540.522 681.414C533.671 677.167 526.495 673.456 519.654 669.208C516.529 667.267 510.297 661.798 506.964 662.103C502.418 658.261 498.313 653.077 494.226 648.708Z"/>
	<path fill="#E87824" d="M506.964 662.103C510.297 661.798 516.529 667.267 519.654 669.208C526.495 673.456 533.671 677.167 540.522 681.414C556.801 691.503 579.433 709.288 599.179 709.198C604.332 709.174 609.666 708.268 614.477 706.404C621.711 703.601 628.54 698.924 635.208 694.968Q654.673 683.49 673.944 671.689C680.218 667.87 686.609 663.324 693.157 660.04C694.166 659.534 694.972 659.565 696.068 659.643C699.795 676.406 708.358 691.612 718.029 705.634C717.162 706.903 716.325 708.206 715.362 709.404C711.527 714.382 707.895 719.835 703.773 724.545L700.25 728.881C695.014 729.169 689.698 728.996 684.452 729.007Q665.159 729.221 645.867 728.974C620.957 729.728 595.678 729.17 570.748 729.015C559.038 717.501 547.801 705.474 536.46 693.598C526.542 683.212 516.377 672.951 506.964 662.103Z"/>
	<path fill="#FBB7A7" d="M645.867 728.974C649.295 724.81 682.225 705.471 688.295 703.454C697.86 700.276 707.005 705.296 715.362 709.404C711.527 714.382 707.895 719.835 703.773 724.545L700.25 728.881C695.014 729.169 689.698 728.996 684.452 729.007Q665.159 729.221 645.867 728.974Z"/>
	<path fill="#E87824" d="M696.635 721.867C699.203 722.567 701.45 723.178 703.773 724.545L700.25 728.881C695.014 729.169 689.698 728.996 684.452 729.007C687.605 725.744 692.521 723.651 696.635 721.867Z"/>
	<path fill="#E87824" d="M582.09 561.676C587.326 565.474 593.586 567.761 600.106 567.614C603.132 567.545 605.799 566.336 608.454 564.996C621.875 558.227 634.8 549.245 647.62 541.359C659.355 534.141 687.529 518.43 696.078 509.698C699.515 514.154 703.742 518.225 708.222 521.623Q704.788 529.541 701.533 537.534Q695.032 557.521 691.284 578.201C689.759 590.187 689.391 601.804 689.362 613.878C687.93 611.279 688.877 604.053 688.946 600.912C673.82 610.472 658.526 619.688 643.257 629.01C632.986 635.28 622.095 643.621 610.58 647.24C603.98 649.314 596.792 649.265 590.087 647.706C586.664 646.909 583.407 645.614 580.274 644.034C564.795 636.228 549.864 626.204 535.231 616.874C525.672 610.779 515.405 605.285 507.045 597.532C498.714 606.862 480.545 614.274 469.597 622.24C464.737 617.289 460.174 611.958 455.499 606.825C447.474 598.459 439.705 590.038 432.298 581.116C436.933 577.479 443.02 574.666 448.119 571.597C467.273 560.068 488.144 549.749 505.665 535.844C509.65 538.997 516.276 544.486 521.291 545.348C527.712 553.445 535.821 560.647 545.561 564.476C548.402 565.593 551.549 566.026 554.478 566.905C564.176 567.508 573.337 565.934 582.09 561.676Z"/>
	<path fill="#FBB7A7" d="M582.09 561.676C587.326 565.474 593.586 567.761 600.106 567.614C603.132 567.545 605.799 566.336 608.454 564.996C621.875 558.227 634.8 549.245 647.62 541.359C659.355 534.141 687.529 518.43 696.078 509.698C699.515 514.154 703.742 518.225 708.222 521.623Q704.788 529.541 701.533 537.534C699.848 535.657 697.985 533.807 696.517 531.758C693.33 535.165 689.979 538.007 686.207 540.751C672.734 550.552 657.88 558.809 643.574 567.334C633.489 573.344 623.172 580.459 612.269 584.765C608.038 586.436 603.566 587.055 599.044 587.199C586.568 587.596 576.082 580.74 565.919 574.343C562.097 571.937 558.09 569.616 554.478 566.905C564.176 567.508 573.337 565.934 582.09 561.676Z"/>
	<path fill="#FBB7A7" d="M455.499 606.825C461.454 603.061 500.088 578.685 505.235 578.09C507.494 577.828 509.916 578.547 511.983 579.385C518.656 582.092 525.179 586.836 531.325 590.599L571.152 615.392C576.988 619.091 583.02 623.619 589.392 626.275C592.801 627.696 596.683 628.466 600.379 628.094C604.133 627.717 607.839 626.159 611.198 624.516C618.355 621.015 625.106 616.201 631.935 612.071L672.566 587.761C677.964 584.538 684.601 579.286 690.761 578.279C690.935 578.25 691.11 578.227 691.284 578.201C689.759 590.187 689.391 601.804 689.362 613.878C687.93 611.279 688.877 604.053 688.946 600.912C673.82 610.472 658.526 619.688 643.257 629.01C632.986 635.28 622.095 643.621 610.58 647.24C603.98 649.314 596.792 649.265 590.087 647.706C586.664 646.909 583.407 645.614 580.274 644.034C564.795 636.228 549.864 626.204 535.231 616.874C525.672 610.779 515.405 605.285 507.045 597.532C498.714 606.862 480.545 614.274 469.597 622.24C464.737 617.289 460.174 611.958 455.499 606.825Z"/>
	<path fill="#011B42" d="M872.056 823.333C881.303 824.175 890.439 826.062 899.624 827.397C913.782 829.455 928.218 831.065 942.48 832.198C960.328 833.617 978.693 834.03 996.589 833.61C1005.73 833.395 1014.87 832.588 1024 832.475L1024 1024L720.732 1024C726.776 1014.2 734.829 1005.4 741.671 996.105Q750.612 984.406 759.398 972.59C762.306 969.125 764.998 965.48 767.733 961.878C772.178 956.747 776.918 950.953 780.28 945.04C784.513 940.226 787.974 934.268 791.846 929.105C800.149 918.034 808.95 907.184 816.872 895.847C817.396 895.097 817.612 894.564 817.836 893.693C820.784 891.918 864.28 833.302 872.056 823.333Z"/>
	<path fill="#E87824" d="M703.747 305.89C704.032 305.964 704.319 306.033 704.602 306.112C713.444 308.552 722.772 315.673 730.209 321.022C742.698 330.005 772.485 353.484 787.466 354.971C792.272 355.447 797.191 353.985 801.397 351.725C807.028 348.699 811.934 344.17 816.948 340.239C833.491 327.27 857.319 306.749 877.941 302.93C883.593 301.883 889.371 302.312 894.875 303.921C914.813 309.749 935.292 329.349 952.356 341.547C959.056 346.337 966.136 351.47 974.243 353.499C982.547 355.577 991.438 353.814 998.86 349.752C1008.06 344.716 1015.67 335.987 1024 329.54L1024 356.391L1024 392.785L1024 418.754L1024 434.827Q1018.54 430.794 1012.91 427.005C1005.68 422.609 998.698 418.357 990.992 414.802C974.154 407.013 956.692 400.688 938.471 397.096C928.825 395.621 913.371 392.55 904.072 394.574C901.667 394.497 899.271 394.279 896.873 394.087C885.083 394.529 873.936 395.811 862.389 398.183C840.541 404.516 818.268 410.883 798.57 422.692C790.528 427.513 783.413 433.839 775.48 438.664C764.124 447.235 754.4 456.189 744.442 466.319C739.881 471.513 735.593 476.856 731.312 482.281C722.402 495.068 714.67 507.396 708.222 521.623C703.742 518.225 699.515 514.154 696.078 509.698C687.529 518.43 659.355 534.141 647.62 541.359C634.8 549.245 621.875 558.227 608.454 564.996C605.799 566.336 603.132 567.545 600.106 567.614C593.586 567.761 587.326 565.474 582.09 561.676C573.337 565.934 564.176 567.508 554.478 566.905C551.549 566.026 548.402 565.593 545.561 564.476C535.821 560.647 527.712 553.445 521.291 545.348C515.67 535.265 513.006 527.279 512.942 515.656C513.362 503.609 518.467 493.701 525.593 484.239C530.838 478.754 536.594 473.905 543.568 470.807L548.568 469.191C548.514 464.743 548.289 460.157 548.836 455.739L548.887 468.94C557.234 467.588 565.479 467.389 573.846 468.771L573.944 448.904C573.834 441.48 573.987 434.031 574.013 426.605C581.974 429.029 590.108 438.552 598.674 438.186C601.584 438.061 604.428 437.142 607.067 435.948C613.649 432.971 640.39 416.667 644.644 411.966C653.929 411.707 665.116 413.503 673.779 409.442C679.119 406.94 683.312 402.544 685.318 396.972C687.653 390.486 686.48 384.494 683.62 378.476C682.572 377.04 681.505 375.646 680.241 374.389C672.755 366.945 663.992 367.948 654.351 368.061C657.07 364.748 660.938 361.9 664.099 358.976C668.328 355.065 684.311 339.854 685.786 335.749C685.808 335.72 685.825 335.686 685.853 335.662C690.819 331.249 694.671 327.062 698.415 321.531C700.874 316.366 702.551 311.486 703.747 305.89Z"/>
	<path fill="#FBB7A7" d="M1024 392.785L1024 418.754L1024 434.827Q1018.54 430.794 1012.91 427.005C1005.68 422.609 998.698 418.357 990.992 414.802C995.823 411.022 1002.6 409.723 1007.8 406.265C1013.48 402.488 1017.89 396.988 1023.51 393.112C1023.67 393.001 1023.84 392.894 1024 392.785Z"/>
	<path fill="#E87824" d="M1024 418.754L1024 434.827Q1018.54 430.794 1012.91 427.005C1017.14 425.137 1020.66 421.876 1024 418.754Z"/>
	<path fill="#FBB7A7" d="M683.62 378.476C690.494 374.375 699.362 372.27 707.189 374.226C715.633 376.337 722.939 381.7 730.082 386.434C742.928 394.947 772.35 417.223 786.774 418.317C793.688 418.841 800.542 416.127 806.412 412.705C830.376 398.735 863.729 359.834 893.67 367.764C906.014 371.033 917.35 381.048 927.361 388.641C931.025 391.42 935.008 394.085 938.471 397.096C928.825 395.621 913.371 392.55 904.072 394.574C901.667 394.497 899.271 394.279 896.873 394.087C885.083 394.529 873.936 395.811 862.389 398.183C840.541 404.516 818.268 410.883 798.57 422.692C790.528 427.513 783.413 433.839 775.48 438.664L774.675 438.165C769.184 434.834 762.943 432.355 757.302 429.157C738.367 418.422 716.886 403.868 701.58 388.373C697.654 394.285 693.5 399.581 688.249 404.379C675.684 415.86 619.104 455.645 605.544 458.298C596.24 460.118 584.881 456.938 577.221 451.536C576.079 450.73 575.006 449.814 573.944 448.904C573.834 441.48 573.987 434.031 574.013 426.605C581.974 429.029 590.108 438.552 598.674 438.186C601.584 438.061 604.428 437.142 607.067 435.948C613.649 432.971 640.39 416.667 644.644 411.966C653.929 411.707 665.116 413.503 673.779 409.442C679.119 406.94 683.312 402.544 685.318 396.972C687.653 390.486 686.48 384.494 683.62 378.476Z"/>
	<path fill="#E87824" d="M884.717 380.328C890.166 384.714 895.759 389.005 901.019 393.613C899.701 393.954 898.231 393.964 896.873 394.087C885.083 394.529 873.936 395.811 862.389 398.183C863.809 395.726 881.122 382.904 884.717 380.328Z"/>
	<path fill="#FBB7A7" d="M703.747 305.89C704.032 305.964 704.319 306.033 704.602 306.112C713.444 308.552 722.772 315.673 730.209 321.022C742.698 330.005 772.485 353.484 787.466 354.971C792.272 355.447 797.191 353.985 801.397 351.725C807.028 348.699 811.934 344.17 816.948 340.239C833.491 327.27 857.319 306.749 877.941 302.93C883.593 301.883 889.371 302.312 894.875 303.921C914.813 309.749 935.292 329.349 952.356 341.547C959.056 346.337 966.136 351.47 974.243 353.499C982.547 355.577 991.438 353.814 998.86 349.752C1008.06 344.716 1015.67 335.987 1024 329.54L1024 356.391C1012.9 365.57 1001.48 372.466 986.915 374.378Q985.305 374.586 983.685 374.691Q982.065 374.796 980.442 374.797Q978.819 374.799 977.199 374.698Q975.579 374.597 973.969 374.393Q972.358 374.189 970.764 373.884Q969.17 373.578 967.598 373.172Q966.027 372.766 964.484 372.26Q962.942 371.755 961.434 371.153C945.97 365.04 931.866 352.778 918.636 342.854Q901.161 329.979 883.91 316.806C874.702 324.171 864.982 330.947 855.595 338.089C841.249 349.005 820.573 366.708 804.667 373.524C798.747 376.061 792.428 376.89 786.02 376.603C779.937 376.331 774.319 374.742 768.812 372.17C753.458 364.999 709.492 333.533 698.415 321.531C700.874 316.366 702.551 311.486 703.747 305.89Z"/>
	<path fill="#E87824" d="M701.58 388.373C716.886 403.868 738.367 418.422 757.302 429.157C762.943 432.355 769.184 434.834 774.675 438.165L775.48 438.664C764.124 447.235 754.4 456.189 744.442 466.319C739.881 471.513 735.593 476.856 731.312 482.281C722.402 495.068 714.67 507.396 708.222 521.623C703.742 518.225 699.515 514.154 696.078 509.698C687.529 518.43 659.355 534.141 647.62 541.359C634.8 549.245 621.875 558.227 608.454 564.996C605.799 566.336 603.132 567.545 600.106 567.614C593.586 567.761 587.326 565.474 582.09 561.676C573.337 565.934 564.176 567.508 554.478 566.905C551.549 566.026 548.402 565.593 545.561 564.476C535.821 560.647 527.712 553.445 521.291 545.348C515.67 535.265 513.006 527.279 512.942 515.656C513.362 503.609 518.467 493.701 525.593 484.239C530.838 478.754 536.594 473.905 543.568 470.807L548.568 469.191C548.514 464.743 548.289 460.157 548.836 455.739L548.887 468.94C557.234 467.588 565.479 467.389 573.846 468.771L573.944 448.904C575.006 449.814 576.079 450.73 577.221 451.536C584.881 456.938 596.24 460.118 605.544 458.298C619.104 455.645 675.684 415.86 688.249 404.379C693.5 399.581 697.654 394.285 701.58 388.373Z"/>
	<path fill="#FBB7A7" d="M607.665 501.861C610.856 498.38 624.384 491.553 629.476 488.485C638.837 482.846 648.117 477.05 657.384 471.257C668.752 464.149 679.786 456.204 691.409 449.551C694.002 448.066 696.849 446.824 699.779 446.204C713.986 443.197 733.041 458.642 744.442 466.319C739.881 471.513 735.593 476.856 731.312 482.281C721.145 476.306 708.342 468.648 701.042 459.334C697.67 464.504 694.246 469.569 689.569 473.664C679.437 482.534 666.139 489.413 654.712 496.504C639.801 505.757 624.996 515.766 609.391 523.809C609.887 516.158 609.698 509.276 607.665 501.861Z"/>
	<path fill="#E87824" d="M701.042 459.334C708.342 468.648 721.145 476.306 731.312 482.281C722.402 495.068 714.67 507.396 708.222 521.623C703.742 518.225 699.515 514.154 696.078 509.698C687.529 518.43 659.355 534.141 647.62 541.359C634.8 549.245 621.875 558.227 608.454 564.996C605.799 566.336 603.132 567.545 600.106 567.614C593.586 567.761 587.326 565.474 582.09 561.676C584.308 560.317 586.554 558.967 588.684 557.471C600.491 549.179 607.026 537.898 609.391 523.809C624.996 515.766 639.801 505.757 654.712 496.504C666.139 489.413 679.437 482.534 689.569 473.664C694.246 469.569 697.67 464.504 701.042 459.334Z"/>
	<path fill="#EF6723" d="M548.568 469.191C548.514 464.743 548.289 460.157 548.836 455.739L548.887 468.94C557.234 467.588 565.479 467.389 573.846 468.771C586.898 473.071 598.457 482.264 604.708 494.663C605.837 496.903 607.052 499.425 607.665 501.861C609.698 509.276 609.887 516.158 609.391 523.809C607.026 537.898 600.491 549.179 588.684 557.471C586.554 558.967 584.308 560.317 582.09 561.676C573.337 565.934 564.176 567.508 554.478 566.905C551.549 566.026 548.402 565.593 545.561 564.476C535.821 560.647 527.712 553.445 521.291 545.348C515.67 535.265 513.006 527.279 512.942 515.656C513.362 503.609 518.467 493.701 525.593 484.239C530.838 478.754 536.594 473.905 543.568 470.807L548.568 469.191Z"/>
	<path fill="#011B42" d="M559.48 500.107C562.54 499.968 565.939 500.821 568.59 502.348C572.418 504.551 575.059 508.341 576.111 512.598C577.245 517.188 576.618 522.302 573.977 526.273C571.134 530.547 566.945 532.226 562.107 533.164C558.384 533.154 555.15 532.771 551.897 530.805Q551.214 530.394 550.575 529.916Q549.937 529.439 549.349 528.901Q548.761 528.362 548.23 527.767Q547.699 527.173 547.229 526.528Q546.76 525.883 546.358 525.195Q545.955 524.507 545.623 523.782Q545.291 523.057 545.033 522.303Q544.775 521.548 544.594 520.772C543.586 516.441 544.571 511.81 546.929 508.076C549.912 503.352 554.149 501.179 559.48 500.107Z"/>
	<path fill="#EF6723" d="M398.103 223.798C403.017 222.168 407.823 222.376 412.913 222.405C412.942 246.299 412.249 270.382 412.967 294.247C432.576 277.028 458.656 271.108 484.134 276.224C490.774 277.558 496.945 281.021 503.679 281.838C512.554 282.915 522.591 281.733 531.551 281.477C538.985 281.265 546.521 281.565 553.925 281.036L554.474 280.993L602.202 280.964C610.682 280.959 619.302 280.689 627.769 281.082C639.099 281.174 650.78 281.56 662.073 280.886Q683.074 281.122 704.075 281.047C704.086 289.326 704.163 297.619 703.747 305.89C702.551 311.486 700.874 316.366 698.415 321.531C694.671 327.062 690.819 331.249 685.853 335.662C685.825 335.686 685.808 335.72 685.786 335.749C684.311 339.854 668.328 355.065 664.099 358.976C660.938 361.9 657.07 364.748 654.351 368.061C663.992 367.948 672.755 366.945 680.241 374.389C681.505 375.646 682.572 377.04 683.62 378.476C686.48 384.494 687.653 390.486 685.318 396.972C683.312 402.544 679.119 406.94 673.779 409.442C665.116 413.503 653.929 411.707 644.644 411.966C640.39 416.667 613.649 432.971 607.067 435.948C604.428 437.142 601.584 438.061 598.674 438.186C590.108 438.552 581.974 429.029 574.013 426.605C573.987 434.031 573.834 441.48 573.944 448.904L573.846 468.771C565.479 467.389 557.234 467.588 548.887 468.94L548.836 455.739C548.289 460.157 548.514 464.743 548.568 469.191L543.568 470.807C536.594 473.905 530.838 478.754 525.593 484.239C518.467 493.701 513.362 503.609 512.942 515.656C513.006 527.279 515.67 535.265 521.291 545.348C516.276 544.486 509.65 538.997 505.665 535.844C488.144 549.749 467.273 560.068 448.119 571.597C443.02 574.666 436.933 577.479 432.298 581.116C427.407 576.189 422.834 570.86 418.114 565.761C416.173 563.562 414.278 561.319 412.366 559.096Q404.586 551.024 396.546 543.212Q396.623 534.546 396.399 525.882L396.377 521.634C396.789 515.101 396.429 508.357 396.446 501.796L396.507 461.614L396.519 438.119C396.503 429.589 395.886 420.419 397.352 412.017C398.9 407.132 397.855 375.675 397.842 368.658C394.239 368.536 390.552 368.834 386.946 368.971C388.393 352.325 391.219 336.755 397.268 321.078C399.294 314.762 398.215 306.991 398.16 300.373C398.056 287.71 397.297 274.572 398.331 261.96C399.174 249.408 398.257 236.393 398.103 223.798Z"/>
	<path fill="#FBB7A7" d="M685.786 335.749C684.311 339.854 668.328 355.065 664.099 358.976C660.938 361.9 657.07 364.748 654.351 368.061L653.6 368.135C643.489 367.706 633.282 368.268 623.148 368.017C644.565 358.083 666.037 348.901 685.786 335.749Z"/>
	<path fill="#011B42" d="M654.351 368.061C663.992 367.948 672.755 366.945 680.241 374.389C681.505 375.646 682.572 377.04 683.62 378.476C686.48 384.494 687.653 390.486 685.318 396.972C683.312 402.544 679.119 406.94 673.779 409.442C665.116 413.503 653.929 411.707 644.644 411.966C640.39 416.667 613.649 432.971 607.067 435.948C604.428 437.142 601.584 438.061 598.674 438.186C590.108 438.552 581.974 429.029 574.013 426.605C573.987 434.031 573.834 441.48 573.944 448.904L573.846 468.771C565.479 467.389 557.234 467.588 548.887 468.94L548.836 455.739Q548.955 444.537 548.886 433.334C545.664 433.057 517.942 415.425 514.132 411.978L503.091 411.959L464.503 411.996L412.982 411.933C413.585 407.031 413.216 401.626 413.224 396.673Q413.184 382.548 413.374 368.425C462.586 369.06 511.876 368.445 561.095 368.44L620.205 368.431C631.302 368.417 642.525 368.744 653.6 368.135L654.351 368.061Z"/>
	<path fill="#FBB7A7" d="M514.132 411.978C525.727 411.978 537.335 411.859 548.928 411.992L548.886 433.334C545.664 433.057 517.942 415.425 514.132 411.978Z"/>
	<path fill="#E87824" d="M574.005 411.948L644.644 411.966C640.39 416.667 613.649 432.971 607.067 435.948C604.428 437.142 601.584 438.061 598.674 438.186C590.108 438.552 581.974 429.029 574.013 426.605L574.005 411.948Z"/>
	<path fill="#E87824" d="M412.982 411.933L464.503 411.996L503.091 411.959L514.132 411.978C517.942 415.425 545.664 433.057 548.886 433.334Q548.955 444.537 548.836 455.739C548.289 460.157 548.514 464.743 548.568 469.191L543.568 470.807C536.594 473.905 530.838 478.754 525.593 484.239C518.467 493.701 513.362 503.609 512.942 515.656C513.006 527.279 515.67 535.265 521.291 545.348C516.276 544.486 509.65 538.997 505.665 535.844C488.144 549.749 467.273 560.068 448.119 571.597C443.02 574.666 436.933 577.479 432.298 581.116C427.407 576.189 422.834 570.86 418.114 565.761C416.173 563.562 414.278 561.319 412.366 559.096C413.893 550.134 412.887 538.2 412.949 528.914L412.926 506.917C412.034 485.012 412.529 462.926 412.509 440.996C412.503 434.113 411.549 417.796 412.982 411.933Z"/>
	<path fill="#FBB7A7" d="M464.503 411.996L503.091 411.959C496.008 417.343 488.361 422.086 480.889 426.909Q459.51 440.649 437.78 453.828C433.144 456.675 423.113 463.907 418.266 465.339C416.815 465.767 414.561 466.318 413.19 465.559C412.169 458.699 412.833 450.982 412.84 444.019C419.712 440.888 460.785 416.069 464.503 411.996Z"/>
	<path fill="#FBB7A7" d="M412.926 506.917Q442.445 489.811 471.331 471.657C479.426 466.651 495.347 455.479 503.565 452.558C504.543 452.211 505.449 451.983 506.497 452.052C512.602 452.452 536.307 467.203 543.568 470.807C536.594 473.905 530.838 478.754 525.593 484.239C518.301 481.353 511.746 477.415 505.174 473.173C496.318 480.562 422.219 526.765 412.949 528.914L412.926 506.917Z"/>
	<path fill="#E87824" d="M505.174 473.173C511.746 477.415 518.301 481.353 525.593 484.239C518.467 493.701 513.362 503.609 512.942 515.656C513.006 527.279 515.67 535.265 521.291 545.348C516.276 544.486 509.65 538.997 505.665 535.844C488.144 549.749 467.273 560.068 448.119 571.597C443.02 574.666 436.933 577.479 432.298 581.116C427.407 576.189 422.834 570.86 418.114 565.761C416.173 563.562 414.278 561.319 412.366 559.096C413.893 550.134 412.887 538.2 412.949 528.914C422.219 526.765 496.318 480.562 505.174 473.173Z"/>
	<path fill="#FBB7A7" d="M418.114 565.761C429.509 560.664 440.089 553.604 450.704 547.098C461.465 540.502 472.468 534.363 483.276 527.861C489.003 524.415 494.418 520.426 500.192 517.068C505.258 514.121 507.406 514.165 512.942 515.656C513.006 527.279 515.67 535.265 521.291 545.348C516.276 544.486 509.65 538.997 505.665 535.844C488.144 549.749 467.273 560.068 448.119 571.597C443.02 574.666 436.933 577.479 432.298 581.116C427.407 576.189 422.834 570.86 418.114 565.761Z"/>
	<path fill="#131215" d="M263.276 404.636C265.213 406.991 267.146 410.007 269.415 411.995Q277.301 420.42 284.955 429.056C290.08 426.594 295.122 424.005 299.977 421.039C305.034 417.951 309.999 414.423 315.368 411.913L323.144 411.906L354.014 412.019L397.352 412.017C395.886 420.419 396.503 429.589 396.519 438.119L396.507 461.614L396.446 501.796C396.429 508.357 396.789 515.101 396.377 521.634L396.399 525.882Q396.623 534.546 396.546 543.212Q404.586 551.024 412.366 559.096C414.278 561.319 416.173 563.562 418.114 565.761C422.834 570.86 427.407 576.189 432.298 581.116C439.705 590.038 447.474 598.459 455.499 606.825C460.174 611.958 464.737 617.289 469.597 622.24Q481.823 635.556 494.226 648.708C498.313 653.077 502.418 658.261 506.964 662.103C516.377 672.951 526.542 683.212 536.46 693.598C547.801 705.474 559.038 717.501 570.748 729.015C595.678 729.17 620.957 729.728 645.867 728.974Q665.159 729.221 684.452 729.007C689.698 728.996 695.014 729.169 700.25 728.881C688.44 744.314 675.824 759.105 663.932 774.487C680.862 794.154 698.653 812.024 718.403 828.906L733.582 840.626C755.264 856.84 778.085 872.189 801.847 885.199C807.107 888.079 812.379 891.213 817.836 893.693C817.612 894.564 817.396 895.097 816.872 895.847C808.95 907.184 800.149 918.034 791.846 929.105C787.974 934.268 784.513 940.226 780.28 945.04C776.918 950.953 772.178 956.747 767.733 961.878C764.998 965.48 762.306 969.125 759.398 972.59Q750.612 984.406 741.671 996.105C734.829 1005.4 726.776 1014.2 720.732 1024L190.031 1024L0 1024L0 728.715L0 696.908L0 673.115L0 629.105L0 606.259L0 565.056L0 542.438L0 502.573L0 479.352L0 439.284L0 416.511L0 411.071C8.86942 411.005 84.6919 411.541 86.05 410.712L86.2465 409.636L86.7432 415.118C88.5203 422.045 89.955 428.736 92.4766 435.486C96.9808 446.035 102.971 456.292 111.313 464.277C116.342 469.023 121.495 473.466 127.008 477.653C128.478 478.586 130.258 479.48 131.576 480.595Q138.488 484.772 145.539 488.71C151.529 491.789 157.509 494.924 163.598 497.803C172.143 491.006 180.604 481.83 188.564 474.194L239.062 426.1C246.743 418.928 254.575 410.535 263.276 404.636Z"/>
	<path fill="#FBB7A7" d="M136.581 700.47C138.24 700.972 139.736 701.428 141.233 702.314C142.362 703.678 142.32 704.983 142.444 706.666C142.446 710.313 142.35 713.989 142.458 717.632L142.381 728.682C147.256 728.225 152.43 728.578 157.338 728.582L157.505 720.561C161.182 723.203 165.309 726.593 169.417 728.46C176.054 728.524 183.573 727.968 190.107 729.065L190.021 925.95L190.044 981.957C190.041 992.047 189.764 1002.22 190.093 1012.3L190.031 1024L0 1024L0 728.715Q32.7709 729.095 65.5417 728.726C72.427 728.669 84.8164 729.553 91.0589 727.907C105.672 718.32 120.889 708.167 136.581 700.47Z"/>
	<path fill="#E87824" d="M129.465 728.001C133.382 725.04 140.922 722.545 142.458 717.632L142.381 728.682C138.081 728.063 133.799 728.053 129.465 728.001Z"/>
	<path fill="#19A595" d="M263.276 404.636C265.213 406.991 267.146 410.007 269.415 411.995Q277.301 420.42 284.955 429.056C290.08 426.594 295.122 424.005 299.977 421.039C305.034 417.951 309.999 414.423 315.368 411.913L323.144 411.906L354.014 412.019L397.352 412.017C395.886 420.419 396.503 429.589 396.519 438.119L396.507 461.614L396.446 501.796C396.429 508.357 396.789 515.101 396.377 521.634L396.399 525.882Q396.623 534.546 396.546 543.212Q404.586 551.024 412.366 559.096C414.278 561.319 416.173 563.562 418.114 565.761C422.834 570.86 427.407 576.189 432.298 581.116C439.705 590.038 447.474 598.459 455.499 606.825C460.174 611.958 464.737 617.289 469.597 622.24Q481.823 635.556 494.226 648.708C498.313 653.077 502.418 658.261 506.964 662.103C516.377 672.951 526.542 683.212 536.46 693.598C547.801 705.474 559.038 717.501 570.748 729.015L369.09 728.968C356.811 728.962 343.859 729.813 331.667 728.63Q322.723 728.929 313.775 728.871C307.491 729.003 301.175 728.847 294.888 728.818C286.387 729.154 277.757 728.856 269.242 728.861L218.132 728.867C209.044 728.856 199.679 728.259 190.634 728.946L190.107 729.065C183.573 727.968 176.054 728.524 169.417 728.46C165.309 726.593 161.182 723.203 157.505 720.561L157.338 728.582C152.43 728.578 147.256 728.225 142.381 728.682L142.458 717.632C142.35 713.989 142.446 710.313 142.444 706.666C142.32 704.983 142.362 703.678 141.233 702.314C139.736 701.428 138.24 700.972 136.581 700.47C120.889 708.167 105.672 718.32 91.0589 727.907C84.8164 729.553 72.427 728.669 65.5417 728.726Q32.7709 729.095 0 728.715L0 696.908L0 673.115L0 629.105L0 606.259L0 565.056L0 542.438L0 502.573L0 479.352L0 439.284L0 416.511L0 411.071C8.86942 411.005 84.6919 411.541 86.05 410.712L86.2465 409.636L86.7432 415.118C88.5203 422.045 89.955 428.736 92.4766 435.486C96.9808 446.035 102.971 456.292 111.313 464.277C116.342 469.023 121.495 473.466 127.008 477.653C128.478 478.586 130.258 479.48 131.576 480.595Q138.488 484.772 145.539 488.71C151.529 491.789 157.509 494.924 163.598 497.803C172.143 491.006 180.604 481.83 188.564 474.194L239.062 426.1C246.743 418.928 254.575 410.535 263.276 404.636Z"/>
	<path fill="#E87824" d="M344.551 493.656C345.108 493.634 345.679 493.465 346.222 493.591C348.328 494.083 380.111 515.293 384.808 518.44C387.629 520.33 393.583 525.291 396.399 525.882Q396.623 534.546 396.546 543.212Q380.11 527.88 363.921 512.289C357.431 506.126 350.704 500.158 344.551 493.656Z"/>
	<path fill="#E87824" d="M145.539 488.71C151.529 491.789 157.509 494.924 163.598 497.803L159.825 501.327C166.177 509.104 173.257 516.349 180.128 523.672Q195.084 539.614 209.782 555.793C208.123 555.646 206.796 555.19 205.321 554.406C195.478 549.174 185.98 542.821 176.386 537.105C165.335 530.521 153.983 524.389 142.99 517.731C142.924 507.769 143.522 498.508 145.539 488.71Z"/>
	<path fill="#FBB7A7" d="M142.99 517.731C153.983 524.389 165.335 530.521 176.386 537.105C185.98 542.821 195.478 549.174 205.321 554.406C206.796 555.19 208.123 555.646 209.782 555.793C218.434 564.824 226.572 574.304 235.105 583.436C229.336 584.634 223.757 584.926 218.005 583.422C209.096 581.093 200.648 575.075 192.767 570.42L160.122 550.863C155.212 547.936 150.615 543.9 145.095 542.185C143.455 534.257 142.998 525.813 142.99 517.731Z"/>
	<path fill="#E87824" d="M145.095 542.185C150.615 543.9 155.212 547.936 160.122 550.863L192.767 570.42C200.648 575.075 209.096 581.093 218.005 583.422C223.757 584.926 229.336 584.634 235.105 583.436C243.464 592.448 251.789 601.55 260.45 610.271C248.93 616.124 237.759 624.93 225.157 628.207C217.96 625.716 211.163 621.043 204.588 617.225Q189.366 608.479 174.38 599.336C170.209 596.737 159.167 588.644 154.718 587.901C151.25 572.869 147.576 557.392 145.095 542.185Z"/>
	<path fill="#E87824" d="M315.368 411.913L323.144 411.906L354.014 412.019L397.352 412.017C395.886 420.419 396.503 429.589 396.519 438.119L396.507 461.614L396.446 501.796C396.429 508.357 396.789 515.101 396.377 521.634L396.399 525.882C393.583 525.291 387.629 520.33 384.808 518.44C380.111 515.293 348.328 494.083 346.222 493.591C345.679 493.465 345.108 493.634 344.551 493.656C340.647 490.737 337.065 486.221 333.64 482.673C324.928 473.649 316.358 464.651 308.062 455.239Q296.226 442.397 284.955 429.056C290.08 426.594 295.122 424.005 299.977 421.039C305.034 417.951 309.999 414.423 315.368 411.913Z"/>
	<path fill="#FBB7A7" d="M314.128 452.682C326.048 456.849 337.213 465.281 347.935 471.918C363.764 481.717 379.765 491.605 396.12 500.49C396.118 507.484 395.814 514.667 396.377 521.634L396.399 525.882C393.583 525.291 387.629 520.33 384.808 518.44C380.111 515.293 348.328 494.083 346.222 493.591C345.679 493.465 345.108 493.634 344.551 493.656C340.647 490.737 337.065 486.221 333.64 482.673C324.928 473.649 316.358 464.651 308.062 455.239C310.069 454.345 312.06 453.427 314.128 452.682Z"/>
	<path fill="#FBB7A7" d="M323.144 411.906L354.014 412.019L397.352 412.017C395.886 420.419 396.503 429.589 396.519 438.119L396.507 461.614C371.816 445.979 343.669 433.085 323.144 411.906Z"/>
	<path fill="#E87824" d="M354.014 412.019L397.352 412.017C395.886 420.419 396.503 429.589 396.519 438.119C391.655 435.94 356.504 414.542 354.014 412.019Z"/>
	<path fill="#E87824" d="M131.576 480.595Q138.488 484.772 145.539 488.71C143.522 498.508 142.924 507.769 142.99 517.731C142.998 525.813 143.455 534.257 145.095 542.185C147.576 557.392 151.25 572.869 154.718 587.901C159.167 588.644 170.209 596.737 174.38 599.336Q189.366 608.479 204.588 617.225C211.163 621.043 217.96 625.716 225.157 628.207C237.759 624.93 248.93 616.124 260.45 610.271C264.802 615.15 269.08 620.131 273.54 624.909Q285.754 637.786 297.728 650.886L311.585 665.846C323.191 678.024 334.37 690.639 345.809 702.978C352.582 710.284 360.898 717.726 366.473 725.899C367.555 726.887 368.282 727.745 369.09 728.968C356.811 728.962 343.859 729.813 331.667 728.63Q322.723 728.929 313.775 728.871C307.491 729.003 301.175 728.847 294.888 728.818C286.387 729.154 277.757 728.856 269.242 728.861L218.132 728.867C209.044 728.856 199.679 728.259 190.634 728.946L190.107 729.065C183.573 727.968 176.054 728.524 169.417 728.46C165.309 726.593 161.182 723.203 157.505 720.561L157.338 728.582C152.43 728.578 147.256 728.225 142.381 728.682L142.458 717.632C142.35 713.989 142.446 710.313 142.444 706.666C142.12 694.825 142.283 682.864 142.504 671.02C142.635 664.038 143.204 656.858 142.595 649.9L142.568 645.867C142.594 631.893 143.343 617.524 141.76 603.632C140.915 595.669 139.42 587.772 137.91 579.914C134.858 566.792 131.811 553.722 129.585 540.426C127.827 533.255 127.691 525.145 127.619 517.784C127.598 507.674 128.811 490.105 131.576 480.595Z"/>
	<path fill="#FBB7A7" d="M273.116 728.312C282.615 722.811 291.967 717.04 301.685 711.926C305.97 709.672 310.689 707.163 315.537 706.435C327.969 704.567 346.163 716.009 356.714 721.753C359.2 723.107 363.605 726.322 366.473 725.899C367.555 726.887 368.282 727.745 369.09 728.968C356.811 728.962 343.859 729.813 331.667 728.63Q322.723 728.929 313.775 728.871C307.491 729.003 301.175 728.847 294.888 728.818C292.995 727.775 276.573 728.369 273.116 728.312Z"/>
	<path fill="#E87824" d="M321.61 723.683C325.067 724.962 328.807 726.247 331.667 728.63Q322.723 728.929 313.775 728.871C316.253 728.585 319.486 725.21 321.61 723.683Z"/>
	<path fill="#FBB7A7" d="M297.728 650.886L311.585 665.846C299.774 673.678 287.103 680.209 274.869 687.35C264.025 693.68 247.911 704.664 236.672 708.591C231.446 710.418 225.311 711.131 219.848 710.084C212.262 708.631 205.312 703.426 198.785 699.559C190.289 694.524 181.485 689.882 172.874 685.034C167.979 682.279 162.622 678.547 157.406 676.614C157.637 668.712 157.44 660.751 157.439 652.842C172.519 661.17 187.276 670.23 202.233 678.801C209.65 683.052 217.352 688.333 225.483 690.978C238.059 686.968 250.789 677.821 262.295 671.185C274.077 664.39 286.158 658.034 297.728 650.886Z"/>
	<path fill="#EF6723" d="M131.576 480.595Q138.488 484.772 145.539 488.71C143.522 498.508 142.924 507.769 142.99 517.731C142.998 525.813 143.455 534.257 145.095 542.185C147.576 557.392 151.25 572.869 154.718 587.901C155.905 596.296 156.727 604.575 157.043 613.049C157.467 625.889 156.555 640.527 157.439 652.842C157.44 660.751 157.637 668.712 157.406 676.614C156.85 691.227 157.391 705.937 157.505 720.561L157.338 728.582C152.43 728.578 147.256 728.225 142.381 728.682L142.458 717.632C142.35 713.989 142.446 710.313 142.444 706.666C142.12 694.825 142.283 682.864 142.504 671.02C142.635 664.038 143.204 656.858 142.595 649.9L142.568 645.867C142.594 631.893 143.343 617.524 141.76 603.632C140.915 595.669 139.42 587.772 137.91 579.914C134.858 566.792 131.811 553.722 129.585 540.426C127.827 533.255 127.691 525.145 127.619 517.784C127.598 507.674 128.811 490.105 131.576 480.595Z"/>
	<path fill="#E87824" d="M154.718 587.901C159.167 588.644 170.209 596.737 174.38 599.336Q189.366 608.479 204.588 617.225C211.163 621.043 217.96 625.716 225.157 628.207C237.759 624.93 248.93 616.124 260.45 610.271C264.802 615.15 269.08 620.131 273.54 624.909Q285.754 637.786 297.728 650.886C286.158 658.034 274.077 664.39 262.295 671.185C250.789 677.821 238.059 686.968 225.483 690.978C217.352 688.333 209.65 683.052 202.233 678.801C187.276 670.23 172.519 661.17 157.439 652.842C156.555 640.527 157.467 625.889 157.043 613.049C156.727 604.575 155.905 596.296 154.718 587.901Z"/>
	<path fill="#FBB7A7" d="M154.718 587.901C159.167 588.644 170.209 596.737 174.38 599.336Q189.366 608.479 204.588 617.225C211.163 621.043 217.96 625.716 225.157 628.207C237.759 624.93 248.93 616.124 260.45 610.271C264.802 615.15 269.08 620.131 273.54 624.909C268.347 628.964 238.589 646.585 233.131 648.16C229.125 649.315 223.993 649.67 219.948 648.487C210.904 645.842 201.86 638.796 193.727 634.033Q175.445 623.437 157.043 613.049C156.727 604.575 155.905 596.296 154.718 587.901Z"/>
	<path fill="#E87824" d="M86.2465 409.636L86.7432 415.118C88.5203 422.045 89.955 428.736 92.4766 435.486C96.9808 446.035 102.971 456.292 111.313 464.277C116.342 469.023 121.495 473.466 127.008 477.653C128.478 478.586 130.258 479.48 131.576 480.595C128.811 490.105 127.598 507.674 127.619 517.784C127.691 525.145 127.827 533.255 129.585 540.426C131.811 553.722 134.858 566.792 137.91 579.914C139.42 587.772 140.915 595.669 141.76 603.632C143.343 617.524 142.594 631.893 142.568 645.867L142.595 649.9C143.204 656.858 142.635 664.038 142.504 671.02C142.283 682.864 142.12 694.825 142.444 706.666C142.32 704.983 142.362 703.678 141.233 702.314C139.736 701.428 138.24 700.972 136.581 700.47C120.889 708.167 105.672 718.32 91.0589 727.907C84.8164 729.553 72.427 728.669 65.5417 728.726Q32.7709 729.095 0 728.715L0 696.908L0 673.115L0 629.105L0 606.259L0 565.056L0 542.438L0 502.573L0 479.352L0 439.284L0 416.511L0 411.071C8.86942 411.005 84.6919 411.541 86.05 410.712L86.2465 409.636Z"/>
	<path fill="#FBB7A7" d="M0 542.438C5.40132 545.546 11.1771 548.228 16.6709 551.2C22.7085 554.467 36.2115 563.492 42.1751 564.561C44.8823 565.046 48.2237 563.825 50.6644 562.769C59.3333 559.018 68.8458 552.511 77.1326 547.743C93.9223 538.081 111.764 528.844 127.619 517.784C127.691 525.145 127.827 533.255 129.585 540.426C111.821 549.628 94.6456 560.537 77.4039 570.7C69.3715 575.435 60.9701 581.359 52.1796 584.504C47.8324 586.059 42.8195 586.905 38.3398 585.48C28.4711 582.34 16.812 574.556 7.63321 569.336C5.1684 567.934 2.59986 566.161 0 565.056L0 542.438Z"/>
	<path fill="#FBB7A7" d="M131.978 578.874C133.953 578.994 135.969 579.53 137.91 579.914C139.42 587.772 140.915 595.669 141.76 603.632C143.343 617.524 142.594 631.893 142.568 645.867C139.855 643.042 137.702 641.154 133.581 641.181C123.415 641.245 107.315 656.401 97.7735 658.936C95.0998 646.56 90.2048 639.512 79.5584 632.612C69.3165 627.851 58.6043 626.228 47.754 630.202C40.1117 633.001 34.4806 637.869 29.7424 644.386C20.6986 642.371 8.88901 633.162 0 629.105L0 606.259Q9.85418 611.443 19.4906 617.022C24.9658 620.196 30.926 624.754 37.0048 626.554C41.2809 627.821 46.3872 626.388 50.4412 624.813C60.7545 620.806 71.1334 614.027 80.7519 608.496L131.978 578.874Z"/>
	<path fill="#E87824" d="M135.231 600.712L141.76 603.632C143.343 617.524 142.594 631.893 142.568 645.867C139.855 643.042 137.702 641.154 133.581 641.181C123.415 641.245 107.315 656.401 97.7735 658.936C95.0998 646.56 90.2048 639.512 79.5584 632.612C85.0706 628.033 92.9539 624.679 99.2202 621.084C111.083 614.279 122.902 606.589 135.231 600.712Z"/>
	<path fill="#E87824" d="M29.7424 644.386C34.4806 637.869 40.1117 633.001 47.754 630.202C58.6043 626.228 69.3165 627.851 79.5584 632.612C90.2048 639.512 95.0998 646.56 97.7735 658.936C107.315 656.401 123.415 641.245 133.581 641.181C137.702 641.154 139.855 643.042 142.568 645.867L142.595 649.9C143.204 656.858 142.635 664.038 142.504 671.02C142.283 682.864 142.12 694.825 142.444 706.666C142.32 704.983 142.362 703.678 141.233 702.314C139.736 701.428 138.24 700.972 136.581 700.47C120.889 708.167 105.672 718.32 91.0589 727.907C84.8164 729.553 72.427 728.669 65.5417 728.726Q32.7709 729.095 0 728.715L0 696.908L0 673.115L0 629.105C8.88901 633.162 20.6986 642.371 29.7424 644.386Z"/>
	<path fill="#FBB7A7" d="M97.7735 658.936C107.315 656.401 123.415 641.245 133.581 641.181C137.702 641.154 139.855 643.042 142.568 645.867L142.595 649.9Q142.46 654.87 142.465 659.841C128.492 662.048 98.5665 683.952 91.6158 683.954C96.4711 675.905 98.7039 668.367 97.7735 658.936Z"/>
	<path fill="#FBB7A7" d="M0 673.115C8.67363 677.783 27.0686 690.024 35.9451 690.8C45.8168 697.272 53.126 699.746 64.9614 699.525C59.8219 704.741 52.3708 710.114 45.4868 712.742C41.9379 714.096 38.1746 714.735 34.4003 714.09C25.6139 712.586 9.54498 701.225 0 696.908L0 673.115Z"/>
	<path fill="#011B42" d="M29.7424 644.386C34.4806 637.869 40.1117 633.001 47.754 630.202C58.6043 626.228 69.3165 627.851 79.5584 632.612C90.2048 639.512 95.0998 646.56 97.7735 658.936C98.7039 668.367 96.4711 675.905 91.6158 683.954C83.9931 693.279 76.8844 697.71 64.9614 699.525C53.126 699.746 45.8168 697.272 35.9451 690.8C27.0686 690.024 8.67363 677.783 0 673.115L0 629.105C8.88901 633.162 20.6986 642.371 29.7424 644.386Z"/>
	<path fill="#FBB7A7" d="M59.1097 648.618Q59.6936 648.587 60.2782 648.602Q60.8628 648.616 61.4445 648.675Q62.0262 648.734 62.6017 648.838Q63.1772 648.942 63.7431 649.089Q64.309 649.236 64.8618 649.427Q65.4147 649.617 65.9514 649.849Q66.4881 650.081 67.0054 650.354Q67.5226 650.626 68.0175 650.938C71.4326 653.097 73.6545 656.653 74.4574 660.581C75.2838 664.625 74.5704 668.825 72.2556 672.268C69.3933 676.525 65.5992 678.008 60.8295 679.071C57.5982 678.867 54.5472 678.173 51.7697 676.438Q51.1381 676.046 50.5484 675.593Q49.9587 675.141 49.4168 674.632Q48.8749 674.123 48.3861 673.563Q47.8972 673.003 47.4663 672.397Q47.0354 671.792 46.6666 671.146Q46.2978 670.501 45.9948 669.822Q45.6917 669.143 45.4575 668.438Q45.2232 667.732 45.06 667.007Q44.888 666.265 44.7941 665.509Q44.7002 664.753 44.6855 663.991Q44.6707 663.229 44.7352 662.47Q44.7998 661.711 44.9428 660.963Q45.0859 660.214 45.3061 659.485Q45.5262 658.756 45.821 658.053Q46.1158 657.351 46.482 656.682Q46.8482 656.014 47.2819 655.388C50.1819 651.243 54.2846 649.499 59.1097 648.618Z"/>
	<path fill="#E87824" d="M0 629.105C8.88901 633.162 20.6986 642.371 29.7424 644.386C24.551 653.558 22.3413 663.041 25.1614 673.42C27.0601 680.408 30.9491 685.699 35.9451 690.8C27.0686 690.024 8.67363 677.783 0 673.115L0 629.105Z"/>
	<path fill="#E87824" d="M86.2465 409.636L86.7432 415.118C88.5203 422.045 89.955 428.736 92.4766 435.486C96.9808 446.035 102.971 456.292 111.313 464.277C116.342 469.023 121.495 473.466 127.008 477.653C128.478 478.586 130.258 479.48 131.576 480.595C128.811 490.105 127.598 507.674 127.619 517.784C111.764 528.844 93.9223 538.081 77.1326 547.743C68.8458 552.511 59.3333 559.018 50.6644 562.769C48.2237 563.825 44.8823 565.046 42.1751 564.561C36.2115 563.492 22.7085 554.467 16.6709 551.2C11.1771 548.228 5.40132 545.546 0 542.438L0 502.573L0 479.352L0 439.284L0 416.511L0 411.071C8.86942 411.005 84.6919 411.541 86.05 410.712L86.2465 409.636Z"/>
	<path fill="#FBB7A7" d="M111.313 464.277C116.342 469.023 121.495 473.466 127.008 477.653C122.318 481.813 115.359 484.9 109.893 488.084L78.6765 506.408C69.7275 511.609 60.9686 518.024 51.5613 522.306C48.7719 523.576 45.5184 524.036 42.4742 523.793C32.1625 522.969 11.6497 507.068 0 502.573L0 479.352Q10.3456 484.808 20.4853 490.637C26.9307 494.344 36.2033 501.284 43.3276 502.858C45.1658 503.264 47.4985 502.117 49.1511 501.296C58.7114 496.546 67.9991 490.206 77.1881 484.691C88.5269 477.886 100.227 471.471 111.313 464.277Z"/>
	<path fill="#E87824" d="M86.2465 409.636L86.7432 415.118C88.5203 422.045 89.955 428.736 92.4766 435.486C96.9808 446.035 102.971 456.292 111.313 464.277C100.227 471.471 88.5269 477.886 77.1881 484.691C67.9991 490.206 58.7114 496.546 49.1511 501.296C47.4985 502.117 45.1658 503.264 43.3276 502.858C36.2033 501.284 26.9307 494.344 20.4853 490.637Q10.3456 484.808 0 479.352L0 439.284L0 416.511L0 411.071C8.86942 411.005 84.6919 411.541 86.05 410.712L86.2465 409.636Z"/>
	<path fill="#FBB7A7" d="M86.2465 409.636L86.7432 415.118C88.5203 422.045 89.955 428.736 92.4766 435.486C83.1165 441.257 59.7669 456.807 50.426 459.394C46.1587 460.577 42.162 460.523 37.7867 460.436C25.3347 453.095 12.7017 446.182 0 439.284L0 416.511L0 411.071C8.86942 411.005 84.6919 411.541 86.05 410.712L86.2465 409.636Z"/>
	<path fill="#E87824" d="M86.2465 409.636L86.7432 415.118C86.5927 415.48 86.5342 415.895 86.2917 416.203C85.6631 416.999 51.6766 437.136 48.3323 438.536C46.704 439.217 45.0837 439.695 43.3529 440.022C28.3136 433.606 15.231 422.572 0 416.511L0 411.071C8.86942 411.005 84.6919 411.541 86.05 410.712L86.2465 409.636Z"/>
</svg>
