<?xml version="1.0" encoding="utf-8" ?>
<svg xmlns="http://www.w3.org/2000/svg" xmlns:xlink="http://www.w3.org/1999/xlink" width="1024" height="1024">
	<path fill="#FFFEFE" d="M0 0L1024 0L1024 1024L0 1024L0 0Z"/>
	<path d="M143.073 592.587C144.715 592.421 146.437 592.204 148.059 592.601C150.912 593.3 153.463 595.231 154.828 597.839Q155.054 598.268 155.235 598.719Q155.416 599.169 155.549 599.636Q155.683 600.103 155.768 600.581Q155.853 601.059 155.888 601.543Q155.923 602.027 155.909 602.512Q155.894 602.997 155.829 603.478Q155.765 603.959 155.651 604.431Q155.538 604.903 155.376 605.361C154.276 608.521 152.05 610.199 149.175 611.663C147.722 611.87 146.317 612.054 144.856 611.804C142.221 611.354 139.784 610.019 138.244 607.801C136.681 605.548 136.245 602.782 136.865 600.127C137.724 596.446 139.979 594.489 143.073 592.587Z"/>
	<path fill="#535253" d="M143.893 594.019C144.897 593.982 145.906 593.959 146.902 594.119C149.18 594.483 151.15 595.586 152.452 597.527C153.717 599.413 154.025 601.619 153.485 603.807C152.676 607.088 150.463 608.764 147.694 610.403Q146.31 610.337 144.949 610.08C142.573 609.619 140.443 608.279 139.121 606.228Q138.922 605.921 138.756 605.595Q138.589 605.269 138.456 604.928Q138.323 604.587 138.225 604.235Q138.126 603.882 138.064 603.521Q138.002 603.161 137.976 602.796Q137.95 602.431 137.961 602.065Q137.973 601.699 138.02 601.336Q138.068 600.973 138.152 600.617C138.925 597.399 141.186 595.628 143.893 594.019Z"/>
	<path fill="#535253" d="M750.115 225.535C758.519 226.771 756.469 232.143 762.45 234.912C766.749 236.902 771.117 233.382 775.505 234.543C776.467 234.797 777.468 235.594 778.204 236.234C783.51 240.845 777.976 246.603 781.015 251.73C783.066 255.189 788.203 255.14 790.077 258.605C790.238 258.901 790.389 259.203 790.524 259.512C793.751 266.904 784.685 267.694 782.758 272.737C781.15 276.942 784.415 279.571 785.74 283.187C786.321 284.774 786.033 286.323 785.26 287.775C781.909 294.071 777.133 289.973 772.216 291.942C767.936 293.656 769.163 298.86 767.823 302.278C767.284 303.651 766.262 304.561 764.94 305.137C758.861 307.789 757.07 301.307 752.517 299.588C752.214 299.473 751.904 299.379 751.597 299.274C747.917 301.09 746.071 304.984 741.776 305.867C734.068 307.452 736.192 294.775 731.136 291.735C729.072 290.494 724.156 292.008 721.716 292.422C721.471 292.267 721.223 292.115 720.98 291.956C710.164 284.888 721.326 281.265 719.636 273.913C718.508 269.003 712.172 268.401 711.484 263.772C710.166 254.908 718.022 256.628 720.875 251.866C722.553 249.065 720.988 245.27 720.187 242.412Q720.641 241.241 721.156 240.096C722.708 236.722 725.073 235.497 728.415 234.214C728.558 234.265 728.7 234.319 728.844 234.367C734.164 236.168 737.001 236.452 742.188 233.901C744.276 229.806 745.481 227.055 750.115 225.535Z"/>
	<path fill="#FFFEFE" d="M748.739 245.084C753.568 244.753 758.027 245.363 762.097 248.163C766.772 251.378 770.05 256.681 770.991 262.262Q771.069 262.756 771.123 263.254Q771.177 263.752 771.206 264.252Q771.235 264.751 771.239 265.252Q771.243 265.753 771.222 266.253Q771.202 266.753 771.156 267.252Q771.111 267.75 771.041 268.246Q770.97 268.742 770.876 269.233Q770.781 269.725 770.662 270.211Q770.544 270.697 770.401 271.177Q770.258 271.657 770.092 272.129Q769.925 272.601 769.736 273.065Q769.546 273.528 769.334 273.981Q769.121 274.435 768.887 274.877Q768.652 275.319 768.396 275.75Q768.14 276.18 767.863 276.596Q767.586 277.013 767.288 277.416C763.88 282.072 759.296 284.346 753.721 285.299C748.689 285.541 743.829 284.503 739.624 281.632Q739.209 281.353 738.808 281.054Q738.407 280.755 738.021 280.437Q737.636 280.118 737.266 279.781Q736.897 279.444 736.545 279.089Q736.193 278.734 735.859 278.362Q735.525 277.99 735.209 277.601Q734.894 277.213 734.599 276.81Q734.303 276.406 734.028 275.989Q733.753 275.571 733.499 275.14Q733.245 274.71 733.012 274.267Q732.78 273.824 732.569 273.37Q732.359 272.916 732.172 272.453Q731.984 271.989 731.82 271.516Q731.656 271.044 731.516 270.564Q731.375 270.084 731.259 269.598Q731.142 269.112 731.05 268.62Q730.875 267.663 730.795 266.693Q730.714 265.723 730.729 264.75Q730.743 263.777 730.852 262.81Q730.962 261.843 731.165 260.891Q731.368 259.94 731.663 259.012Q731.958 258.085 732.342 257.191Q732.726 256.296 733.195 255.444Q733.665 254.592 734.215 253.789C737.771 248.669 742.815 246.285 748.739 245.084Z"/>
	<path d="M68.0302 336.237L68.0776 247.669C68.0878 235.989 66.6769 217.056 68.8854 206.044Q69.1881 204.581 69.5952 203.143Q70.0023 201.705 70.5116 200.3Q71.021 198.895 71.63 197.53Q72.239 196.165 72.9445 194.848Q73.65 193.531 74.4483 192.267Q75.2467 191.004 76.1337 189.801Q77.0208 188.599 77.992 187.463Q78.9632 186.327 80.0135 185.264C85.9156 179.319 93.8683 175.161 102.172 173.94C107.53 173.153 113.235 173.423 118.645 173.421L144.783 173.446L232.266 173.494L529.269 173.515C541.892 173.58 551.885 176.379 560.964 185.543C567.579 192.218 571.868 201.092 573.74 210.256C576.404 223.288 575.034 238.769 575.02 252.159L575.054 311.026C575.079 322.08 574.808 333.252 575.31 344.286C598.279 336.908 617.574 335.848 639.696 347.08C644.193 349.364 648.516 352.093 652.646 354.987C668.964 354.318 685.362 354.536 701.695 354.499L779.119 354.371L819.547 354.332C828.106 354.332 837.407 353.682 845.836 355.213C854.284 356.748 862.924 361.643 869.206 367.4C879.519 376.851 884.751 390.487 885.329 404.286C886.297 427.434 885.41 451.121 885.432 474.337L885.498 601.978C885.494 621.062 885.11 640.197 885.353 659.273C897.322 649.388 911.168 643.153 926.975 644.669C940.18 645.936 953.249 652.567 961.706 662.85Q962.89 664.274 963.952 665.79Q965.014 667.307 965.947 668.906Q966.88 670.505 967.678 672.175Q968.477 673.846 969.134 675.577C973.421 686.814 975.027 699.733 977.966 711.447C980.707 722.374 984.832 733.331 986.588 744.442Q987.259 748.712 987.362 753.033Q987.465 757.354 986.997 761.651C985.165 778.666 975.824 795.026 962.445 805.595C950.605 814.948 938.123 819.417 923.337 821.659L923.351 794.361C928.68 789.739 952.112 768.819 953.876 763.956L953.382 763.624C949.928 764.311 928.6 787.071 923.473 791.096L923.479 753.208C927.131 749.458 950.383 727.299 951.1 724.775C950.132 724.422 949.936 724.598 949.04 725.052C947.157 726.005 925.674 747.545 923.409 749.996L923.473 709.702C928.508 704.898 941.786 693.874 944.342 688.478L944.014 688.183C936.312 692.94 930.311 700.869 923.486 706.798L923.509 675.44C923.513 670.886 924.011 665.819 923.487 661.327C923.353 660.178 923.212 659.787 922.511 658.922L921.739 659.26C920.951 664.455 921.488 670.203 921.497 675.485L921.466 706.118C913.924 699.893 907.776 691.277 899.236 686.465C904.353 694.502 914.588 703.077 921.498 709.945L921.591 749.665Q911.694 740.057 901.983 730.261C899.672 727.931 897.594 725.229 895.191 723.028C894.352 722.26 893.596 721.643 892.477 721.354L891.733 721.907L891.692 723.454C901.343 733.419 911.75 742.713 921.532 752.554L921.511 791.049L920.865 790.504C913.98 784.641 907.694 777.642 901.415 771.127C898.973 768.593 896.551 765.51 893.698 763.465C892.672 763.691 892.221 763.795 891.52 764.596C891.839 765.561 891.643 765.362 892.248 765.989C896.025 769.906 900.264 773.404 904.135 777.232C910.064 783.094 915.71 789.256 921.493 795.261L921.488 821.652C909.158 821.358 897.555 818.411 886.492 812.979C884.631 824.658 881.134 832.623 871.354 839.76C869.196 841.335 866.897 842.68 864.589 844.021Q892.641 843.781 920.694 843.888C920.677 839.421 919.81 826.107 921.352 822.745L922.582 822.301C924.611 826.773 923.246 838.567 923.362 843.896L978.936 843.868C985.633 843.838 1005.22 842.778 1010.56 844.274L1010.76 845.464C1009.64 846.709 1008.63 846.962 1006.97 847.079C999.469 847.609 991.461 846.919 983.886 846.938L919.944 846.933C909.548 846.932 898.684 846.315 888.328 847.045C878.231 846.954 867.238 846.035 857.265 847.378Q855.53 847.475 853.793 847.545C827.327 848.612 800.528 847.702 774.019 847.669L625.711 847.681L57.2721 847C54.3892 847.011 50.7327 847.673 48.5637 845.675L48.7272 844.797C50.2012 844.017 51.5818 843.852 53.2408 843.777C58.3225 843.546 63.5513 843.86 68.6515 843.872L103.185 843.902L215.234 844.029C210.987 841.413 206.817 839.322 203.108 835.902C193.598 827.135 190.853 814.668 190.349 802.229C189.796 790.597 190.055 778.789 190.007 767.14L189.91 701.229L189.607 485.064Q149.89 484.85 110.173 485.181C98.5111 485.274 88.5117 482.084 80.1291 473.695C75.2997 468.862 71.1 462.153 69.5163 455.472C66.7728 443.898 68.0707 423.519 68.0598 410.966L68.0302 336.237Z"/>
	<path fill="#FFFEFE" d="M358.195 483.561C363.2 483.171 368.344 483.242 373.365 483.217C376.042 483.203 380.1 482.85 382.108 484.837C382.287 486.353 382.039 486.5 381.256 487.843C375.624 488.053 369.839 488.155 364.204 488.05C361.867 488.007 359.098 488.158 357.374 486.356C357.211 484.929 357.44 484.813 358.195 483.561Z"/>
	<path fill="#FFFEFE" d="M318.566 483.606C323.6 483.174 342.99 482.281 346.396 484.63C347.081 485.989 346.822 486.3 346.52 487.75C341.916 488.24 322.371 488.877 319.074 487.022C318.307 485.719 318.507 485.092 318.566 483.606Z"/>
	<path fill="#FFFEFE" d="M379.809 507.723C393.073 507.948 406.835 506.948 420.018 507.986C421.773 508.125 422.485 507.958 423.621 509.297L423.489 510.802C422.588 511.976 422.611 511.842 421.125 512.04L391.095 511.983C387.37 511.982 383.172 512.533 379.507 511.998C378.199 511.807 377.652 511.531 376.83 510.527L376.983 509.27C377.955 508.078 378.365 508.123 379.809 507.723Z"/>
	<path fill="#FFFEFE" d="M477.672 799.11C478.333 799.301 478.94 799.562 479.574 799.827C481.363 803.832 480.285 814.244 480.344 819.058C494.178 819.375 508.069 819.128 521.908 819.138L599.834 819.234C599.872 815.94 599.287 803.612 600.269 801.27C600.537 800.633 600.561 800.829 601.327 800.592L602.345 801.292L602.555 802.875L602.528 822.018L477.471 822.046C477.345 814.535 476.816 806.566 477.672 799.11Z"/>
	<path fill="#FFFEFE" d="M317.951 499.111C326.025 498.41 334.463 498.713 342.554 499.126C345.023 500.528 346.666 502.065 348.36 504.353Q347.378 507.201 346.003 509.882Q344.628 512.562 342.889 515.022C334.433 515.071 325.979 515.406 317.522 515.327C316.088 514.48 314.752 513.585 313.775 512.202C312.48 510.37 311.943 507.915 312.442 505.723C313.197 502.411 315.151 500.762 317.951 499.111Z"/>
	<path fill="#FFFEFE" d="M396.772 476.544C400.975 476.431 413.9 474.93 416.977 478.091C420 481.197 419.361 488.78 419.114 492.829C418.861 496.96 418.656 499.475 415.454 502.307C415.316 502.323 415.178 502.343 415.04 502.353C410.53 502.685 399.139 504.151 395.727 501.069C392.869 498.488 393.158 492.591 393.226 489.05C393.321 484.152 393.036 480.146 396.772 476.544Z"/>
	<path fill="#FFFEFE" d="M636.413 496.366C636.639 497.298 636.682 498.092 636.727 499.045C637.051 505.989 636.823 512.951 636.895 519.901C636.982 528.288 638.23 538.574 636.255 546.711Q635.885 548.237 635.32 549.701Q634.755 551.166 634.004 552.544Q633.253 553.922 632.328 555.191Q631.404 556.46 630.323 557.598C624.724 563.522 616.298 566.265 608.302 566.534C599.369 566.834 591.058 563.885 584.499 557.807C583.454 556.633 582.538 555.368 582.093 553.839C580.145 547.148 581.443 525.597 581.513 517.371C586.051 521.503 591.096 524.685 597.479 524.272C611.668 523.356 627.426 506.302 636.413 496.366Z"/>
	<path fill="#FFFEFE" d="M192.372 485.065L207.028 485.141L207.132 776.095L192.61 776.119L192.372 485.065Z"/>
	<path fill="#FFFEFE" d="M429.484 485.021C459.392 485.034 489.333 484.809 519.237 485.277C508.003 489.3 498.694 492.648 490.49 501.705C478.97 514.424 473.69 533.039 474.576 549.971C475.598 569.522 480.688 582.114 495.191 595.072C490.261 600.654 485.929 606.436 481.864 612.662C477.406 619.861 473.611 627.194 469.979 634.827L423.754 573.611C414.07 560.634 404.8 546.66 393.981 534.636C397.851 534.66 426.051 535.431 427.416 533.973C430.207 530.992 429.415 492.553 429.484 485.021Z"/>
	<path fill="#FFFEFE" d="M655.32 356.741C673.294 357.236 691.383 356.857 709.372 356.858L832.609 356.754C846.916 356.82 858.734 360.123 869.001 370.608C875.805 377.558 880.708 386.842 882.075 396.511C883.832 408.933 882.713 426.859 882.702 439.734L882.775 519.002L882.375 775.844C880.799 777.241 872.378 776.44 869.999 776.416L869.758 521.194L869.879 443.136C869.887 432.963 870.895 416.858 869.503 407.254C868.158 397.977 863.338 388.956 856.751 382.35Q855.634 381.233 854.438 380.2Q853.243 379.167 851.975 378.224Q850.708 377.281 849.375 376.432Q848.043 375.583 846.652 374.833Q845.261 374.084 843.82 373.437Q842.378 372.79 840.894 372.25Q839.409 371.709 837.889 371.278Q836.369 370.847 834.822 370.527C827.926 369.149 820.257 369.692 813.235 369.696Q800.047 369.724 786.859 369.567L668.659 369.031C664.454 364.784 659.128 361.273 655.32 356.741Z"/>
	<path fill="#FFFEFE" d="M605.843 390.349C610.109 405.611 611.758 414.605 624.686 425.159C627.372 427.352 631.677 429.375 633.567 432.217C635.603 435.278 634.823 439.862 636.56 443.213L637.29 443.21C639.418 440.25 638.975 435.62 640.453 432.279C642.465 427.728 647.393 423.006 652.027 421.198C656.021 419.64 660.962 419.758 664.83 421.618C668.486 423.376 671.084 426.652 672.387 430.454Q672.661 431.228 672.854 432.025Q673.047 432.823 673.158 433.636Q673.268 434.449 673.296 435.269Q673.323 436.089 673.266 436.908Q673.209 437.727 673.069 438.535Q672.929 439.344 672.707 440.134Q672.485 440.924 672.184 441.687Q671.883 442.45 671.505 443.179C666.643 452.789 655.129 456.769 645.501 459.756C642.048 475.145 635.286 485.899 622.755 495.689C614.578 501.064 605.609 505.98 595.664 506.749C586.356 507.469 578.214 504.21 571.217 498.187C549.779 479.732 549.849 455.952 547.972 430.072C552.522 427.483 556.439 424.002 561.141 421.593C564.452 421.638 569.236 422.698 572.315 421.316C572.997 421.01 572.825 421.032 573.145 420.312L572.522 419.037C570.941 417.922 569.186 417.627 567.333 417.185C572.361 413.95 577.931 411.43 583.14 408.476C591.752 403.591 598.98 397.409 605.843 390.349Z"/>
	<path d="M603.11 431.542C603.287 431.531 603.464 431.516 603.641 431.509C606.687 431.387 608.896 431.279 611.228 433.487L611.101 434.354C609.891 435.014 608.759 434.694 607.462 434.508C605.317 434.47 603.378 435.357 601.319 435.338C600.303 435.328 600.235 435.317 599.516 434.565L599.7 433.396C600.682 432.312 601.776 432.01 603.11 431.542Z"/>
	<path d="M565.375 432.612C566.858 432.859 567.749 432.813 568.92 433.786C568.113 435.932 562.754 436.058 560.583 438.646C560.471 438.781 560.361 438.918 560.25 439.054C559.203 439.193 558.499 439.074 557.477 438.823L557.07 438.082C557.276 437.513 557.456 436.97 557.831 436.483C559.811 433.911 562.329 433.156 565.375 432.612Z"/>
	<path d="M657.637 428.485C658.746 428.609 659.766 428.704 660.771 429.224C662.472 430.104 663.673 431.405 664.304 433.197C664.129 434.64 664.022 434.896 663.164 436.072L662.37 435.847Q661.892 434.916 661.393 433.996C660.567 432.502 660.198 431.82 658.519 431.345C655.55 431.839 654.18 434.244 652.465 436.456C651.786 437.989 650.926 440.723 649.515 441.681C648.691 442.24 649.053 442.122 648.057 441.89C647.794 440.608 647.968 439.712 648.384 438.499C649.976 433.852 653.317 430.598 657.637 428.485Z"/>
	<path d="M600.496 415.143C603.153 414.94 606.405 414.609 608.821 415.92C609.934 416.524 610.533 416.768 610.894 418.051L610.027 418.948C607.753 419.905 605.453 419.575 603.043 419.46C600.305 419.703 597.251 420.77 594.578 420.206C593.658 419.298 593.706 419.344 593.639 418.048C595.057 415.99 598.224 415.578 600.496 415.143Z"/>
	<path d="M575.354 435.727C576.465 435.81 577.366 435.848 578.27 436.596C581.407 439.193 586.773 445.035 586.843 449.232C586.873 450.98 585.047 451.932 584.093 453.191C582.97 454.672 583.503 457.152 583.671 458.927C583.194 458.8 582.417 458.623 582.004 458.376C580.763 457.634 580.604 456.749 580.214 455.48C580.677 452.364 582.064 451.048 584.401 449.021C581.734 444.384 577.586 440.576 575.354 435.727Z"/>
	<path d="M600.309 466.297C603.266 466.046 606.229 465.659 609.183 466.096C610.036 466.562 610.481 467.064 610.85 467.98C611.895 470.569 610.886 474.014 609.915 476.467C607.672 482.133 602.993 487.409 597.302 489.758C592.23 491.851 587.877 491.038 582.976 489.123Q581.936 488.525 580.925 487.879C573.783 483.259 571.995 476.454 570.276 468.676L600.309 466.297Z"/>
	<path fill="#FFFEFE" d="M603.177 468.709C604.791 468.578 606.487 468.688 608.108 468.695C607.807 472.2 607.419 475.121 605.76 478.315C603.572 482.527 599.81 486.354 595.181 487.759C590.468 489.191 586.762 487.797 582.623 485.632C577.087 481.681 575.164 477.548 573.799 471.076C583.465 469.727 593.437 469.421 603.177 468.709Z"/>
	<path fill="#FFFEFE" d="M356.796 495.602C356.948 495.587 357.1 495.567 357.252 495.555C360.647 495.279 364.588 495.493 367.234 497.99C375.191 505.499 362.059 520.827 362.086 527.221L362.734 527.66C364.137 527.062 364.727 525.556 365.461 524.295C368.514 524.926 371.53 525.669 374.479 526.691C381.006 528.953 388.701 532.905 393.599 537.855C399.313 543.628 404.073 551.052 408.949 557.581L438.903 597.883L474.576 644.979C481.797 654.363 491.16 664.125 496.36 674.769C504.243 690.904 508.935 708.174 502.836 725.705C498.651 737.735 490.125 748.263 478.498 753.768C467.245 759.096 454.3 758.562 442.795 754.414L442.019 754.091Q441.129 753.715 440.255 753.303Q439.381 752.891 438.524 752.445Q437.667 751.999 436.829 751.519Q435.991 751.039 435.172 750.526Q434.353 750.013 433.556 749.467Q432.758 748.922 431.983 748.345Q431.208 747.769 430.457 747.161Q429.705 746.554 428.979 745.918Q428.252 745.281 427.551 744.616Q426.851 743.951 426.177 743.258Q425.503 742.566 424.858 741.847Q424.213 741.128 423.596 740.384Q422.98 739.64 422.394 738.872Q421.808 738.104 421.253 737.313Q420.698 736.522 420.175 735.71Q419.652 734.898 419.162 734.065C413.015 723.799 408.524 705.57 404.319 693.794L372.902 603.629C367.5 587.997 362.455 572.121 356.487 556.699C344.072 554.74 312.589 546.145 304.693 535.742C302.398 532.718 301.551 529.177 302.065 525.43C302.965 518.87 305.328 514.855 310.497 510.937C310.682 516.571 308.905 527.432 312.597 531.926Q312.788 532.157 313.003 532.366Q313.218 532.575 313.454 532.76Q313.69 532.945 313.944 533.105Q314.198 533.264 314.468 533.395Q314.738 533.526 315.02 533.628Q315.302 533.729 315.593 533.8Q315.885 533.871 316.182 533.911Q316.479 533.951 316.779 533.959C320.122 534.021 335.978 531.882 338.009 530.111C342.991 525.769 350.141 501.73 356.431 495.927C356.551 495.817 356.674 495.711 356.796 495.602Z"/>
	<path fill="#FFFEFE" d="M670.867 371.682L671.781 371.669L779.647 372.038L810.871 372.042C818.574 372.037 826.904 371.487 834.492 372.978C841.943 374.443 849.739 378.705 855.085 384.078Q856.282 385.295 857.378 386.604Q858.474 387.912 859.463 389.304Q860.452 390.695 861.326 392.161Q862.201 393.627 862.956 395.158Q863.711 396.689 864.342 398.275Q864.973 399.861 865.476 401.493Q865.979 403.124 866.35 404.79Q866.721 406.457 866.959 408.147C868.539 420.021 867.358 434.969 867.316 447.177L867.258 520.714L867.404 776.45L843.25 776.462L825.918 776.431C830.822 770.186 834.444 763.637 836.421 755.897C838.587 747.412 838.616 737.622 835.614 729.328C831.656 718.392 822.951 708.715 816.224 699.321L778.839 647.638C772.488 638.806 765.53 630.015 759.969 620.675C767.651 604.96 772.594 589.61 771.122 571.861Q771.041 570.844 770.935 569.829Q770.829 568.814 770.698 567.803Q770.568 566.791 770.412 565.783Q770.256 564.774 770.075 563.77Q769.894 562.766 769.688 561.767Q769.482 560.768 769.252 559.774Q769.022 558.78 768.767 557.792Q768.512 556.804 768.233 555.823Q767.953 554.842 767.65 553.868Q767.346 552.894 767.019 551.927Q766.691 550.961 766.34 550.003Q765.989 549.046 765.614 548.097Q765.239 547.148 764.84 546.209Q764.442 545.269 764.021 544.34Q763.599 543.411 763.155 542.493Q762.71 541.574 762.243 540.667Q761.777 539.76 761.287 538.865Q760.798 537.97 760.287 537.087Q759.775 536.204 759.242 535.334Q758.709 534.464 758.155 533.607Q757.601 532.751 757.025 531.908Q756.45 531.066 755.854 530.238Q755.258 529.41 754.641 528.597Q754.025 527.784 753.389 526.987Q752.752 526.189 752.097 525.408Q751.441 524.626 750.766 523.861Q750.091 523.096 749.397 522.348Q748.703 521.6 747.991 520.869Q747.279 520.139 746.549 519.426Q745.819 518.713 745.072 518.019Q744.324 517.324 743.56 516.648Q742.796 515.973 742.015 515.316C742.808 496.848 740.532 479.973 729.297 464.647C718.47 449.876 703.61 440.926 685.574 438.206C686.6 434.955 687.405 431.677 687.887 428.299C690.772 408.083 682.748 387.669 670.867 371.682Z"/>
	<path fill="#FFFEFE" d="M209.156 485.219C221.079 484.887 233.076 485.168 245.008 485.173L310.387 485.07Q310.447 496.947 310.269 508.822Q309.464 509.317 308.671 509.83C302.923 513.553 301.218 518.607 300 525.084C299.259 529.028 299.956 533.09 302.268 536.412C310.459 548.18 341.466 556.604 354.925 558.739C359.165 570.259 362.913 582.022 366.94 593.623L400.716 690.485C405.778 704.616 409.224 720.404 416.279 733.606Q417.043 735.03 417.896 736.403Q418.748 737.776 419.685 739.093Q420.623 740.41 421.641 741.665Q422.66 742.92 423.755 744.108Q424.851 745.296 426.019 746.413Q427.188 747.53 428.424 748.571Q429.661 749.611 430.961 750.572Q432.26 751.533 433.618 752.41C447.124 760.98 460.409 760.942 475.508 757.603C476.288 758.625 475.995 761.141 476.016 762.494L475.976 776.05L209.12 776.084L209.156 485.219Z"/>
	<path fill="#FFFEFE" d="M639.419 546.327C664.493 547.555 691.544 559.524 711.709 573.995Q718.922 579.142 725.523 585.053Q732.125 590.964 738.035 597.566C757.626 619.852 775.872 647.748 793.403 671.981L816.269 703.655C820.75 709.819 825.816 715.995 829.666 722.563C832.334 727.115 834.193 731.817 835.011 737.043C837.409 752.377 831.477 764.4 822.665 776.417L685.276 776.5C690.582 771.747 697.148 768.123 703.11 764.252Q725.712 749.825 748.84 736.26C756.327 731.838 765.593 727.025 772.581 722.134C773.729 721.331 774.558 720.711 775.181 719.414L774.574 718.598C770.91 718.729 737.073 740.082 730.345 743.868C719.252 734.155 709.696 722.046 699.563 711.308C699.143 711.158 698.55 711.204 698.102 711.183C694.77 714.628 687.052 744.639 685.712 750.497L504.839 750.402Q503.722 742.028 502.184 733.721C510.558 714.646 508.813 701.259 502.365 681.999C506.868 670.005 504.14 659.233 511.402 645.371Q512.804 642.711 514.525 640.245Q516.247 637.78 518.262 635.548C521.154 632.315 528.979 627.617 529.787 623.62C527.333 624.377 524.603 626.41 522.546 627.945C505.253 640.848 503.778 660.233 501.17 679.646C494.254 663.578 481.921 651.319 471.89 637.166C475.251 628.256 480.371 618.984 485.605 611.063C507.242 578.315 540.941 556.724 579.185 548.975C579.18 549.568 579.188 550.158 579.19 550.75C579.197 552.363 579.304 553.658 579.984 555.151C582.597 560.89 588.467 564.717 594.199 566.881Q595.048 567.206 595.912 567.489Q596.776 567.771 597.653 568.011Q598.53 568.25 599.418 568.445Q600.306 568.641 601.202 568.792Q602.099 568.943 603.001 569.049Q603.904 569.155 604.811 569.217Q605.718 569.278 606.627 569.294Q607.536 569.31 608.445 569.281Q609.353 569.251 610.259 569.177Q611.165 569.103 612.067 568.983Q612.968 568.864 613.862 568.7Q614.756 568.536 615.641 568.328Q616.526 568.119 617.399 567.867Q618.273 567.615 619.133 567.32Q619.992 567.025 620.837 566.688Q621.681 566.35 622.507 565.971C631.441 561.852 636.039 555.411 639.419 546.327Z"/>
	<path fill="#FFFEFE" d="M122.559 188.664C124.687 188.463 126.866 188.547 129.005 188.539L413.222 188.651L499.147 188.582C512.078 188.562 530.187 187.458 542.593 189.125C549.793 190.092 556.964 194.486 562.022 199.589C566.601 204.209 570.324 210.56 571.626 216.969C573.551 226.443 572.43 246.488 572.445 257.174L572.443 345.355C564.972 348.159 557.86 352.063 551.122 356.318C533.532 367.425 516.184 380.079 511.458 401.569Q511.199 402.721 510.996 403.885Q510.793 405.049 510.646 406.221Q510.5 407.393 510.409 408.57Q510.319 409.748 510.286 410.929Q510.252 412.109 510.275 413.29Q510.299 414.471 510.379 415.65Q510.459 416.828 510.596 418.001Q510.732 419.175 510.925 420.34Q511.118 421.505 511.367 422.66Q511.616 423.815 511.92 424.956Q512.224 426.097 512.583 427.223Q512.941 428.348 513.354 429.455Q513.766 430.562 514.231 431.648Q514.696 432.733 515.213 433.795Q515.73 434.857 516.297 435.893Q516.865 436.929 517.481 437.937C520.394 442.762 523.92 447.205 526.959 451.952C531.123 458.458 534.732 466.065 532.908 473.946C532.862 474.146 532.811 474.345 532.763 474.545C531.893 475.97 531.015 477.311 529.836 478.506C527.763 480.609 525.67 481.678 522.786 482.228C513.143 484.069 500.923 482.939 491.064 482.927L429.495 482.789C429.55 477.436 430.933 466.704 428.048 462.297C427.251 461.976 426.558 461.816 425.702 461.728C419.958 461.131 413.863 461.498 408.086 461.506L377.168 461.568L337.615 461.613C330.362 461.583 322.991 461.163 315.756 461.509C314.216 461.582 312.688 461.634 311.453 462.651C309.214 468.201 310.395 476.924 310.441 482.895L174.874 482.851L138.867 482.886C132.076 482.902 124.842 483.382 118.114 482.475C112.708 481.746 107.708 479.56 103.307 476.367C95.8454 470.955 90.732 463.131 89.3269 453.976C87.7678 443.817 88.8871 427.78 88.9261 416.822L88.9321 344.674L88.9125 262.2L88.876 237.159C88.8635 232.106 88.5866 226.848 89.1532 221.826Q89.2872 220.557 89.5065 219.3Q89.7257 218.043 90.0293 216.804Q90.3328 215.565 90.7192 214.349Q91.1056 213.133 91.5732 211.945Q92.0407 210.758 92.5873 209.605Q93.1338 208.452 93.7569 207.339Q94.38 206.225 95.0767 205.156Q95.7735 204.087 96.5407 203.068C103.033 194.437 112.037 190.148 122.559 188.664Z"/>
	<path d="M150.03 299.589C151.63 299.517 153.206 299.281 154.711 299.935C155.643 301.285 155.292 303.284 155.228 304.873C153.607 304.968 152.034 305.23 150.511 304.545C149.592 303.213 149.961 301.162 150.03 299.589Z"/>
	<path d="M336.319 387.442C336.894 387.581 337.708 387.72 338.253 387.997C339.47 388.616 339.817 389.338 340.296 390.559C340.303 392.326 339.917 393.268 339.102 394.823C338.087 394.819 337.296 394.603 336.328 394.313C335.662 393.604 335.125 393.277 334.911 392.29C334.473 390.263 335.237 389.043 336.319 387.442Z"/>
	<path d="M150.067 309.986C151.441 309.989 153.103 309.726 154.242 310.602C155.227 318.1 154.511 326.433 154.493 334.027C152.973 334.014 151.397 334.173 150.199 333.191C149.302 325.707 149.997 317.546 150.067 309.986Z"/>
	<path d="M411.502 309.051C412.742 309.051 414.307 308.873 415.462 309.353C416.001 309.576 416.112 312.248 416.5 313.071C417.677 311.431 418.638 310.131 420.301 308.966C421.562 308.784 421.65 308.72 422.758 309.319C423.142 310.395 423.378 310.935 423.225 312.106C422.877 314.787 419.24 315.139 417.62 316.834C416.233 318.285 416.174 319.933 416.078 321.828L416.054 322.415C416.116 326.088 416.317 329.826 416.077 333.49L415.008 334.142C413.667 334.202 412.957 334.231 411.703 333.649C410.559 328.37 411.521 315.184 411.502 309.051Z"/>
	<path d="M293.019 368.137C294.026 368.118 295.291 367.97 296.271 368.154C298.214 368.519 296.9 370.643 297.781 372.039C298.703 370.52 299.411 369.281 300.866 368.228C302.218 367.859 302.754 367.825 304.074 368.312C304.458 369.115 304.607 369.485 304.548 370.405C304.379 372.994 300.45 374.762 298.738 376.456C297.228 377.949 297.45 379.666 297.47 381.627L297.484 382.375C297.486 384.936 298.234 392.084 297.005 393.953C295.632 394.04 294.503 394.179 293.193 393.644C291.966 385.605 292.877 376.338 293.019 368.137Z"/>
	<path d="M178.665 242.182C180.142 242.158 182.011 241.83 183.258 242.73C184.422 251.469 183.503 267.972 183.452 277.314C181.881 277.344 180.414 277.548 179.166 276.557C177.791 266.862 178.538 252.27 178.665 242.182Z"/>
	<path d="M348.041 242.137C349.304 242.084 350.427 242.103 351.689 242.258C354.48 245.192 350.761 266.05 352.941 271.508C353.448 272.776 354.304 272.865 355.463 273.383C355.909 274.839 355.461 275.593 355.046 277.035C354.502 277.218 353.984 277.343 353.41 277.389C351.892 277.511 350.417 277.324 349.324 276.123C346.444 272.962 347.983 247.403 348.041 242.137Z"/>
	<path d="M185.306 361.519C186.868 361.483 189.203 361.215 190.512 362.154C191.802 369.423 190.828 385.522 190.818 393.677C189.027 393.729 187.341 393.932 185.662 393.187C184.319 385.378 185.293 370.262 185.306 361.519Z"/>
	<path d="M253.595 368.005C254.45 368.046 255.287 368.101 256.129 368.271C259.675 368.985 261.66 372.078 263.59 374.828C262.445 375.081 260.15 375.809 259.051 375.46C257.274 374.895 255.62 372.632 253.682 373.269C252.568 373.635 251.71 374.623 251.158 375.618C249.631 378.374 249.522 382.488 250.398 385.461C251.016 387.561 252.349 389.27 254.294 390.254C257.44 390.092 257.554 387.654 259.804 386.757C259.948 386.699 260.105 386.686 260.255 386.65C261.472 386.846 262.379 386.748 263.285 387.627C263.285 388.202 263.316 388.805 263.166 389.369C262.694 391.14 260.576 392.708 259.02 393.501C256.731 394.668 253.957 395.129 251.498 394.211C249.239 393.367 247.647 391.47 246.68 389.317C244.97 385.51 244.232 378.976 245.861 375.08C247.345 371.533 250.215 369.471 253.595 368.005Z"/>
	<path d="M317.882 298.641L320.273 298.914C321.199 299.937 321.099 300.543 321.283 301.887C320.295 303.516 317.233 303.394 315.57 305.096C315.264 306.018 315.04 306.641 315.137 307.631C315.228 308.552 315.18 308.223 316.007 308.942C317.614 309.018 319.18 308.87 320.499 309.919C321.053 311.289 321.027 311.989 320.887 313.413C319.41 314.429 317.421 312.909 315.606 313.709C314.828 319.951 315.28 326.701 315.282 333.011C315.276 333.673 315.336 333.246 314.758 334.192C313.354 334.387 312.402 334.419 310.981 334.155C308.653 328.6 312.003 320.554 310.443 314.701C309.975 312.944 308.567 313.806 307.127 312.934C306.822 311.821 306.76 311.37 307.168 310.281C307.827 310.021 308.48 309.778 309.154 309.557L309.782 309.355C311.061 306.871 310.593 302.924 311.942 301.02C313.153 299.311 315.993 299.028 317.882 298.641Z"/>
	<path d="M243.652 251.572C245.079 251.453 246.446 251.404 247.857 251.711C249.877 252.151 252.013 253.334 253.102 255.15C253.69 256.13 253.597 256.352 253.377 257.405C250.03 259.561 248.826 256.024 245.55 255.991C244.099 255.976 243.411 256.658 242.433 257.572C242.282 258.011 241.899 258.432 241.981 258.89C242.309 260.73 253.427 264.121 255.009 269.117C255.379 270.286 255.475 271.518 254.83 272.623C253.224 275.372 249.488 277.017 246.57 277.715C244.713 277.636 242.864 277.426 241.119 276.74C239.267 276.012 237.055 274.501 236.229 272.647C237.941 270.589 245.481 273.082 248.275 272.594C249.408 272.396 249.29 272.177 249.938 271.321C249.933 270.842 250.086 270.334 249.922 269.885C249.153 267.768 240.149 264.765 237.99 262.394C237.08 261.395 236.33 260.036 236.602 258.634C237.184 255.623 241.148 252.85 243.652 251.572Z"/>
	<path d="M223.986 326.752C224.964 327.198 225.756 328.557 226.759 328.839C230.316 329.838 234.16 328.863 237.911 330.366C239.325 330.933 240.781 331.851 241.224 333.409C241.584 334.672 241.15 336.017 240.6 337.156C239.092 340.277 237.759 341.168 234.571 342.336C232.967 342.703 231.383 342.923 229.734 342.957C227.392 343.004 222.065 342.292 220.467 340.257C219.671 339.245 219.388 338.429 219.588 337.146C219.777 335.941 220.522 335.369 221.417 334.678C222.021 334.212 222.528 333.885 223.004 333.273C223.444 332.709 221.056 330.575 220.955 329.297C221.744 327.867 222.598 327.464 223.986 326.752Z"/>
	<path fill="#FFFEFE" d="M224.258 333.153C227.328 333.549 232.664 332.898 235.027 334.971C235.154 336.529 234.799 336.692 233.935 337.94C231.756 338.63 229.705 339.135 227.405 338.771C226.154 338.572 224.816 338.016 224.177 336.844C223.427 335.469 223.903 334.527 224.258 333.153Z"/>
	<path d="M228.583 308.646C230.84 308.872 233.234 310.627 235.3 310.132C236.239 309.156 236.754 308.517 238.093 308.127C238.764 308.298 239.32 308.444 239.88 308.875C240.916 309.674 240.912 309.725 241.039 310.953C240.341 312.262 239.008 313.007 237.832 313.854C237.349 316.011 237.718 317.631 237.7 319.767C237.677 322.527 235.83 324.027 233.938 325.717C233.801 325.776 233.667 325.842 233.527 325.895C230.93 326.894 228.207 327.055 225.647 325.805C223.465 324.739 221.933 322.926 221.143 320.642Q220.989 320.196 220.882 319.736Q220.775 319.277 220.716 318.808Q220.657 318.34 220.646 317.868Q220.635 317.397 220.673 316.926Q220.711 316.456 220.797 315.992Q220.882 315.528 221.016 315.075Q221.149 314.622 221.328 314.186Q221.507 313.749 221.73 313.333C223.296 310.468 225.552 309.432 228.583 308.646Z"/>
	<path fill="#FFFEFE" d="M227.459 312.935C228.851 312.929 230.282 312.99 231.451 313.818C232.586 314.62 233.32 315.761 233.489 317.148C233.767 319.425 232.894 320.916 231.553 322.662C229.884 322.712 228.398 322.79 227.005 321.669C225.891 320.773 225.452 319.731 225.326 318.334C225.134 316.198 226.19 314.524 227.459 312.935Z"/>
	<path d="M351.1 309.215L356.417 309.179C354.376 314.712 352.849 320.467 351.175 326.122C349.614 331.098 348.325 339.187 343.881 342.367C341.973 343.733 340.088 343.135 337.954 342.74L337.315 341.428C339.001 340.056 341.325 338.551 342.61 336.804C343.139 336.085 343.622 335.058 343.641 334.152C343.758 328.367 338.055 316.196 337.064 309.244C338.489 309.204 339.912 309.233 341.337 309.253C343.777 314.506 344.97 321.202 346.52 326.834Q348.994 318.072 351.1 309.215Z"/>
	<path d="M385.59 309.261C387.108 309.143 388.573 309.06 390.096 309.121C391.746 313.055 389.943 321.373 390.653 326.099C390.904 327.776 391.255 328.983 392.673 330.009C393.667 330.271 394.329 330.123 395.271 329.706C401.696 326.863 397.244 315.007 399.489 309.526C400.742 308.745 401.486 309.008 402.936 309.082C404.157 311.203 403.504 315.597 403.466 318.089C403.482 323.119 404.082 328.661 403.235 333.603C402.205 334.316 402.16 334.257 400.898 334.172C399.52 333.281 399.459 333.224 398.866 331.697C397.63 331.384 394.049 334.792 391.847 334.815C390.296 334.831 389.108 333.925 388.117 332.828C383.621 327.848 385.371 315.684 385.59 309.261Z"/>
	<path d="M297.654 251.999C298.786 251.936 300.244 251.672 301.278 252.202C304.587 253.898 301.144 265.996 302.582 269.573C303.071 270.791 303.983 271.957 305.28 272.399C306.716 272.889 307.092 272.768 308.452 272.292C312.343 268.204 309.927 257.878 310.664 252.488L311.713 251.816C313.064 251.701 313.603 251.773 314.788 252.439C315.901 254.366 315.446 256.709 315.425 258.92C315.433 264.434 316.201 271.271 315.154 276.639C313.824 277.352 313.175 277.285 311.727 277.174C310.276 276.242 311.069 276.033 310.234 274.805C308.81 275.858 306.814 277.503 305.03 277.773C303.422 278.017 301.683 277.343 300.554 276.234C296.178 271.934 297.68 258.04 297.654 251.999Z"/>
	<path d="M481.111 251.047C483.07 251.406 484.679 251.746 486.105 253.247C490.552 257.925 488.688 271.035 488.648 277.326L483.47 277.216C483.794 271.997 484.686 266.004 483.816 260.847C483.486 258.893 482.979 257.577 481.312 256.38C479.654 255.946 478.757 256.163 477.134 256.659C472.681 262.004 476.059 270.344 474.824 276.649C474.434 276.94 474.31 277.081 473.773 277.21C472.651 277.479 471.372 277.276 470.462 276.656C469.734 274.19 469.866 255.469 470.373 252.418L471.354 251.787C472.744 251.646 473.639 251.418 474.967 251.963L475.165 253.374L475.716 253.748C477.504 252.535 479.004 251.585 481.111 251.047Z"/>
	<path d="M392.772 251.558C394.819 251.559 396.592 251.636 398.3 252.891C403.897 257 400.641 267.304 401.684 273.21L402.289 276.829L400.955 277.479C399.592 277.426 398.845 276.931 397.725 276.234L397.282 275.954C395.825 275.881 394.946 276.276 393.664 276.876C392.669 277.341 391.613 278.007 390.474 277.939C388.504 277.823 387.121 276.32 385.867 274.991Q385.176 273.371 384.77 271.657C382.471 262.079 393.989 265.192 397.054 260.424C397.076 259.047 396.978 258.433 396.275 257.243C392.974 255.04 389.575 258.275 386.094 257.888L385.717 257.198C385.845 256.64 385.97 255.904 386.238 255.382C387.477 252.979 390.374 252.247 392.772 251.558Z"/>
	<path fill="#FFFEFE" d="M392.291 266.041C394.089 265.965 395.198 265.846 396.671 266.973C397.219 268.287 397.545 268.804 397.11 270.246C396.588 271.983 395.448 272.746 394.009 273.7C392.629 273.507 391.22 273.38 390.226 272.248C389.396 271.302 389.185 270.259 389.443 269.042C389.752 267.583 391.147 266.797 392.291 266.041Z"/>
	<path d="M199.275 251.549C199.47 251.546 199.665 251.533 199.86 251.54C202.158 251.623 204.463 252.35 206.038 254.097C208.894 257.264 208.548 262.209 208.494 266.17C205.227 266.26 201.9 266.043 198.655 266.202C197.359 266.266 196.24 266.527 195.338 267.51C195.23 268.931 195.576 270.019 196.547 271.11C200.406 275.446 203.299 270.987 207.253 271.561C207.463 271.592 207.66 271.68 207.863 271.74C208.334 272.766 208.48 273.223 208.295 274.344C207.453 275.641 206.387 276.247 204.986 276.828C202.247 277.965 199.322 278.246 196.591 276.938C193.788 275.596 191.867 272.907 190.887 270.02C189.555 266.097 189.662 261.365 191.526 257.628C193.283 254.106 195.663 252.784 199.275 251.549Z"/>
	<path fill="#FFFEFE" d="M197.225 256.493C198.067 256.419 198.987 256.297 199.829 256.36C201.199 256.463 202.287 257.091 203.096 258.195C203.762 259.105 204.033 260.035 203.862 261.151C202.936 262.111 202.873 261.915 201.625 262.101C199.407 262.141 196.943 262.53 194.968 261.376L194.76 260.262C195.369 258.77 196.203 257.729 197.225 256.493Z"/>
	<path d="M220.621 251.584C222 251.504 223.356 251.465 224.725 251.698C226.733 252.039 228.205 253.175 229.284 254.867C231.898 258.964 232.02 272.136 231.077 277.018L230.085 277.534C228.616 277.335 227.764 276.678 226.589 275.849L226.098 275.498C224.371 276.472 222.283 277.759 220.235 277.766C218.066 277.773 216.721 276.527 215.239 275.149C215.007 274.685 214.77 274.223 214.577 273.741C213.783 271.764 213.143 269.083 214.214 267.072C216.517 262.745 222.046 262.88 226.185 261.787C226.316 261.127 226.366 261.012 226.363 260.254C226.355 258.788 225.926 257.445 224.953 256.357C221.799 255.457 219.791 257.774 216.979 258.872C215.737 258.716 215.743 258.947 214.853 257.953C214.801 257.474 214.727 257.091 214.839 256.597C215.49 253.733 218.267 252.726 220.621 251.584Z"/>
	<path fill="#FFFEFE" d="M223.447 265.535L225.01 265.545C226.082 266.143 226.057 266.317 226.559 267.46C226.526 268.533 226.393 269.309 225.903 270.261C224.823 272.361 223.569 272.931 221.439 273.643C220.119 272.918 218.61 272.021 218.21 270.436C217.945 269.387 218.27 268.689 218.822 267.826C219.876 266.178 221.686 265.925 223.447 265.535Z"/>
	<path d="M267.117 251.547C268.243 251.484 269.397 251.4 270.524 251.468C272.723 251.601 274.675 253.039 275.973 254.74C277.542 256.795 278.715 261.384 278.113 263.917C276.899 269.027 268.459 264.724 264.596 266.856C264.163 267.837 264.008 268.014 264.496 269.066C265.172 270.525 267.366 272.604 268.942 272.977C270.934 273.448 273.272 272.198 275.002 271.396C275.907 272.677 276.655 273.284 276.668 274.878C276.201 275.403 276.159 275.495 275.511 275.972C273.266 277.624 269.784 278.309 267.11 277.526C264.304 276.705 262.139 274.425 260.879 271.858C258.873 267.772 258.692 262.229 260.363 258.003C261.768 254.45 263.737 253.098 267.117 251.547Z"/>
	<path fill="#FFFEFE" d="M267.992 255.886C269.652 256.186 270.767 256.427 271.919 257.714C272.962 258.881 273.214 259.789 273.153 261.32C272.179 262.304 272.026 262.186 270.624 262.326C268.741 262.36 266.915 262.611 265.253 261.582C264.424 260.47 264.398 260.539 264.533 259.168C265.54 257.635 266.465 256.886 267.992 255.886Z"/>
	<path d="M204.034 308.617C205.558 308.555 207.271 308.374 208.747 308.832C210.936 309.511 212.432 311.305 213.371 313.327C215.262 317.398 215.676 329.535 214.15 333.733C213.045 333.941 212.137 333.892 211.02 333.789L209.762 331.96C208.536 332.169 207.958 332.447 206.955 333.201C206.04 333.888 205.283 334.358 204.237 334.815C201.557 334.768 199.956 333.246 198.103 331.49C197.785 330.905 197.507 330.317 197.274 329.693C196.539 327.721 196.124 325.453 197.229 323.521C199.455 319.63 204.724 320.436 208.225 318.843C209.521 318.254 209.507 317.846 209.836 316.592C209.562 315.656 209.389 314.924 208.758 314.152C206.153 310.969 202.054 315.773 199.126 315.371C198.148 314.492 197.948 314.513 197.794 313.23C199.118 310.673 201.462 309.634 204.034 308.617Z"/>
	<path fill="#FFFEFE" d="M204.133 323.124C205.798 323.04 207.431 322.724 208.905 323.652C209.358 324.328 209.797 324.658 209.748 325.516C209.623 327.719 208.043 328.904 206.46 330.176C205.113 330.124 203.739 330.165 202.701 329.126C201.642 328.067 201.687 327.424 201.642 326.041C202.293 324.497 202.825 324.067 204.133 323.124Z"/>
	<path d="M276.344 368.079C277.995 368.249 279.551 368.433 280.964 369.383C283.361 370.993 284.619 374.19 285.077 376.932C285.618 380.172 286.524 391.389 284.28 394.009C283.855 394.505 283.301 394.368 282.7 394.416C281.724 393.976 281.119 393.68 280.544 392.767C280.395 392.529 280.255 392.286 280.11 392.045C277.677 391.898 276.532 395.16 273.906 394.962C271.531 394.782 269.419 392.325 268.015 390.635C267.619 389.283 267.444 387.726 267.613 386.324C268.605 378.147 275.652 381.414 280.14 377.894C280.532 376.55 280.421 375.731 279.801 374.424C279.205 373.168 278.548 372.88 277.304 372.434C274.985 372.788 273.136 374.261 271.198 375.508C270.028 375.51 269.853 375.496 268.858 374.893C268.606 373.601 268.79 373.031 269.467 371.908C271.125 369.159 273.485 368.828 276.344 368.079Z"/>
	<path fill="#FFFEFE" d="M274.728 382.493C275.782 382.425 277.588 382.204 278.589 382.508C279.83 382.886 280.03 383.533 280.615 384.574C280.671 387.152 279.456 388.609 277.786 390.424C276.311 390.392 274.986 390.386 273.787 389.366C272.858 388.577 272.449 387.485 272.537 386.276C272.662 384.57 273.579 383.639 274.728 382.493Z"/>
	<path d="M451.106 251.552C453.776 251.399 456.54 251.337 458.766 253.072C464.001 257.154 461.905 270.87 462.709 277.15C461.041 277.266 459.375 277.594 457.831 276.817L457.406 275.392C455.344 275.577 454.907 277.11 453.176 277.731C451.384 278.375 448.877 277.19 447.225 276.556C446.161 275.31 445.575 274.331 445.032 272.78C444.952 272.551 444.878 272.32 444.799 272.091C444.297 270.631 443.763 269.31 444.37 267.764C446.167 263.189 453.09 263.191 456.944 261.463C457.529 260.042 457.777 259.667 457.558 258.105C454.457 255.204 449.169 258.736 445.613 257.377L445.535 256.579C446.946 254.034 448.546 252.863 451.106 251.552Z"/>
	<path fill="#FFFEFE" d="M452.811 265.461C454.711 265.476 455.665 265.447 457.093 266.726C457.378 267.603 457.725 268.17 457.54 269.105C457.088 271.381 455.872 272.469 454.022 273.722C452.309 273.481 451.521 273.297 450.256 272.089C449.689 270.714 449.456 270.262 449.836 268.752C450.212 267.258 451.622 266.274 452.811 265.461Z"/>
	<path d="M251.564 308.579Q252.677 308.501 253.792 308.464C256.208 308.391 258.202 308.941 259.942 310.701C263.092 313.887 263.091 319.038 263.196 323.218C258.768 323.313 253.913 322.604 249.588 323.568L249.152 324.313C249.308 325.172 249.455 326.063 249.733 326.891C250.165 328.179 251.025 329.023 252.275 329.532C254.832 330.575 257.883 329.415 260.235 328.415C261.277 329.501 262.136 329.923 262.193 331.461C261.6 332.197 261.085 332.745 260.294 333.278C257.954 334.855 255.573 335.758 252.739 335.081C250.095 334.45 247.856 332.481 246.458 330.206C244.048 326.281 243.641 320.839 244.917 316.466C246.064 312.54 248.059 310.52 251.564 308.579Z"/>
	<path fill="#FFFEFE" d="M251.923 312.95C253.271 312.914 254.611 312.786 255.783 313.579C257.212 314.545 258.252 316.313 258.456 317.998C258.563 318.891 258.562 318.577 257.974 319.376L256.625 319.578C254.18 319.646 251.225 320.117 249.298 318.355C249.147 315.921 250.409 314.726 251.923 312.95Z"/>
	<path d="M171.577 308.35C173.929 308.52 174.812 309.41 176.344 311.083C176.977 311.774 176.97 311.602 177.852 311.687C179.497 310.345 181.16 308.996 183.301 308.586C184.873 308.286 186.155 308.645 187.401 309.625C189.496 311.273 190.231 314.674 190.442 317.168C190.745 320.759 191.631 331.336 189.466 333.936C188.095 334.088 187.501 334.131 186.285 333.446C183.796 329.646 186.199 321.961 185.584 317.397C185.377 315.862 184.729 314.557 183.283 313.839C182.153 313.278 181.585 313.514 180.507 313.898C176.965 317.777 178.078 325.669 178.173 330.625C178.182 331.574 178.129 332.277 177.845 333.185C177.368 333.486 176.592 334.07 176.028 334.256C174.988 334.598 174.85 334.464 173.916 333.913C172.35 329.189 174.218 322.526 173.466 317.402C173.226 315.762 172.875 314.539 171.53 313.488C170.504 313.405 170.249 313.276 169.264 313.713C163.445 316.295 167.96 328.582 166.076 333.579C164.917 334.118 163.711 333.907 162.472 333.831L161.993 333.173C161.931 326.618 160.9 316.011 162.327 309.805C162.71 309.618 163.224 309.336 163.648 309.293C164.859 309.169 165.444 309.553 166.323 310.234L166.516 312.169L167.681 311.804C168.873 310.293 169.927 309.342 171.577 308.35Z"/>
	<path d="M369.158 308.63C370.575 308.794 372.096 309.04 373.359 309.738C376.37 311.402 378.34 314.427 379.198 317.702C380.256 321.74 379.768 326.466 377.532 330.035C375.655 333.03 373.483 334.19 370.104 334.915C368.603 334.723 367.164 334.5 365.807 333.785C362.916 332.263 360.955 329.182 360.12 326.096C359.024 322.045 359.467 317.266 361.67 313.65C363.521 310.61 365.76 309.369 369.158 308.63Z"/>
	<path fill="#FFFEFE" d="M367.911 313.777C369.748 313.737 371.31 313.966 372.643 315.339C374.287 317.032 374.864 319.479 374.752 321.78C374.58 325.291 373.573 327.768 371.057 330.187C369.523 330.119 368.228 330.11 367.003 329.053C365.33 327.609 364.618 325.347 364.537 323.202C364.4 319.569 365.435 316.419 367.911 313.777Z"/>
	<path d="M368.282 251.507C369.608 251.498 371.034 251.472 372.31 251.879C375.108 252.772 377.241 255.108 378.384 257.751C380.195 261.94 380.015 267.386 378.225 271.553C376.775 274.927 374.973 276.357 371.645 277.752C369.91 277.73 368.014 277.727 366.385 277.059C363.587 275.91 361.415 273.306 360.342 270.527C358.846 266.654 358.904 261.793 360.607 257.998C362.303 254.219 364.515 252.919 368.282 251.507Z"/>
	<path fill="#FFFEFE" d="M367.507 256.427C369.309 256.267 370.807 256.211 372.285 257.436C374.01 258.866 374.713 261.357 374.804 263.516C374.96 267.2 374.11 270.477 371.648 273.219C370.28 273.261 368.82 273.235 367.648 272.443C365.681 271.114 364.746 268.502 364.566 266.231C364.278 262.599 365.124 259.183 367.507 256.427Z"/>
	<path d="M289.504 308.624C291.328 308.357 293.303 308.086 295.102 308.632C297.646 309.405 299.859 311.528 301.117 313.821C303.181 317.585 303.46 322.476 302.192 326.543C300.982 330.423 298.834 332.743 295.265 334.565C293.592 334.89 291.829 334.987 290.165 334.572C287.462 333.897 285.27 332.141 283.905 329.72C281.756 325.907 281.538 320.67 282.793 316.539C283.994 312.587 285.949 310.573 289.504 308.624Z"/>
	<path fill="#FFFEFE" d="M291.415 312.912C291.73 312.933 292.045 312.948 292.36 312.974C294.038 313.113 295.276 313.683 296.312 315.023C298.195 317.458 298.503 320.857 298.003 323.796C297.497 326.769 296.62 328.54 294.164 330.298Q293.611 330.254 293.061 330.186C291.239 329.952 289.97 329.264 288.894 327.767C287.148 325.336 286.782 322.061 287.338 319.185C287.928 316.133 288.825 314.602 291.415 312.912Z"/>
	<path d="M323.619 251.704C325.095 251.669 326.293 251.622 327.71 252.139C327.715 252.957 327.764 253.648 327.953 254.444C328.856 254.211 328.652 254.378 329.256 253.889C330.024 253.267 330.724 252.562 331.579 252.052C332.974 251.218 334.52 251.345 336.008 251.82C338.227 252.529 339.795 254.268 340.754 256.339C342.776 260.707 342.636 266.579 341.011 271.04C339.773 274.442 338.195 275.98 334.937 277.453C331.978 277.551 330.387 276.8 327.818 275.329C327.724 278.178 328.844 282.802 326.941 285.049C325.778 285.562 325.233 285.524 323.991 285.304C322.223 281.154 323.268 257.575 323.619 251.704Z"/>
	<path fill="#FFFEFE" d="M330.406 255.898C331.741 255.96 333.164 255.92 334.331 256.671C336.093 257.805 336.987 260.054 337.245 262.054Q337.341 262.755 337.364 263.461Q337.388 264.168 337.338 264.873Q337.289 265.579 337.167 266.275Q337.045 266.972 336.853 267.652Q336.66 268.332 336.398 268.989Q336.137 269.646 335.809 270.272Q335.481 270.899 335.091 271.488Q334.7 272.078 334.251 272.624C332.477 272.981 331.458 273.183 329.769 272.421C328.124 270.796 327.604 268.795 327.529 266.505C327.405 262.685 327.827 258.814 330.406 255.898Z"/>
	<path d="M150.488 243.879C156.248 243.781 164.059 242.687 168.894 246.454C170.958 248.061 172.163 250.28 172.379 252.889Q172.426 253.448 172.414 254.009Q172.403 254.569 172.334 255.126Q172.265 255.682 172.138 256.229Q172.012 256.775 171.829 257.305Q171.647 257.836 171.411 258.344Q171.175 258.853 170.887 259.334Q170.599 259.816 170.263 260.265Q169.928 260.714 169.547 261.126C166.978 263.931 164.168 264.059 160.625 264.174C159.113 264.159 156.973 263.856 155.722 264.748C154.984 267.234 155.543 269.986 155.657 272.555C155.747 274.575 155.83 275.741 154.433 277.273C152.989 277.677 152.104 277.295 150.752 276.828L150.534 275.431L151.045 275.556L151.076 275.304L150.364 274.973C150.723 271.874 150.414 268.4 150.422 265.262L150.488 243.879Z"/>
	<path fill="#FFFEFE" d="M155.406 248.996C157.387 248.955 159.443 248.838 161.416 249.031C163.616 249.246 165.415 249.877 166.811 251.644C167.628 254.231 166.971 255.694 165.795 258.021C162.321 259.551 159.067 259.38 155.355 259.322L155.406 248.996Z"/>
	<path d="M422.037 242.114C423.27 242.118 425.387 241.852 426.409 242.444C427.041 249.784 427.289 269.938 426.489 276.917L425.485 277.582C424.014 277.373 422.666 275.647 421.663 275.695C417.656 275.888 418.874 278.5 412.56 276.968C409.446 273.866 408.321 270.336 408.034 265.983C407.767 261.931 408.404 256.684 411.248 253.545C412.386 252.289 413.82 251.551 415.523 251.497C418.322 251.407 419.947 252.709 421.925 254.516L422.037 242.114Z"/>
	<path fill="#FFFEFE" d="M415.455 256.382C417.078 256.297 418.766 256.094 420.04 257.334C421.795 259.041 422.345 262.388 422.239 264.728C422.089 268.057 421.822 271.091 419.233 273.407C417.841 273.37 416.752 273.281 415.583 272.376C414.036 271.179 413.29 268.86 413.038 266.996C412.543 263.347 413.133 259.293 415.455 256.382Z"/>
	<path d="M325.258 359.283L327.221 359.704C327.446 359.917 327.751 360.07 327.896 360.344C328.796 362.046 328.005 388.414 328.24 393.078L327.52 393.681C326.058 393.758 325.273 393.37 324.012 392.73L323.545 392.487C321.35 392.579 320.242 393.963 318.268 394.542C316.257 395.132 314.155 393.899 312.463 392.977C310.259 390.332 309.472 387.37 309.1 383.998C308.603 379.49 309.265 373.811 312.32 370.232C313.404 368.962 314.793 368.063 316.494 367.964C319.412 367.794 321.107 369.394 323.093 371.288C323.108 368.181 322.521 364.331 323.266 361.328C323.608 359.953 324.08 359.954 325.258 359.283Z"/>
	<path fill="#FFFEFE" d="M317.374 372.396C319.061 372.931 320.537 373.355 321.622 374.862C323.653 377.686 324.013 381.394 323.368 384.72C322.886 387.209 322.153 388.194 320.088 389.647C319.57 389.643 319.051 389.647 318.534 389.612C317.165 389.52 316.293 389.011 315.42 387.943C313.813 385.973 313.411 382.91 313.659 380.458C314.004 377.039 314.676 374.592 317.374 372.396Z"/>
	<path d="M151.131 361.496L156.907 361.474Q163.316 372.29 169.909 382.997C169.922 379.425 169.037 364.153 170.357 361.806C170.932 361.657 171.579 361.451 172.182 361.437C173.353 361.408 174.148 361.566 175.031 362.35C176.188 372.368 175.276 383.231 175.318 393.345C173.463 393.916 171.202 393.61 169.273 393.553C164.79 386.592 161.132 379.146 156.573 372.215C156.538 377.495 157.036 382.883 156.718 388.145C156.569 390.616 156.359 392.189 154.473 393.897C153.146 394.147 152.599 393.898 151.392 393.334C150.209 385.661 151.122 370.032 151.131 361.496Z"/>
	<path d="M200.646 361.585C206.542 361.505 214.528 360.509 219.698 363.83C222.775 365.806 224.564 369.001 225.326 372.519C226.684 378.788 225.367 384.784 221.821 390.029C215.955 395.168 207.91 393.952 200.678 393.764L200.646 361.585Z"/>
	<path fill="#FFFEFE" d="M206.498 367.558C209.413 367.273 212.708 366.899 215.341 368.428C217.519 369.691 218.929 371.514 219.556 373.957C220.59 377.988 219.272 382.907 217.137 386.362C213.547 388.805 210.628 388.604 206.452 388.575L206.498 367.558Z"/>
</svg>
