<?xml version="1.0" encoding="utf-8" ?>
<svg xmlns="http://www.w3.org/2000/svg" xmlns:xlink="http://www.w3.org/1999/xlink" width="1820" height="1024">
	<path fill="#CA2D2C" d="M1304.48 56.433C1305.53 56.4025 1306.59 56.5387 1307.63 56.6211C1308.2 57.6946 1308.56 58.5213 1308.73 59.7415C1309.57 65.7745 1310.64 79.0875 1306.99 84.016C1306.46 83.9935 1305.99 83.4097 1305.58 83.0779C1304.34 74.2844 1305.31 65.2827 1304.48 56.433Z"/>
	<path fill="#CA2D2C" d="M1163.86 183.555C1169.84 182.693 1191.62 181.267 1196.22 183.653L1195.48 185.716C1192.11 188.08 1179.59 186.865 1175.18 186.761C1170.49 186.65 1167.27 187.144 1163.86 183.555Z"/>
	<path fill="#CA2D2C" d="M1208.84 91.9788L1212.49 91.7096C1219.07 94.1363 1226.97 104.494 1231.55 109.855C1232.57 111.049 1232.34 111.12 1232.21 112.731L1231.4 113.368C1226.61 112.968 1212.5 96.167 1208.84 91.9788Z"/>
	<path fill="#CA2D2C" d="M1437.59 182.667C1440.82 182.535 1444.89 182.163 1447.76 183.788L1447.64 185.246C1443.26 188.525 1430.9 187.299 1425.21 187.347C1422.76 187.449 1420.47 187.584 1418.05 187.114L1417.35 185.381L1418.2 183.655C1423.9 181.877 1431.59 182.661 1437.59 182.667Z"/>
	<path fill="#E0514D" d="M1422.61 650.588C1422.8 650.691 1422.98 650.792 1423.16 650.896C1436.96 658.877 1447.62 669.934 1465.95 664.621C1466.57 664.442 1467.15 664.195 1467.73 663.924C1468.39 665.555 1468.54 666.649 1469.99 667.682C1467.51 668.978 1463.64 668.759 1460.87 668.859C1443.53 669.487 1431.38 662.028 1419.1 650.631L1422.61 650.588Z"/>
	<path fill="#D49271" d="M575.011 875.312C579.756 872.464 584.054 868.622 588.378 865.173C590.391 868.705 592.226 871.871 595.589 874.299C592.813 877.951 589.61 882.411 584.734 883.219C583.545 883.416 582.103 883.207 580.924 883.072C579.404 880.079 578.137 876.904 575.011 875.312Z"/>
	<path fill="#D49271" d="M562.533 620.999C564.329 616.647 566.695 612.386 571.398 610.597C573.773 609.694 574.656 610.048 576.92 610.842C579.235 613.245 580.087 615.696 580.038 618.977C579.984 622.64 578.829 626.25 576.017 628.752C573.36 631.116 569.739 631.27 566.386 630.886C564.659 630.688 563.162 630.292 561.586 629.536C562.493 627.015 563.601 623.535 562.533 620.999Z"/>
	<path fill="#84BACF" d="M229.66 815.948C229.55 816.114 229.455 816.29 229.329 816.444C227.706 818.436 225.684 819.185 223.217 819.499C221.132 818.451 220.221 817.513 219.206 815.359C215.872 808.288 216.219 773.881 218.751 766.559C220.89 765.043 223.174 765.219 225.698 765.114C225.339 775.63 217.152 806.188 223.556 813.844C225.154 815.755 227.394 815.637 229.66 815.948Z"/>
	<path fill="#C97F69" d="M1486.48 646.808C1489.23 646.458 1494.67 645.258 1497.12 646.883C1497.25 646.969 1497.35 647.091 1497.47 647.196C1496.41 649.947 1478.07 669.903 1474.87 672.346C1472.71 672.073 1471.71 671.512 1470.09 670.065L1470.76 668.903L1469.99 667.682C1468.54 666.649 1468.39 665.555 1467.73 663.924L1467.69 662.842C1466.64 661.654 1466.21 661.152 1465.96 659.52C1468.6 656.225 1474.29 654.936 1478.15 653.427C1481.94 651.948 1484.73 650.788 1486.48 646.808Z"/>
	<path fill="#C97F69" d="M557.995 554.094C559.572 548.195 560.6 535.23 566.202 532.111Q569.354 530.367 572.841 529.468C575.652 533.241 578.901 536.944 578.06 542.011C576.909 548.945 567.837 553.255 564.141 558.975C562.227 556.783 560.829 555.12 557.995 554.094Z"/>
	<path fill="#84BACF" d="M630.92 875.282C631.854 877.698 632.674 879.968 631.442 882.454C627.275 890.864 597.241 902.471 588.056 905.224C587.162 905.492 586.263 905.581 585.337 905.61C583.364 904.115 582.918 902.112 582.142 899.866C583.098 899.588 582.868 899.705 583.591 899.354C600.285 891.239 616.837 888.423 630.92 875.282Z"/>
	<path fill="#C97F69" d="M1522.56 607.094C1525.07 608.554 1528.26 613.888 1529.19 616.736C1529.29 617.039 1529.36 617.485 1529.41 617.78C1527.39 621.732 1508.26 639.637 1504.57 641.464C1499.59 642.73 1494.32 642.915 1489.21 642.393C1492.33 640.684 1521.48 609.71 1522.56 607.094Z"/>
	<path fill="#C97F69" d="M1711.39 586.763C1711.56 586.681 1711.73 586.604 1711.9 586.518C1721.47 581.626 1722.81 574.365 1735.71 574.119L1737.02 574.869C1736.25 576.937 1735.31 578.796 1734.23 580.721C1735.15 581.467 1735.89 581.651 1737.04 581.924C1734.89 586.71 1725.01 589.843 1720.74 593.24C1719.07 593.376 1717.46 593.506 1715.78 593.427C1704.59 594.347 1694.18 600.48 1682.85 600.923C1683.4 599.714 1683.67 598.59 1683.89 597.279C1684.46 593.925 1684.14 591.368 1682.16 588.639C1691.38 588.061 1702.55 589.176 1711.39 586.763Z"/>
	<path fill="#13415F" d="M1700.76 861.591C1704.54 860.273 1707.7 856.041 1710.43 853.193C1711.48 854.094 1712.66 854.889 1713.21 856.205C1717.09 857.385 1722.1 859.546 1726.1 859.636C1733.16 859.794 1746.69 853.39 1752.44 858.942C1752.66 860.348 1752.98 861.035 1752.14 862.303C1747.98 868.542 1717.78 882.895 1710.28 885.025C1711.01 880.261 1707.89 875.054 1705.73 870.977C1705.68 869.847 1705.62 868.711 1705.42 867.596C1704.91 864.675 1703.03 863.173 1700.76 861.591Z"/>
	<path fill="#C97F69" d="M1700.76 861.591C1704.54 860.273 1707.7 856.041 1710.43 853.193C1711.48 854.094 1712.66 854.889 1713.21 856.205C1713.61 860.054 1714.78 865.371 1712.38 868.743C1711.71 869.689 1710.78 870.242 1709.77 870.759L1705.73 870.977C1705.68 869.847 1705.62 868.711 1705.42 867.596C1704.91 864.675 1703.03 863.173 1700.76 861.591Z"/>
	<path fill="#13415F" d="M1422.54 828.454C1425.79 831.032 1429.24 833.986 1429.92 838.306C1428.8 839.293 1428.1 839.857 1426.65 840.349L1425.85 840.965C1426.04 841.914 1426.21 842.808 1426.08 843.778C1425.58 847.522 1422.12 849.89 1419.32 851.953C1419.8 853.1 1420.11 854.225 1420.39 855.433C1421.62 860.619 1424.49 871.151 1421.63 875.815C1420.36 876.273 1419.25 876.604 1418.36 877.683C1417.75 878.421 1417.6 878.615 1416.74 878.961C1411.47 875.087 1406.37 861.273 1404.04 855.092C1402.21 850.253 1397 837.327 1399.11 832.636C1403.58 829.641 1411.67 830.403 1416.95 830.395C1419.17 830.088 1420.64 829.649 1422.54 828.454Z"/>
	<path fill="#D49271" d="M1422.54 828.454C1425.79 831.032 1429.24 833.986 1429.92 838.306C1428.8 839.293 1428.1 839.857 1426.65 840.349L1425.85 840.965C1422.62 839.889 1420.44 838.999 1417.93 836.637C1418.53 834.063 1418.05 832.75 1416.95 830.395C1419.17 830.088 1420.64 829.649 1422.54 828.454Z"/>
	<path fill="#C97F69" d="M1417.93 836.637C1420.32 835.863 1422.65 835.128 1425.14 834.697L1426.5 835.61C1426.67 837.228 1426.8 838.726 1426.65 840.349L1425.85 840.965C1422.62 839.889 1420.44 838.999 1417.93 836.637Z"/>
	<path fill="#13415F" d="M225.698 765.114C233.917 765.631 242.164 766.304 250.399 766.441L251.343 766.411C251.457 774.552 250.441 783.935 254.257 791.272L247.588 790.908L243.74 791.679C240.394 792.062 238.302 793.375 236.228 795.964C232.015 801.222 230.232 809.37 229.66 815.948C227.394 815.637 225.154 815.755 223.556 813.844C217.152 806.188 225.339 775.63 225.698 765.114Z"/>
	<path fill="#0F2740" d="M242.279 774.111C245.798 778.581 248.343 784.632 247.672 790.475C247.655 790.621 247.616 790.764 247.588 790.908L243.74 791.679C241.988 786.519 238.28 781.933 239.651 776.246C239.901 775.21 241.383 774.669 242.279 774.111Z"/>
	<path fill="#D49271" d="M250.399 766.441L251.343 766.411C251.457 774.552 250.441 783.935 254.257 791.272L247.588 790.908C247.616 790.764 247.655 790.621 247.672 790.475C248.343 784.632 245.798 778.581 242.279 774.111C243.811 773.593 245.764 773.09 247.128 772.238C249.56 770.72 249.704 768.964 250.399 766.441Z"/>
	<path fill="#226A8E" d="M1623.74 560.802C1627.39 562.202 1630.54 564.947 1633.6 567.329C1638.43 571.091 1641.87 575.46 1646.16 579.695C1655.68 589.107 1669.83 588.602 1682.16 588.639C1684.14 591.368 1684.46 593.925 1683.89 597.279C1683.67 598.59 1683.4 599.714 1682.85 600.923C1682.52 601.199 1682.41 601.329 1681.95 601.502C1679.2 602.553 1674.96 602.923 1672 603.287C1651.29 605.834 1636.72 596.884 1618.89 588.465C1622.59 579.359 1624.44 570.703 1623.74 560.802Z"/>
	<path fill="#CA2D2C" d="M1594.97 537.762Q1598.48 536.072 1601.92 534.231C1602.21 536.407 1602.86 539.016 1602.29 541.151L1605.69 540.709C1605.44 543.88 1601.96 545.44 1603.94 548.257L1606.47 549.312C1607.91 551.761 1608.84 552.772 1607.93 555.771C1606.46 560.603 1602.54 564.404 1600.53 568.987C1597.98 574.787 1596.55 581.188 1594.16 587.1C1587.7 603.064 1574.48 618.69 1559.64 627.524C1546.5 635.579 1531.64 640.52 1516.56 643.291C1510.32 644.439 1503.42 645.054 1497.47 647.196C1497.35 647.091 1497.25 646.969 1497.12 646.883C1494.67 645.258 1489.23 646.458 1486.48 646.808C1480.97 645.089 1465.15 646.32 1454.8 643.352C1439.43 638.945 1432.64 630.073 1425.27 616.744L1428.08 616.94L1428.34 616.065L1428.72 616.608C1431.02 619.973 1432.59 623.795 1434.96 627.079C1440.96 635.372 1451.98 639.65 1461.68 641.525C1470.28 643.189 1480.57 644.106 1489.21 642.393C1494.32 642.915 1499.59 642.73 1504.57 641.464C1519.86 640.654 1552.49 630.867 1563.27 620.279C1563.95 619.613 1563.66 618.596 1563.66 617.676C1563.79 617.649 1563.93 617.629 1564.07 617.597C1570.82 616.001 1581.52 600.037 1585.27 593.98C1588.44 588.861 1594.83 577.522 1593.4 571.405C1593.16 569.482 1591.16 567.731 1590.09 566.12C1587.92 562.83 1584.66 557.268 1585.91 553.181C1586.63 550.814 1587.8 550.427 1589.84 549.388L1590.85 547.49L1588.56 546.312L1589.24 544.922C1590.13 544.385 1591.04 543.844 1591.87 543.218C1594.08 541.542 1594.6 540.333 1594.97 537.762Z"/>
	<path fill="#226A8E" d="M1601.58 553.186C1602.06 553.908 1602.65 554.308 1602.45 555.192C1601.47 559.604 1597.84 564.816 1594.16 567.388C1593.95 562.907 1592.17 558.774 1590.48 554.672C1594.65 555.052 1597.67 554.631 1601.58 553.186Z"/>
	<path fill="#D49271" d="M1594.97 537.762Q1598.48 536.072 1601.92 534.231C1602.21 536.407 1602.86 539.016 1602.29 541.151L1605.69 540.709C1605.44 543.88 1601.96 545.44 1603.94 548.257C1603.27 549.901 1602.67 551.78 1601.58 553.186C1597.67 554.631 1594.65 555.052 1590.48 554.672C1590.79 552.988 1590.18 551.059 1589.84 549.388L1590.85 547.49L1588.56 546.312L1589.24 544.922C1590.13 544.385 1591.04 543.844 1591.87 543.218C1594.08 541.542 1594.6 540.333 1594.97 537.762Z"/>
	<path fill="#C97F69" d="M1594.97 537.762Q1598.48 536.072 1601.92 534.231C1602.21 536.407 1602.86 539.016 1602.29 541.151C1602.18 541.237 1602.07 541.321 1601.96 541.409C1596.86 545.615 1597.63 549.666 1589.84 549.388L1590.85 547.49L1588.56 546.312L1589.24 544.922C1590.13 544.385 1591.04 543.844 1591.87 543.218C1594.08 541.542 1594.6 540.333 1594.97 537.762Z"/>
	<path fill="#13415F" d="M242.342 897.458C251.411 887.901 262.439 879.792 273.497 872.701C356.834 819.269 426.401 830.364 513.579 864.167L554.175 880.067C562.166 883.199 570.498 887.1 578.874 888.944C580.654 887.096 580.531 885.508 580.924 883.072C582.103 883.207 583.545 883.416 584.734 883.219C589.61 882.411 592.813 877.951 595.589 874.299C607.5 875.892 619.008 874.911 630.92 875.282C616.837 888.423 600.285 891.239 583.591 899.354C582.868 899.705 583.098 899.588 582.142 899.866C581.86 898.444 581.617 896.978 581.023 895.648C579.771 892.836 575 891.489 572.18 890.33C484.348 854.227 400.906 815.012 306.878 857.7C294.515 863.312 282.253 870.044 271.087 877.784C261.988 884.092 252.979 893.077 242.747 897.296L242.342 897.458Z"/>
	<path fill="#0F2740" d="M446.995 491.537C449.05 487.004 452.495 484.286 457.093 482.491C465.099 479.365 484.504 478.1 492.477 482.182C493.311 482.609 493.797 483.022 494.476 483.664C493.714 486.728 491.436 489.049 489.49 491.446L491.983 492.238L492.939 502.256C492.225 505.056 490.94 508.277 492.124 511.065L494.021 513.251C494.254 520.093 494.978 529.974 490.228 535.506C488.493 537.527 485.939 538.627 483.292 538.645C480.415 538.665 476.479 537.359 473.814 536.263C473.176 538.943 471.651 543.054 472.003 545.714L471.056 551.146C465.529 547.266 459.503 543.612 454.436 539.156C454.986 536.612 455.817 533.788 455.842 531.186C455.863 529.107 455.877 529.03 454.44 527.515C449.156 520.179 447.136 511.574 445.893 502.797L446.995 491.537Z"/>
	<path fill="#D49271" d="M489.49 491.446L491.983 492.238L492.939 502.256C492.225 505.056 490.94 508.277 492.124 511.065L494.021 513.251C492.732 513.903 489.519 515.026 488.635 515.972C485.997 518.794 485.834 522.783 481.518 524.161C480.347 524.015 479.305 523.778 478.348 523.04C471.815 518.004 472.093 506.696 471.456 499.315C477.656 497.102 483.545 494.256 489.49 491.446Z"/>
	<defs>
		<linearGradient id="gradient_0" gradientUnits="userSpaceOnUse" x1="473.19971" y1="523.22449" x2="453.72708" y2="533.79309">
			<stop offset="0" stop-color="#CD8B68"/>
			<stop offset="1" stop-color="#B16E56"/>
		</linearGradient>
	</defs>
	<path fill="url(#gradient_0)" d="M454.44 527.515C457.093 521.551 456.792 510.397 462.032 506.615C464.095 506.275 464.508 506.212 466.432 506.978C468.763 517.17 466.825 527.811 473.814 536.263C473.176 538.943 471.651 543.054 472.003 545.714L471.056 551.146C465.529 547.266 459.503 543.612 454.436 539.156C454.986 536.612 455.817 533.788 455.842 531.186C455.863 529.107 455.877 529.03 454.44 527.515Z"/>
	<path fill="#226A8E" d="M472.003 545.714C487.124 555.441 501.088 566.133 513.506 579.204C525.548 571.593 544.462 556.116 557.995 554.094C560.829 555.12 562.227 556.783 564.141 558.975C561.111 572.516 534.61 598.91 522.807 606.304C518.954 608.718 515.155 610.276 510.521 609.295C506.018 608.342 502.446 604.292 497.882 603.706C497.083 599.514 491.032 592.89 488.503 589.278C485.635 585.444 482.935 581.667 481.252 577.151C479.881 569.363 475.993 561.622 472.823 554.443L472.605 553.373L471.056 551.146L472.003 545.714Z"/>
	<path fill="#13415F" d="M472.605 553.373L473.353 551.9C479.039 554.828 483.657 569.35 485.613 575.53C486.94 579.725 488.841 584.862 488.503 589.278C485.635 585.444 482.935 581.667 481.252 577.151C479.881 569.363 475.993 561.622 472.823 554.443L472.605 553.373Z"/>
	<defs>
		<linearGradient id="gradient_1" gradientUnits="userSpaceOnUse" x1="1603.7009" y1="538.47455" x2="1629.8408" y2="490.58411">
			<stop offset="0" stop-color="#142136"/>
			<stop offset="1" stop-color="#1A3549"/>
		</linearGradient>
	</defs>
	<path fill="url(#gradient_1)" d="M1573.38 512.718C1577.12 505.187 1581.09 500.576 1589.25 497.779C1595.28 495.712 1602.71 495.529 1608.47 498.529C1613.02 500.899 1615.96 504.689 1617.4 509.577C1617.85 511.092 1618.26 512.643 1618.51 514.203C1621.42 513.846 1624.62 513.596 1627.3 512.338C1637.66 507.467 1647.95 490.045 1660.88 500.353C1663.61 502.527 1665.22 505.029 1665.51 508.589C1666.06 515.258 1662.74 523.054 1658.34 527.96C1652.03 534.994 1641.66 538.086 1632.49 538.535C1623.19 538.989 1614.44 536.636 1605.69 540.709L1602.29 541.151C1602.86 539.016 1602.21 536.407 1601.92 534.231Q1598.48 536.072 1594.97 537.762C1594.6 540.333 1594.08 541.542 1591.87 543.218C1591.04 543.844 1590.13 544.385 1589.24 544.922L1588.56 546.312L1587.75 546.383C1586.18 543.395 1580.05 539.834 1577.25 537.678C1576.55 534.04 1573.77 529.575 1572.18 526.144C1572.74 524.973 1573.15 524.088 1572.97 522.759C1572.93 522.439 1572.88 522.121 1572.83 521.802C1574.01 518.656 1574.06 515.96 1573.38 512.718Z"/>
	<path fill="#D49271" d="M1573.38 512.718C1579.48 512.33 1589.76 516.193 1594.86 519.765C1595.37 520.121 1595.48 520.337 1595.8 520.787C1597.19 522.418 1597.61 523.373 1598.51 525.205C1598.7 525.602 1599.3 526.256 1599.6 526.609L1602.2 521.88C1604.37 521.698 1604.58 521.729 1606.45 522.832C1607.69 524.968 1608.05 526.875 1607.31 529.29C1606.66 531.434 1605.62 532.692 1603.58 533.604C1603.04 533.847 1602.49 534.042 1601.92 534.231Q1598.48 536.072 1594.97 537.762C1594.6 540.333 1594.08 541.542 1591.87 543.218C1591.04 543.844 1590.13 544.385 1589.24 544.922L1588.56 546.312L1587.75 546.383C1586.18 543.395 1580.05 539.834 1577.25 537.678C1576.55 534.04 1573.77 529.575 1572.18 526.144C1572.74 524.973 1573.15 524.088 1572.97 522.759C1572.93 522.439 1572.88 522.121 1572.83 521.802C1574.01 518.656 1574.06 515.96 1573.38 512.718Z"/>
	<path fill="#C97F69" d="M1585.02 523.646L1587.3 521.922C1589.99 522.307 1592.14 523.271 1594.58 524.383C1595.37 525.45 1595.73 525.656 1595.74 526.966C1596.64 529.177 1597.22 529.823 1596.67 532.198L1594.01 534.255L1588.95 534.135L1586.77 530.928C1586.6 528.861 1586.53 527.121 1587.01 525.087C1587.04 524.923 1587.09 524.76 1587.13 524.597L1585.02 523.646Z"/>
	<path fill="#C5857D" d="M1572.83 521.802L1576.07 525.088C1577.64 524.928 1578.99 524.757 1580.47 524.193C1580.98 524.675 1581.75 525.249 1582.09 525.843C1583.36 525.399 1584.09 524.571 1585.02 523.646L1587.13 524.597C1587.09 524.76 1587.04 524.923 1587.01 525.087C1586.53 527.121 1586.6 528.861 1586.77 530.928L1588.95 534.135L1594.01 534.255C1594.9 535.632 1595.06 536.123 1594.97 537.762C1594.6 540.333 1594.08 541.542 1591.87 543.218C1591.04 543.844 1590.13 544.385 1589.24 544.922L1588.56 546.312L1587.75 546.383C1586.18 543.395 1580.05 539.834 1577.25 537.678C1576.55 534.04 1573.77 529.575 1572.18 526.144C1572.74 524.973 1573.15 524.088 1572.97 522.759C1572.93 522.439 1572.88 522.121 1572.83 521.802Z"/>
	<path fill="#D49271" d="M1588.95 534.135L1594.01 534.255C1594.9 535.632 1595.06 536.123 1594.97 537.762C1594.6 540.333 1594.08 541.542 1591.87 543.218C1591.04 543.844 1590.13 544.385 1589.24 544.922C1589.51 544.312 1589.74 543.793 1589.84 543.13C1590.36 539.803 1590.78 536.937 1588.95 534.135Z"/>
	<path fill="#226A8E" d="M1588.56 546.312L1590.85 547.49L1589.84 549.388C1587.8 550.427 1586.63 550.814 1585.91 553.181C1584.66 557.268 1587.92 562.83 1590.09 566.12C1591.16 567.731 1593.16 569.482 1593.4 571.405C1594.83 577.522 1588.44 588.861 1585.27 593.98C1581.52 600.037 1570.82 616.001 1564.07 617.597C1563.93 617.629 1563.79 617.649 1563.66 617.676C1563.66 618.596 1563.95 619.613 1563.27 620.279C1552.49 630.867 1519.86 640.654 1504.57 641.464C1508.26 639.637 1527.39 621.732 1529.41 617.78C1529.36 617.485 1529.29 617.039 1529.19 616.736C1528.26 613.888 1525.07 608.554 1522.56 607.094C1522.51 605.818 1522.39 604.274 1522.8 603.048C1523.87 599.769 1570.14 557.343 1576.69 552.35C1580.03 549.804 1583.94 548.101 1587.75 546.383L1588.56 546.312ZM1529.41 617.78C1527.39 621.732 1508.26 639.637 1504.57 641.464C1519.86 640.654 1552.49 630.867 1563.27 620.279C1563.95 619.613 1563.66 618.596 1563.66 617.676C1567.64 611.866 1570.36 594.489 1569.19 587.728C1566.46 591.556 1534.2 616.538 1529.41 617.78Z"/>
	<path fill="#226A8E" d="M1606.47 549.312C1610.84 550.286 1621.21 555.782 1623.39 559.715C1623.55 560.015 1623.66 560.498 1623.74 560.802C1624.44 570.703 1622.59 579.359 1618.89 588.465C1618.52 602.721 1600.72 616.145 1597.63 630.406C1594.81 643.393 1604.23 656.625 1603.17 662.79C1602.41 664.324 1601.54 665.034 1600.15 665.962C1588.45 673.743 1569.07 669.82 1557.03 664.828C1553.31 663.285 1549.92 660.25 1545.99 659.511C1545.84 659.482 1545.68 659.464 1545.53 659.44C1545.78 659.199 1546.02 658.953 1546.25 658.694C1550.07 654.402 1559.95 632.948 1559.64 627.524C1574.48 618.69 1587.7 603.064 1594.16 587.1C1596.55 581.188 1597.98 574.787 1600.53 568.987C1602.54 564.404 1606.46 560.603 1607.93 555.771C1608.84 552.772 1607.91 551.761 1606.47 549.312Z"/>
	<path fill="#226A8E" d="M1507.28 733.293C1516.06 736.612 1524.79 739.52 1533.93 741.713C1539.22 742.983 1547.43 743.544 1552.21 745.676C1551.55 750.201 1519.22 783.847 1513.85 787.804C1506.2 793.437 1496.49 796.654 1488.35 801.686C1476.75 808.861 1439.73 836.346 1429.92 838.306C1429.24 833.986 1425.79 831.032 1422.54 828.454C1428.12 825.309 1432.63 819.596 1436.88 814.884C1447.55 803.056 1466.23 778.907 1478.77 771.332C1482.31 769.195 1486.86 768.076 1490.73 766.565C1491.06 766.283 1491.63 765.809 1491.94 765.45C1494.51 762.414 1507.33 736.961 1507.28 733.293Z"/>
	<path fill="#226A8E" d="M1638.65 728.769C1646.17 733.972 1656.04 755.553 1659.88 764.2C1663.08 771.423 1666.23 778.732 1670.09 785.638C1675.2 794.788 1709.84 850.114 1710.4 852.955C1710.42 853.033 1710.42 853.113 1710.43 853.193C1707.7 856.041 1704.54 860.273 1700.76 861.591C1697.09 852.908 1651.26 814.563 1640.82 801.885C1629.81 788.497 1632.47 780.226 1625.56 767.696C1620.48 758.484 1610.6 751.262 1603.76 743.176C1606.97 742.267 1610.36 741.74 1613.61 740.954C1621.09 739.146 1634.49 735.549 1638.65 728.769Z"/>
	<path fill="#C5857D" d="M99.6718 938.189C112.078 936.656 125.746 937.665 138.272 937.692L208.076 937.771L454.174 937.87L1314.68 938.056L1577.57 938.079C1627.7 938.025 1678.09 936.819 1728.2 938.067C1731.54 938.15 1737.44 937.813 1740.35 939.437C1738.5 940.917 1735 940.49 1732.69 940.536C1708.12 941.177 1683.41 940.53 1658.82 940.658Q1542.52 941.391 1426.21 940.701L595.387 940.684L210.721 940.786L132.761 940.545C123.077 940.523 109.822 942.279 100.683 940.003L99.6718 938.189Z"/>
	<path fill="#CA2D2C" d="M105.393 492.38Q106.285 490.252 107.25 488.156C111.215 479.596 117.711 473.038 126.688 469.814C134.666 466.949 143.753 467.169 151.429 470.857C160.458 475.195 165.395 482.885 168.648 492.051C183.774 492.741 199.332 491.852 214.517 491.835L314.84 491.849L394.092 492.147C411.633 492.248 429.502 492.935 446.995 491.537L445.893 502.797L168.881 502.388C168.103 505.304 167.33 508.295 165.984 511.008C161.076 520.905 152.804 524.989 142.808 528.254L143.058 682.338L131.515 682.318L131.761 528.158C127.288 526.846 122.923 525.128 119.09 522.441C111.951 517.436 107.751 510.365 106.183 501.866C91.6773 501.873 77.035 502.517 62.5468 501.994C58.6347 501.853 53.0101 501.928 50.1543 498.878C50.1628 497.037 50.1832 496.72 51.472 495.367C53.2563 493.493 56.5592 492.362 59.1013 492.027C63.2138 491.485 67.8131 492.178 71.9799 492.217L105.393 492.38ZM134.442 490.655C132.55 492.375 130.134 494.283 129.841 497.005C129.607 499.181 130.137 500.924 131.683 502.502C134.101 504.97 137.676 505.167 140.913 505.167C143.057 502.807 144.997 500.638 144.823 497.203C144.718 495.125 144.175 493.739 142.671 492.235C140.772 490.338 137.76 490.342 135.267 490.566C134.991 490.59 134.717 490.625 134.442 490.655Z"/>
	<defs>
		<linearGradient id="gradient_2" gradientUnits="userSpaceOnUse" x1="430.18143" y1="758.82782" x2="598.26825" y2="788.65845">
			<stop offset="0" stop-color="#0A2E4C"/>
			<stop offset="1" stop-color="#123A4C"/>
		</linearGradient>
	</defs>
	<path fill="url(#gradient_2)" d="M467.586 674.539L468.036 675.138C473.275 682.03 480.221 688.098 486.229 694.346C495.686 704.179 504.483 714.72 513.522 724.939C518.645 730.73 524.555 736.292 529.036 742.565C534.729 750.534 536.989 761.22 541.356 770.049L588.378 865.173C584.054 868.622 579.756 872.464 575.011 875.312L573.033 875.138C567.39 870.064 562.485 861.495 557.688 855.408C537.919 830.329 507.068 797.146 499.341 765.71C477.654 751.153 456.321 736.835 435.177 721.424C441.682 708.3 449.315 695.661 454.58 681.958C459.252 679.946 463.344 677.304 467.586 674.539Z"/>
	<path fill="#981C1C" d="M1545.53 659.44C1545.68 659.464 1545.84 659.482 1545.99 659.511C1549.92 660.25 1553.31 663.285 1557.03 664.828C1569.07 669.82 1588.45 673.743 1600.15 665.962C1601.54 665.034 1602.41 664.324 1603.17 662.79C1606.1 664.751 1637.97 722.5 1638.82 727.086C1638.93 727.708 1638.85 728.181 1638.65 728.769C1634.49 735.549 1621.09 739.146 1613.61 740.954C1610.36 741.74 1606.97 742.267 1603.76 743.176C1588.96 748.547 1569.91 744.451 1555.09 741.57L1554.86 743.759L1552.21 745.676C1547.43 743.544 1539.22 742.983 1533.93 741.713C1524.79 739.52 1516.06 736.612 1507.28 733.293C1507.45 733.151 1507.62 733.013 1507.79 732.869C1509.85 731.076 1510.26 729.65 1510.42 727.08C1509.19 724.792 1485.45 714.927 1481.47 713.239C1496.94 708.473 1516.62 694.105 1528.59 683.167C1534.22 678.021 1545.17 667.336 1545.53 659.44Z"/>
	<path fill="#0F2740" d="M1510.42 727.08C1512.37 727.272 1555.01 741.472 1555.09 741.57L1554.86 743.759L1552.21 745.676C1547.43 743.544 1539.22 742.983 1533.93 741.713C1524.79 739.52 1516.06 736.612 1507.28 733.293C1507.45 733.151 1507.62 733.013 1507.79 732.869C1509.85 731.076 1510.26 729.65 1510.42 727.08Z"/>
	<path fill="#226A8E" d="M384.499 684.246C407.799 690.107 431.67 688.881 454.58 681.958C449.315 695.661 441.682 708.3 435.177 721.424C429.157 733.033 398.423 795.662 389.118 798.51C385.102 799.739 380.413 799.958 376.246 799.918C357.151 799.734 337.597 797.38 318.535 795.945C297.164 794.337 275.553 793.462 254.257 791.272C250.441 783.935 251.457 774.552 251.343 766.411C280.758 764.953 340.681 753.33 365.659 764.97Q367.241 752.12 369.754 739.419Q372.268 726.718 375.699 714.234C378.486 704.272 382.45 694.363 384.499 684.246Z"/>
	<path fill="#84BACF" d="M384.499 684.246C384.362 684.03 384.206 683.825 384.087 683.599C383.993 683.42 383.927 683.227 383.861 683.037C381.537 676.311 386.734 665.826 389.289 659.629C398.537 637.196 400.925 613.975 407.912 590.979C412.724 575.141 433.038 544.032 447.31 536.382C450.568 536.437 451.69 537.487 454.436 539.156C459.503 543.612 465.529 547.266 471.056 551.146L472.605 553.373L472.823 554.443C475.993 561.622 479.881 569.363 481.252 577.151C482.935 581.667 485.635 585.444 488.503 589.278C491.032 592.89 497.083 599.514 497.882 603.706L506.703 615.857C525.337 617.357 543.88 619.66 562.533 620.999C563.601 623.535 562.493 627.015 561.586 629.536C545.599 638.663 524.632 643.027 506.306 642.97C491.676 642.925 479.779 636.632 469.649 626.442C468.366 631.246 467.42 635.889 466.685 640.803C467.073 642.787 467.012 642.89 468.628 644.301C467.104 645.265 465.662 646.201 463.98 646.865C463.825 656.775 464.989 664.998 467.586 674.539C463.344 677.304 459.252 679.946 454.58 681.958C431.67 688.881 407.799 690.107 384.499 684.246Z"/>
	<path fill="#6399AE" d="M472.823 554.443C475.993 561.622 479.881 569.363 481.252 577.151C475.41 570.738 470.156 563.122 464.884 556.207C468.096 557.891 470.789 561.046 473.383 563.582C473.104 560.549 472.999 557.484 472.823 554.443Z"/>
	<path fill="#226A8E" d="M434.175 585.108C445.709 599.574 456.466 613.334 469.649 626.442C468.366 631.246 467.42 635.889 466.685 640.803C466.066 638.309 452.875 626.2 450.209 621.985C443.089 610.728 438.342 597.681 434.175 585.108Z"/>
	<path fill="#CA2D2C" d="M640.255 517.681Q650.265 452.285 659.409 386.763C663.956 356.39 668.987 326.107 672.642 295.605C683.662 387.955 692.544 480.519 703.927 572.854L722.108 455.131C727.464 470.565 732.208 486.277 736.953 501.911Q748.588 438.537 761.375 375.385C762.297 398.304 765.766 421.759 768.021 444.628C771.15 476.36 773.373 508.939 778.816 540.348C779.796 524.026 783.485 507.929 784.064 491.541L803.447 491.364C809.387 469.07 814.178 446.278 818.877 423.695Q824.832 454.285 829.579 485.085C831.526 496.933 832.669 510.277 836.494 521.631C839.188 511.859 841.888 501.624 842.914 491.532C858.655 491.153 874.463 491.494 890.211 491.549Q899.177 469.273 907.595 446.783C911.996 461.81 918.636 476.417 923.217 491.514L1078.52 491.733C1081.59 488.533 1083.34 484.065 1085.97 480.489C1090.05 474.965 1096.97 471.574 1103.66 470.672C1112.36 469.5 1120.31 472.143 1127.27 477.277C1131.59 480.462 1135.41 491.017 1138.61 492.153L1139.3 490.546C1140.72 492.894 1141.34 494.673 1140.72 497.458C1140.43 498.766 1139.96 500.105 1139.47 501.346C1136.62 503.036 1135.55 507.759 1133.71 510.645C1127.25 520.761 1115.5 529.841 1102.89 526.536C1094.97 524.457 1086.12 517.968 1082.1 510.789C1080.56 508.031 1079.94 504.892 1078.14 502.285L915.792 502.126C913.016 494.472 910.727 486.462 907.607 478.964C904.093 486.512 901.27 494.124 898.821 502.079L852.458 502.13L841.536 549.731C839.344 559.338 836.544 569.331 835.547 579.14C829.888 546.731 824.63 514.044 817.58 481.905C816.266 488.365 815.122 494.924 813.543 501.321C807.029 501.381 800.414 501.219 793.918 501.649C788.747 535.93 780.743 575.753 778.104 609.628C768.899 557.06 766.55 503.354 757.843 450.778Q749.834 495.895 740.223 540.698Q733.38 521.149 725.574 501.965C721.898 523.432 719.322 545.102 716.234 566.66C711.805 597.579 707.094 628.341 703.278 659.354L682.244 477.798C678.599 445.079 674.091 412.276 671.389 379.473C669.926 398.305 666.23 417.244 663.332 435.931C657.171 475.659 650.243 515.421 644.57 555.205C636.059 533.37 628.134 511.226 619.438 489.482C610.069 531.07 607.253 573.821 599.499 615.659Q592.154 561.168 585.757 506.558C583.576 489.106 580.781 471.734 578.552 454.286C575.546 469.583 570.583 486.603 570.135 502.118L492.939 502.256L491.983 492.238C499.628 491.085 508.293 491.783 516.029 491.852L561.207 492.425C562.48 479.299 565.617 465.998 567.998 453.003L579.935 387.513C583.392 408.613 585.554 430.044 588.473 451.231C592.3 479.005 596.719 506.634 599.723 534.521C602.413 522.194 604.233 509.637 606.8 497.269C610.368 480.079 614.623 462.945 617.521 445.63C624.693 469.714 632.783 493.668 640.255 517.681ZM1104.54 492.88C1103.44 494.997 1101.91 497.494 1102.7 499.962C1103.37 502.049 1104.82 503.182 1106.9 503.818C1107.89 504.121 1109.07 504.127 1110.1 504.165C1112.67 503.016 1113.17 502.773 1114.77 500.482C1114.97 498.401 1115.12 497.204 1113.75 495.393C1112.56 493.813 1110.25 492.322 1108.21 492.35C1107 492.367 1105.73 492.64 1104.54 492.88Z"/>
	<path fill="#CA2D2C" d="M1139.3 490.546C1141.39 486.359 1141.5 460.151 1142.78 452.709C1146.23 432.79 1153.63 413.871 1162.67 395.868C1180.96 359.465 1205.94 326.484 1228.93 292.984C1258.66 249.649 1286.96 201.982 1304.91 152.357C1305.85 149.761 1306.92 147.369 1306.49 144.551C1311.82 150.326 1320.08 175.272 1323.96 184.133C1326.32 189.518 1329.08 194.656 1331.88 199.815C1354.47 241.416 1380.04 279.745 1407.17 318.487C1413.37 327.347 1441.49 363.482 1441.38 370.618C1452.39 377.274 1473.57 435.408 1476.81 448.566C1487 490 1477.1 534.101 1455.16 570.105C1448.67 580.745 1437.31 596.854 1425.76 602.325C1427.53 606.281 1428.84 611.751 1428.34 616.065L1428.08 616.94L1425.27 616.744C1425.34 614.232 1425.23 607.577 1423.6 605.812C1419.43 608.772 1415.28 611.71 1410.65 613.921C1413.54 618.382 1413.23 627.405 1414.57 632.776C1415.23 635.445 1416.75 637.961 1417.95 640.419C1419.17 642.897 1422.87 648.129 1422.61 650.588L1419.1 650.631C1418.29 646.739 1414.84 642.052 1413.4 638.032C1411.32 632.279 1409.99 621.466 1406.39 616.935C1406.34 617.062 1406.31 617.197 1406.24 617.316C1404.31 620.742 1393.45 625.586 1389.72 626.688L1389.06 627.768C1359.17 646.178 1310.13 650.804 1276.35 642.927C1223.38 630.574 1174.81 595.221 1153.61 544.024Q1149.26 533.495 1145.92 522.601C1144.06 516.484 1143.23 507.05 1139.82 501.845C1139.71 501.674 1139.58 501.512 1139.47 501.346C1139.96 500.105 1140.43 498.766 1140.72 497.458C1141.34 494.673 1140.72 492.894 1139.3 490.546Z"/>
	<path fill="#E0514D" d="M1417.4 519.768Q1430.99 519.96 1444.59 519.979L1444.5 520.948C1436.34 521.519 1425.27 522.193 1417.29 520.73L1417.4 519.768Z"/>
	<path fill="#E0514D" d="M1442.13 531.445L1443.03 531.74L1442.02 532.867C1444.42 533.468 1446.77 533.768 1449.21 534.047L1445.64 534.444C1436.96 533.679 1425.46 535.11 1417.26 532.773C1416.46 532.545 1416.13 532.318 1415.24 532.36C1415.04 532.369 1414.84 532.405 1414.64 532.428C1423.33 531.238 1432.39 532.496 1441.17 531.553L1442.13 531.445Z"/>
	<path fill="#E0514D" d="M1442.67 429.678C1437.14 429.061 1414.3 429.979 1411.2 427.458L1415.38 427.183L1413.81 427.065C1416.24 426.65 1418.94 426.888 1421.41 426.892C1428.74 427.926 1441.81 425.182 1447.87 428.492L1447.49 429.205C1445.82 429.531 1444.37 429.766 1442.67 429.678Z"/>
	<path fill="#DB3F3D" d="M1350.72 283.996C1355.38 282.846 1360.25 283.111 1365.02 283.12C1365.24 283.23 1365.47 283.334 1365.7 283.45C1367.92 284.597 1370.91 287.423 1371.59 289.828L1370.7 291.023L1366.56 291.102C1363.01 291.175 1356.47 291.652 1353.26 290.225C1353.79 289.641 1353.52 289.84 1354.2 289.47C1355.68 288.658 1356.35 288.201 1357.28 286.781C1355.38 284.83 1353.3 284.698 1350.72 283.996Z"/>
	<path fill="#DB3F3D" d="M1385 329.331C1388.4 328.677 1393.77 327.34 1397.09 328.761C1399.8 329.925 1404.14 333.536 1405.13 336.306C1401.79 339.397 1392.37 337.377 1387.88 337.324C1383.28 337.7 1378.8 338.128 1374.46 336.193C1378.34 335.657 1385.58 336.9 1388.55 334.898C1388.13 332.263 1386.73 331.279 1385 329.331Z"/>
	<path fill="#DB3F3D" d="M1370.34 307.108C1372.89 306.404 1380.88 305.304 1383.2 306.631C1384.28 307.246 1384.07 307.548 1384.38 308.666C1381.83 310.179 1378.75 309.711 1375.82 309.787C1377.1 310.453 1379.78 310.363 1381.31 310.732C1384.32 311.457 1388.7 313.21 1390.24 316.051C1390.86 317.196 1390.47 317.546 1390.17 318.741C1387.4 320.309 1383.87 319.678 1380.77 319.547C1376.69 319.497 1370.1 320.398 1366.58 318.329L1367.06 317.355C1370.47 316.86 1373.83 316.685 1377.26 316.552C1374.31 313.906 1367.53 314.074 1363.72 312.046C1366.86 311.902 1370 311.824 1373.11 311.319C1373.01 309.252 1371.73 308.53 1370.34 307.108Z"/>
	<path fill="#E0514D" d="M1426.63 401.586C1433.89 401.4 1441.77 400.79 1448.98 401.7L1448.71 403.341C1446.51 403.633 1444.29 403.655 1442.49 405.067L1442.06 405.98C1445.54 406.839 1448.85 406.245 1452.27 406.898L1452.55 408.967C1446.83 409.385 1440.72 408.816 1435.13 409.889C1425.46 408.711 1415.43 410.204 1405.93 408.382C1412.41 406.398 1421.22 408.648 1428.2 407.523C1430.02 407.23 1431.14 407.268 1432.26 405.722C1425.74 400.959 1411.92 404.989 1403.83 402.26Q1415.22 401.608 1426.63 401.586Z"/>
	<path fill="#DB3F3D" d="M1391.59 341.774C1397.27 340.338 1403.31 341.562 1409.11 341.864C1412.42 345.644 1418.52 351.708 1418.41 356.88C1411.1 357.066 1390.33 357.214 1383.92 355.224L1383.81 353.512C1389.65 353.592 1398.47 354.594 1403.83 352.33C1399.05 346.87 1386.1 351.384 1379.82 348.792C1384.09 345.555 1393.72 349.427 1398.12 346.079C1396.89 343.828 1393.83 342.862 1391.59 341.774Z"/>
	<path fill="#DB3F3D" d="M1401.38 360.441C1404.78 359.658 1408.27 359.478 1411.76 359.552C1415.79 359.637 1421.55 359.249 1424.52 362.331C1423.1 363.699 1420.12 363.967 1418.21 364.4C1419.97 365.824 1425.13 365.562 1427.59 365.765C1429.51 368.283 1427.66 368.438 1428.41 371.046C1430.17 371.218 1431.53 371.469 1433.18 372.14L1433.69 373.798L1432.95 375.036C1428.94 376.522 1423.52 375.631 1419.28 375.44L1419.26 375.983C1425.75 378.872 1431.17 374.085 1437.97 379.389L1437.71 380.167C1432.82 382.318 1426.63 381.208 1421.37 382.432C1426.39 382.818 1436.09 381.371 1440.38 383.681C1441.61 384.343 1441.46 384.906 1441.81 386.228C1436.86 389.763 1413.43 385.065 1405.66 385.324C1402.76 385.409 1400.11 385.154 1397.25 384.756C1403.59 382.621 1414.63 385.663 1419.72 382.145L1419.27 381.069C1412.37 379.452 1404.09 379.705 1396.98 379.218L1396.19 381.739L1396.04 379.031C1395.68 378.943 1395.3 378.771 1394.95 378.642C1400.02 377.007 1411.37 379.113 1414.98 376.343C1409.58 373.092 1402.57 374.007 1396.56 373.072C1401.09 370.794 1408.68 373.663 1412.74 370.737C1406.39 366.158 1396.44 370.16 1391.18 367.255C1396.67 366.659 1403.56 366.656 1408.66 364.628L1408.73 363.362C1406.33 361.661 1404.19 361.106 1401.38 360.441Z"/>
	<path fill="#E0514D" d="M1457.18 440.45C1462.43 440.482 1465.08 440.179 1468.93 444.159C1469.57 444.811 1469.32 445.475 1469.33 446.351C1468.14 447.283 1466.98 448.143 1465.69 448.919L1465.28 450.99C1466.78 452.115 1468.06 452.564 1469.86 453.075C1471.3 454.697 1471.57 457.226 1471.46 459.337C1471.38 460.898 1471.15 462.434 1471.13 464C1467.25 466.997 1453.25 465.391 1448.16 465.272C1438.54 464.888 1427.98 466.345 1418.54 464.654C1419.31 460.534 1445.47 466.126 1450.73 461.781C1447.57 456.387 1424.77 460.536 1418.19 458.743L1418.28 457.956C1426.52 456.082 1435.96 459.273 1444.34 457.274C1446.16 456.841 1447.76 456.665 1448.77 455.036C1439.89 450.847 1427.31 455.745 1417.71 452.784L1417.56 451.996C1426.41 450.968 1435.7 451.923 1444.62 452.006C1445.82 451.243 1446.24 450.772 1446.87 449.496L1444.6 447.55C1440.4 447.563 1418.59 449.011 1416.05 447.481C1419.91 444.156 1438.85 445.914 1444.84 445.913C1448.34 445.951 1452.26 446.653 1454.98 444.235Q1454.41 442.494 1453.86 440.748L1457.18 440.45Z"/>
	<path fill="#DB3F3D" d="M1444.6 447.55C1449.11 448.108 1454.16 447.958 1458.05 450.499L1456.96 451.006L1456.91 449.798L1458.02 450.506L1455.23 451.3L1455.14 449.372L1454.32 451.428C1451.12 451.675 1447.82 452.09 1444.62 452.006C1445.82 451.243 1446.24 450.772 1446.87 449.496L1444.6 447.55Z"/>
	<path fill="#FDFAFA" d="M1297.2 203.996C1297.51 204.444 1297.84 205.007 1297.98 205.542C1299.01 209.389 1297.18 217.223 1296.64 221.219C1289.99 269.732 1276.93 317.769 1262.65 364.523C1258.66 377.597 1255.15 392.593 1249.03 404.802C1245.62 411.605 1240.28 415.81 1233 418.146C1222.95 421.371 1214.19 418.406 1205.28 413.777Q1204.31 412.33 1203.4 410.839C1197.73 401.464 1198.37 393.961 1202.12 383.901C1208.81 365.972 1222.45 350.309 1232.93 334.417C1257.89 296.57 1286.3 248.005 1297.2 203.996Z"/>
	<path fill="#DB3F3D" d="M1441.38 370.618C1452.39 377.274 1473.57 435.408 1476.81 448.566C1487 490 1477.1 534.101 1455.16 570.105C1448.67 580.745 1437.31 596.854 1425.76 602.325C1427.53 606.281 1428.84 611.751 1428.34 616.065L1428.08 616.94L1425.27 616.744C1425.34 614.232 1425.23 607.577 1423.6 605.812C1419.43 608.772 1415.28 611.71 1410.65 613.921C1413.54 618.382 1413.23 627.405 1414.57 632.776C1415.23 635.445 1416.75 637.961 1417.95 640.419C1419.17 642.897 1422.87 648.129 1422.61 650.588L1419.1 650.631C1418.29 646.739 1414.84 642.052 1413.4 638.032C1411.32 632.279 1409.99 621.466 1406.39 616.935C1406.34 617.062 1406.31 617.197 1406.24 617.316C1404.31 620.742 1393.45 625.586 1389.72 626.688Q1392.65 624.27 1395.51 621.762C1392.77 620.588 1389.31 622.173 1386.22 621.494L1386.42 619.816C1389.26 616.237 1393.97 612.358 1398.05 610.245C1398.99 609.762 1399.58 609.461 1400.3 608.651L1399.54 606.883C1400.08 604.769 1402.55 603.716 1404.24 602.316L1389.09 600.785C1394.76 599.213 1401.31 599.631 1407.14 599.873C1408.08 598.964 1408.39 598.519 1408.67 597.238C1403.29 595.382 1397.13 598.019 1391.59 596.525C1390.83 596.32 1390.82 595.872 1390.45 595.222L1391.55 594.434L1390.94 595.992C1391.36 595.598 1392.4 594.378 1392.86 594.204C1396.07 593.014 1408.72 594.291 1412.88 594.373C1413.94 593.237 1414.02 592.929 1414.38 591.404C1408.08 591.893 1400.13 592.114 1394.27 589.553C1399.66 589.459 1412.75 590.573 1416.65 587.157L1416.49 585.417C1409.89 585.398 1403.48 584.783 1396.92 584.026C1401.99 581.186 1417.51 583.004 1424.11 582.047L1424.88 581.928C1428.98 580.45 1434.74 580.756 1439.1 580.381C1428.2 579.127 1415.35 580.255 1404.9 577.455L1406.72 576.183L1405.39 577.641L1406.66 577.983L1407.07 576.22L1407.3 578.133L1408.17 576.209L1420.32 576.769C1422.11 575.624 1423.37 574.766 1424.58 572.996C1417.45 572.517 1410.27 572.186 1403.21 571.003C1406.7 569.291 1424.02 570.437 1429 570.405C1430.71 569.291 1430.64 568.802 1431.3 566.93C1430.21 566.822 1429.16 566.664 1428.09 566.452C1426.36 566.11 1424.96 566.236 1423.95 564.713C1425.92 563.638 1427.97 564.106 1430.13 564.304C1430.3 564.299 1430.46 564.298 1430.63 564.287C1433.09 564.136 1434.39 564.157 1436.09 562.336L1435.66 560.546C1433.2 558.734 1430.79 560.44 1428.07 559.138L1428.39 558.155C1431.56 557.799 1434.72 557.546 1437.91 557.347C1438.8 556.224 1438.74 556.164 1438.74 554.718C1436.07 552.852 1432.67 554.117 1430.24 552.308C1431.51 551.215 1434.27 550.544 1435.9 549.997C1436.07 549.941 1436.23 549.89 1436.4 549.837L1436.65 548.878C1434.07 541.746 1419.42 549.344 1414.47 545.287C1420.44 544.277 1427.73 545.734 1433.24 544.283C1435.1 543.791 1437.84 542.715 1438.71 541.032C1434.04 539.097 1420.2 540.097 1413.62 538.691L1413.92 538.234C1422.9 537.678 1431.79 537.551 1440.78 537.643C1442.78 537.546 1444.4 537.825 1446.02 536.557L1445.64 534.444L1449.21 534.047C1446.77 533.768 1444.42 533.468 1442.02 532.867L1443.03 531.74L1442.13 531.445C1442.23 530.364 1442.08 529.185 1442.03 528.097C1443.6 524.979 1445.53 525.057 1448.74 523.907C1448.02 522.384 1445.99 521.738 1444.5 520.948L1444.59 519.979Q1430.99 519.96 1417.4 519.768C1425.7 517.113 1436.7 521.679 1444.66 518.08L1445.01 516.542L1442.88 514.943C1434.95 514.48 1427.07 515.302 1419.09 514.558C1426.78 512.38 1437.73 513.528 1445.74 513.51L1448.68 512.432L1449.23 511.117C1444.4 507.131 1426.89 508.559 1420.02 508.102L1419.88 507.69C1431.29 507.426 1442.51 506.507 1453.89 505.936C1459.89 505.635 1465.77 505.918 1471.77 505.312C1465.44 502.313 1425.8 504.331 1420.86 501.472C1428.34 500.5 1435.61 501.72 1443.05 501.385C1446.16 501.245 1450.79 499.199 1452.84 496.84C1446.49 496.381 1423.84 497.517 1420.03 494.603C1430.67 493.064 1442.11 494.343 1452.91 493.726L1453.58 492.056L1451.98 490.058C1451.3 490.079 1450.63 490.085 1449.94 490.014C1442.4 489.23 1425.46 491.651 1419.7 488.973L1420.24 488.299C1420.72 488.623 1421.17 489.068 1421.75 489.131L1421.77 487.35C1422.83 487.827 1423.45 487.987 1424.61 487.896C1433.82 487.174 1443.4 487.654 1452.65 487.497C1453.83 484.635 1451.65 484.286 1451.96 482.285C1452.04 481.792 1454.1 480.779 1454.45 479.127C1447.35 473.857 1427.34 481.33 1418.88 476.002C1427.85 474.254 1443.92 478.318 1451.31 472.906L1450.34 472.066L1449.59 473.779L1450.4 473.453C1442.89 468.447 1428.15 472.936 1419.06 470.969L1419.3 470.474C1426.66 465.722 1441.65 471.448 1450.3 468.662L1450.51 467.356L1448.16 465.272C1453.25 465.391 1467.25 466.997 1471.13 464C1471.15 462.434 1471.38 460.898 1471.46 459.337C1471.57 457.226 1471.3 454.697 1469.86 453.075C1468.06 452.564 1466.78 452.115 1465.28 450.99L1465.69 448.919C1466.98 448.143 1468.14 447.283 1469.33 446.351C1469.32 445.475 1469.57 444.811 1468.93 444.159C1465.08 440.179 1462.43 440.482 1457.18 440.45L1453.86 440.748Q1454.41 442.494 1454.98 444.235C1452.26 446.653 1448.34 445.951 1444.84 445.913C1445.74 444.908 1445.86 444.723 1446.13 443.401C1441.38 439.565 1422.42 441.111 1416.04 440.839C1419.3 438.627 1438.55 439.65 1443.57 439.707C1444.22 438.622 1444.46 437.666 1444.78 436.455C1438.66 431.825 1418.84 438.104 1413.63 433.979L1416.67 433.819L1416.06 433.055L1416.9 433.777C1432.49 432.716 1448.46 433.282 1464.1 433.001L1464.02 432.35C1459.33 430.294 1449.26 431.553 1442.67 429.678C1444.37 429.766 1445.82 429.531 1447.49 429.205L1447.87 428.492C1441.81 425.182 1428.74 427.926 1421.41 426.892C1427.17 426.475 1443.18 428.174 1447.5 425.876C1447.09 425.303 1443.78 424.452 1442.93 424.152C1442.78 424.065 1442.62 423.985 1442.47 423.891C1437.46 420.677 1418.22 423.544 1409.19 420.975C1411.8 417.966 1433.38 422.965 1438.96 417.885C1432.13 412.207 1414.74 419.899 1407.52 414.523L1408.36 413.62L1409.27 414.534C1416.01 412.131 1431.3 415.672 1436.49 412.164L1435.13 409.889C1440.72 408.816 1446.83 409.385 1452.55 408.967L1452.27 406.898C1448.85 406.245 1445.54 406.839 1442.06 405.98L1442.49 405.067C1444.29 403.655 1446.51 403.633 1448.71 403.341L1448.98 401.7C1441.77 400.79 1433.89 401.4 1426.63 401.586L1427.45 399.404L1426.96 398.443C1418.96 398.13 1409.84 398.406 1402.12 396.239C1402.45 396.144 1403.16 395.933 1403.56 395.864C1408.15 395.061 1413.52 395.682 1418.23 395.435C1425.3 395.063 1442.24 391.633 1448.01 395.696L1447.56 398.222C1458.95 402.987 1459.31 426.809 1467.98 431.942C1468.9 432.485 1468.83 432.521 1469.88 432.21C1467.73 420.68 1456.53 399.349 1450.69 388.774C1447.67 383.309 1443.17 377.164 1441.53 371.219C1441.47 371.02 1441.43 370.818 1441.38 370.618Z"/>
	<path fill="#C5857D" d="M1444.59 519.979C1452.45 519.48 1460.9 518.338 1468.67 520.008L1468.06 521.429C1460.29 521.803 1452.28 521.223 1444.5 520.948L1444.59 519.979Z"/>
	<path fill="#C5857D" d="M1449.57 531.406C1453.62 531.477 1461.21 530.734 1464.38 533.186C1459.83 534.591 1453.95 534.384 1449.21 534.047C1446.77 533.768 1444.42 533.468 1442.02 532.867L1443.03 531.74C1445.1 531.685 1447.57 531.892 1449.57 531.406Z"/>
	<path fill="#E0514D" d="M1445.74 513.51C1453.4 513.435 1462.06 511.854 1469.54 512.971L1470.46 513.923C1466.86 516.419 1448.13 515.762 1442.88 514.943C1434.95 514.48 1427.07 515.302 1419.09 514.558C1426.78 512.38 1437.73 513.528 1445.74 513.51Z"/>
	<path fill="#FDFAFA" d="M1321.35 439.941C1327.7 435.94 1331.85 429.35 1338.93 425.609C1348.15 420.739 1359.58 419.961 1369.48 423.057Q1370.41 423.343 1371.33 423.676Q1372.25 424.009 1373.15 424.388Q1374.06 424.766 1374.94 425.189Q1375.82 425.612 1376.68 426.079Q1377.54 426.546 1378.37 427.056Q1379.21 427.565 1380.01 428.116Q1380.82 428.666 1381.6 429.257Q1382.38 429.847 1383.13 430.476Q1383.88 431.104 1384.6 431.77Q1385.31 432.435 1385.99 433.136Q1386.68 433.837 1387.32 434.57Q1387.97 435.304 1388.58 436.07Q1389.19 436.835 1389.76 437.63Q1390.32 438.425 1390.85 439.247Q1391.38 440.07 1391.87 440.918Q1392.36 441.766 1392.8 442.637Q1393.23 443.481 1393.62 444.344Q1394.01 445.208 1394.35 446.09Q1394.69 446.972 1394.99 447.87Q1395.29 448.768 1395.55 449.68Q1395.81 450.592 1396.02 451.516Q1396.22 452.439 1396.39 453.372Q1396.55 454.304 1396.67 455.244Q1396.79 456.183 1396.86 457.128Q1396.93 458.072 1396.95 459.019Q1396.98 459.965 1396.95 460.912Q1396.93 461.859 1396.86 462.803Q1396.79 463.747 1396.67 464.687Q1396.56 465.627 1396.39 466.559Q1396.23 467.492 1396.02 468.415Q1395.81 469.339 1395.55 470.251Q1395.3 471.163 1395 472.061C1390.16 486.384 1378.19 494.33 1367 503.351C1362.72 506.804 1358.44 510.899 1353.49 513.323C1351.62 517.735 1324.8 537.958 1319.61 540.194C1318.47 537.646 1313.95 534.604 1311.81 532.774C1296.46 519.617 1267.05 500.506 1255.17 486.659C1251.45 482.314 1248.64 477.327 1247.15 471.783C1244.56 462.167 1245.83 450.092 1250.91 441.462C1257.14 430.867 1267.95 424.81 1279.51 421.777C1291.39 420.71 1304.16 422.707 1313.8 430.281C1316.63 432.504 1320.9 436.191 1321.35 439.941Z"/>
	<path fill="#CA2D2C" d="M1278.11 427.998C1294.04 425.786 1306 429.151 1316.28 441.828C1318.2 444.198 1319.87 447.248 1322.73 448.33C1327.65 442.72 1332.58 436.502 1338.98 432.536C1347.13 427.488 1356.85 425.78 1366.16 428.141C1374.93 430.365 1382.39 435.833 1386.89 443.719Q1387.31 444.472 1387.7 445.245Q1388.08 446.019 1388.43 446.811Q1388.77 447.602 1389.08 448.41Q1389.38 449.218 1389.64 450.041Q1389.91 450.863 1390.13 451.698Q1390.35 452.532 1390.53 453.377Q1390.71 454.221 1390.85 455.074Q1390.98 455.927 1391.08 456.785Q1391.17 457.644 1391.22 458.506Q1391.27 459.368 1391.28 460.231Q1391.29 461.095 1391.25 461.958Q1391.22 462.821 1391.14 463.681Q1391.06 464.541 1390.94 465.396Q1390.81 466.25 1390.65 467.098Q1390.48 467.946 1390.28 468.784Q1390.07 469.622 1389.82 470.449C1386.28 482.491 1366.55 498.213 1355.55 504.242C1354.75 507.041 1324.61 530.782 1320.2 533.559C1315.49 522.601 1260.34 492.941 1253.05 471.258C1250.22 462.839 1251.68 453.51 1255.58 445.67C1260.25 436.289 1268.55 431.294 1278.11 427.998Z"/>
</svg>
