<?xml version="1.0" encoding="utf-8" ?>
<svg xmlns="http://www.w3.org/2000/svg" xmlns:xlink="http://www.w3.org/1999/xlink" width="1024" height="1024">
	<path fill="#010101" d="M758.335 134.136C759.546 134.872 760.178 135.026 760.582 136.473C763.237 145.978 740.516 183.026 733.949 191.652C732.814 191.005 732.215 190.628 731.538 189.497C731.538 185.301 741.228 173.692 743.613 169.382C749.839 158.129 753.078 145.764 758.335 134.136Z"/>
	<path fill="#010101" d="M748.211 108.703C749.136 109.243 748.77 108.976 749.628 109.71C750.513 110.467 750.805 111.413 750.845 112.567C750.996 116.974 748.88 122.002 747.41 126.079C741.525 142.41 734.174 158.679 722.292 171.586C722.178 171.58 722.06 171.596 721.95 171.566C720.786 171.246 720.685 171.058 720.186 170.046C720.907 165.06 729.471 155.699 732.188 150.513C739.241 137.056 742.863 122.771 748.211 108.703Z"/>
	<path fill="#010101" d="M808.055 247.548C824.841 240.506 841.296 231.969 854.222 218.87C856.377 216.686 859.809 211.85 863.191 212.996C863.6 213.627 863.711 213.512 863.601 214.163C862.378 221.369 840.567 235.851 833.611 240.064C825.48 244.987 817.032 249.093 807.999 252.068C804.272 253.497 795.848 257.534 792.099 255.935C791.791 255.073 791.671 254.868 792.159 254.064C794.189 250.719 804.296 248.647 808.055 247.548Z"/>
	<path fill="#010101" d="M735.414 76.8964C735.921 77.1163 736.477 77.3325 736.933 77.6489C737.984 78.3775 738.326 79.7303 738.473 80.9283C739.033 85.5028 737.843 90.594 736.903 95.0504C732.604 115.432 723.989 138.481 711.484 155.193C710.451 154.919 710.032 154.622 709.274 153.873C708.758 150.472 716.661 138.594 718.541 134.789C724.202 123.324 728.803 110.476 731.28 97.9295C732.628 91.0987 732.722 83.3034 735.414 76.8964Z"/>
	<path fill="#010101" d="M809.706 221.326C823.948 214.391 837.358 206.724 849.62 196.616C853.236 193.635 865.232 180.982 868.084 180.496C869.206 180.913 869.362 180.994 870.1 181.929C870.122 184.008 868.412 185.719 867.042 187.116C850.434 204.058 830.113 216.88 808.674 226.711C805.07 228.174 798.732 231.335 794.871 230.077L794.537 229.228C797.01 224.733 805.072 222.92 809.706 221.326Z"/>
	<path fill="#010101" d="M832.068 182.344C842.827 176.089 853.168 169.262 862.638 161.155C866.745 157.64 870.421 153.049 874.739 149.887C876.152 148.852 877.218 148.329 878.96 148.679C879.39 149.859 879.383 150.501 878.867 151.682C877.972 153.735 875.353 155.936 873.759 157.496C861.29 169.703 841.357 184.01 825.587 191.459C816.71 194.837 808.025 199.828 798.681 201.854C796.546 202.316 794.882 202.686 792.981 201.467L792.863 200.352C795.019 197.514 812.875 192.196 817.481 190.169C822.33 188.036 827.195 185.625 831.6 182.665L832.068 182.344Z"/>
	<path fill="#FEFEFE" d="M125.189 632.337C128.059 638.312 129.486 645.78 131.31 652.202Q137.457 673.951 143.332 695.775L168.007 787.127C170.04 794.934 172.565 802.719 174.422 810.548C171.637 808.871 169.667 805.601 168.106 802.813C163.149 793.96 160.426 783.41 157.179 773.798C148.101 746.918 118.856 654.486 125.189 632.337Z"/>
	<path fill="#FEFEFE" d="M736.391 213.17C733.941 218.183 728.417 226.551 729.044 232.128L729.771 232.688C732.04 231.998 733.008 230.583 734.182 228.637C737.525 223.098 739.968 216.709 742.877 210.901C749.142 198.393 756.576 185.623 765.287 174.67C785.078 149.783 809.761 148.249 835.55 134.126C848.858 126.837 860.053 116.466 871.354 106.492C870.21 110.943 868.842 115.24 867.138 119.508C865.277 124.169 860.622 133.018 860.059 137.469C863.081 135.444 865.877 133.284 868.59 130.857C871.677 128.096 883.451 114.809 887.172 115.515C887.748 116.638 887.857 116.843 887.393 118.13C885.135 124.396 865.957 138.905 860.07 143.318C856.665 145.871 852.174 148.445 849.352 151.565C843.973 162.044 838.004 172.175 832.068 182.344L831.6 182.665C827.195 185.625 822.33 188.036 817.481 190.169C812.875 192.196 795.019 197.514 792.863 200.352L792.981 201.467C794.882 202.686 796.546 202.316 798.681 201.854C808.025 199.828 816.71 194.837 825.587 191.459C819.251 201.301 813.687 210.246 809.706 221.326C805.072 222.92 797.01 224.733 794.537 229.228L794.871 230.077C798.732 231.335 805.07 228.174 808.674 226.711C807.889 233.73 807.717 240.497 808.055 247.548C804.296 248.647 794.189 250.719 792.159 254.064C791.671 254.868 791.791 255.073 792.099 255.935C795.848 257.534 804.272 253.497 807.999 252.068C807.956 265.286 804.572 277.814 795.052 287.4C781.218 301.332 760.798 304.219 742.028 304.182C738.557 304.175 734.87 304.22 731.474 303.449C717.973 294.291 709.403 284.643 699.729 271.758C694.856 265.266 690.272 258.384 683.822 253.323C681.394 251.418 678.718 249.684 675.86 248.501C672.983 247.31 662.548 245.783 661.261 243.352C659.253 239.555 660.603 233.528 661.786 229.57C664.143 221.684 669.187 215.852 676.399 212.057C694.731 202.412 717.736 207.271 736.391 213.17Z"/>
	<path fill="#010101" d="M675.668 231.198C675.86 231.288 676.057 231.368 676.244 231.468C677.749 232.276 678.415 233.124 678.903 234.737C678.718 236.343 678.01 237.062 676.999 238.227C676.529 238.118 675.769 237.967 675.354 237.749C674.124 237.105 673.978 236.465 673.6 235.255C673.823 233.48 674.584 232.582 675.668 231.198Z"/>
	<path fill="#010101" d="M860.059 137.469C863.081 135.444 865.877 133.284 868.59 130.857C871.677 128.096 883.451 114.809 887.172 115.515C887.748 116.638 887.857 116.843 887.393 118.13C885.135 124.396 865.957 138.905 860.07 143.318C856.665 145.871 852.174 148.445 849.352 151.565C839.439 158.188 814.523 169.508 803.003 172.045C800.117 172.681 795.576 173.379 792.998 171.745C793.183 169.889 796.235 168.931 797.817 168.371C802.557 166.693 807.5 165.577 812.276 163.99Q816.958 162.449 821.532 160.611Q826.105 158.772 830.552 156.644Q834.998 154.516 839.298 152.106Q843.598 149.697 847.735 147.016C851.637 144.526 856.607 141.528 859.622 137.998C859.771 137.824 859.914 137.645 860.059 137.469Z"/>
	<path fill="#010101" d="M697.878 202.06C688.321 174.866 685.026 147.891 698.57 121.425C704.153 110.515 710.594 100.295 714.621 88.63C716.726 82.5318 718.131 75.4376 718.773 69.026C719.165 65.1116 719.067 61.0213 719.824 57.1645C720.156 55.4715 720.562 53.7124 722.042 52.7313C722.673 53.3397 722.885 53.7671 723.183 54.6172C724.54 58.4871 723.876 63.5875 723.402 67.5845C721.199 86.1786 715.105 99.1568 706.392 115.357C689.349 147.049 691.952 168.809 701.979 202.22C714.356 203.177 726.975 205.461 738.801 209.216C741.674 203.742 744.997 198.437 748.139 193.112C760.526 172.119 773.972 154.343 797.517 145.184C811.195 139.864 824.748 135.673 837.453 128.062C853.219 118.617 864.176 106.451 876.571 93.1927C877.702 91.9839 878.356 91.4879 880.015 91.423C880.57 91.8747 880.939 91.9097 880.952 92.7049C881.02 96.7899 874.068 103.416 871.354 106.492C860.053 116.466 848.858 126.837 835.55 134.126C809.761 148.249 785.078 149.783 765.287 174.67C756.576 185.623 749.142 198.393 742.877 210.901C739.968 216.709 737.525 223.098 734.182 228.637C733.008 230.583 732.04 231.998 729.771 232.688L729.044 232.128C728.417 226.551 733.941 218.183 736.391 213.17C717.736 207.271 694.731 202.412 676.399 212.057C669.187 215.852 664.143 221.684 661.786 229.57C660.603 233.528 659.253 239.555 661.261 243.352C662.548 245.783 672.983 247.31 675.86 248.501C678.718 249.684 681.394 251.418 683.822 253.323C690.272 258.384 694.856 265.266 699.729 271.758C709.403 284.643 717.973 294.291 731.474 303.449C751.251 317.746 774.738 319.325 797.414 325.329C804.413 327.182 811.044 329.686 817.649 332.63C831.427 314.021 848.75 297.98 869.378 287.259C873.662 285.032 877.873 282.605 882.706 281.822C883.733 281.655 884.602 281.711 885.626 281.835L886.295 282.529C885.837 284.348 883.831 285.611 882.314 286.538C877.424 289.522 871.826 291.467 866.766 294.186C857.97 298.911 850.241 305.203 842.595 311.571C851.827 318.098 860.548 325.044 869.311 332.183C891.736 350.452 918.494 373.396 949.646 368.221C958.062 366.823 966.31 363.804 973.917 359.99C977.283 358.302 980.85 356.071 984.382 354.817C985.506 354.417 986.816 354.426 987.909 354.905L988.321 355.559C986.324 360.624 975.107 364.208 970.464 366.674C945.757 379.795 902.191 375.036 875.994 366.741C856.323 360.512 835.467 350.573 819.021 338.041C801.917 363.805 789.09 392.566 778.1 421.39C838.522 446.391 899.757 501.11 925.074 562.133C944.274 608.414 948.001 665.919 928.728 712.739C916.507 742.427 892.944 769.497 862.789 781.877C857.4 784.09 851.973 785.53 846.204 786.314C844.088 786.601 841.725 786.437 839.698 787.032C865.073 833.263 886.575 881.782 893.931 934.434C895.215 943.628 897.298 954.701 894.534 963.763C892.726 969.689 888.149 974.067 882.733 976.833C867.185 984.774 843.085 985.071 826.727 979.608C817.561 976.548 810.385 970.701 806.1 961.997C804.643 959.037 803.465 955.839 802.401 952.716L799.012 954.325C801.3 960.859 804.759 968.052 801.481 974.835C798.266 981.488 791.341 985.019 784.609 987.159C757.981 995.625 714.006 992.077 689.78 979.232C664.657 965.91 652.992 940.371 637.166 918.236C624.764 900.888 608.575 883.778 590.22 872.813C590.375 893.227 589.864 913.646 589.851 934.062C589.846 942.285 591.214 962.907 589.402 969.781C588.139 970.713 586.599 970.629 585.09 970.745C579.268 971.886 571.188 971.601 565.461 970.328C563.827 970.537 562.197 970.438 560.555 970.39C556.914 969.842 552.718 970.325 549.015 970.309L520.992 970.039C515.161 969.942 509.33 969.395 503.499 969.411C493.524 969.437 483.469 969.969 473.5 969.729C468.505 969.609 463.534 968.996 458.532 968.969C451.011 968.929 443.489 969.579 435.961 969.565C428.13 969.551 420.3 969.077 412.469 969.093C406.527 969.105 400.606 969.924 394.69 969.931C391.147 969.936 387.89 967.986 384.396 967.879C380.353 967.756 376.302 969.486 372.208 969.561C359.087 969.802 332.918 966.399 321.55 969.493C319.727 967.572 318.475 965.396 317.131 963.138Q315.705 966.14 314.231 969.118C302.882 970.577 271.437 970.737 261.203 965.598C251.012 960.48 242.726 948.09 236.162 939.083C234.377 936.633 231.843 933.786 230.602 931.041C230.137 930.013 230.954 929.204 230.526 927.939C228.812 927.112 226.215 926.098 225.105 924.499C223.143 921.674 221.812 917.599 220.3 914.453C216.591 906.733 212.479 899.386 207.195 892.611C205.568 892.005 203.787 892.466 202.113 892.708C204.17 904.222 223.999 966.775 222.742 971.521C222.527 972.331 222.13 972.364 221.476 972.779C219.568 971.78 218.945 969.98 218.203 968.043C212.04 951.965 208.496 934.233 204.084 917.611C198.77 897.589 192.971 877.686 187.515 857.7C183.23 842.004 179.371 826.04 174.422 810.548C172.565 802.719 170.04 794.934 168.007 787.127L143.332 695.775Q137.457 673.951 131.31 652.202C129.486 645.78 128.059 638.312 125.189 632.337C125.733 630.845 124.775 627.835 124.385 626.271C122.887 620.267 120.834 614.36 119.169 608.394L104.608 555.252C101.605 544.298 98.2091 533.286 95.7516 522.204C94.5422 516.751 93.5894 511.108 93.5113 505.509C93.3031 490.578 99.922 478.817 110.101 468.519C97.9757 468.337 89.5786 465.51 80.7891 456.901C56.7781 433.381 42.7737 383.393 42.4744 350.102C42.3574 337.093 44.229 320.333 54.0421 310.688C58.9105 305.902 66.1998 303.463 72.6941 301.897C88.5774 298.067 105.516 297.753 121.777 297.055Q149.887 295.816 178.024 295.573C170.114 264.22 167.279 228.603 184.563 199.771C198.265 176.914 223.689 161.91 249.103 155.643C264.088 151.949 279.4 151.584 294.75 151.579C353.28 151.563 405.537 167.266 455.527 197.606C466.281 204.132 477.301 210.723 487.629 217.9C506.381 230.931 524.293 245.359 542.356 259.322Q574.463 283.922 606.076 309.155C619.142 319.638 631.996 330.466 645.246 340.71Q666.49 357.044 688.689 372.054C704.984 383.16 722.319 393.751 739.806 402.864C751.078 408.739 762.746 413.82 774.01 419.692C777.919 410.542 781.163 401.113 785.162 391.992C793.714 372.488 803.865 354.09 815.262 336.122C801.345 328.868 786.048 327.426 770.947 324.192C760.723 322.003 750.518 318.738 741.142 314.095C722.422 304.823 708.64 291.333 696.311 274.774C691.609 268.459 687.147 261.65 681.03 256.583C674.373 251.067 665.766 252.05 659.618 247.827C657.398 246.303 656.706 244.356 656.372 241.76C655.291 233.359 657.738 223.611 663.045 216.974C671.543 206.347 685.05 203.46 697.878 202.06ZM73.1273 306.61C64.7731 308.52 58.5043 311.509 53.8093 319.06C42.3731 337.454 47.0661 365.341 51.87 385.258C57.5919 408.98 70.6357 446.832 91.7974 459.895C95.3597 462.093 98.8996 463.427 102.926 464.52C109.938 464.308 115.999 462.389 120.918 457.1C127.102 450.45 128.601 440.879 128.076 432.136C126.116 399.535 100.98 354.705 85.3833 326.259C83.431 322.698 76.7356 309.031 73.9253 307.029C73.6806 306.855 73.3933 306.749 73.1273 306.61ZM118.092 586.08C120.614 563.778 122.502 530.453 131.139 510.358C133.539 504.775 136.756 499.948 140.732 495.375C137.316 486.986 133.056 475.542 124.176 471.579Q123.604 471.318 123.007 471.117Q122.411 470.917 121.797 470.778Q121.183 470.64 120.559 470.566Q119.934 470.492 119.305 470.482Q118.675 470.472 118.049 470.528Q117.422 470.583 116.804 470.702Q116.187 470.822 115.584 471.004Q114.982 471.187 114.402 471.43C107.581 474.275 103.63 482.07 101.179 488.652C98.9169 494.727 97.5381 501.531 97.8856 508.031C98.7629 524.444 106.175 543.746 110.641 559.778C113.055 568.442 114.782 577.743 118.092 586.08ZM839.236 314.865C832.919 320.993 827.191 327.494 821.755 334.408C846.829 350.471 872.609 363.408 902.384 367.941Q910.396 368.815 918.388 369.86C904.336 363.263 890.456 355.791 878.296 346.065C865.792 336.066 852.971 322.771 839.236 314.865Z"/>
	<path fill="#FEFEFE" d="M495.18 624.8C496.506 625.41 497.808 625.872 498.48 627.251C498.672 628.8 498.054 629.83 497.41 631.181C495.858 630.749 495.539 630.771 494.459 629.499C494.178 627.752 494.659 626.462 495.18 624.8Z"/>
	<path fill="#FEFEFE" d="M500.716 615.256C502.108 616.338 503.817 617.607 504.203 619.43C504.835 622.419 502.097 625.273 500.435 627.478C499.034 626.181 497.514 624.982 496.055 623.748L500.716 615.256Z"/>
	<path fill="#FEFEFE" d="M524.208 596.257L528.102 599.824C523.481 607.157 518.989 614.573 513.428 621.244C512.475 621.529 512.171 621.263 511.244 620.981C510.722 619.739 510.538 619.456 511.013 618.1C511.729 616.059 515.048 609.693 516.629 608.245C517.457 607.487 518.904 607.011 519.939 606.587C520.657 602.388 521.595 599.669 524.208 596.257Z"/>
	<path fill="#FEFEFE" d="M530.198 603.228C533.097 604.358 534.528 605.803 536.434 608.245C533.895 612.224 531.477 615.765 527.884 618.873C526.576 618.145 525.279 617.466 523.916 616.846L523.295 617.388L523.652 619.324L523.631 620.048C521.898 621.133 519.498 621.352 517.507 621.753C518.792 619.699 520.07 617.597 521.526 615.661C523.57 612.944 526.94 611.054 527.875 607.641C528.382 605.788 529.015 604.728 530.198 603.228Z"/>
	<path fill="#FEFEFE" d="M585.415 610.688C595.814 612.992 606.122 615.846 616.438 618.495L616.463 624.66C607.472 622.29 594.427 619.632 586.093 615.913C585.297 614.526 585.479 612.289 585.415 610.688Z"/>
	<path fill="#FEFEFE" d="M516.465 588.277C518.577 589.48 520.328 591.974 521.942 593.79C520.73 596.368 519.857 598.014 517.587 599.784L517.177 600.097L517.996 600.243L516.657 600.374C513.789 606.919 510.829 612.059 506.74 617.933L502.971 614.37C502.776 614.076 502.571 613.352 502.444 613.011C503.241 610.637 504.228 608.683 506.3 607.197Q507.539 607.599 508.799 607.925L508.962 607.271C508.649 606.909 507.876 606.164 507.652 605.693C507.208 604.76 507.361 604.599 507.592 603.695C508.066 601.843 509.28 599.674 511.177 598.927C512.887 598.253 514.201 599.253 515.784 599.905L512.069 595.61C513.392 593.01 514.768 590.654 516.465 588.277Z"/>
	<path fill="#FEFEFE" d="M581.938 580.956L582.406 581.731C582.225 587.096 578.079 590.833 576.069 595.597C575.466 597.024 575.139 598.318 575.764 599.803C576.893 600.792 577.977 601.619 578.636 603.005L578.207 603.423C576.776 603.365 575.441 603.176 574.113 603.818L574.224 604.716C575.853 606.628 577.746 607.833 579.814 609.211C579.81 611.821 579.702 614.443 579.64 617.053L573.672 618.791C573.039 618.761 572.833 618.581 572.304 618.258C571.786 616.916 571.275 615.533 570.459 614.339C568.652 611.694 567.105 611.297 564.103 610.643C566.753 608.139 569.789 605.582 571.774 602.508C574.105 598.899 574.735 594.881 576.195 590.916C577.564 587.198 579.627 584.139 581.938 580.956Z"/>
	<path fill="#FEFEFE" d="M403.186 446.218C408.203 445.863 413.275 445.877 417.918 448.105C423.259 450.669 426.412 455.987 427.957 461.548C428.299 462.78 428.652 463.66 428.01 464.826L426.784 464.337C418.394 458.681 409.785 453.429 401.193 448.091L401.215 447.554L400.727 447.762L400.563 447.263L400.003 447.094C400.83 446.353 402.097 446.396 403.186 446.218Z"/>
	<path fill="#FEFEFE" d="M516.565 576.372C520.983 580.474 524.657 585.565 528.789 589.977C534.205 595.76 541.138 601.432 545.527 608.033C546.401 609.348 545.741 611.587 545.452 613.014C543.974 615.358 536.513 616.776 533.731 617.598L539.015 610.842C540.003 611.799 540.844 612.41 542.043 613.086C542.015 612.037 540.825 611.374 540.21 610.537C539.156 609.103 539.506 608.645 539.776 607.012C539.251 605.982 539.052 605.828 538.088 605.173C537.295 605.605 537.075 605.76 536.146 605.763C530.849 601.072 526.544 594.6 522.187 589.029C520.328 586.818 518.379 584.716 516.4 582.613C506.758 594.355 499.493 608.676 491.96 621.837L490.286 616.902C498.434 603.031 508.094 590.059 516.565 576.372Z"/>
	<path fill="#FEFEFE" d="M523.184 565.327C525.903 568.053 527.574 572.01 530.362 574.862C537.16 581.816 545.805 588.573 554.972 592.067C559.534 593.805 564.27 594.986 568.719 597.031L569.36 597.331C567.461 601.397 564.56 604.254 561.463 607.413C559.693 609.079 558.021 610.192 555.862 611.306C542.28 600.384 530.689 585.577 519.411 572.368C520.425 569.881 521.813 567.627 523.184 565.327Z"/>
	<path fill="#FEFEFE" d="M586.823 622.347C596.765 623.429 606.832 627.255 616.485 629.869Q616.093 643.782 615.957 657.7L609.42 655.612C598.467 651.465 587.547 647.315 577.088 642.019C582.021 635.784 585.37 630.239 586.823 622.347Z"/>
	<path fill="#E9E5DE" d="M799.012 954.325C779.096 907.725 773.431 855.52 744.537 812.787C727.183 787.121 703.427 767.634 677.469 751.154Q668.88 745.661 660.062 740.541C654.263 737.238 631.494 726.903 629.16 722.564L630.006 721.983Q631.185 721.935 632.361 722.041Q633.536 722.147 634.688 722.404Q635.84 722.661 636.948 723.066Q638.057 723.47 639.104 724.015C702.23 756.319 746.004 788.893 771.607 856.818C778.085 874.006 782.962 891.652 788.3 909.209Q795.072 931.053 802.401 952.716L799.012 954.325Z"/>
	<path fill="#FEFEFE" d="M533.756 543.42C538.264 545.671 542.444 549.26 546.786 551.894C560.244 560.061 574.236 560.912 589.588 560.183C586.082 566.918 582.343 573.151 577.419 578.943C574.302 582.972 571.419 587.049 568.627 591.307C554.787 587.837 544.233 581.869 534.016 571.925Q534.074 557.671 533.756 543.42Z"/>
	<path fill="#FEFEFE" d="M620.974 619.251C631.305 621.56 641.563 624.758 651.841 627.373L721.223 645.003Q731.704 647.833 742.272 650.316C752.358 652.628 762.615 654.613 772.311 658.309C777.19 660.169 781.389 663.171 785.086 666.827C802.313 683.862 801.915 714.857 802.017 737.537Q794.892 731.011 787.444 724.857C786.859 714.314 786.537 703.713 783.93 693.426C781.044 682.04 775.216 670.989 765.3 664.233C761.581 661.699 757.286 660.218 753.028 658.854C744.187 656.021 734.842 654.414 725.844 652.06C698.785 644.982 671.578 638.33 644.597 630.984C637.791 629.131 627.552 628.178 621.687 624.68C620.683 623.097 620.954 621.067 620.974 619.251Z"/>
	<path fill="#E9E5DE" d="M267.629 681.027C275.057 682.935 282.472 685.095 289.935 686.838Q297.796 708.996 306.193 730.957C309.539 739.624 313.763 748.298 316.129 757.291C314.187 757.604 312.582 757.765 310.947 758.912L310.355 759.971C311.254 761.813 312.793 762.298 314.67 762.938C318.542 764.259 322.619 764.675 326.663 765.124C327.548 769.57 328.383 774.033 329.324 778.468C318.525 775.588 307.689 772.946 296.853 770.214C296.044 763.026 290.567 750.29 288.09 742.963C282.812 727.352 278.075 711.611 273.026 695.931C271.405 690.895 269.161 686.078 267.629 681.027Z"/>
	<path fill="#FEFEFE" d="M521.768 533.294C533.814 532.505 545.785 532.499 557.673 534.888C574.736 538.317 587.707 546.45 601.14 557.186C605.416 560.604 609.659 563.75 612.735 568.361C608.217 567.361 603.614 565.309 598.906 565.676C597.404 565.793 596.522 566.089 595.526 567.216C595.644 567.773 595.623 567.845 595.948 568.412C598.429 572.746 608.308 573.809 612.875 574.69C615.392 587.01 615.24 600.389 615.796 612.933Q600.01 609.265 584.539 604.437C583.026 602.353 580.83 599.827 580.903 597.144C588.386 585.478 587.058 581.191 590.195 568.815C591.28 564.538 596.143 560.089 596.206 555.983C593.54 554.111 579.172 555.834 574.825 555.667Q571.905 555.566 569.015 555.134Q566.126 554.702 563.304 553.945C555.509 551.884 547.107 548.132 540.952 542.839C537.302 539.7 534.182 536.343 529.918 534.022C528.317 544.735 529.356 555.682 529.032 566.487C524.778 560.789 518.934 556.831 513.853 551.941C508.498 546.788 503.796 540.996 499.155 535.207Q510.432 533.904 521.768 533.294Z"/>
	<path fill="#E9E5DE" d="M198.774 300.494C188.854 309.021 175.644 317.498 174.413 331.943C173.199 346.18 191.511 353.004 178.434 364.461C171.435 370.592 163.353 374.622 162.799 385.072C162.405 392.483 165.025 400.499 170.131 405.912C178.398 414.677 189.603 415.597 200.897 415.708L204.167 415.733C208.057 425.76 212.175 435.893 222.695 440.58C229.122 443.444 235.727 443.149 242.549 442.381C244.314 445.932 246.018 449.015 248.894 451.827L229.661 453.195C230.126 452.064 230.591 450.995 230.794 449.78C231.052 448.23 228.2 447.065 227.02 446.526C213.382 440.304 208.135 439.773 198.828 426.835C190.31 428.667 180.337 428.999 172.193 425.494C162.167 421.179 155.053 412.389 151.133 402.383C145.443 387.859 146.189 375.914 154.785 362.829C157.861 358.147 161.17 353.643 162.415 348.073C164.565 338.458 163.441 328.912 164.713 319.304C165.566 312.855 167.968 307.092 170.578 301.197C164.119 301.212 157.39 301.572 150.972 300.931C156.971 300.355 163.104 300.587 169.126 300.571L198.774 300.494Z"/>
	<path fill="#FEFEFE" d="M380.928 305.566C382.468 306.167 383.781 307.08 385.086 308.089C404.732 323.277 421.346 377.379 424.254 401.798C425.282 410.427 425.651 421.233 419.716 428.334C413.271 436.044 402.757 435.72 393.62 436.423C384.946 437.323 378.13 438.271 369.707 435.252Q367.861 426.016 367.397 416.608C380.203 408.927 389.248 397.352 394.122 383.276C403.594 355.924 392.95 330.005 380.928 305.566Z"/>
	<path fill="#FEFEFE" d="M573.62 646.373C583.066 649.289 591.975 654.163 600.84 658.497C585.837 681.982 561.688 695.736 538.51 709.927C525.731 706.959 513.015 702.848 500.373 699.295C487.37 695.729 474.247 692.514 461.195 689.129L461.795 682.01C504.354 681.428 540.961 677.219 573.62 646.373Z"/>
	<path fill="#E9E5DE" d="M295.473 688.366Q321.376 695.202 347.373 701.668C346.518 705.757 350.979 711.609 353.175 714.943C357.257 721.14 388.641 763.324 394.486 764.039C395.154 764.12 395.929 764.008 396.601 763.971C397.383 763.928 397.05 763.905 397.82 764.105C395.35 764.997 391.587 764.561 388.876 764.815C363.493 767.184 346.408 764.085 321.839 759.216C318.668 749.196 314.75 739.511 311.031 729.692L295.473 688.366Z"/>
	<path fill="#FEFEFE" d="M564.632 615.238C564.852 615.254 565.075 615.244 565.292 615.285C566.646 615.538 567.048 615.663 567.852 616.697C565.493 624.208 541.503 629.426 534.576 634.621C533.388 635.512 532.667 636.282 532.441 637.758L533.062 638.485C535.007 639.052 536.678 638.667 538.599 638.123C545.427 636.193 552.303 632.533 558.859 629.781C566.306 626.655 573.826 624.174 581.519 621.733C574.209 627.785 567.836 634.445 559.618 639.384C554.379 642.534 538.063 650.372 534.8 654.397C533.991 655.394 534.082 655.599 534.206 656.803L535.219 657.435C544.079 657.721 571.417 637.115 578.815 631.346C575.768 636.123 572.255 640.326 568.348 644.422C539.532 672.811 500.459 676.002 462.33 676.854C462.448 663.356 462.665 649.914 463.497 636.436C474.904 636.479 487.309 638.239 498.531 635.709C503.318 634.629 507.208 631.189 511.82 629.563C517.584 627.53 523.616 626.158 529.471 624.404C541.014 620.944 552.6 616.544 564.632 615.238Z"/>
	<path fill="#FEFEFE" d="M347.373 701.668L441.405 726.531C457.302 730.734 473.924 734.137 489.479 739.4C463.757 750.748 426.139 763.943 397.82 764.105C397.05 763.905 397.383 763.928 396.601 763.971C395.929 764.008 395.154 764.12 394.486 764.039C388.641 763.324 357.257 721.14 353.175 714.943C350.979 711.609 346.518 705.757 347.373 701.668Z"/>
	<path fill="#E9E5DE" d="M283.807 456.123L288.197 457.664C288.139 457.995 288.087 458.326 288.022 458.655C287.513 461.272 286.216 463.764 285.41 466.308Q283.105 473.806 281.961 481.566C274.778 530.542 285.963 582.981 303.061 628.904C306.026 636.87 309.877 644.456 313.125 652.301Q297.347 648.882 281.636 645.164C272.014 616.033 263.857 586.314 259.306 555.935C253.349 516.168 259.768 488.576 283.807 456.123Z"/>
	<path fill="#FEFEFE" d="M207.32 665.131C227.461 669.431 247.914 675.092 267.629 681.027C269.161 686.078 271.405 690.895 273.026 695.931C278.075 711.611 282.812 727.352 288.09 742.963C290.567 750.29 296.044 763.026 296.853 770.214C277.94 765.957 259.191 760.914 240.393 756.175C229.027 725.968 218.677 695.362 207.32 665.131Z"/>
	<path fill="#E9E5DE" d="M228.828 462.811C243.775 461.616 261.296 459.158 276.048 459.498C249.975 497.456 248.748 525.963 256.893 569.691Q261.471 593.628 268.141 617.068C270.676 626.008 273.63 634.836 276.029 643.812Q264.789 640.674 253.325 638.492C250.488 631.107 249.15 621.283 246.469 613.214C234.003 575.69 220.354 534.894 223.236 494.839C224.006 484.138 226.309 473.228 228.828 462.811Z"/>
	<path fill="#FEFEFE" d="M620.624 630.372L700.909 650.772C718.391 655.133 736.41 658.698 753.441 664.609C757.612 666.057 762.617 667.919 765.828 671.038C779.252 684.08 781.316 702.085 781.529 719.901C774.806 716.35 768.293 712.396 761.557 708.86Q740.104 697.67 717.613 688.747C686.071 676.224 653.01 668.11 620.48 658.647Q620.449 644.509 620.624 630.372Z"/>
	<path fill="#FEFEFE" d="M79.3064 305.535C88.8768 303.512 98.8477 303.237 108.59 302.596C122.699 301.668 136.824 300.67 150.972 300.931C157.39 301.572 164.119 301.212 170.578 301.197C167.968 307.092 165.566 312.855 164.713 319.304C163.441 328.912 164.565 338.458 162.415 348.073C161.17 353.643 157.861 358.147 154.785 362.829C146.189 375.914 145.443 387.859 151.133 402.383C155.053 412.389 162.167 421.179 172.193 425.494C180.337 428.999 190.31 428.667 198.828 426.835C208.135 439.773 213.382 440.304 227.02 446.526C228.2 447.065 231.052 448.23 230.794 449.78C230.591 450.995 230.126 452.064 229.661 453.195C194.63 455.835 159.545 457.49 124.523 460.383C127.173 456.54 129.476 452.633 130.95 448.181C140.979 417.888 110.486 361.488 95.9761 335.211C90.4964 325.288 84.4533 315.634 79.3064 305.535Z"/>
	<path fill="#FEFEFE" d="M215.173 645.802C219.68 645.301 224.253 645.43 228.782 645.174C237.964 644.656 247.947 643.133 257.063 644.49C268.434 646.181 279.996 649.761 291.174 652.504L352.384 667.355Q409.469 681.074 466.301 695.807C488.228 701.379 510.682 706.265 532.244 713.103C541.402 716.007 551.201 719.085 558.801 725.141C574.285 737.482 582.032 756.332 584.078 775.62C586.606 799.444 585.351 825.116 585.18 849.125Q584.246 909.935 585.09 970.745C579.268 971.886 571.188 971.601 565.461 970.328C565.881 957.898 565.565 945.436 565.578 933L565.403 849.698L565.406 808.084C565.448 796.183 566.036 783.836 563.981 772.073C561.879 760.042 556.815 748.126 548.379 739.164C543.902 734.408 539.103 730.965 533.029 728.558C523.911 724.945 514.042 723.039 504.561 720.614L466.002 710.412L296.857 667.176L244.753 654.095C234.878 651.545 224.805 649.162 215.173 645.802Z"/>
	<path fill="#FEFEFE" d="M131.47 470.043C163.873 468.621 196.53 465.849 228.828 462.811C226.309 473.228 224.006 484.138 223.236 494.839C220.354 534.894 234.003 575.69 246.469 613.214C249.15 621.283 250.488 631.107 253.325 638.492C235.205 639.801 217.053 640.462 198.934 641.885C196.498 634.366 193.524 626.995 190.826 619.565L177.351 581.876Q167.667 554.277 157.568 526.827C150.537 507.779 144.466 485.923 131.47 470.043Z"/>
	<path fill="#FEFEFE" d="M361.756 287.983C365.624 289.361 368.684 295.363 370.861 298.718Q368.301 299.63 365.822 300.744C362.946 302.033 359.281 303.669 358.105 306.772C358.318 308.034 358.549 308.194 359.418 309.163C363.076 309.519 369.665 304.144 373.115 302.33C383.084 317.286 391.034 334.931 392.574 353C394.034 370.115 389.905 387.748 378.636 401.011C369.556 411.699 354.336 420.296 340.031 415.13C334.936 413.29 331.071 409.401 325.32 409.848L324.464 411.24L325.379 410.963L324.614 411.565C325.587 413.142 327.215 414.379 328.706 415.441C338.062 422.106 351.711 420.967 362.353 419.193C364.319 434.138 369.578 473.037 363.694 485.832C362.888 487.584 361.696 489.07 359.817 489.713C357.338 490.562 354.534 489.576 352.278 488.528C344.628 484.975 337.596 479.475 330.487 474.921C318.77 467.413 306.789 460.533 294.126 454.756L287.199 451.863C289.964 450.082 292.642 448.249 294.923 445.857C302.029 438.403 304.493 428.243 304.199 418.169C303.647 399.259 295.334 385.017 281.921 372.24C280.274 372.796 278.832 373.217 277.073 373C272.883 372.483 269.62 370.789 267.151 367.304C264.159 363.08 262.663 357.475 263.602 352.344C264.125 349.482 265.561 346.006 268.134 344.398C274.075 340.684 278.097 349.927 283.15 350.527C283.874 350.613 284.096 350.195 284.618 349.777C285.256 348.009 284.829 346.484 284.512 344.676C296.132 344.299 309.095 341.582 317.548 332.976C320.447 330.024 322.884 326.218 326.197 323.755C329.89 321.01 334.659 321.681 338.196 319.287C339.018 318.731 338.759 319.034 338.955 317.995C337.452 316.892 335.449 316.75 333.631 316.717C321.479 316.495 317.416 329.225 307.93 334.687C301.005 338.675 292.839 339.647 285.059 340.721C288.529 332.566 290.731 324.173 292.709 315.566C298.825 315.517 305.393 314.216 310.578 310.834C316.913 306.701 319.407 300.696 320.896 293.606C337.018 296.22 347.06 295.332 361.756 287.983Z"/>
	<path fill="#010101" d="M374.686 315.621C376.619 315.903 377.676 316.185 378.957 317.695C379.355 319.24 379.015 320.451 378.686 321.964C377.182 321.696 376.153 321.559 374.957 320.513C374.183 318.931 374.532 317.314 374.686 315.621Z"/>
	<path fill="#010101" d="M335.696 339.195C336.819 339.6 337.191 339.846 337.865 340.835C337.85 343.283 338.219 345.609 339.293 347.818C339.675 348.603 339.409 349.367 339.326 350.227C338.226 350.01 336.83 349.804 335.83 349.264C334.672 348.639 333.67 347.372 333.373 346.1C332.757 343.458 334.232 341.225 335.696 339.195Z"/>
	<path fill="#010101" d="M268.087 354.425C269.641 354.457 271.241 354.582 272.775 354.83C275.427 355.26 278.457 356.113 279.967 358.54C280.817 359.906 280.515 361.181 280.239 362.651C276.658 361.223 273.146 358.487 269.189 358.039C268.934 358.01 268.676 358.045 268.42 358.048C268.339 357.95 268.241 357.864 268.176 357.755C267.576 356.743 267.969 355.556 268.087 354.425Z"/>
	<path fill="#010101" d="M358.844 322.202C361.71 324.216 363.751 328.386 365.434 331.392C368.288 336.486 374.611 345.93 373.015 351.573C367.911 349.089 364.461 340.858 362.102 335.977C360.123 331.882 357.249 326.765 358.844 322.202Z"/>
	<path fill="#010101" d="M386.401 350.41L387.039 350.464C388.02 351.17 387.987 351.417 388.208 352.571C389.63 359.999 383.822 375.06 379.759 381.3C375.517 387.812 369.183 392.604 361.431 394.066C351.076 396.019 341.901 391.649 333.5 386.098C329.494 383.337 322.458 377.94 321.291 373.044C321.653 371.946 321.673 371.83 322.924 371.554C324.792 371.143 327.506 371.528 329.458 371.47C334.842 371.312 340.249 371.019 345.581 370.233C361.731 367.849 373.003 358.775 386.401 350.41Z"/>
	<path fill="#FEFEFE" d="M382.534 358.891C383.101 359.139 382.8 358.928 383.229 359.746C382.509 365.465 380.323 371.004 377.481 376.001C374.017 382.091 368.793 387.323 361.819 389.074C352.894 391.314 344.788 387.425 337.286 383.078C334.243 380.988 331.506 378.436 328.729 376.01C350.182 374.392 364.627 371.431 382.534 358.891Z"/>
	<path fill="#FEFEFE" d="M369.518 440.097C413.565 451.42 455.211 492.426 484.332 525.462C495.576 538.217 505.384 552.082 518.416 563.162Q511.74 575.402 504.252 587.163Q496.765 598.924 488.5 610.153C475.496 572.87 472.274 542.194 448.841 508.033C446.804 505.064 443.617 499.29 440.282 497.801C439.173 497.306 438.799 497.543 437.786 497.988C437.225 499.775 437.608 500.933 438.471 502.568C440.967 507.294 444.858 511.656 447.897 516.081C452.983 523.488 457.29 531.589 460.898 539.808C473.809 569.216 478.809 601.506 490.548 631.456C481.697 632.032 472.859 632.051 463.992 632.008C464.109 629.12 464.73 625.66 462.81 623.261C457.659 620.755 449.049 620.988 443.312 620.201C423.051 617.422 393.573 612.836 376.774 600.522C373.757 598.311 371.118 595.433 368.814 592.502C360.35 581.738 354.14 568.837 347.612 556.842C340.241 543.3 332.458 529.57 324.15 516.578C322.827 514.509 319.074 508.755 316.464 509.648C315.759 512.06 317.226 515.294 318.332 517.403C322.556 525.458 328.18 533.214 332.838 541.101C342.576 557.591 359.258 591.613 372.163 602.624C380.786 609.981 392.281 613.737 403.038 616.716C420.888 621.659 440.448 625.715 458.959 626.677L457.677 662.686C457.438 671.106 457.732 679.705 456.488 688.056Q384.911 669.758 313.125 652.301C309.877 644.456 306.026 636.87 303.061 628.904C285.963 582.981 274.778 530.542 281.961 481.566Q283.105 473.806 285.41 466.308C286.216 463.764 287.513 461.272 288.022 458.655C288.087 458.326 288.139 457.995 288.197 457.664C297.634 461.539 306.682 465.872 315.405 471.18C329.458 479.731 343.579 491.354 359.559 495.835C364.225 493.955 366.567 491.793 368.487 487.074C373.58 474.554 370.916 453.45 369.518 440.097Z"/>
	<path fill="#FEFEFE" d="M778.1 421.39C838.522 446.391 899.757 501.11 925.074 562.133C944.274 608.414 948.001 665.919 928.728 712.739C916.507 742.427 892.944 769.497 862.789 781.877C857.4 784.09 851.973 785.53 846.204 786.314C844.088 786.601 841.725 786.437 839.698 787.032C837.292 785.095 827.743 769.087 825.185 765.427C819.763 757.666 814.053 750.181 807.533 743.305C805.904 719.584 808.811 693.825 795.936 672.548C791.649 665.464 784.735 658.678 777.253 655.035C768.954 650.994 759.465 649.253 750.547 647.05L717.701 638.937C685.279 630.798 653.068 621.943 620.548 614.165C620.23 601.283 619.02 588.232 617.851 575.397C639.07 576.528 658.188 575.721 677.916 566.844C731.918 542.544 758.653 473.173 778.1 421.39Z"/>
	<path fill="#FEFEFE" d="M140.732 495.375C146.747 510.8 152.217 526.475 157.884 542.033L198.396 655.002C207.899 681.446 217.932 707.64 227.164 734.198C230.154 742.801 233.524 751.363 236.141 760.081L432.729 809.738L496.88 825.797C506.088 828.12 515.399 831.709 524.786 833.021Q525.6 833.129 526.42 833.169Q527.24 833.209 528.06 833.182Q528.881 833.154 529.696 833.058Q530.512 832.963 531.316 832.8Q532.121 832.638 532.91 832.409Q533.698 832.18 534.465 831.887Q535.232 831.594 535.972 831.239Q536.712 830.883 537.42 830.468C542.457 827.47 545.375 822.246 546.74 816.675C548.133 810.987 547.761 805.036 547.646 799.234C547.352 784.493 546.863 769.405 538.733 756.545C534.853 750.409 529.915 745.939 523.135 743.22C509.992 737.949 495.349 735.04 481.605 731.701Q457.688 725.818 433.914 719.383L293.248 682.453L239.617 668.079C228.992 665.222 218.363 662.109 207.618 659.744Q206.342 659.463 205.062 659.2L200.888 647.98L431.258 706.605Q464.43 715.09 497.514 723.918C509.17 726.97 521.604 728.908 532.672 733.741C540.838 737.307 546.858 744.031 551.391 751.559C555.632 758.601 558.711 767.091 559.757 775.256C560.879 784.009 560.45 792.976 560.369 801.782Q560.206 818.401 560.316 835.02L560.555 970.39C556.914 969.842 552.718 970.325 549.015 970.309L520.992 970.039C515.161 969.942 509.33 969.395 503.499 969.411C493.524 969.437 483.469 969.969 473.5 969.729C468.505 969.609 463.534 968.996 458.532 968.969C451.011 968.929 443.489 969.579 435.961 969.565C428.13 969.551 420.3 969.077 412.469 969.093C406.527 969.105 400.606 969.924 394.69 969.931C391.147 969.936 387.89 967.986 384.396 967.879C380.353 967.756 376.302 969.486 372.208 969.561C359.087 969.802 332.918 966.399 321.55 969.493C319.727 967.572 318.475 965.396 317.131 963.138Q315.705 966.14 314.231 969.118C302.882 970.577 271.437 970.737 261.203 965.598C251.012 960.48 242.726 948.09 236.162 939.083C234.377 936.633 231.843 933.786 230.602 931.041C230.137 930.013 230.954 929.204 230.526 927.939C228.812 927.112 226.215 926.098 225.105 924.499C223.143 921.674 221.812 917.599 220.3 914.453C216.591 906.733 212.479 899.386 207.195 892.611C205.568 892.005 203.787 892.466 202.113 892.708C198.803 884.739 197.183 875.473 194.937 867.116L181.21 816.538L134.949 647.972Q129.487 628.356 124.301 608.665C122.296 601.152 120.504 593.469 118.092 586.08C120.614 563.778 122.502 530.453 131.139 510.358C133.539 504.775 136.756 499.948 140.732 495.375Z"/>
	<path fill="#FEFEFE" d="M178.024 295.573C170.114 264.22 167.279 228.603 184.563 199.771C198.265 176.914 223.689 161.91 249.103 155.643C264.088 151.949 279.4 151.584 294.75 151.579C353.28 151.563 405.537 167.266 455.527 197.606C466.281 204.132 477.301 210.723 487.629 217.9C506.381 230.931 524.293 245.359 542.356 259.322Q574.463 283.922 606.076 309.155C619.142 319.638 631.996 330.466 645.246 340.71Q666.49 357.044 688.689 372.054C704.984 383.16 722.319 393.751 739.806 402.864C751.078 408.739 762.746 413.82 774.01 419.692C769.559 429.476 766.207 440.01 762.085 449.971C747.542 485.116 728.374 525.941 697.485 549.727C674.285 567.592 646.468 574.047 617.746 570.209Q617.715 569.477 617.656 568.746C617.307 564.658 614.324 561.547 611.305 559C569.698 523.902 546.414 526.231 495.239 530.606C476.67 508.565 456.798 489.055 434.677 470.6C433.87 462.701 431.18 453.516 425.709 447.543C420.705 442.081 414.841 440.733 407.766 440.294C411.429 439.209 415.013 437.738 418.234 435.666C424.055 431.922 427.172 426.765 428.568 420.089C434.092 393.683 411.781 331.928 394.502 311.114C388.182 303.5 383.021 302.861 376.379 297.366C372.163 293.878 369.16 289.035 366.225 284.489C371.318 279.94 376.029 275.092 379.071 268.897C382.426 262.066 383.847 253.349 381.144 246.078C377.716 236.857 369.077 229.312 360.23 225.439Q358.97 224.897 357.675 224.445Q356.38 223.993 355.057 223.632Q353.734 223.272 352.388 223.005Q351.043 222.739 349.682 222.567Q348.322 222.396 346.952 222.32Q345.583 222.245 344.211 222.265Q342.84 222.286 341.474 222.403Q340.107 222.52 338.752 222.732C323.276 225.085 311.234 236.412 296.059 239.523C277.006 243.43 256.895 237.545 238.346 245.008C229.266 248.661 220.421 255.44 216.616 264.706C212.473 274.795 215.554 283.526 219.547 292.907C205.946 297.46 192.081 296.177 178.024 295.573Z"/>
</svg>
