<?xml version="1.0" encoding="utf-8" ?>
<svg xmlns="http://www.w3.org/2000/svg" xmlns:xlink="http://www.w3.org/1999/xlink" width="1024" height="1024">
	<path fill="#1D1C1C" fill-opacity="0.98823529" d="M82.3082 824.011C82.2452 824.147 82.187 824.285 82.1192 824.419C80.6677 827.283 77.331 833.227 74.2557 834.288L73.7947 833.689C74.2651 829.468 78.1395 825.036 80.5324 821.576L81.1011 823.692C82.1003 824.043 81.6856 824.009 82.3082 824.011Z"/>
	<path fill="#1D1C1C" d="M609.96 430.817Q608.584 428.181 607.341 425.479C601.68 413.119 600.913 398.203 605.732 385.458C611.353 370.593 624.256 361.099 638.336 354.864C672.623 339.68 721.265 338.266 757.527 346.968C769.238 349.778 780.357 354.381 791.561 358.711C791.668 358.796 791.773 358.884 791.881 358.968C795.75 361.978 800.638 364.15 804.884 366.623C809.756 369.46 814.409 372.828 818.869 376.278Q820.451 377.499 822.002 378.759Q823.552 380.018 825.072 381.316Q826.591 382.613 828.079 383.948Q829.566 385.282 831.019 386.653Q832.473 388.024 833.893 389.43Q835.312 390.836 836.697 392.276Q838.081 393.717 839.43 395.191Q840.778 396.666 842.09 398.173Q843.402 399.68 844.677 401.219Q845.951 402.757 847.187 404.327Q848.423 405.897 849.62 407.497Q850.817 409.097 851.974 410.725Q853.132 412.354 854.249 414.011Q855.365 415.668 856.441 417.352Q857.517 419.035 858.551 420.745Q859.585 422.455 860.576 424.189Q861.568 425.924 862.516 427.683Q863.464 429.441 864.369 431.223Q865.274 433.004 866.135 434.807Q866.996 436.61 867.812 438.434Q868.628 440.258 869.399 442.101Q870.17 443.945 870.895 445.807Q871.62 447.668 872.299 449.547Q872.978 451.426 873.611 453.322Q874.244 455.217 874.83 457.127Q875.416 459.037 875.954 460.961Q876.493 462.886 876.984 464.822Q877.475 466.759 877.918 468.707Q878.361 470.656 878.757 472.614Q879.152 474.573 879.498 476.541Q879.845 478.508 880.143 480.484Q880.442 482.46 880.691 484.442C887.803 537.454 872.72 590.015 840.36 632.246Q835.932 637.984 831.373 643.617C832.417 686.217 836.448 728.975 839.048 771.512C871.185 771.659 900.133 781.528 928.26 796.385C934.729 799.802 942.948 803.678 948.01 808.921C949.119 810.07 950.423 811.358 950.853 812.932C948.676 813.36 945.222 810.708 943.406 809.49C940.681 807.662 938.119 805.566 935.346 803.815C905.892 785.216 873.981 776.023 839.364 774.446Q839.448 782.771 840.084 791.072C842.016 790.517 844.023 789.997 845.881 789.226C848.486 788.144 855.326 783.157 857.61 784.067C857.307 785.853 855.852 787.412 854.409 788.433C836.162 801.343 763.24 805.996 739.998 805.855C725.846 805.77 711.716 804.949 697.82 802.133C693.082 801.172 685.477 800.138 681.935 796.658L681.593 795.46L682.141 794.663C686.184 794.154 692.539 797.743 696.557 798.806C699.433 799.566 702.41 799.983 705.346 800.44Q704.935 794.409 704.369 788.391C662.665 794.61 626.269 820.227 601.485 853.705Q597.705 858.839 594.258 864.202Q590.812 869.566 587.713 875.137Q584.615 880.709 581.877 886.467Q579.139 892.224 576.772 898.144C573.928 905.068 572.399 913.83 568.136 919.941L567.134 919.966L567.397 920.61C567.344 920.441 567.272 920.277 567.238 920.103C565.711 912.343 581.458 880.223 585.486 872.244C587.892 869.783 589.884 865.529 591.776 862.584C595.573 856.674 599.536 850.83 603.975 845.379C627.919 815.975 665.889 789.239 704.178 785.302Q700.95 753.03 697.374 720.794Q689.617 719.512 682.067 717.321Q674.516 715.13 667.278 712.06C632.41 697.354 603.556 670.576 589.31 635.154C583.573 620.889 580.931 605.616 579.601 590.361C574.826 535.637 588.754 480.894 609.96 430.817Z"/>
	<path fill="#FEFEFE" d="M705.467 344.713C744.162 343.206 783.836 354.211 815.16 377.225Q816.706 378.385 818.224 379.582Q819.742 380.78 821.23 382.013Q822.719 383.247 824.177 384.517Q825.635 385.787 827.061 387.091Q828.488 388.396 829.882 389.735Q831.277 391.074 832.638 392.446Q834 393.819 835.328 395.224Q836.656 396.629 837.949 398.066Q839.242 399.503 840.5 400.971Q841.758 402.439 842.98 403.937Q844.202 405.435 845.387 406.962Q846.572 408.49 847.72 410.045Q848.868 411.601 849.977 413.184Q851.087 414.767 852.158 416.377Q853.229 417.986 854.26 419.621Q855.291 421.257 856.283 422.916Q857.274 424.576 858.225 426.259Q859.175 427.943 860.085 429.649Q860.994 431.354 861.862 433.082Q862.73 434.81 863.556 436.558Q864.381 438.306 865.164 440.073Q865.947 441.841 866.687 443.627Q867.426 445.413 868.123 447.217Q868.819 449.02 869.471 450.84Q870.123 452.66 870.73 454.496Q871.338 456.331 871.901 458.18Q872.464 460.03 872.981 461.892Q873.499 463.755 873.972 465.63Q874.444 467.504 874.87 469.39Q875.297 471.275 875.678 473.171Q876.059 475.066 876.393 476.97Q876.728 478.874 877.016 480.786Q877.316 482.825 877.574 484.869Q877.831 486.914 878.046 488.964Q878.261 491.013 878.434 493.067Q878.606 495.12 878.736 497.177Q878.866 499.233 878.953 501.292Q879.04 503.351 879.085 505.411Q879.129 507.472 879.131 509.533Q879.133 511.593 879.092 513.654Q879.051 515.714 878.967 517.773Q878.883 519.832 878.757 521.889Q878.63 523.946 878.461 526Q878.292 528.053 878.08 530.103Q877.868 532.153 877.614 534.198Q877.36 536.243 877.063 538.283Q876.767 540.322 876.428 542.355Q876.089 544.387 875.708 546.412Q875.328 548.438 874.905 550.455Q874.482 552.472 874.017 554.479Q873.553 556.487 873.047 558.485Q872.541 560.482 871.993 562.469Q871.446 564.456 870.857 566.431Q870.269 568.406 869.639 570.368Q869.01 572.33 868.34 574.279Q867.67 576.228 866.959 578.162Q866.249 580.097 865.499 582.016Q864.749 583.935 863.959 585.839Q863.169 587.742 862.34 589.629Q861.511 591.515 860.642 593.384Q859.774 595.253 858.867 597.104Q857.961 598.954 857.016 600.786Q856.071 602.617 855.088 604.428Q854.105 606.24 853.085 608.03C846.7 619.164 838.852 629.432 831.261 639.757Q830.086 619.886 829.481 599.989C833.174 598.926 836.776 597.735 840.312 596.221C853.341 590.642 863.628 581.233 868.898 567.909Q869.312 566.875 869.676 565.822Q870.039 564.769 870.351 563.7Q870.662 562.631 870.921 561.548Q871.181 560.465 871.387 559.37Q871.593 558.276 871.745 557.172Q871.898 556.069 871.997 554.96Q872.095 553.85 872.14 552.737Q872.184 551.625 872.175 550.511Q872.165 549.397 872.101 548.285Q872.037 547.173 871.919 546.066Q871.801 544.958 871.629 543.858Q871.457 542.758 871.232 541.667Q871.007 540.576 870.728 539.498Q870.45 538.419 870.12 537.356Q869.79 536.292 869.408 535.246Q869.026 534.199 868.594 533.173C865.2 526.263 860.136 519.989 853.752 515.633Q852.995 515.118 852.214 514.641Q851.432 514.165 850.628 513.727Q849.823 513.29 848.998 512.894Q848.173 512.497 847.329 512.142Q846.485 511.787 845.625 511.474Q844.765 511.161 843.89 510.892Q843.015 510.622 842.128 510.397Q841.24 510.171 840.343 509.99Q839.446 509.808 838.54 509.672Q837.635 509.536 836.724 509.444Q835.813 509.353 834.899 509.307Q833.985 509.262 833.069 509.261Q832.154 509.261 831.239 509.307Q830.325 509.352 829.414 509.443Q828.503 509.533 827.598 509.669Q826.692 509.805 825.795 509.986C812.448 512.584 804.655 521.628 797.428 532.395C793.22 530.444 788.936 527.429 785.236 524.648C760.422 505.998 740.697 474.248 736.268 443.422C728 442.452 719.593 442.631 711.305 441.634Q708.983 441.376 706.675 441.015Q704.367 440.654 702.077 440.19Q699.787 439.726 697.52 439.16Q695.254 438.594 693.014 437.928Q690.775 437.261 688.568 436.495Q686.361 435.729 684.19 434.865Q682.02 434.001 679.89 433.041Q677.76 432.08 675.675 431.026Q673.59 429.971 671.555 428.825Q669.519 427.678 667.537 426.442Q665.555 425.206 663.63 423.882Q661.705 422.558 659.841 421.149Q657.977 419.741 656.178 418.25Q654.378 416.76 652.648 415.191Q650.917 413.621 649.258 411.976Q647.6 410.331 646.016 408.613C642.743 405.051 632.987 390.793 630.488 389.309C626.094 391.214 613.653 421.483 611.238 427.296C608.316 420.383 606.069 413.141 605.552 405.618C604.725 393.587 608.59 382.249 616.611 373.24C637.434 349.856 676.017 346.612 705.467 344.713Z"/>
	<path fill="#FEFEFE" d="M630.45 394.266C633.693 396.108 641.022 407.519 644.33 411.148C669.238 438.471 697.81 444.878 733.241 446.522C740.724 474.461 753.38 500.666 775.278 520.231C782.402 526.595 790.732 531.432 797.45 538.205C805.215 527.312 809.42 517.905 823.288 513.796C832.027 511.207 841.354 512.424 849.33 516.761Q850.133 517.196 850.914 517.67Q851.695 518.144 852.451 518.656Q853.208 519.168 853.938 519.717Q854.669 520.266 855.371 520.849Q856.074 521.433 856.747 522.051Q857.42 522.669 858.061 523.319Q858.703 523.969 859.312 524.65Q859.921 525.331 860.495 526.042Q861.07 526.752 861.609 527.489Q862.148 528.227 862.65 528.99Q863.152 529.753 863.615 530.54Q864.079 531.327 864.504 532.136Q864.928 532.945 865.312 533.774Q865.696 534.603 866.039 535.45Q866.382 536.296 866.682 537.159Q866.983 538.022 867.241 538.898C870.548 550.242 868.65 562.724 862.873 572.94C854.535 587.686 842.026 593.064 826.46 597.442C826.457 625.262 828.543 653.037 830.264 680.791L837.108 791.665C823.313 795.436 809.372 797.403 795.234 799.335C773.142 803.919 731.019 803.872 708.625 800.924C708.171 792.561 706.793 784.091 705.919 775.747C703.919 756.643 701.904 737.464 700.421 718.314Q695.185 717.169 689.965 715.951C654.716 707.571 621.603 685.403 602.594 654.31C575.58 610.124 577.927 552.252 589.781 503.531C598.111 501.392 606.812 500.498 614.968 497.689C619.558 496.107 623.093 494.302 625.207 489.714C626.272 487.401 627.972 482.854 626.747 480.37C626.386 479.638 625.872 479.688 625.162 479.454C622.808 481.687 623.562 487.594 621.324 490.687C618.321 494.838 596.119 498.874 590.195 500.121C598.826 462.584 612.761 428.407 630.45 394.266Z"/>
	<path fill="#1D1C1C" d="M830.434 532.586C835.464 532.658 840.469 534.141 844.329 537.464Q845.021 538.066 845.65 538.734Q846.28 539.402 846.84 540.128Q847.4 540.855 847.886 541.633Q848.372 542.412 848.779 543.234Q849.185 544.057 849.509 544.915Q849.832 545.774 850.069 546.66Q850.307 547.547 850.455 548.452Q850.604 549.357 850.662 550.273C850.816 553.126 850.177 559.558 848.268 561.795C847.812 561.451 847.304 561.166 846.898 560.764C846.092 559.965 847.435 552.065 847.37 550.515C847.307 549.012 846.939 547.477 846.622 546.014C844.852 542.087 840.645 537.382 836.51 535.922C827.366 532.694 825.105 540.906 818.794 543.899L818.157 543.543C818.129 541.909 818.255 540.678 819.079 539.229C821.371 535.202 826.251 533.709 830.434 532.586Z"/>
	<path fill="#1D1C1C" d="M625.226 548.108C625.348 548.144 625.474 548.169 625.591 548.218C626.807 548.728 627.421 549.008 627.786 550.377C628.862 554.403 623.054 564.427 620.548 567.619C617.884 571.011 614.336 573.829 612.064 577.493C611.553 587.681 625.149 588.752 627.567 595.125C627.677 595.414 627.768 595.709 627.868 596.002C626.993 596.001 626.175 595.882 625.329 595.663C619.795 594.227 613.31 588.258 610.528 583.357C605.219 574.003 615.076 571.666 619.083 565.051C622.181 559.936 623.57 553.804 625.226 548.108Z"/>
	<path fill="#1D1C1C" d="M657.805 479.586C658.317 479.791 658.899 479.872 659.342 480.2C661.901 482.099 657.292 492.77 668.301 497.25C675.57 500.209 687.423 500.75 695.37 502.026C697.605 502.385 701.678 502.734 703.185 504.536C703.693 505.145 703.436 505.972 703.409 506.714C699.675 506.408 695.877 505.443 692.171 504.845C686.261 503.892 680.281 503.231 674.417 502.018C668.509 500.796 662.015 498.507 658.685 493.112C655.92 488.631 656.567 484.38 657.805 479.586Z"/>
	<path fill="#1D1C1C" d="M664.223 522.416C666.642 522.352 668.509 522.593 670.283 524.407C672.203 526.369 672.814 529.117 672.76 531.788C672.663 536.566 671.132 539.719 667.83 543.05C665.742 543.133 663.917 542.831 662.296 541.444C660.399 539.821 659.666 537.433 659.513 535.015C659.199 530.046 660.97 526.044 664.223 522.416Z"/>
	<path fill="#1D1C1C" d="M600.437 520.456C603.162 520.409 605.209 520.416 607.379 522.233C609.537 524.041 610.533 526.701 610.762 529.446C611.176 534.427 609.504 538.394 606.343 542.114C604.13 542.526 602.186 542.589 600.201 541.355C598.426 540.251 597.477 538.376 597.008 536.398C595.624 530.556 597.281 525.325 600.437 520.456Z"/>
	<path fill="#1D1C1C" d="M649.262 626.66C659.909 624.912 672.26 628.47 681.188 634.224C687.774 638.468 694.336 645.05 695.808 653.032C696.509 656.836 695.845 660.951 693.59 664.145C691.88 666.567 689.385 668.102 686.441 668.482C680.125 669.297 674.995 665.651 670.338 661.942C665.422 657.951 659.452 654.203 653.236 652.689C644.857 650.648 638.391 653.593 631.408 657.847C629.845 657.227 628.212 656.565 626.796 655.648C624.052 653.869 622.664 650.596 622.072 647.488C621.43 644.116 622.223 640.899 624.248 638.14C629.753 630.644 640.58 627.924 649.262 626.66Z"/>
	<path fill="#FEFEFE" d="M648.672 629.658Q650.192 629.513 651.717 629.419C662.884 628.755 675.334 632.582 683.756 640.081C681.055 640.843 678.391 641.365 675.628 641.837C662.259 643.509 650.837 639.082 640.191 631.253C642.979 630.599 645.852 630.169 648.672 629.658Z"/>
	<path fill="#8D9BF3" d="M636.396 632.378C640.154 632.709 643.915 636.938 647.077 638.896C659.273 646.452 673.162 645.125 686.491 642.048C690.316 645.643 693.623 650.592 693.687 656.017C693.717 658.551 692.95 661.056 691.137 662.881C688.183 665.854 684.255 665.96 680.346 665.909C667.786 659.642 661.375 647.099 643.889 649.659C638.85 650.397 634.234 653.246 629.209 653.825C627.857 653.061 626.792 652.351 625.971 650.992C624.673 648.843 624.524 646.171 625.088 643.771C626.497 637.768 631.551 635.311 636.396 632.378Z"/>
	<path fill="#1D1C1C" d="M380.642 287.401C380.777 287.372 380.912 287.347 381.046 287.316C388.371 285.603 402.574 276.181 410.189 272.389C421.163 266.923 432.782 262.301 444.358 258.274Q448.363 256.893 452.404 255.622Q456.445 254.35 460.519 253.189Q464.593 252.028 468.697 250.979Q472.801 249.929 476.933 248.992Q481.064 248.055 485.219 247.23Q489.374 246.406 493.551 245.695Q497.727 244.984 501.921 244.387Q506.115 243.79 510.323 243.308Q514.532 242.825 518.752 242.458Q522.973 242.09 527.201 241.838Q531.43 241.585 535.664 241.448Q539.898 241.311 544.134 241.289Q548.37 241.267 552.606 241.361Q556.841 241.454 561.072 241.663Q565.303 241.872 569.527 242.196Q573.751 242.52 577.964 242.959Q582.178 243.398 586.378 243.952Q590.578 244.506 594.761 245.173Q598.944 245.841 603.108 246.623Q607.271 247.404 611.412 248.299Q615.552 249.194 619.667 250.201Q623.782 251.208 627.868 252.327Q631.954 253.446 636.008 254.676Q640.061 255.905 644.08 257.245Q648.099 258.585 652.08 260.033Q656.061 261.482 660.001 263.039Q663.941 264.595 667.837 266.259Q671.733 267.922 675.582 269.691Q679.431 271.46 683.231 273.333Q687.031 275.206 690.778 277.182Q694.525 279.158 698.217 281.235Q701.909 283.312 705.543 285.489C729.64 299.918 751.42 317.741 771.593 337.22C778.614 343.999 785.707 350.872 791.561 358.711C780.357 354.381 769.238 349.778 757.527 346.968C721.265 338.266 672.623 339.68 638.336 354.864C624.256 361.099 611.353 370.593 605.732 385.458C600.913 398.203 601.68 413.119 607.341 425.479Q608.584 428.181 609.96 430.817C588.754 480.894 574.826 535.637 579.601 590.361C580.931 605.616 583.573 620.889 589.31 635.154C603.556 670.576 632.41 697.354 667.278 712.06Q674.516 715.13 682.067 717.321Q689.617 719.512 697.374 720.794Q700.951 753.03 704.178 785.302C665.889 789.239 627.919 815.975 603.975 845.379C599.536 850.83 595.573 856.674 591.776 862.584C589.884 865.529 587.892 869.783 585.486 872.244C520.98 885.582 456.247 881.908 394.988 857.041C382.074 851.799 369.581 846.167 357.543 839.124L325.393 930.826C322.432 939.235 315.492 961.6 311.503 967.927L310.619 967.935C310.32 967.331 309.999 966.948 310.027 966.262C310.104 964.329 310.515 962.539 311.136 960.715C314.474 950.915 318.494 941.262 321.957 931.483L353.458 841.545C357.347 830.383 360.893 819.114 364.581 807.884C367.141 800.087 369.432 791.681 373.445 784.497C381.425 770.213 400.441 752.273 412.722 741.135C383.574 740.201 354.113 740.734 324.937 740.917C309.877 741.011 291.416 742.596 276.829 739.715C270.163 738.398 264.187 735.403 259.019 730.988C252.012 725.002 246.838 716.284 245.116 707.207C243.155 696.874 244.173 685.887 244.266 675.414L244.35 636.375L244.303 470.075L244.357 419.761C244.406 411.971 245.209 403.918 244.545 396.162C243.947 389.171 240.707 382.591 235.166 378.195C233.034 376.503 230.429 375.289 227.651 375.739C213.868 377.973 206.372 416.3 204.477 428.415C195.816 483.788 192.117 540.12 181.509 595.174C178.517 610.704 174.007 625.988 169.378 641.096Q165.63 653.238 161.445 665.236Q157.261 677.234 152.644 689.073Q148.027 700.912 142.985 712.576Q137.942 724.24 132.481 735.713Q127.019 747.187 121.146 758.455Q115.272 769.723 108.994 780.771Q102.717 791.819 96.043 802.633Q89.3692 813.446 82.3082 824.011C81.6856 824.009 82.1003 824.043 81.1011 823.692L80.5324 821.576C120.451 763.836 152.768 689.978 172.143 622.727C179.081 598.645 182.646 573.652 186.035 548.86Q190.917 512.604 195.083 476.259C197.714 453.26 199.902 429.759 205.654 407.292C208.262 397.105 212.534 383.418 220.637 376.147C223.232 373.819 226.402 372.281 229.955 372.6C236.13 373.153 240.799 378.469 244.498 382.937L244.369 350.244C244.318 340.074 243.426 329.226 245.977 319.313Q246.307 317.991 246.724 316.694Q247.142 315.397 247.646 314.131Q248.15 312.864 248.737 311.635Q249.324 310.405 249.993 309.218Q250.662 308.031 251.408 306.891Q252.155 305.751 252.976 304.663Q253.798 303.576 254.69 302.546Q255.583 301.517 256.542 300.549Q257.649 299.443 258.832 298.419Q260.015 297.395 261.268 296.458Q262.521 295.521 263.838 294.675Q265.155 293.83 266.528 293.081Q267.902 292.331 269.325 291.682Q270.749 291.032 272.215 290.486Q273.681 289.939 275.183 289.499Q276.684 289.058 278.213 288.726C292.29 285.531 307.9 287.377 322.275 287.448L380.642 287.401Z"/>
	<path fill="#FEFEFE" d="M333.66 305.694C333.882 305.759 334.107 305.814 334.326 305.889C336.028 306.471 336.693 307.116 337.448 308.729C337.503 310.533 336.736 311.781 335.938 313.359C335.713 313.285 335.485 313.223 335.264 313.138C333.519 312.471 332.77 311.706 332.026 310.018C332.062 308.189 332.703 307.22 333.66 305.694Z"/>
	<path fill="#FEFEFE" d="M353.627 305.723C354.298 305.84 355.214 305.928 355.822 306.225C357.088 306.842 357.257 307.258 357.754 308.471C357.622 310.246 356.911 311.201 355.918 312.643C355.179 312.535 354.119 312.47 353.451 312.152C352.137 311.529 352.023 311.058 351.596 309.795C351.834 308.017 352.547 307.122 353.627 305.723Z"/>
	<path fill="#FEFEFE" d="M409.113 305.511C409.891 305.667 410.768 305.799 411.501 306.104C412.527 306.531 413.31 307.342 413.552 308.446C413.869 309.89 412.952 311.54 412.37 312.819C411.459 312.7 410.093 312.612 409.292 312.163C407.952 311.413 407.829 310.953 407.358 309.594C407.551 307.883 408.17 306.93 409.113 305.511Z"/>
	<path fill="#8D9BF3" d="M515.139 588.972L515.573 589.02L515.58 589.544C511.354 593.018 506.854 596.206 502.475 599.485C502.094 599.003 502.024 598.963 501.733 598.312C501.128 596.954 500.902 595.477 501.467 594.093C504.028 591.177 511.347 590.466 515.139 588.972Z"/>
	<path fill="#FEFEFE" d="M446.265 293.733C451.057 293.74 456.046 293.837 460.777 294.624C471.098 296.34 479.617 302.623 485.555 311.106C489.678 316.997 492.322 323.606 493.143 330.763C494.675 344.124 493.68 358.379 493.573 371.823L493.509 433.956L493.608 508.224C493.65 521.652 495.069 536.019 492.753 549.247C491.556 542.273 491.675 534.785 491.583 527.72C491.397 513.483 491.805 499.239 491.847 485.001L491.531 373.047C491.552 359.8 493.289 336.295 489.793 324.22C486.914 314.273 480.223 305.448 471.077 300.484C466.119 297.794 460.687 296.521 455.097 296.047C446.212 295.294 437.146 295.752 428.232 295.832Q408.566 296.013 388.9 295.985C374.465 295.986 360.022 296.059 345.588 295.876C329.931 295.677 295.75 293.603 282.181 297.673C271.446 300.893 263.048 309.085 257.914 318.901C254.881 324.699 253.627 330.787 253.274 337.283C252.456 352.328 253.106 367.68 253.132 382.759L253.139 464.881L253.135 626.376L253.154 661.634C253.106 672.224 251.635 693.369 254.728 702.688C258.888 715.219 265.029 723.159 276.972 728.999C278.387 729.51 279.809 730.016 281.256 730.431C294.535 734.245 314.372 732.428 328.495 732.414L382.812 732.393L424.521 732.468C434.261 732.518 444.106 732.939 453.814 732.077C460.379 731.494 466.376 730.36 472.172 727.079C491.626 716.07 492.214 695.631 491.85 675.653C491.727 668.925 491.245 661.94 493.057 655.392L493.261 654.669Q493.607 657.648 493.744 660.643C494.053 666.854 493.892 673.102 493.883 679.319C493.862 694.502 493.601 709.261 482.722 721.085C473.969 730.598 462.61 733.915 450.001 734.453C439.063 734.92 427.965 734.462 417.009 734.435L355.268 734.389L317.914 734.479C307.175 734.544 296.195 735.074 285.556 733.403C278.039 732.223 271.223 729.552 265.585 724.344C255.951 715.445 251.881 704.443 251.483 691.518C250.693 665.808 251.5 639.808 251.498 614.071L251.468 457.708L251.457 375.684C251.429 361.487 250.092 345.391 252.072 331.414C253.364 322.298 257.611 313.969 263.933 307.288C269.323 301.591 277.023 296.518 284.774 294.869C295.379 292.612 319.715 294.061 331.404 294.062C369.644 294.067 408.044 294.716 446.265 293.733Z"/>
	<path fill="#FEFEFE" d="M537.389 321.102C540.055 320.711 542.593 320.862 545.224 321.442C551.03 322.722 555.916 326.429 559.016 331.463C562.327 336.842 563.687 343.725 562.17 349.904C559.236 361.851 547.354 366.547 537.866 372.265L517.798 384.432L501.444 394.843L501.435 340.547C513.112 333.457 523.912 324.524 537.389 321.102Z"/>
	<path fill="#FEFEFE" d="M542.543 460.563C545.356 460.443 548.233 460.464 551.001 461.022C556.887 462.206 561.801 465.468 565.068 470.523C568.526 475.873 570.06 482.299 568.503 488.566C567.605 492.176 565.744 495.271 563.239 497.994C555.207 506.724 532.465 518.881 521.709 525.496C517.434 528.352 512.869 531.804 507.894 533.313C505.864 533.929 503.848 534.251 501.929 533.175L502.016 532.221L501.517 531.472C501.665 531.308 501.574 489.13 501.574 484.645C506.407 481.125 511.623 478.018 516.651 474.779C524.921 469.452 532.901 463.128 542.543 460.563Z"/>
	<path fill="#FEFEFE" d="M542.816 401.6C545.679 401.28 548.535 401.195 551.375 401.765C557.256 402.943 562.462 406.268 565.777 411.295C569.254 416.567 570.669 423.466 569.323 429.659C568.484 433.524 566.523 436.994 563.774 439.823C559.187 444.544 552.336 448 546.753 451.493L520.942 467.562C514.658 471.528 509.098 474.409 501.671 475.292Q501.361 450.45 501.503 425.607C512.702 418.572 530.897 405.26 542.816 401.6Z"/>
	<path fill="#FEFEFE" d="M534.927 583.151C539.289 582.702 544.065 583.213 548.086 584.973C553.574 587.377 557.333 592.064 559.367 597.612C561.122 602.402 560.271 608.566 558.117 613.093C557.056 615.32 555.655 617.085 553.81 618.719C545.961 625.669 510.742 648.469 501.158 651.914C495.037 652.951 488.109 652.53 482.804 649.013C478.952 646.459 476.28 641.917 475.427 637.42C474.594 633.026 475.501 627.491 478.22 623.865C485.32 614.396 517.391 590.502 528.057 585.177C530.294 584.06 532.468 583.535 534.927 583.151Z"/>
	<path fill="#FEFEFE" d="M538.94 521.12Q539.927 521.075 540.914 521.115Q541.901 521.156 542.881 521.281Q543.861 521.406 544.827 521.616Q545.792 521.826 546.736 522.118Q547.68 522.41 548.594 522.783Q549.509 523.156 550.389 523.606Q551.268 524.057 552.105 524.581Q552.942 525.106 553.731 525.701Q554.168 526.036 554.587 526.393Q555.006 526.75 555.408 527.126Q555.809 527.503 556.192 527.899Q556.574 528.296 556.936 528.71Q557.298 529.125 557.64 529.557Q557.981 529.988 558.301 530.437Q558.621 530.885 558.918 531.348Q559.216 531.812 559.49 532.289Q559.764 532.766 560.014 533.257Q560.264 533.747 560.49 534.249Q560.716 534.752 560.917 535.264Q561.117 535.777 561.293 536.299Q561.468 536.821 561.617 537.351Q561.766 537.88 561.89 538.417Q562.013 538.954 562.109 539.496Q562.205 540.038 562.275 540.584C562.988 546.071 561.659 552.281 558.103 556.623C552.747 563.163 522.829 582.326 514.464 585.994C510.448 587.755 506.707 588.553 502.369 589.099C497.025 589.229 491.788 588.191 487.211 585.307C482.616 582.411 479.285 578.294 478.272 572.895C477.477 568.661 477.969 563.189 480.652 559.641C486.029 552.531 524.498 527.216 533.8 522.645C535.47 521.824 537.111 521.416 538.94 521.12Z"/>
	<path fill="#4F66EF" d="M424.971 305.889C442.051 306.075 459.154 307.445 471.767 320.409C485.772 334.802 483.186 354.074 483.055 372.513C473.218 371.683 463.247 372.215 453.384 372.242L408.821 372.115L261.492 372.176C261.21 353.619 260.541 335.567 274.358 321.264C285.566 309.662 300.375 306.144 316 305.985Q317.544 305.965 319.088 305.989C319.211 310.171 318.976 315.931 322.513 318.893C324.733 320.753 330.208 320.854 333.056 321.045C345.49 321.881 358.016 321 370.47 321.024C384.284 321.05 401.603 322.184 415.124 320.44C417.925 320.079 420.259 319.794 422.05 317.384C424.421 314.194 424.613 309.697 424.971 305.889Z"/>
	<path fill="#FEFEFE" d="M294.394 333.361C296.083 333.817 298.831 335.284 300.085 336.549C300.955 337.427 301.465 338.452 301.383 339.717C301.085 344.265 294.619 348.152 291.367 350.53C289.301 350.173 286.573 349.092 285.242 347.406C284.382 346.315 284.263 345.169 284.479 343.838C285.231 339.2 290.868 335.785 294.394 333.361Z"/>
	<path fill="#FEFEFE" d="M261.492 372.176L408.821 372.115L453.384 372.242C463.247 372.215 473.218 371.683 483.055 372.513L483.006 480.564C483.022 504.656 483.545 528.632 482.446 552.714Q481.028 554.145 479.683 555.644C475.56 560.306 473.678 566.911 474.164 573.06C474.727 580.163 478.094 585.731 483.45 590.24C483.533 598.14 483.855 606.202 483.046 614.066C480.913 616.1 478.675 618.115 476.958 620.525C472.986 626.096 471.15 632.447 472.537 639.24C473.882 645.821 478.188 650.078 483.615 653.574C483.507 672.824 487.443 693.931 472.811 709.158C464.204 718.115 452.819 721.463 440.667 721.612C411.052 721.976 381.393 721.581 351.772 721.615L323.484 721.64C314.888 721.645 305.968 722.103 297.513 720.359C288.897 718.581 280.798 714.703 274.519 708.488Q273.252 707.228 272.086 705.873Q270.921 704.518 269.865 703.076Q268.809 701.635 267.868 700.115Q266.927 698.596 266.108 697.008Q265.288 695.419 264.595 693.772Q263.902 692.125 263.339 690.429Q262.776 688.733 262.347 686.998Q261.918 685.263 261.626 683.5C259.789 672.042 261.173 659.736 261.327 648.15C261.565 630.269 261.479 612.374 261.482 594.49L261.492 372.176Z"/>
	<path fill="#1D1C1C" d="M403.466 482.191C404.195 482.75 404.53 482.954 404.814 483.879C406.039 487.875 405.834 497.484 403.982 501.194C403.493 500.749 403.196 500.407 402.898 499.784C401.167 496.169 401.978 485.593 403.466 482.191Z"/>
	<path fill="#1D1C1C" d="M392.855 482.115C393.187 482.232 393.576 482.343 393.851 482.571C394.82 483.371 394.966 483.912 396.242 484.413C397.799 483.481 399.26 482.43 400.738 481.378C398.295 485.103 394.94 488.152 395.08 492.875C395.133 494.751 395.385 497.021 395.02 498.851C394.819 499.858 394.607 499.935 393.813 500.483L393.06 499.917C391.263 494.736 392.405 487.536 392.855 482.115Z"/>
	<path fill="#1D1C1C" d="M305.553 474.544C306.249 474.729 306.74 474.81 307.273 475.332C309.207 477.229 307.997 497.152 307.778 500.881C307.245 500.658 306.508 500.414 306.12 499.964C303.813 497.287 305.391 478.93 305.553 474.544Z"/>
	<path fill="#1D1C1C" d="M447.139 482.505C448.01 482.484 448.897 482.46 449.765 482.546C452.073 482.776 453.418 483.981 454.833 485.715C456.071 487.23 456.706 488.271 456.482 490.245C454.284 493.209 448.527 492.177 445.293 493.271C444.267 493.618 444.154 493.808 443.676 494.703C444.014 495.715 444.399 496.333 445.161 497.064C446.741 498.579 448.05 498.782 450.136 498.764C451.705 498.561 453.016 498.017 454.401 498.859L454.168 499.836C452.386 501.129 450.276 501.647 448.075 501.34C445.571 500.992 443.479 499.467 442.113 497.372C440.773 495.318 440.446 492.923 440.981 490.55C441.862 486.644 443.892 484.629 447.139 482.505Z"/>
	<path fill="#FEFEFE" d="M446.808 484.837C447.921 484.812 449.106 484.732 450.152 485.185C451.716 485.864 452.615 486.957 453.213 488.489C452.576 489.813 452.462 489.752 451.108 490.376C449.464 490.425 447.359 490.678 445.789 490.216C444.672 489.887 444.612 489.679 444.149 488.705C444.514 486.984 445.63 486.05 446.808 484.837Z"/>
	<path fill="#1D1C1C" d="M334.652 482.503C335.926 482.443 337.257 482.355 338.526 482.486C340.447 482.685 342.435 484.246 343.532 485.763C345.075 487.897 345.486 490.562 345.003 493.117C344.313 496.769 342.346 498.888 339.312 500.85C338.3 500.891 337.26 500.945 336.25 500.852C334.274 500.67 332.24 499.515 330.975 498.003C329.333 496.04 328.822 493.374 329.142 490.884C329.652 486.91 331.586 484.855 334.652 482.503Z"/>
	<path fill="#FEFEFE" d="M335.774 484.329C337.656 484.524 339.209 484.839 340.623 486.191C342.084 487.586 342.654 489.374 342.564 491.365C342.41 494.741 340.87 496.577 338.43 498.723C336.436 498.469 334.746 498.03 333.281 496.558C332.017 495.286 331.473 493.667 331.546 491.889C331.685 488.519 333.387 486.494 335.774 484.329Z"/>
	<path fill="#1D1C1C" d="M317.163 482.508C318.388 482.473 319.761 482.475 320.962 482.734C323.077 483.189 325.057 484.865 326.109 486.718C327.432 489.047 327.545 491.792 326.802 494.325C325.822 497.665 323.902 499.276 320.953 500.907C319.631 500.883 318.153 500.829 316.889 500.425C314.783 499.752 312.888 497.986 311.906 496.028C310.682 493.589 310.583 490.812 311.472 488.247C312.536 485.177 314.378 483.946 317.163 482.508Z"/>
	<path fill="#FEFEFE" d="M316.707 484.929C318.834 484.882 320.612 484.856 322.37 486.247C323.679 487.282 324.355 488.729 324.485 490.369C324.753 493.748 323.199 496.063 321.033 498.46C318.919 498.506 317.119 498.261 315.503 496.761C314.232 495.582 313.62 493.958 313.556 492.247C313.436 489.035 314.62 487.235 316.707 484.929Z"/>
	<path fill="#1D1C1C" d="M419.05 474.578C419.589 474.769 420.253 474.966 420.626 475.435C422.839 478.223 420.721 495.942 420.195 500.071C416.542 500.547 413.371 500.99 409.794 499.756C409.655 499.548 409.512 499.342 409.375 499.133C407.302 495.951 406.19 491.816 407.192 488.067C407.701 486.165 408.791 484.563 410.532 483.593C413.343 482.028 415.68 482.825 418.545 483.719C418.554 480.655 418.8 477.63 419.05 474.578Z"/>
	<path fill="#FEFEFE" d="M412.576 484.346C414.523 484.598 416.086 484.776 417.451 486.345C418.936 488.053 419.392 490.306 419.066 492.508C418.621 495.516 417.514 497.263 415.089 499.029C413.657 498.744 412.293 498.321 411.223 497.282Q410.965 497.028 410.732 496.751Q410.5 496.473 410.297 496.174Q410.093 495.875 409.919 495.557Q409.746 495.239 409.605 494.906Q409.464 494.573 409.356 494.227Q409.248 493.882 409.174 493.527Q409.101 493.173 409.063 492.813Q409.025 492.453 409.022 492.091C408.981 488.692 410.205 486.642 412.576 484.346Z"/>
	<path fill="#1D1C1C" d="M359.479 474.323C360.28 474.649 360.724 474.993 361.345 475.591C362.65 480.267 362.71 496.354 360.804 500.68C357.402 499.342 354.364 501.061 350.747 500.091C349.496 498.845 348.415 497.557 347.79 495.876C346.687 492.91 346.684 488.972 348.114 486.112C348.978 484.385 350.435 483.003 352.315 482.464C354.924 481.717 356.789 482.817 359.066 483.967C359.393 480.779 359.387 477.527 359.479 474.323Z"/>
	<path fill="#FEFEFE" d="M352.648 484.305C354.284 484.386 355.71 484.446 357.062 485.515C358.559 486.699 359.421 488.458 359.526 490.357C359.712 493.743 358.381 496.191 356.216 498.654C354.62 498.572 353.288 498.422 351.952 497.411C350.557 496.357 349.72 494.941 349.489 493.206C349.009 489.612 350.509 487.02 352.648 484.305Z"/>
	<path fill="#1D1C1C" d="M428.638 482.428C431.046 482.472 433.042 483.372 435.284 484.178L436.917 483.051L437.689 483.429C438.369 484.748 438.652 485.875 438.777 487.36C439.237 492.867 438.953 502.77 434.988 506.938C433.878 508.104 432.595 508.68 430.961 508.633C428.369 508.558 425.913 506.197 424.283 504.419L424.545 503.702C426.231 502.48 429.7 505.848 432.137 505.509C433.085 505.376 433.504 505.205 434.142 504.52C435.26 503.321 435.619 501.578 435.494 499.991L434.793 499.57C432.931 500.118 430.84 500.813 428.878 500.517C427.232 500.268 425.879 499.401 424.938 498.03C423.332 495.692 423.14 492.533 423.613 489.818C424.229 486.284 425.804 484.47 428.638 482.428Z"/>
	<path fill="#FEFEFE" d="M428.616 484.931C430.21 484.924 431.815 485.028 433.193 485.906C434.548 486.769 435.428 488.136 435.695 489.71C436.27 493.089 434.817 495.906 433.036 498.639C431.376 498.613 429.924 498.53 428.528 497.54C427.118 496.54 426.273 495.098 426.011 493.394C425.503 490.089 426.769 487.547 428.616 484.931Z"/>
	<path fill="#1D1C1C" d="M373.17 476.028C376.905 475.931 381.189 475.562 384.781 476.734C386.307 477.232 387.678 478.096 388.283 479.669C389.336 482.405 387.59 485.1 386.301 487.401C387.083 488.241 387.907 489.089 388.584 490.015C390.342 492.419 389.655 495.028 389.123 497.693C384.323 501.562 378.917 500.66 373.161 500.456L373.17 476.028Z"/>
	<path fill="#FEFEFE" d="M375.992 478.101C377.744 478.086 379.593 477.992 381.331 478.234C382.824 478.442 384.373 478.977 385.18 480.346C386.237 482.137 385.455 484.236 384.975 486.085C381.969 486.608 378.897 486.544 375.853 486.602C375.833 483.77 375.932 480.933 375.992 478.101Z"/>
	<path fill="#FEFEFE" d="M375.783 488.992C377.843 488.97 380.006 488.942 382.055 489.148C383.787 489.322 385.679 489.847 386.674 491.41C387.783 493.149 387.176 494.982 386.714 496.809C384.964 497.579 382.618 498.112 380.712 498.387C379.324 498.586 377.994 498.51 376.956 497.46C375.061 495.543 375.73 491.476 375.783 488.992Z"/>
	<path fill="#1D1C1C" d="M285.062 475.988C288.56 475.908 292.401 475.628 295.801 476.566C297.513 477.038 299.252 477.907 299.998 479.632C301.222 482.465 299.61 485.102 298.335 487.566L302.565 492.519C302.224 494.326 301.694 496.033 301.143 497.786C296.191 501.663 290.977 500.778 285.096 500.44L285.062 475.988Z"/>
	<path fill="#FEFEFE" d="M287.604 478.021C289.521 478.072 291.56 478.032 293.45 478.362C294.909 478.617 296.457 479.268 297.178 480.647C298.065 482.339 297.385 484.261 296.916 485.967C293.859 486.661 290.703 486.569 287.584 486.621L287.604 478.021Z"/>
	<path fill="#FEFEFE" d="M287.651 488.941C290.353 488.88 293.105 488.79 295.726 489.571C297.121 489.987 298.696 490.713 299.266 492.165C299.984 493.993 298.889 495.714 297.99 497.221C295.87 497.791 293.413 498.564 291.202 498.531C289.733 498.509 289.202 497.96 288.209 496.977C287.196 494.471 287.579 491.603 287.651 488.941Z"/>
	<path fill="#C9D4F9" d="M292.378 587.824C294.395 585.085 297.55 584.871 300.715 584.396C320.453 581.436 341.277 582.994 361.193 583.007L461.9 583.001Q461.592 602.492 461.512 621.985L364.76 621.995C352.427 622.006 312.813 623.982 303.611 620.787C302.344 620.915 301.025 620.992 299.753 620.948C295.302 620.795 290.919 618.847 288.002 615.46C284.87 611.823 283.567 606.869 284.084 602.136C284.731 596.219 287.793 591.454 292.378 587.824Z"/>
	<path fill="#FEFEFE" d="M329.839 597.246C342.713 596.759 355.624 597.125 368.505 597.107C376.077 597.095 384.067 596.333 391.565 597.33C393.887 597.638 395.993 597.982 397.416 600.023C398.312 601.307 398.996 603.268 398.482 604.819C397.927 606.49 396.285 608.009 394.715 608.712C393.033 609.464 391.173 609.635 389.354 609.724C383.739 609.998 331.828 610.541 329.313 609.576L329.689 608.88C334.154 608.119 339.109 608.327 343.637 608.297Q358.465 608.236 373.291 608.482C379.298 608.551 385.638 609.017 391.608 608.238C393.531 607.987 396.301 607.215 397.321 605.37C397.836 604.439 397.82 603.361 397.319 602.428C396.383 600.684 393.917 599.353 392.042 598.947C387.581 597.98 382.097 598.648 377.543 598.709Q362.569 598.785 347.594 598.659C341.405 598.649 334.665 599.567 328.611 598.122L328.4 597.62L329.839 597.246Z"/>
	<path fill="#4F66EF" d="M292.378 587.824C297.473 586.105 302.042 585.188 307.169 587.591Q307.959 587.965 308.708 588.417Q309.456 588.869 310.155 589.394Q310.854 589.92 311.497 590.513Q312.139 591.106 312.719 591.761Q313.298 592.415 313.808 593.125Q314.319 593.835 314.755 594.593Q315.191 595.351 315.548 596.149Q315.906 596.947 316.181 597.777C317.743 602.398 317.467 607.747 315.167 612.078C312.62 616.875 308.493 619.034 303.611 620.787C302.344 620.915 301.025 620.992 299.753 620.948C295.302 620.795 290.919 618.847 288.002 615.46C284.87 611.823 283.567 606.869 284.084 602.136C284.731 596.219 287.793 591.454 292.378 587.824Z"/>
	<path fill="#8D9BF3" d="M297.114 588.54C299.693 588.469 302.243 588.414 304.712 589.277C308.693 590.67 311.874 593.557 313.53 597.452C315.197 601.372 315.217 606.111 313.464 610.005C311.451 614.48 308.047 616.617 303.626 618.202C301.708 618.48 299.941 618.557 298.031 618.144C294.106 617.296 290.584 615.404 288.412 611.931C286.363 608.655 285.72 604.485 286.584 600.729C287.976 594.68 292.137 591.576 297.114 588.54Z"/>
	<path fill="#C9D4F9" d="M291.213 648.684C292.936 645.936 295.41 644.813 298.516 644.103C306.013 642.389 314.392 642.931 322.057 642.945L350.732 642.993L462.044 642.944L461.991 682.494L356.461 682.227C342.33 682.254 312.295 684.431 300.224 681.399C299.845 681.435 299.465 681.477 299.084 681.491C295.975 681.602 291.254 679.049 289.166 676.924C285.669 673.365 283.602 668.187 283.781 663.193C283.996 657.229 287.016 652.649 291.213 648.684Z"/>
	<path fill="#4F66EF" d="M291.213 648.684C296.969 646.803 302.457 645.6 308.151 648.591C312.344 650.794 315.254 654.676 316.451 659.234C317.648 663.798 317.06 668.882 314.599 672.934C312.005 677.204 307.879 679.728 303.086 680.802Q301.659 681.119 300.224 681.399C299.845 681.435 299.465 681.477 299.084 681.491C295.975 681.602 291.254 679.049 289.166 676.924C285.669 673.365 283.602 668.187 283.781 663.193C283.996 657.229 287.016 652.649 291.213 648.684Z"/>
	<path fill="#8D9BF3" d="M299.385 648.606C301.908 648.649 304.443 649.386 306.702 650.491C310.218 652.212 312.721 655.313 313.864 659.039C315.114 663.113 314.801 667.701 312.704 671.442C310.084 676.115 306.162 677.791 301.264 679.111C298.907 678.72 296.691 678.328 294.553 677.192C290.696 675.143 287.868 671.725 286.726 667.492Q286.523 666.761 286.395 666.013Q286.266 665.266 286.212 664.509Q286.158 663.752 286.18 662.994Q286.201 662.236 286.298 661.483Q286.395 660.731 286.567 659.992Q286.738 659.253 286.982 658.534Q287.226 657.816 287.54 657.125Q287.855 656.435 288.236 655.779C290.832 651.406 294.682 649.76 299.385 648.606Z"/>
	<path fill="#C9D4F9" d="M298.068 525.336C312.033 520.789 333.396 522.267 348.199 522.393L380.356 522.467Q420.932 522.656 461.503 522.004L461.484 562.481L355.766 562.723C338.11 562.79 318.1 563.984 300.805 562.614C297.388 562.343 292.584 562.05 289.977 559.59C288.416 558.116 288.047 556.219 287.731 554.181C286.871 552.651 285.963 551.099 285.325 549.461C283.592 545.012 283.435 539.825 285.424 535.432C287.942 529.87 292.662 527.381 298.068 525.336Z"/>
	<path fill="#FEFEFE" d="M421.77 536.246C428.766 536.035 443.254 534.687 449.031 538.309C450.486 539.221 450.641 540.037 450.926 541.591C450.069 544.75 448.046 546.305 445.67 548.357C441.19 548.579 435.434 549.411 431.19 547.889L431.041 547.275C434.593 545.878 440.122 547.611 444.136 546.67C446.49 546.118 448.672 544.889 449.925 542.787C449.983 541.644 449.956 541.409 449.289 540.464C447.397 537.787 444.528 537.898 441.624 537.737C434.501 537.023 422.417 536.79 415.594 538.606C413.75 539.097 412.353 539.739 411.412 541.463C411.471 542.993 411.933 544.018 413.021 545.129C415.864 548.031 423.12 547.23 426.971 547.355L426.864 547.73C426.336 547.891 425.808 548.062 425.269 548.185C422.19 548.888 416.033 549.371 413.489 547.355C412.09 546.247 411.454 544.034 411.382 542.332C411.31 540.653 411.765 538.667 413.092 537.53C415.026 535.873 419.344 536.313 421.77 536.246Z"/>
	<path fill="#4F66EF" d="M298.068 525.336C304.111 525.934 309.9 526.959 313.922 532.02C316.741 535.566 317.742 540.339 317.038 544.773Q316.894 545.678 316.661 546.564Q316.428 547.45 316.108 548.309Q315.788 549.167 315.385 549.99Q314.981 550.813 314.498 551.591Q314.015 552.37 313.457 553.097Q312.899 553.824 312.272 554.491Q311.645 555.159 310.954 555.762Q310.264 556.364 309.517 556.895C306.026 559.367 301.772 560.51 297.536 559.691C293.784 558.966 290.441 556.811 287.731 554.181C286.871 552.651 285.963 551.099 285.325 549.461C283.592 545.012 283.435 539.825 285.424 535.432C287.942 529.87 292.662 527.381 298.068 525.336Z"/>
	<path fill="#8D9BF3" d="M298.788 528.056C300.842 528.002 303.07 528.321 305.019 528.959C308.689 530.16 311.804 532.631 313.436 536.169C315.085 539.743 315.17 544.1 313.786 547.773C311.778 553.097 307.86 555.483 302.998 557.764Q302.049 557.882 301.093 557.878Q300.137 557.874 299.19 557.747Q298.242 557.621 297.319 557.375Q296.395 557.129 295.51 556.767C291.787 555.229 289.002 552.275 287.591 548.51Q287.315 547.771 287.115 547.007Q286.916 546.243 286.795 545.463Q286.674 544.683 286.633 543.895Q286.592 543.106 286.632 542.318Q286.671 541.53 286.791 540.75Q286.91 539.969 287.108 539.205Q287.306 538.441 287.581 537.701Q287.855 536.961 288.204 536.253C290.448 531.726 294.133 529.556 298.788 528.056Z"/>
	<path fill="#8D9BF3" d="M297.259 388.722C309.273 388.141 321.403 388.731 333.425 388.908Q354.32 389.107 375.215 388.979L425.005 388.839C433.485 388.793 442.297 388.218 450.742 388.762C452.984 388.907 455.384 389.512 457.146 390.984C459.428 392.892 460.017 396.602 460.199 399.397C460.661 406.474 459.881 413.896 459.842 421.011C459.813 426.245 460.571 431.89 459.866 437.06C459.609 438.945 458.983 440.811 457.637 442.201C455.016 444.907 451.539 444.548 448.086 444.574C424.3 445.578 400.274 444.424 376.45 444.431L321.595 444.478C312.653 444.49 296.546 445.798 288.365 443.537C285.853 441.613 285.17 438.928 284.744 435.886C283.806 429.192 282.674 395.503 286.97 390.687C289.141 388.253 294.247 388.806 297.259 388.722Z"/>
	<path fill="#FEFEFE" d="M366.11 395.609C375.254 395.002 383.991 395.529 391.395 401.675C395.924 405.434 398.996 410.866 399.502 416.767C399.952 422.02 398.585 427.497 395.024 431.482C391.045 435.934 385.864 437.387 380.12 437.587C371.647 437.386 362.168 438.938 354.486 434.548C350.223 432.112 347.17 428.363 345.94 423.585Q345.81 423.058 345.706 422.526Q345.602 421.994 345.525 421.457Q345.448 420.92 345.397 420.38Q345.347 419.84 345.324 419.298Q345.3 418.756 345.304 418.214Q345.308 417.671 345.339 417.13Q345.369 416.588 345.427 416.049Q345.485 415.509 345.569 414.974Q345.654 414.438 345.765 413.907Q345.876 413.376 346.014 412.851Q346.151 412.327 346.315 411.81Q346.478 411.292 346.667 410.784Q346.856 410.276 347.071 409.777Q347.285 409.279 347.524 408.792Q347.762 408.305 348.025 407.83Q348.288 407.356 348.574 406.895C352.647 400.334 358.823 397.236 366.11 395.609Z"/>
	<path fill="#4F66EF" d="M371.645 401.912C373.149 401.981 374.398 402.227 375.723 402.988C377.657 404.097 378.867 406.088 379.281 408.244C380.355 413.838 378.176 418.311 375.163 422.763Q376.546 423.271 377.908 423.833C381.545 425.352 382.534 427.607 383.938 431.084C381.171 431.216 378.396 431.16 375.625 431.147C371.189 430.965 366.767 431.202 362.336 430.788C361.832 429.679 361.612 429.445 362.123 428.241C363.224 425.645 366.503 423.664 368.932 422.591C366.029 417.222 365.535 412.828 365.546 406.853C367.369 404.666 369.094 403.19 371.645 401.912Z"/>
	<path fill="#8D9BF3" d="M380.642 287.401C380.777 287.372 380.912 287.347 381.046 287.316C388.371 285.603 402.574 276.181 410.189 272.389C421.163 266.923 432.782 262.301 444.358 258.274Q448.363 256.893 452.404 255.622Q456.445 254.35 460.519 253.189Q464.593 252.028 468.697 250.979Q472.801 249.929 476.933 248.992Q481.064 248.055 485.219 247.23Q489.374 246.406 493.551 245.695Q497.727 244.984 501.921 244.387Q506.115 243.79 510.323 243.308Q514.532 242.825 518.752 242.458Q522.973 242.09 527.201 241.838Q531.43 241.585 535.664 241.448Q539.898 241.311 544.134 241.289Q548.37 241.267 552.606 241.361Q556.841 241.454 561.072 241.663Q565.303 241.872 569.527 242.196Q573.751 242.52 577.964 242.959Q582.178 243.398 586.378 243.952Q590.578 244.506 594.761 245.173Q598.944 245.841 603.108 246.623Q607.271 247.404 611.412 248.299Q615.552 249.194 619.667 250.201Q623.782 251.208 627.868 252.327Q631.954 253.446 636.008 254.676Q640.061 255.905 644.08 257.245Q648.099 258.585 652.08 260.033Q656.061 261.482 660.001 263.039Q663.941 264.595 667.837 266.259Q671.733 267.922 675.582 269.691Q679.431 271.46 683.231 273.333Q687.031 275.206 690.778 277.182Q694.525 279.158 698.217 281.235Q701.909 283.312 705.543 285.489C729.64 299.918 751.42 317.741 771.593 337.22C778.614 343.999 785.707 350.872 791.561 358.711C780.357 354.381 769.238 349.778 757.527 346.968C721.265 338.266 672.623 339.68 638.336 354.864C624.256 361.099 611.353 370.593 605.732 385.458C600.913 398.203 601.68 413.119 607.341 425.479Q608.584 428.181 609.96 430.817C588.754 480.894 574.826 535.637 579.601 590.361C580.931 605.616 583.573 620.889 589.31 635.154C603.556 670.576 632.41 697.354 667.278 712.06Q674.516 715.13 682.067 717.321Q689.617 719.512 697.374 720.794Q700.951 753.03 704.178 785.302C665.889 789.239 627.919 815.975 603.975 845.379C599.536 850.83 595.573 856.674 591.776 862.584C589.884 865.529 587.892 869.783 585.486 872.244C520.98 885.582 456.247 881.908 394.988 857.041C382.074 851.799 369.581 846.167 357.543 839.124C361.093 829.684 364.23 820.026 367.336 810.431C369.513 803.705 371.475 796.81 374.408 790.364C382.591 772.38 403.246 754.306 417.793 741.01L443.796 741.012C460.336 741.01 476.686 741.292 489.175 728.695C502.107 715.651 501.659 698.743 501.627 681.632L501.547 655.251C510.49 651.781 552.186 625.497 558.159 618.844C562.088 614.469 563.882 607.788 563.446 602.004Q563.405 601.421 563.334 600.84Q563.263 600.259 563.164 599.683Q563.064 599.107 562.935 598.537Q562.806 597.966 562.648 597.403Q562.49 596.84 562.304 596.286Q562.118 595.731 561.904 595.187Q561.69 594.643 561.449 594.11Q561.207 593.577 560.94 593.057Q560.672 592.537 560.378 592.032Q560.084 591.526 559.765 591.036Q559.445 590.546 559.102 590.073Q558.758 589.6 558.391 589.145Q558.024 588.689 557.634 588.253Q557.245 587.817 556.833 587.401Q556.422 586.986 555.99 586.591Q555.558 586.197 555.107 585.825C547.265 579.45 538.029 579.953 528.628 580.931C537.012 575.526 545.851 570.373 553.866 564.451C559.89 560 564.577 554.24 565.584 546.572C566.494 539.642 564.141 532.659 559.747 527.302C554.296 520.654 547.022 518.908 538.887 518.26C546.926 513.21 555.92 508.997 563.097 502.736C568.341 498.161 571.705 492 572.053 484.97Q572.089 484.327 572.094 483.683Q572.099 483.038 572.072 482.395Q572.045 481.751 571.986 481.109Q571.927 480.468 571.837 479.83Q571.747 479.192 571.626 478.56Q571.504 477.927 571.351 477.301Q571.199 476.675 571.016 476.057Q570.833 475.44 570.619 474.832Q570.406 474.224 570.163 473.627Q569.92 473.031 569.647 472.447Q569.375 471.863 569.075 471.293Q568.774 470.723 568.446 470.169Q568.117 469.615 567.762 469.077Q567.407 468.54 567.026 468.02Q566.644 467.501 566.238 467.001Q565.832 466.501 565.401 466.022C559.134 459.124 551.3 457.75 542.484 457.452C553.038 450.461 568.915 444.733 572.253 431.128C574.008 423.976 572.528 416.136 568.518 409.995C564.695 404.14 558.786 399.898 551.864 398.594C547.985 397.863 544.183 398.074 540.393 399.152C529.094 402.366 511.694 415.248 501.482 422.068L501.473 398.711C517.348 387.596 534.337 378.612 550.685 368.311C557.839 363.803 563.583 358.973 565.411 350.242Q565.554 349.565 565.663 348.881Q565.771 348.198 565.845 347.51Q565.92 346.822 565.959 346.131Q565.998 345.44 566.003 344.748Q566.008 344.056 565.977 343.364Q565.947 342.673 565.882 341.984Q565.817 341.295 565.717 340.61Q565.618 339.925 565.484 339.246Q565.35 338.567 565.182 337.896Q565.014 337.224 564.812 336.562Q564.611 335.9 564.376 335.249Q564.141 334.598 563.874 333.96Q563.607 333.321 563.308 332.697Q563.01 332.073 562.68 331.464Q562.35 330.856 561.99 330.265Q561.629 329.674 561.24 329.102Q560.884 328.562 560.501 328.042Q560.118 327.521 559.71 327.02Q559.301 326.519 558.868 326.039Q558.435 325.559 557.978 325.102Q557.521 324.644 557.041 324.211Q556.562 323.777 556.062 323.368Q555.561 322.958 555.041 322.575Q554.52 322.192 553.981 321.835Q553.442 321.478 552.885 321.149Q552.329 320.82 551.757 320.519Q551.184 320.218 550.598 319.947Q550.011 319.675 549.411 319.434Q548.812 319.192 548.201 318.981Q547.59 318.77 546.969 318.589Q546.348 318.409 545.719 318.261Q545.09 318.112 544.454 317.995C529.662 315.295 513.054 329.551 501.422 337.431C501.049 323.655 500.176 310.186 490.124 299.682C485.01 294.338 478.51 290.862 471.353 289.118C458.797 286.058 444.788 287.648 431.925 287.697Q406.282 287.823 380.642 287.401Z"/>
</svg>
