<?xml version="1.0" encoding="utf-8" ?>
<svg xmlns="http://www.w3.org/2000/svg" xmlns:xlink="http://www.w3.org/1999/xlink" width="1024" height="1024">
	<path fill="#7377F7" d="M463.028 241.534C464.322 241.428 465.719 241.353 467.008 241.512C475.451 242.555 484.507 257.344 489.386 263.902C494.361 257.212 501.196 244.101 510.068 242.642C512.894 242.177 515.999 242.809 518.313 244.528C520.369 246.055 521.56 248.282 521.773 250.824C522.409 258.399 514.859 265.608 510.372 270.999C503.813 279.416 497.263 287.577 489.923 295.323C479.834 283.229 465.947 269.391 457.87 256.149C456.378 253.704 455.145 251.224 455.982 248.321C456.991 244.819 459.981 243.077 463.028 241.534Z"/>
	<path fill="#0B0304" d="M324.253 521.13C359.306 543.275 385.636 543.939 425.023 537.813C435.106 536.245 445.726 535.027 455.325 531.482C469.761 526.15 484.228 512.134 500.083 512.536C502.776 512.604 505.496 513.366 508.107 513.989L508.476 515.176C487.775 510.419 476.594 524.063 458.557 531.417C449.626 535.059 440.019 536.735 430.535 538.238C434.474 553.096 437.503 567.744 438.298 583.132C438.68 590.522 438.414 597.937 438.639 605.331Q454.108 602.426 469.514 599.203C469.417 592.079 469.531 584.564 475.032 579.193C476.057 578.193 477.504 577.121 479.005 577.119C480.48 577.118 481.735 578.203 482.559 579.329C484.963 582.611 485.534 586.469 486.008 590.378C488.146 585.764 490.864 578.876 495.94 576.785C497.461 576.159 499.221 576.252 500.712 576.917C502.768 577.835 504.112 579.803 505.39 581.567C507.692 580.661 510.871 578.958 513.355 579.855C515.151 580.504 515.933 582.315 516.489 583.992C516.856 585.1 517.154 586.234 517.455 587.362C519.488 588.066 522.072 588.738 523.805 590.026C527.237 592.576 533.378 601.416 538.188 598.942C538.805 598.625 539.36 598.149 539.898 597.723L540.654 598.638C537.552 601.196 534.819 601.208 530.915 600.871C526.774 605.437 520.596 612.324 513.978 612.5C512.129 612.549 510.062 611.348 508.418 610.581C505.848 611.463 502.557 613.034 499.914 611.822C499.372 611.081 498.909 610.345 498.414 609.576C497.891 608.765 497.312 608.209 496.353 607.943C491.415 606.575 490.658 613.687 484.878 606.236Q484.301 605.484 483.762 604.704C481.104 605.806 477.712 607.698 474.854 606.215C472.586 605.038 471.21 602.542 470.035 600.368C454.021 603.837 437.732 607.666 421.452 609.531L421.092 608.624C426.339 607.736 431.559 606.818 436.762 605.696C439.846 587.705 433.746 556.232 429.108 538.293C389.981 546.947 359.003 544.165 324.362 522.639L324.253 521.13Z"/>
	<path fill="#FEFEFE" d="M529.537 600.118C529.747 600.287 529.783 600.598 529.887 600.846C524.741 605.569 519.466 610.7 512.203 611.506C511.39 610.474 511 609.693 510.602 608.442C510.68 607.601 510.725 606.897 511.27 606.199C514.265 602.366 524.916 601.283 529.537 600.118Z"/>
	<path fill="#FEFEFE" d="M517.034 588.697C522.931 591.213 526.578 592.952 530.072 598.556L523.877 600.295L512.33 602.934C514.039 598.218 515.719 593.543 517.034 588.697Z"/>
	<path fill="#FEFEFE" d="M476.237 579.894C476.806 579.824 477.149 579.766 477.751 579.777C479.427 579.807 480.787 580.345 481.935 581.587C484.333 584.183 484.386 588.357 484.164 591.671C483.813 596.925 482.713 602.002 478.609 605.561C477.117 605.341 475.823 605.11 474.576 604.201C472.385 602.606 471.44 599.856 471.182 597.255C470.539 590.773 472.112 584.891 476.237 579.894Z"/>
	<path fill="#FEFEFE" d="M509.066 580.857C509.897 580.924 510.937 580.938 511.724 581.204C513.04 581.649 513.859 582.511 514.484 583.721C516.518 587.66 514.427 593.845 513.011 597.767C511.291 602.528 509.221 608.715 504.411 610.999C502.587 610.767 500.875 610.521 499.542 609.126C498.182 607.704 497.793 605.705 497.862 603.796C498.143 596.015 503.481 586.119 509.066 580.857Z"/>
	<path fill="#FEFEFE" d="M497.896 577.316C499.555 577.581 501.298 578.276 502.209 579.783C505.093 584.552 499.179 594.602 497.388 599.102C496.511 601.306 495.921 603.634 495.355 605.934C493.528 606.812 491.639 607.592 489.786 608.415C488.501 607.701 487.272 606.951 486.319 605.804C484.652 603.795 484.292 601.071 484.592 598.552C485.597 590.119 491.375 582.333 497.896 577.316Z"/>
	<path fill="#1D030F" d="M349.506 612.385Q359.297 641.384 368.368 670.616C372.72 684.165 378.421 698.464 380.417 712.587C381.934 723.316 380.956 736.576 374.103 745.44Q373.259 746.553 372.293 747.563Q371.326 748.572 370.251 749.464Q369.175 750.355 368.004 751.118Q366.833 751.88 365.582 752.503C358.437 755.973 350.611 758.175 343.098 760.718Q328.637 765.677 314.228 770.783L277.712 783.699C264.59 788.467 251.091 794.47 237.18 796.333C224.891 797.98 211.226 793.53 201.476 786.125C194.077 780.505 187.648 772.836 184.07 764.213C181.194 757.279 179.208 749.972 177.031 742.8L167.594 711.577L139.795 621.293Q116.021 545.745 93.2183 469.898L81.6788 432.14C77.0637 417.303 72.071 402.349 70.005 386.89C68.1297 372.859 69.586 358.425 78.5864 346.923C88.1178 334.743 101.27 329.37 116.294 327.663C130.487 326.05 144.884 325.763 159.128 324.483Q187.145 321.808 215.222 319.86C223.995 319.246 233.698 317.801 242.426 318.829C248.752 319.574 254.157 321.988 259.116 325.963C263.604 329.56 267.36 334.022 269.629 339.335C275.238 352.473 278.793 366.959 282.849 380.654L305.259 457.246L318.756 501.011C320.589 506.997 323.644 514.174 324.194 520.328C324.218 520.595 324.233 520.863 324.253 521.13L324.362 522.639C359.003 544.165 389.981 546.947 429.108 538.293C433.746 556.232 439.846 587.705 436.762 605.696C431.559 606.818 426.339 607.736 421.092 608.624L421.452 609.531C403.081 613.794 368.184 616.063 349.506 612.385ZM236.28 326.703C220.007 327.83 208.536 327.731 194.111 336.612C188.155 340.279 182.699 344.39 176.071 346.808C158.682 342.136 148.15 335.603 129.459 337.997C124.318 338.655 118.988 339.826 114.46 342.453C107.635 346.412 103.35 353.178 101.444 360.716C100.129 365.913 100.123 371.336 101.061 376.596C103.197 388.566 108.284 401.744 111.643 413.615Q121.984 450.595 133.344 487.274C138.868 505.24 144.87 522.908 149.592 541.125C152.252 521.163 162.206 501.119 178.313 488.677C187.848 481.312 198.289 477.836 209.808 474.827C209.226 464.589 209.639 444.501 206.548 435.637C203.253 426.191 196.388 418.715 194.499 408.532C194.362 400.478 196.336 394.507 202.024 388.661C209.557 380.921 224.286 372.165 235.366 371.974C238.908 371.913 242.382 372.977 244.966 375.473C247.868 378.276 249.618 382.784 249.503 386.805C249.402 390.384 247.764 393.238 245.979 396.211C248.174 404.342 257.286 435.725 253.545 441.947C252.174 444.229 249.427 445.475 246.923 445.996C243.649 446.678 240.029 446.475 236.713 446.211C238.61 455.5 240.481 465.241 243.259 474.31C276.274 480.061 292.709 500.231 319.404 517.136C307.188 479.086 296.456 440.388 285.453 401.968Q280.002 382.861 274.137 363.877C271.75 356.05 269.804 347.869 266.118 340.527Q265.639 339.579 265.085 338.672Q264.531 337.764 263.907 336.904Q263.283 336.044 262.593 335.236Q261.902 334.429 261.149 333.679Q260.397 332.929 259.586 332.241Q258.776 331.553 257.914 330.932Q257.051 330.311 256.142 329.761Q255.233 329.211 254.283 328.735C248.758 326.029 242.282 325.965 236.28 326.703ZM119.285 328.765C104.229 330.482 89.2893 335.677 79.577 347.98C71.162 358.64 69.4635 372.032 71.0824 385.152C72.4467 396.209 75.8018 406.9 78.9774 417.542L90.0806 454.036Q109.569 519.819 130.167 585.264L167.467 706.409L177.818 740.941C179.946 748.11 181.793 755.473 184.639 762.397C188.162 770.971 193.245 778.086 200.586 783.809C208.495 789.974 217.714 793.597 227.623 794.931C234.206 795.433 240.189 794.514 246.515 792.677C233.896 790.514 223.952 787.705 216.23 776.701C205.845 761.9 192.526 708.32 186.426 688.017L160.777 604.279L112.369 445.789L99.0019 401.127C96.5627 392.944 93.8446 384.726 91.8599 376.423C90.296 369.881 89.7755 363.173 91.0354 356.53Q91.1887 355.72 91.3824 354.919Q91.5761 354.119 91.8097 353.328Q92.0434 352.538 92.3164 351.761Q92.5894 350.983 92.9011 350.22Q93.2128 349.458 93.5624 348.712Q93.912 347.965 94.2986 347.238Q94.6852 346.51 95.1078 345.803Q95.5304 345.095 95.988 344.41Q96.4456 343.725 96.937 343.063Q97.4285 342.402 97.9525 341.766Q98.4765 341.13 99.0317 340.521Q99.587 339.912 100.172 339.332Q100.757 338.752 101.371 338.202Q101.984 337.652 102.624 337.133Q103.265 336.615 103.93 336.129Q104.596 335.643 105.285 335.191C108.624 332.963 118.476 330.124 119.773 328.822L119.285 328.765Z"/>
	<path fill="#FEFEFE" d="M244.176 398.49L244.657 398.697C245.164 399.474 245.566 400.17 245.867 401.054C248.489 408.758 255.768 434.073 251.986 440.984Q251.788 441.349 251.554 441.691Q251.32 442.033 251.052 442.349Q250.783 442.666 250.484 442.953Q250.184 443.24 249.857 443.494Q249.529 443.748 249.177 443.968Q248.825 444.187 248.452 444.369Q248.079 444.55 247.69 444.693Q247.3 444.835 246.898 444.936C239.951 446.729 232.543 443.092 226.816 439.491C223.043 436.417 220.102 432.812 218.489 428.174C217.73 425.994 216.763 423.159 217.846 420.969C221.379 419.736 223.734 423.84 227.215 423.888C227.988 423.347 228.378 423.228 228.799 422.346C231.067 417.594 228.709 409.817 227.022 405.254C233.035 403.446 238.621 401.444 244.176 398.49Z"/>
	<path fill="#FEFEFE" d="M219.484 434.933C224.367 439.634 229.181 443.019 235.299 445.941C236.697 453.136 244.542 476.003 241.351 481.585C239.397 485.001 235.162 486.08 231.647 487.113C226.279 487.242 220.473 486.085 216.348 482.443Q215.499 481.681 214.755 480.815Q214.012 479.949 213.387 478.994Q212.763 478.039 212.268 477.011Q211.773 475.983 211.415 474.899C208.289 465.731 209.349 448.862 208.855 438.677C210.402 438.888 212.142 439.203 213.698 439.017C216.368 438.696 217.838 436.862 219.484 434.933Z"/>
	<path fill="#7377F7" d="M273.55 486.253C282.085 490.751 289.49 496.779 297.073 502.665C305.971 509.573 314.889 516.528 324.362 522.639C359.003 544.165 389.981 546.947 429.108 538.293C433.746 556.232 439.846 587.705 436.762 605.696C431.559 606.818 426.339 607.736 421.092 608.624C382.821 614.132 343.324 616.32 307.697 598.301C305.121 591.992 303.393 585.304 301.476 578.777L293.73 552.955C287.084 530.728 279.801 508.58 273.55 486.253Z"/>
	<path fill="#1D030F" d="M96.3273 440.757C97.5394 440.861 98.6313 440.977 99.7277 441.553C103.548 443.56 105.91 452.046 107.112 455.871C109.214 462.561 113.809 473.929 110.449 480.392C108.856 480.594 107.671 480.75 106.093 480.273C104.901 479.352 104.338 478.335 103.704 476.974C100.842 470.837 95.2759 451.194 95.3501 444.707C95.3656 443.349 95.8666 442.018 96.3273 440.757Z"/>
	<path fill="#1D030F" d="M82.3216 391.366C84.0587 391.425 85.5058 391.456 86.8589 392.729C91.7389 397.322 97.2677 418.731 97.4455 425.333C97.5102 427.732 96.9049 428.864 95.2992 430.608C94.1787 430.493 92.8243 430.376 91.8777 429.721C87.5538 426.726 80.9343 401.432 80.614 395.687C80.502 393.677 80.9886 392.817 82.3216 391.366Z"/>
	<path fill="#FEFEFE" d="M307.842 600.375C319.951 605.574 332.928 610.559 346.142 611.656C348.339 620.312 351.326 628.744 354.028 637.25L364.823 671.565C367.706 680.543 371.34 689.728 372.916 699.038Q373.25 701.083 373.416 703.149Q373.581 705.215 373.576 707.288Q373.571 709.36 373.396 711.425Q373.221 713.49 372.877 715.534C371.686 722.492 368.707 729.412 362.654 733.465C355.82 738.04 346.364 740.054 338.61 742.706L296.383 757.019C282.619 761.706 268.697 767.904 254.516 771.029C248.538 772.346 243.349 772.449 237.35 771.287C234.364 770.222 231.387 768.858 228.666 767.232C212.628 757.647 211.425 740.174 206.426 723.893C203.35 713.874 199.633 704.214 197.113 694.016Q234.598 693.209 272.091 692.99C293.02 693.049 314.314 694.078 335.194 692.54C326.633 661.629 316.906 631.127 307.842 600.375Z"/>
	<path fill="#7377F7" d="M246.708 475.747C255.297 477.762 263.874 480.751 271.349 485.492C274.791 493.111 276.723 501.619 279.079 509.631L290.905 549.605Q312.64 620.4 333.391 691.489L233.754 692.009C230.97 676.211 226.541 660.407 222.968 644.75C217.193 623.993 213.014 602.613 207.831 581.675C205.661 572.909 203.953 562.884 200.069 554.753C201.059 570.268 207.067 586.283 210.757 601.365Q220.847 642.431 230.188 683.675Q212.155 683.168 194.132 683.97C184.716 652.326 174.613 620.854 164.843 589.314C160.73 576.037 154.981 561.336 152.097 547.867C149.17 534.196 156.39 517.763 163.826 506.571Q164.784 505.112 165.814 503.703Q166.843 502.293 167.941 500.936Q169.038 499.579 170.202 498.278Q171.366 496.977 172.592 495.736Q173.819 494.494 175.105 493.314Q176.392 492.135 177.735 491.02Q179.078 489.906 180.475 488.859Q181.872 487.813 183.319 486.837Q184.766 485.861 186.259 484.957Q187.752 484.054 189.289 483.226Q190.825 482.397 192.4 481.646Q193.976 480.895 195.587 480.222Q197.197 479.55 198.839 478.958Q200.481 478.366 202.15 477.856Q203.82 477.347 205.512 476.92Q207.205 476.493 208.916 476.151C210.011 477.699 209.741 485.71 210.384 488.247C211.813 493.887 214.649 499.287 218.013 504.005C223.683 511.957 232.167 519.337 242.137 520.796C245.595 521.302 249.395 521.168 252.23 518.877C256.069 515.774 257.38 510.066 257.788 505.384C258.817 493.588 254.049 484.586 246.708 475.747Z"/>
	<path fill="#1D030F" d="M717.94 460.48C717.996 460.15 718.038 459.817 718.108 459.49C719.052 455.087 720.662 450.622 721.919 446.288Q725.702 433.45 729.11 420.507C734.112 401.401 738.811 382.269 744.266 363.281C746.875 354.197 749.128 344.632 753.214 336.085C755.693 330.899 759.204 326.706 764.079 323.618C769.045 320.471 774.496 319.136 780.318 318.94C788.552 318.662 797.207 319.939 805.429 320.599Q827.54 322.42 849.672 323.971C862.276 324.858 874.887 325.872 887.503 326.558C896.535 327.05 906.2 326.55 915.03 328.586C927.957 330.603 939.856 337.428 947.613 348.055C954.74 357.82 958.811 370.534 956.843 382.615C954.736 395.543 948.163 409.933 944.139 422.657Q929.193 469.532 914.96 516.627L867.078 677.128L852.049 729.381C848.923 740.384 846.228 751.893 842.073 762.553C838.308 772.215 832.032 780.918 823.562 786.982C811.768 795.426 796.146 798.228 781.975 795.806C779.238 795.339 776.458 794.699 773.822 793.823C766.454 792.959 737.49 780.873 728.802 777.745L687.307 762.952C677.492 759.543 666.127 756.838 657.186 751.484C645.631 744.565 642.307 732.16 642.337 719.483C642.378 702.659 651.118 680.96 655.776 664.28L686.35 556.274C687.47 552.218 692.819 536.162 692.135 533.506L691.225 533.648C667.886 539.493 644.805 546.371 621.532 552.484Q605.141 556.727 588.81 561.195C583.702 562.606 578.004 563.785 573.164 565.932C570.795 566.982 569.642 568.877 568.36 571.036C566.755 573.743 563.103 582.077 560.151 582.762C559.144 582.996 557.798 582.87 556.754 582.87C554.022 586.475 554.916 589.786 550.691 592.795Q547.179 593.619 543.627 594.245C542.642 595.694 541.546 597.134 540.654 598.638L539.898 597.723C539.36 598.149 538.805 598.625 538.188 598.942C533.378 601.416 527.237 592.576 523.805 590.026C522.072 588.738 519.488 588.066 517.455 587.362C517.154 586.234 516.856 585.1 516.489 583.992C515.933 582.315 515.151 580.504 513.355 579.855C510.871 578.958 507.692 580.661 505.39 581.567C504.112 579.803 502.768 577.835 500.712 576.917C499.221 576.252 497.461 576.159 495.94 576.785C490.864 578.876 488.146 585.764 486.008 590.378C485.534 586.469 484.963 582.611 482.559 579.329C481.735 578.203 480.48 577.118 479.005 577.119C477.504 577.121 476.057 578.193 475.032 579.193C469.531 584.564 469.417 592.079 469.514 599.203Q454.108 602.426 438.639 605.331C438.414 597.937 438.68 590.522 438.298 583.132C437.503 567.744 434.474 553.096 430.535 538.238C440.019 536.735 449.626 535.059 458.557 531.417C476.594 524.063 487.775 510.419 508.476 515.176L508.107 513.989C511.123 514.747 514.211 515.646 517.276 516.153C520.951 516.761 523.781 516.123 527.331 515.212C545.731 510.489 563.798 504.215 582.072 498.986L669.254 474.49C676.408 472.496 714.46 462.998 717.94 460.48Z"/>
	<path fill="#FEFEFE" d="M843.732 332.666Q845.075 332.637 846.418 332.676C848.853 332.757 852.644 333.232 854.42 335.103C853.997 335.519 853.452 336.245 852.888 336.422C849.193 336.542 845.84 336.738 842.661 334.501C842.937 333.914 843.168 332.994 843.732 332.666Z"/>
	<path fill="#FEFEFE" d="M804.509 418.303C805.794 418.623 807.304 419.051 808.468 419.683C809.627 420.312 809.904 420.914 810.236 422.126C809.724 423.722 808.815 424.268 807.524 425.202C805.849 425.593 804.797 425.745 803.151 425.039C802.247 423.94 801.906 423.581 802.028 422.054C802.155 420.453 803.444 419.357 804.509 418.303Z"/>
	<path fill="#FEFEFE" d="M580.29 532.022C583.931 535.953 588.403 553.863 589.916 559.683C584.471 561.367 578.545 563.675 572.873 564.202C572.236 564.261 572.55 564.304 571.909 563.764C569.401 556.303 565.554 552.091 559.672 547.15C567.225 542.566 574.024 538.321 580.29 532.022Z"/>
	<path fill="#FEFEFE" d="M784.822 400.276C786.713 401.689 788.569 404.897 790.023 406.847C792.778 406.317 795.221 405.812 797.883 406.977C799.68 407.763 801.031 409.104 801.731 410.947C803.283 415.031 801.687 418.838 799.985 422.525L802.068 427.772C800.467 435.345 796.821 443.035 797.935 450.931C798.669 456.14 800.541 460.983 800.594 466.305L800.597 467.057C798.466 470.48 795.775 473.722 791.907 475.21C787.547 476.889 783.574 475.745 779.477 474.045C778.944 473.621 778.475 473.218 778 472.731C776.506 471.199 775.528 469.437 775.616 467.245C775.87 460.866 782.116 455.695 783.869 449.641C785.09 445.427 783.75 439.537 786.572 435.92C788.855 432.995 793.528 432.023 796.356 429.466C796.474 429.36 796.588 429.249 796.703 429.141L795.684 429.641C791.409 431.704 785.812 434.062 781.042 432.189C779.458 431.566 778.418 430.404 777.751 428.866C773.967 420.13 781.465 408.169 784.822 400.276Z"/>
	<path fill="#FEFEFE" d="M570.631 504.071L571.696 504.415C575.492 510.352 578.093 522.654 579.955 529.753C574.027 537.054 566.278 541.464 558.234 546.041C549.664 540.319 540.486 536.217 530.235 534.689C519.991 533.162 510.77 534.393 502.306 540.59Q500.226 542.516 498.075 544.364C496.13 546.007 492.736 548.598 490.069 548.144C489.341 548.02 489.188 547.494 488.783 546.946C488.382 543.791 489.662 540.822 491.186 538.111C494.071 532.979 498.518 527.96 503.568 524.873C513.22 518.973 525.761 516.688 536.569 513.656L570.631 504.071Z"/>
	<path fill="#FEFEFE" d="M430.535 538.238C440.019 536.735 449.626 535.059 458.557 531.417C476.594 524.063 487.775 510.419 508.476 515.176C511.24 515.917 514.021 516.615 516.741 517.508C505.949 521.516 494.088 527.085 489.131 538.355C487.856 541.254 486.223 545.823 487.497 548.957C487.818 549.749 488.38 549.958 489.046 550.434C492.002 550.86 494.777 549.373 497.059 547.605C499.775 545.502 502.053 542.899 504.709 540.735C511.034 535.58 520.182 534.806 527.989 535.665C540.72 537.066 557.626 544.466 565.615 554.639C567.776 557.389 570.889 562.816 569.926 566.489C569.597 567.746 568.918 568.447 567.699 568.88C566.074 569.458 564.545 568.741 563.224 567.843C560.789 566.187 558.752 563.83 556.708 561.729C550.785 555.641 545.577 552.658 537.434 550.317C537.583 550.445 537.729 550.576 537.88 550.701C540.499 552.865 543.524 554.318 546.489 555.939C554.17 560.139 559.509 565.211 563.364 573.119C562.667 576.099 562.308 579.301 559.791 581.321C558.62 581.505 558.398 581.399 557.37 580.694C552.38 577.275 541.515 563.482 535.3 564.135L534.57 564.803C539.298 570.689 555.111 572.218 553.889 584.425C553.615 587.161 551.671 589.665 550.072 591.782C548.642 591.75 547.759 591.831 546.651 590.82C540.797 585.476 543.128 582.852 533.569 578.87C536.339 581.311 539.46 583.569 542.049 586.175C541.76 590.169 541.765 594.093 539.898 597.723C539.36 598.149 538.805 598.625 538.188 598.942C533.378 601.416 527.237 592.576 523.805 590.026C522.072 588.738 519.488 588.066 517.455 587.362C517.154 586.234 516.856 585.1 516.489 583.992C515.933 582.315 515.151 580.504 513.355 579.855C510.871 578.958 507.692 580.661 505.39 581.567C504.112 579.803 502.768 577.835 500.712 576.917C499.221 576.252 497.461 576.159 495.94 576.785C490.864 578.876 488.146 585.764 486.008 590.378C485.534 586.469 484.963 582.611 482.559 579.329C481.735 578.203 480.48 577.118 479.005 577.119C477.504 577.121 476.057 578.193 475.032 579.193C469.531 584.564 469.417 592.079 469.514 599.203Q454.108 602.426 438.639 605.331C438.414 597.937 438.68 590.522 438.298 583.132C437.503 567.744 434.474 553.096 430.535 538.238Z"/>
	<path fill="#FEFEFE" d="M908.259 329.51L914.583 329.864C927.737 331.872 938.743 338.907 946.616 349.623Q947.296 350.531 947.929 351.472Q948.563 352.413 949.148 353.384Q949.733 354.356 950.269 355.355Q950.805 356.355 951.289 357.38Q951.774 358.406 952.207 359.454Q952.64 360.503 953.019 361.571Q953.399 362.64 953.724 363.727Q954.049 364.813 954.319 365.915Q954.59 367.016 954.804 368.13Q955.019 369.244 955.177 370.367Q955.336 371.49 955.437 372.62Q955.539 373.749 955.584 374.882Q955.629 376.016 955.617 377.15Q955.604 378.284 955.535 379.416Q955.466 380.548 955.34 381.675Q955.214 382.803 955.032 383.922C953.754 391.625 950.556 399.333 948.064 406.717Q943.867 419.439 939.887 432.23Q923.037 485.616 906.843 539.204L861.19 692.69C856.49 708.607 852.359 724.682 847.673 740.599C845.547 747.818 843.551 755.358 840.726 762.337C836.93 771.712 830.811 779.707 822.498 785.494C810.665 793.732 795.564 796.574 781.449 793.943Q778.438 793.368 775.456 792.654C780.092 790.774 786.794 790.544 792.315 788.325C803.816 783.702 811.027 774.918 815.713 763.687C819.44 754.754 821.696 745.124 824.34 735.824L836.554 693.451L880.266 544.306Q898.013 484.601 917.076 425.304C920.158 415.571 923.088 405.766 926.397 396.107C928.631 389.587 931.58 382.962 933.146 376.263C935.169 367.614 934.908 357.903 931.462 349.641C927.018 338.986 918.517 333.755 908.259 329.51Z"/>
	<path fill="#1D030F" d="M937.544 392.32C939.193 392.567 941.173 392.859 942.36 394.148C943.21 395.071 943.509 396.202 943.482 397.429C943.328 404.427 937.182 424.016 932.321 428.924C931.11 428.926 929.397 428.901 928.315 428.287C927.628 427.897 927.095 427.486 926.844 426.724C924.786 420.464 934.302 397.926 937.544 392.32Z"/>
	<path fill="#1D030F" d="M922.229 443.907C923.896 444.063 925.477 444.142 926.498 445.706C927.829 447.746 927.506 451.09 927.149 453.372C926.101 460.069 921.482 477.408 916.011 481.377C915.4 481.186 915.445 481.214 914.752 480.918C913.195 480.256 911.486 479.249 911.04 477.475C909.619 471.82 918.73 448.942 922.229 443.907Z"/>
	<path fill="#FEFEFE" d="M700.433 531.304C709.107 528.551 718.001 526.361 726.87 524.326C725.893 531.315 724.013 538.248 722.506 545.146L715.074 579.938L690.7 696.121C695.706 697.53 718.899 696.48 725.809 696.476L819.478 696.492C819.467 690.832 820.008 685.198 820.578 679.573L827.916 680.181C829.277 680.282 830.243 680.402 831.53 680.915C830.901 688.385 824.61 705.263 822.199 713.499C818.892 724.794 816.573 736.669 812.254 747.621C808.501 757.14 802.533 764.42 792.978 768.491C785.953 771.484 778.101 772.158 770.58 771.089C754.709 768.834 738.734 761.144 723.694 755.719C705.582 749.186 687.121 743.165 669.282 735.926C661.942 732.948 654.972 728.982 651.866 721.264C649.071 714.32 648.965 706.701 650.199 699.411C651.706 690.503 654.727 681.87 657.284 673.225L669.18 632.44L687.78 566.242C689.604 559.629 694.633 537.989 697.495 533.197C698.283 531.877 699.098 531.79 700.433 531.304Z"/>
	<path fill="#FEFEFE" d="M778.237 327.64C787.874 326.447 813.813 329.025 822.693 333.029C830.465 336.533 836.686 343.577 845.607 344.336C852.178 344.895 858.195 342.774 864.333 340.762C876.807 336.673 888.599 334.697 901.489 338.289C909.049 340.395 915.022 344.413 918.904 351.369C922.239 357.344 923.735 364.89 923.108 371.689C921.761 386.299 913.824 407.467 909.392 422.027L887.788 492.885C883.768 505.951 879.413 518.942 875.731 532.105Q875.442 527.728 874.771 523.394C871.457 501.755 861.496 484.945 843.924 471.933C840.997 469.862 837.74 468.153 834.637 466.351C838.936 451.753 843.842 435.145 841.254 419.862C840.215 413.73 836.994 408.575 835.127 402.739C833.885 398.855 833.217 394.732 831.547 390.999C825.574 377.651 816.982 384.57 806.916 381.107C804.49 380.273 802.257 378.454 800.177 376.976C795.673 377.065 791.785 377.318 787.595 379.264C778.829 383.335 770.306 394.868 769.915 404.752C769.736 409.295 770.902 413.519 769.687 418.017C766.542 429.663 760.704 440.996 756.593 452.379C744.865 453.713 733.775 456.336 722.42 459.482Q731.691 423.764 741.558 388.207C744.627 376.926 751.236 346.958 756.48 339.06C761.39 331.666 769.996 329.074 778.237 327.64Z"/>
	<path fill="#FEFEFE" d="M718.949 462.07C732.592 458.02 747.141 453.926 761.453 453.637C767.802 453.509 774.259 454.196 780.586 454.684C777.774 458.649 773.307 463.382 774.042 468.564C774.416 471.199 775.96 473.352 778.092 474.884C781.525 477.351 786.172 478.027 790.263 477.219C794.127 476.456 797.633 474.283 799.771 470.939C802.159 467.203 802.157 463.506 802.002 459.262C824.898 462.981 846.14 470.024 860.27 489.683C870.267 503.59 875.787 522.879 872.913 539.936C871.796 546.567 869.469 553.082 867.504 559.507Q863.091 573.856 858.837 588.254L839.993 652.087C837.639 659.899 835.767 667.857 833.345 675.656C832.945 676.945 832.591 678.528 831.447 679.34L829.87 679.183L827.916 680.181L820.578 679.573C820.008 685.198 819.467 690.832 819.478 696.492L725.809 696.476C718.899 696.48 695.706 697.53 690.7 696.121L715.074 579.938L722.506 545.146C724.013 538.248 725.893 531.315 726.87 524.326C718.001 526.361 709.107 528.551 700.433 531.304L698.462 530.131Q693.336 531.432 688.287 533.005C677.049 535.672 665.91 539.035 654.76 542.066L591.298 559.008C589.435 551.781 586.722 544.633 584.358 537.548C580.533 526.084 576.858 514.638 573.638 502.984C592.345 496.985 611.502 492.19 630.412 486.861C659.904 478.549 689.354 470.003 718.949 462.07Z"/>
	<path fill="#0B0304" d="M734.613 492.395C734.285 502.627 731.292 512.582 729.057 522.525Q725.055 540.526 721.261 558.572L703.061 645.715C699.593 662.126 696.292 678.684 692.29 694.969C698.56 695.005 704.895 694.852 711.156 695.111C722.965 694.344 735.236 694.964 747.084 694.969L817.989 695.081L823.301 603.39C824.009 592.334 824.58 570.343 826.946 560.494L827.778 560.564L827.013 559.979L827.51 559.567C828.926 562.872 820.744 663.592 820.477 678.378C823.624 678.414 826.746 678.832 829.87 679.183L827.916 680.181L820.578 679.573C820.008 685.198 819.467 690.832 819.478 696.492L725.809 696.476C718.899 696.48 695.706 697.53 690.7 696.121L715.074 579.938L722.506 545.146C724.013 538.248 725.893 531.315 726.87 524.326C718.001 526.361 709.107 528.551 700.433 531.304L698.462 530.131C707.857 527.226 717.54 524.293 727.247 522.656C729.296 512.561 730.375 501.852 734.613 492.395Z"/>
</svg>
